<svg id="Layer_1" data-name="Layer 1" xmlns="http://www.w3.org/2000/svg" xmlns:xlink="http://www.w3.org/1999/xlink" viewBox="0 0 70 69.11"><defs><style>.cls-1{fill:url(#linear-gradient);}.cls-2{fill:#010101;opacity:0.2;isolation:isolate;}.cls-3{fill:#fff;}.cls-4{fill:#1e3160;}.cls-5{fill:#e9ecee;}</style><linearGradient id="linear-gradient" x1="35" y1="0.41" x2="35" y2="68.7" gradientUnits="userSpaceOnUse"><stop offset="0" stop-color="#f9c144"/><stop offset="0.28" stop-color="#f7bd45"/><stop offset="0.56" stop-color="#f2b147"/><stop offset="0.81" stop-color="#eb9f4b"/></linearGradient></defs><title>Compass_logo</title><circle class="cls-1" cx="35" cy="34.56" r="34.14"/><g id="compass-logo"><g id="Compass-Logo-2" data-name="Compass-Logo"><g id="Imported-Layers"><path id="Fill-1" class="cls-2" d="M605.88,407.48l-9.11,4.7A22.36,22.36,0,0,0,609,417.79l-3.08-10.31m11.69,0-3.16,10.38a22.36,22.36,0,0,0,12.16-5.33l-9-5M634,398.82l-10.57,3,4.8,9.08A21.84,21.84,0,0,0,634,398.82m-5.42-17.49-5,9.16L634,393.58a21.81,21.81,0,0,0-5.48-12.25m1.32-2.82a0.31,0.31,0,0,1,0,.35l-1.11,2a22.27,22.27,0,0,1,5.73,12.82l7.23,2.14a0.39,0.39,0,0,1,0,.74l-7.27,2.08a22.29,22.29,0,0,1-6,12.67l1.13,2.14a0.33,0.33,0,0,1-.29.48,0.33,0.33,0,0,1-.16,0L627,412.73a22.83,22.83,0,0,1-12.72,5.57L612,425.61a0.39,0.39,0,0,1-.75,0l-2.19-7.34a22.83,22.83,0,0,1-12.76-5.86L594,413.58a0.33,0.33,0,0,1-.15,0,0.32,0.32,0,0,1-.13,0c1.36,1,16.8,12.06,17.17,12.24l4.36,3.13a33.69,33.69,0,0,0,20.34-9.55,32.88,32.88,0,0,0,9.85-23.48h0a32.91,32.91,0,0,0-.81-7.29l-14.78-10.13" transform="translate(-576.85 -361.38)"/><path id="Fill-2" class="cls-3" d="M646.16,395.93h-0.69a32.88,32.88,0,0,1-9.85,23.48,33.93,33.93,0,0,1-47.56,0,32.9,32.9,0,0,1,0-47,33.93,33.93,0,0,1,47.56,0,32.88,32.88,0,0,1,9.85,23.48h1.37A34.23,34.23,0,0,0,636.6,371.5a35.32,35.32,0,0,0-49.5,0,34.25,34.25,0,0,0,0,48.87,35.32,35.32,0,0,0,49.5,0,34.23,34.23,0,0,0,10.25-24.43h-0.69" transform="translate(-576.85 -361.38)"/><path id="Fill-3" class="cls-3" d="M634.4,395.93h-0.23a21.83,21.83,0,0,1-6.54,15.58,22.52,22.52,0,0,1-31.57,0,21.84,21.84,0,0,1,0-31.16,22.52,22.52,0,0,1,31.57,0,21.83,21.83,0,0,1,6.54,15.58h0.46a22.78,22.78,0,1,0-22.78,22.49,22.63,22.63,0,0,0,22.78-22.49H634.4" transform="translate(-576.85 -361.38)"/><path id="Combined-Shape" class="cls-4" d="M623.41,401.85l6.16,11.64a0.33,0.33,0,0,1-.45.43l-11.54-6.47L612,425.61a0.39,0.39,0,0,1-.75,0l-5.41-18.12L594,413.58a0.33,0.33,0,0,1-.44-0.45l6.57-11.43-18.41-5.26a0.39,0.39,0,0,1,0-.74l18.68-5.54-6.5-11.64a0.33,0.33,0,0,1,.44-0.44l11.67,6.2,5.24-17.88a0.39,0.39,0,0,1,.75,0l5.52,18.49,11.89-6.47a0.33,0.33,0,0,1,.45.44l-6.33,11.63,18.17,5.37a0.39,0.39,0,0,1,0,.74Z" transform="translate(-576.85 -361.38)"/><polygon class="cls-5" points="28.86 41.8 28.89 41.92 34.43 61.13 34.43 43.5 34.43 36.97 28.86 41.8"/><path id="Fill-10" class="cls-5" d="M611.74,369.32V387l5.56,1.64Zm0,17.66v6.5l5.57-4.83v0Z" transform="translate(-576.85 -361.38)"/><polyline id="Fill-12" class="cls-5" points="27.92 29.35 8.34 34.85 32.81 34.85 27.92 29.35"/><polyline id="Fill-13" class="cls-5" points="61.35 34.85 36.88 34.85 41.77 40.35 61.35 34.85"/><polyline id="Fill-14" class="cls-5" points="20.38 19.32 28.05 26.89 28.35 25.84 28.39 23.73 20.38 19.32"/><polyline id="Fill-15" class="cls-5" points="28.35 25.84 28.05 26.89 28.33 27.17 28.35 25.84"/><path id="Fill-16" class="cls-5" d="M618.66,403.87l-0.75,2.45,7.3,4Zm-0.52-.51-0.9.26,0,2.32,0.71,0.39,0.75-2.45Zm-0.87-.86,0,1.12,0.9-.26Z" transform="translate(-576.85 -361.38)"/><path id="Fill-19" class="cls-5" d="M626.95,382.42l-7.06,7,2.68,0.79Zm-7.06,7-0.89.88,3.48,0.07,0.08-.15Z" transform="translate(-576.85 -361.38)"/><path id="Fill-21" class="cls-5" d="M601,402l-4.47,7.91,7.26-7.17-2.58-.74H601Zm0.22,0,2.58,0.74,0.68-.68Z" transform="translate(-576.85 -361.38)"/></g></g></g></svg>