<?xml version="1.0" standalone="no"?><!DOCTYPE svg PUBLIC "-//W3C//DTD SVG 1.1//EN" "http://www.w3.org/Graphics/SVG/1.1/DTD/svg11.dtd" ><svg xmlns="http://www.w3.org/2000/svg"><metadata></metadata><defs><font id="1.200;ITFO;Rajdhani-Semibold" horiz-adv-x="803"><font-face font-family="Rajdhani Semibold" font-weight="600" font-stretch="normal" units-per-em="1000" panose-1="2 0 0 0 0 0 0 0 0 0" ascent="930" descent="-346" x-height="0" bbox="-61 -238 784 881" underline-thickness="50" underline-position="-125" unicode-range="U+003c-1ef3" /><missing-glyph horiz-adv-x="364" d="M33 0 l0 666 l265 0 l0 -666 l-265 0 ZM66 33 l199 0 l0 600 l-199 0 l0 -600 Z" /><glyph glyph-name="less" unicode="&lt;" d="M477 493 l0 -50 q0 -19 -16 -23 l-312 -95 l312 -94 q16 -4 16 -23 l0 -50 q0 -20 -20 -12 l-368 126 q-21 7 -21 31 l0 44 q0 24 21 31 l368 127 q20 8 20 -12 Z" /><glyph glyph-name="equal" unicode="=" d="M91 456 l372 0 q18 0 18 -19 l0 -41 q0 -19 -18 -19 l-372 0 q-11 0 -15 4 q-4 4 -4 15 l0 41 q0 11 4 15 q4 4 15 4 ZM91 266 l372 0 q18 0 18 -19 l0 -41 q0 -20 -18 -20 l-372 0 q-19 0 -19 20 l0 41 q0 19 19 19 Z" /><glyph glyph-name="greater" unicode="&gt;" d="M72 443 l0 50 q0 20 20 12 l368 -127 q21 -7 21 -31 l0 -44 q0 -24 -21 -31 l-368 -126 q-20 -8 -20 12 l0 50 q0 19 16 23 l311 94 l-311 95 q-16 4 -16 23 Z" /><glyph glyph-name="question" unicode="?" d="M282 139 l0 -122 q0 -17 -16 -17 l-68 0 q-17 0 -17 18 l0 121 q0 16 17 16 l68 0 q16 0 16 -16 ZM281 268 l0 -30 q0 -17 -18 -17 l-59 0 q-17 0 -17 17 l0 29 q0 37 11 58 q11 21 40 45 l49 41 q35 28 35 62 l0 14 q0 72 -75 72 l-27 0 q-37 0 -54 -17.5 q-17 -17.5 -17 -54.5 l0 -29 q0 -18 -18 -18 l-63 0 q-17 0 -17 18 l0 31 q0 73 41 113 q41 40 114 40 l56 0 q73 0 114 -40 q41 -40 41 -113 l0 -21 q0 -50 -45 -90 l-60 -48 q-20 -17 -25.5 -29.5 q-5.5 -12.5 -5.5 -32.5 Z" /><glyph glyph-name="at" unicode="@" d="M500 -58 l-180 0 q-107 0 -180 66 q-73 66 -73 176 l0 173 q0 107 69.5 176.5 q69.5 69.5 171.5 69.5 l201 0 q79 0 129 -47 q50 -47 50 -121 l0 -219 q0 -59 -37.5 -96 q-37.5 -37 -96.5 -37 l-47 0 q-23 0 -39 11.5 q-16 11.5 -16 32.5 l0 11 l-4 0 q-24 -54 -102 -54 q-61 0 -98.5 39 q-37.5 39 -37.5 110 l0 72 q0 73 39 114 q39 41 104 41 l162 0 q17 0 17 -17 l0 -289 q0 -11 17 -11 l1 0 q78 0 78 80 l0 207 q0 54 -35 84 q-35 30 -90 30 l-190 0 q-84 0 -135.5 -51.5 q-51.5 -51.5 -51.5 -140.5 l0 -159 q0 -89 54 -140.5 q54 -51.5 139 -51.5 l181 0 q17 0 17 -17 l0 -25 q0 -17 -17 -17 ZM452 242 l0 132 q0 11 -11 11 l-73 0 q-72 0 -72 -74 l0 -80 q0 -73 72 -73 l2 0 q82 0 82 84 Z" /><glyph glyph-name="A" unicode="a" d="M108 0 l-72 0 q-14 0 -10 17 l174 609 q5 17 24 17 l100 0 q20 0 24 -17 l174 -609 q4 -17 -11 -17 l-71 0 q-9 0 -12.5 3.5 q-3.5 3.5 -5.5 13.5 l-38 130 l-220 0 l-38 -130 q-4 -17 -18 -17 ZM272 547 l-88 -320 l181 0 l-89 320 l-4 0 Z" /><glyph glyph-name="B" unicode="b" d="M181 83 l140 0 q75 0 75 72 l0 62 q0 72 -79 72 l-136 0 q-11 0 -11 -10 l0 -186 q0 -10 11 -10 ZM181 369 l130 0 q76 0 76 73 l0 46 q0 72 -74 72 l-132 0 q-11 0 -11 -10 l0 -171 q0 -10 11 -10 ZM73 17 l0 609 q0 17 17 17 l237 0 q74 0 115 -40 q41 -40 41 -113 l0 -49 q0 -87 -82 -112 q39 -5 64.5 -34 q25.5 -29 25.5 -78 l0 -64 q0 -73 -41 -113 q-41 -40 -114 -40 l-246 0 q-17 0 -17 17 Z" /><glyph glyph-name="C" unicode="c" d="M334 0 l-116 0 q-74 0 -114.5 41 q-40.5 41 -40.5 114 l0 333 q0 74 40.5 114.5 q40.5 40.5 114.5 40.5 l116 0 q73 0 114 -40.5 q41 -40.5 41 -114.5 l0 -48 q0 -18 -18 -18 l-63 0 q-17 0 -17 18 l0 44 q0 74 -72 74 l-87 0 q-72 0 -72 -74 l0 -325 q0 -74 72 -74 l87 0 q72 0 72 74 l0 44 q0 18 17 18 l63 0 q18 0 18 -18 l0 -48 q0 -73 -41 -114 q-41 -41 -114 -41 Z" /><glyph glyph-name="D" unicode="d" d="M181 85 l141 0 q72 0 72 74 l0 325 q0 74 -72 74 l-141 0 q-11 0 -11 -10 l0 -452 q0 -11 11 -11 ZM73 17 l0 609 q0 17 17 17 l246 0 q73 0 114.5 -40.5 q41.5 -40.5 41.5 -114.5 l0 -333 q0 -73 -41.5 -114 q-41.5 -41 -114.5 -41 l-246 0 q-17 0 -17 17 Z" /><glyph glyph-name="E" unicode="e" d="M410 0 l-320 0 q-17 0 -17 17 l0 609 q0 17 17 17 l320 0 q16 0 16 -17 l0 -51 q0 -17 -16 -17 l-228 0 q-12 0 -12 -10 l0 -169 q0 -10 12 -10 l193 0 q18 0 18 -17 l0 -51 q0 -17 -18 -17 l-193 0 q-12 0 -12 -10 l0 -178 q0 -11 12 -11 l228 0 q16 0 16 -17 l0 -51 q0 -17 -16 -17 Z" /><glyph glyph-name="F" unicode="f" d="M153 0 l-63 0 q-17 0 -17 17 l0 609 q0 17 17 17 l314 0 q17 0 17 -17 l0 -51 q0 -17 -17 -17 l-222 0 q-12 0 -12 -10 l0 -189 q0 -11 12 -11 l193 0 q18 0 18 -17 l0 -50 q0 -18 -18 -18 l-193 0 q-12 0 -12 -10 l0 -236 q0 -17 -17 -17 Z" /><glyph glyph-name="G" unicode="g" d="M325 0 l-107 0 q-74 0 -114.5 41 q-40.5 41 -40.5 114 l0 333 q0 74 40.5 114.5 q40.5 40.5 114.5 40.5 l107 0 q74 0 114.5 -40.5 q40.5 -40.5 40.5 -114.5 l0 -36 q0 -18 -17 -18 l-63 0 q-17 0 -17 18 l0 32 q0 74 -72 74 l-79 0 q-72 0 -72 -74 l0 -325 q0 -74 72 -74 l79 0 q72 0 72 74 l0 90 q0 10 -11 10 l-81 0 q-17 0 -17 17 l0 51 q0 17 17 17 l168 0 q21 0 21 -21 l0 -168 q0 -73 -41 -114 q-41 -41 -114 -41 Z" /><glyph glyph-name="H" unicode="h" d="M153 0 l-63 0 q-17 0 -17 17 l0 609 q0 17 17 17 l63 0 q17 0 17 -17 l0 -250 q0 -10 12 -10 l211 0 q10 0 10 10 l0 250 q0 17 17 17 l64 0 q17 0 17 -17 l0 -609 q0 -17 -17 -17 l-64 0 q-17 0 -17 17 l0 253 q0 10 -10 10 l-211 0 q-12 0 -12 -10 l0 -253 q0 -17 -17 -17 Z" /><glyph glyph-name="I" unicode="i" d="M175 626 l0 -609 q0 -17 -17 -17 l-63 0 q-17 0 -17 17 l0 609 q0 17 17 17 l63 0 q17 0 17 -17 Z" /><glyph glyph-name="J" unicode="j" d="M365 643 l63 0 q17 0 17 -16 l0 -472 q0 -73 -41 -114 q-41 -41 -114 -41 l-100 0 q-74 0 -115 41 q-41 41 -41 114 l0 90 q0 17 18 17 l63 0 q17 0 17 -17 l0 -86 q0 -74 72 -74 l71 0 q72 0 72 74 l0 467 q0 17 18 17 Z" /><glyph glyph-name="K" unicode="k" d="M153 0 l-63 0 q-17 0 -17 17 l0 609 q0 17 17 17 l63 0 q17 0 17 -17 l0 -317 l3 0 q10 27 26 50 l191 267 q11 17 32 17 l74 0 q21 0 7 -19 l-195 -265 l220 -339 q12 -20 -12 -20 l-56 0 q-27 0 -38 17 l-173 271 l-79 -93 l0 -178 q0 -17 -17 -17 Z" /><glyph glyph-name="L" unicode="l" d="M414 0 l-324 0 q-17 0 -17 17 l0 609 q0 17 17 17 l63 0 q17 0 17 -17 l0 -529 q0 -10 12 -10 l232 0 q17 0 17 -18 l0 -52 q0 -17 -17 -17 Z" /><glyph glyph-name="M" unicode="m" d="M513 643 l112 0 q17 0 17 -17 l0 -609 q0 -17 -17 -17 l-62 0 q-17 0 -17 17 l0 505 l-4 0 l-130 -366 q-6 -16 -22 -16 l-64 0 q-15 0 -21 16 l-133 367 l-4 0 l0 -506 q0 -10 -3.5 -13.5 q-3.5 -3.5 -13.5 -3.5 l-61 0 q-17 0 -17 17 l0 609 q0 17 17 17 l112 0 q11 0 16 -11 l137 -386 l5 0 l138 386 q2 11 15 11 Z" /><glyph glyph-name="N" unicode="n" d="M152 0 l-62 0 q-17 0 -17 17 l0 609 q0 17 17 17 l56 0 q16 0 22 -11 l242 -435 l4 0 l0 429 q0 17 17 17 l62 0 q17 0 17 -17 l0 -609 q0 -17 -17 -17 l-54 0 q-16 0 -26 16 l-240 430 l-4 0 l0 -429 q0 -17 -17 -17 Z" /><glyph glyph-name="O" unicode="o" d="M232 85 l87 0 q73 0 73 74 l0 325 q0 74 -73 74 l-87 0 q-72 0 -72 -74 l0 -325 q0 -74 72 -74 ZM334 0 l-116 0 q-74 0 -114.5 41 q-40.5 41 -40.5 114 l0 333 q0 74 40.5 114.5 q40.5 40.5 114.5 40.5 l116 0 q74 0 115 -40.5 q41 -40.5 41 -114.5 l0 -333 q0 -73 -41 -114 q-41 -41 -115 -41 Z" /><glyph glyph-name="P" unicode="p" d="M153 0 l-63 0 q-17 0 -17 17 l0 609 q0 17 17 17 l238 0 q73 0 114 -40.5 q41 -40.5 41 -114.5 l0 -104 q0 -73 -41 -114 q-41 -41 -114 -41 l-146 0 q-12 0 -12 -10 l0 -202 q0 -17 -17 -17 ZM181 315 l133 0 q71 0 71 74 l0 95 q0 74 -71 74 l-133 0 q-11 0 -11 -10 l0 -223 q0 -10 11 -10 Z" /><glyph glyph-name="Q" unicode="q" d="M239 85 l87 0 q72 0 72 74 l0 325 q0 74 -72 74 l-87 0 q-72 0 -72 -74 l0 -325 q0 -74 72 -74 ZM426 -133 l-56 0 q-22 0 -32 17 l-68 116 l-46 0 q-74 0 -115 41 q-41 41 -41 114 l0 333 q0 74 41 114.5 q41 40.5 115 40.5 l116 0 q74 0 114.5 -40.5 q40.5 -40.5 40.5 -114.5 l0 -333 q0 -65 -32.5 -104.5 q-32.5 -39.5 -91.5 -47.5 l67 -115 q5 -10 1 -15.5 q-4 -5.5 -13 -5.5 Z" /><glyph glyph-name="R" unicode="r" d="M153 0 l-63 0 q-17 0 -17 17 l0 609 q0 17 17 17 l234 0 q73 0 114.5 -41.5 q41.5 -41.5 41.5 -114.5 l0 -84 q0 -115 -95 -145 l0 -4 l111 -234 q11 -20 -13 -20 l-62 0 q-24 0 -31 17 l-107 230 l-101 0 q-12 0 -12 -10 l0 -220 q0 -17 -17 -17 ZM181 327 l127 0 q74 0 74 73 l0 84 q0 74 -74 74 l-127 0 q-11 0 -11 -10 l0 -211 q0 -10 11 -10 Z" /><glyph glyph-name="S" unicode="s" d="M61 156 l0 26 q0 17 17 17 l64 0 q17 0 17 -17 l0 -18 q0 -42 18.5 -60.5 q18.5 -18.5 61.5 -18.5 l69 0 q43 0 62 19.5 q19 19.5 19 63.5 l0 23 q0 32 -24.5 50.5 q-24.5 18.5 -60.5 24 q-36 5.5 -79 15.5 q-43 10 -79 23 q-36 13 -60.5 49 q-24.5 36 -24.5 92 l0 42 q0 73 41.5 114.5 q41.5 41.5 114.5 41.5 l106 0 q74 0 115.5 -41.5 q41.5 -41.5 41.5 -114.5 l0 -22 q0 -17 -17 -17 l-64 0 q-17 0 -17 17 l0 13 q0 43 -18.5 61.5 q-18.5 18.5 -61.5 18.5 l-63 0 q-43 0 -61.5 -19.5 q-18.5 -19.5 -18.5 -66.5 l0 -31 q0 -45 65 -61 q29 -7 63.5 -12 q34.5 -5 69.5 -15 q35 -10 64 -26.5 q29 -16.5 47 -50 q18 -33.5 18 -81.5 l0 -39 q0 -73 -41.5 -114.5 q-41.5 -41.5 -114.5 -41.5 l-112 0 q-73 0 -115 41.5 q-42 41.5 -42 114.5 Z" /><glyph glyph-name="T" unicode="t" d="M249 0 l-63 0 q-18 0 -18 17 l0 531 q0 10 -10 10 l-126 0 q-18 0 -18 17 l0 51 q0 17 18 17 l371 0 q18 0 18 -17 l0 -51 q0 -17 -18 -17 l-126 0 q-11 0 -11 -10 l0 -531 q0 -17 -17 -17 Z" /><glyph glyph-name="U" unicode="u" d="M409 643 l63 0 q18 0 18 -16 l0 -472 q0 -73 -41.5 -114 q-41.5 -41 -114.5 -41 l-111 0 q-73 0 -114 41 q-41 41 -41 114 l0 471 q0 17 17 17 l63 0 q17 0 17 -17 l0 -467 q0 -74 72 -74 l82 0 q73 0 73 74 l0 467 q0 17 17 17 Z" /><glyph glyph-name="V" unicode="v" d="M307 0 l-99 0 q-17 0 -21 17 l-166 607 q-6 19 15 19 l71 0 q16 0 19 -17 l129 -522 l4 0 l128 522 q4 17 20 17 l70 0 q21 0 16 -19 l-167 -607 q-4 -17 -19 -17 Z" /><glyph glyph-name="W" unicode="w" d="M267 0 l-106 0 q-18 0 -21 17 l-119 609 q-2 17 17 17 l77 0 q19 0 20 -17 l81 -524 l6 0 l118 526 q2 15 18 15 l84 0 q16 0 19 -15 l119 -526 l6 0 l81 523 q1 18 20 18 l77 0 q20 0 17 -18 l-119 -608 q-3 -17 -20 -17 l-106 0 q-17 0 -20 17 l-113 506 l-4 0 l-113 -506 q-3 -17 -19 -17 Z" /><glyph glyph-name="X" unicode="x" d="M114 0 l-74 0 q-8 0 -11.5 5 q-3.5 5 0.5 13 l165 315 l-158 292 q-4 7 -0.5 12.5 q3.5 5.5 11.5 5.5 l71 0 q20 0 28 -17 l115 -232 l4 0 l115 232 q9 17 26 17 l74 0 q8 0 11.5 -6 q3.5 -6 0.5 -13 l-160 -291 l165 -314 q4 -8 1 -13.5 q-3 -5.5 -12 -5.5 l-75 0 q-16 0 -23 16 l-123 244 l-4 0 l-123 -244 q-7 -16 -24 -16 Z" /><glyph glyph-name="Y" unicode="y" d="M286 0 l-64 0 q-17 0 -17 17 l0 221 l-187 387 q-4 8 0 13 q4 5 11 5 l80 0 q13 0 20 -17 l123 -275 l6 0 l121 275 q6 17 20 17 l80 0 q8 0 11.5 -5 q3.5 -5 -0.5 -13 l-187 -387 l0 -221 q0 -17 -17 -17 Z" /><glyph glyph-name="Z" unicode="z" d="M46 17 l0 47 q0 26 9 37 l289 447 l0 4 l-265 0 q-18 0 -18 17 l0 57 q0 17 18 17 l354 0 q17 0 17 -17 l0 -66 q0 -22 -11 -39 l-278 -426 l0 -4 l282 0 q17 0 17 -16 l0 -56 q0 -19 -17 -19 l-380 0 q-17 0 -17 17 Z" /><glyph glyph-name="bracketleft" unicode="[" d="M228 -99 l-140 0 q-16 0 -16 18 l0 707 q0 17 16 17 l140 0 q17 0 17 -17 l0 -34 q0 -17 -17 -17 l-65 0 q-11 0 -11 -11 l0 -585 q0 -10 11 -10 l65 0 q17 0 17 -17 l0 -34 q0 -17 -17 -17 Z" /><glyph glyph-name="backslash" unicode="\" d="M55 643 l59 0 q16 0 23 -18 q23 -59 113 -305 q90 -246 112 -302 q7 -18 -14 -18 l-57 0 q-17 0 -23 18 l-225 606 q-7 19 12 19 Z" /><glyph glyph-name="bracketright" unicode="]" d="M60 -82 l0 34 q0 17 17 17 l65 0 q11 0 11 10 l0 585 q0 11 -11 11 l-65 0 q-17 0 -17 17 l0 34 q0 17 17 17 l140 0 q16 0 16 -17 l0 -707 q0 -18 -16 -18 l-140 0 q-17 0 -17 17 Z" /><glyph glyph-name="asciicircum" unicode="^" d="M120 363 l-57 0 q-22 0 -12 18 l124 237 q8 15 15 20 q7 5 22 5 l69 0 q15 0 22 -5 q7 -5 15 -20 l124 -237 q10 -18 -12 -18 l-57 0 q-15 0 -23 17 l-104 201 l-103 -201 q-9 -17 -23 -17 Z" /><glyph glyph-name="underscore" unicode="_" d="M355 -107 l-338 0 q-17 0 -17 18 l0 21 q0 17 17 17 l338 0 q17 0 17 -17 l0 -21 q0 -18 -17 -18 Z" /><glyph glyph-name="grave" unicode="`" d="M218 574 l-48 0 q-14 0 -23 12 l-85 100 q-5 8 -2.5 12.5 q2.5 4.5 10.5 4.5 l79 0 q17 0 25 -16 l51 -96 q10 -17 -7 -17 Z" /><glyph glyph-name="a" unicode="a" d="M247 0 l-39 0 q-74 0 -114.5 41 q-40.5 41 -40.5 114 l0 200 q0 74 40.5 114.5 q40.5 40.5 114.5 40.5 l224 0 q18 0 18 -17 l0 -476 q0 -17 -18 -17 l-63 0 q-17 0 -17 17 l0 36 l-4 0 q-24 -53 -101 -53 ZM352 170 l0 245 q0 10 -11 10 l-119 0 q-72 0 -72 -74 l0 -192 q0 -74 72 -74 l48 0 q82 0 82 85 Z" /><glyph glyph-name="b" unicode="b" d="M171 85 l124 0 q72 0 72 74 l0 196 q0 74 -72 74 l-53 0 q-82 0 -82 -84 l0 -249 q0 -11 11 -11 ZM63 17 l0 669 q0 17 17 17 l63 0 q17 0 17 -17 l0 -226 l4 0 q25 54 101 54 l44 0 q74 0 115 -40.5 q41 -40.5 41 -113.5 l0 -205 q0 -73 -41 -114 q-41 -41 -115 -41 l-229 0 q-17 0 -17 17 Z" /><glyph glyph-name="c" unicode="c" d="M373 68 l0 -52 q0 -16 -18 -16 l-147 0 q-74 0 -114.5 41 q-40.5 41 -40.5 114 l0 200 q0 74 40.5 114.5 q40.5 40.5 114.5 40.5 l147 0 q18 0 18 -17 l0 -52 q0 -16 -18 -16 l-133 0 q-72 0 -72 -74 l0 -192 q0 -74 72 -74 l133 0 q18 0 18 -17 Z" /><glyph glyph-name="d" unicode="d" d="M253 0 l-51 0 q-72 0 -110.5 40.5 q-38.5 40.5 -38.5 114.5 l0 200 q0 75 38.5 115 q38.5 40 110.5 40 l51 0 q77 0 100 -53 l4 0 l0 229 q0 17 17 17 l64 0 q17 0 17 -17 l0 -669 q0 -17 -17 -17 l-64 0 q-17 0 -17 17 l0 36 l-4 0 q-23 -53 -100 -53 ZM357 170 l0 170 q0 85 -82 85 l-53 0 q-72 0 -72 -74 l0 -192 q0 -74 72 -74 l53 0 q82 0 82 85 Z" /><glyph glyph-name="e" unicode="e" d="M424 0 l-216 0 q-74 0 -114.5 41 q-40.5 41 -40.5 114 l0 200 q0 74 40.5 114.5 q40.5 40.5 114.5 40.5 l82 0 q74 0 115 -40.5 q41 -40.5 41 -114.5 l0 -127 q0 -18 -18 -18 l-268 0 q-11 0 -11 -10 l0 -43 q0 -73 73 -73 l202 0 q18 0 18 -18 l0 -50 q0 -16 -18 -16 ZM160 278 l179 0 q10 0 10 10 l0 64 q0 38 -17 55.5 q-17 17.5 -55 17.5 l-55 0 q-38 0 -55 -17.5 q-17 -17.5 -17 -55.5 l0 -64 q0 -10 10 -10 Z" /><glyph glyph-name="f" unicode="f" d="M217 510 l84 0 q18 0 18 -16 l0 -52 q0 -17 -18 -17 l-84 0 q-10 0 -10 -10 l0 -398 q0 -17 -18 -17 l-63 0 q-17 0 -17 17 l0 398 q0 10 -11 10 l-53 0 q-17 0 -17 17 l0 52 q0 9 3.5 12.5 q3.5 3.5 13.5 3.5 l53 0 q11 0 11 10 l0 29 q0 74 38 114 q38 40 111 40 l44 0 q17 0 17 -16 l0 -52 q0 -17 -17 -17 l-30 0 q-36 0 -50.5 -17.5 q-14.5 -17.5 -14.5 -56.5 l0 -24 q0 -10 10 -10 Z" /><glyph glyph-name="g" unicode="g" d="M249 25 l-45 0 q-72 0 -110.5 40.5 q-38.5 40.5 -38.5 114.5 l0 175 q0 74 41 114.5 q41 40.5 114 40.5 l224 0 q18 0 18 -17 l0 -495 q0 -73 -41.5 -113.5 q-41.5 -40.5 -114.5 -40.5 l-188 0 q-17 0 -17 16 l0 52 q0 17 17 17 l173 0 q73 0 73 74 l0 76 l-4 0 q-25 -54 -101 -54 ZM354 195 l0 220 q0 10 -11 10 l-119 0 q-71 0 -71 -74 l0 -166 q0 -74 71 -74 l48 0 q82 0 82 84 Z" /><glyph glyph-name="h" unicode="h" d="M143 0 l-63 0 q-17 0 -17 17 l0 669 q0 17 17 17 l63 0 q17 0 17 -17 l0 -229 l4 0 q24 53 101 53 l44 0 q73 0 112 -40 q39 -40 39 -115 l0 -338 q0 -17 -18 -17 l-63 0 q-17 0 -17 17 l0 334 q0 74 -73 74 l-47 0 q-82 0 -82 -85 l0 -323 q0 -17 -17 -17 Z" /><glyph glyph-name="i" unicode="i" d="M68 595 l0 91 q0 16 16 16 l65 0 q16 0 16 -16 l0 -91 q0 -17 -16 -17 l-65 0 q-16 0 -16 17 ZM68 17 l0 476 q0 17 16 17 l64 0 q17 0 17 -17 l0 -476 q0 -10 -3.5 -13.5 q-3.5 -3.5 -12.5 -3.5 l-64 0 q-17 0 -17 17 Z" /><glyph glyph-name="j" unicode="j" d="M68 595 l0 91 q0 16 16 16 l65 0 q16 0 16 -16 l0 -91 q0 -17 -16 -17 l-65 0 q-16 0 -16 17 ZM9 -156 l-53 0 q-17 0 -17 17 l0 51 q0 17 17 17 l26 0 q47 0 66.5 20 q19.5 20 19.5 67 l0 477 q0 17 17 17 l63 0 q17 0 17 -17 l0 -494 q0 -73 -41.5 -114 q-41.5 -41 -114.5 -41 Z" /><glyph glyph-name="k" unicode="k" d="M353 510 l72 0 q9 0 12.5 -5.5 q3.5 -5.5 -2.5 -14.5 l-141 -224 l0 -4 l152 -242 q5 -8 1.5 -14 q-3.5 -6 -14.5 -6 l-65 0 q-23 0 -34 17 l-141 231 q-7 13 0 27 l131 219 q9 16 29 16 ZM143 0 l-63 0 q-17 0 -17 17 l0 669 q0 17 17 17 l63 0 q17 0 17 -17 l0 -669 q0 -17 -17 -17 Z" /><glyph glyph-name="l" unicode="l" d="M148 0 l-63 0 q-17 0 -17 17 l0 669 q0 17 17 17 l63 0 q17 0 17 -17 l0 -669 q0 -17 -17 -17 Z" /><glyph glyph-name="m" unicode="m" d="M143 0 l-63 0 q-17 0 -17 17 l0 476 q0 17 17 17 l63 0 q17 0 17 -17 l0 -36 l4 0 q29 53 106 53 l33 0 q87 0 124 -66 q16 32 49 49 q33 17 71 17 l32 0 q73 0 111.5 -40.5 q38.5 -40.5 38.5 -114.5 l0 -338 q0 -17 -17 -17 l-64 0 q-17 0 -17 17 l0 334 q0 74 -72 74 l-29 0 q-83 0 -83 -87 l0 -321 q0 -17 -18 -17 l-63 0 q-17 0 -17 17 l0 334 q0 74 -72 74 l-35 0 q-82 0 -82 -85 l0 -323 q0 -17 -17 -17 Z" /><glyph glyph-name="n" unicode="n" d="M143 0 l-63 0 q-17 0 -17 17 l0 476 q0 17 17 17 l63 0 q17 0 17 -17 l0 -36 l4 0 q24 53 101 53 l44 0 q73 0 112 -40 q39 -40 39 -115 l0 -338 q0 -17 -18 -17 l-63 0 q-17 0 -17 17 l0 334 q0 74 -73 74 l-47 0 q-82 0 -82 -85 l0 -323 q0 -17 -17 -17 Z" /><glyph glyph-name="o" unicode="o" d="M296 0 l-88 0 q-74 0 -114.5 41 q-40.5 41 -40.5 114 l0 200 q0 74 40.5 114.5 q40.5 40.5 114.5 40.5 l88 0 q73 0 114.5 -40.5 q41.5 -40.5 41.5 -114.5 l0 -200 q0 -73 -41.5 -114 q-41.5 -41 -114.5 -41 ZM222 85 l61 0 q72 0 72 73 l0 194 q0 73 -72 73 l-61 0 q-38 0 -55 -17.5 q-17 -17.5 -17 -55.5 l0 -194 q0 -38 17 -55.5 q17 -17.5 55 -17.5 Z" /><glyph glyph-name="p" unicode="p" d="M143 -141 l-63 0 q-17 0 -17 17 l0 617 q0 17 17 17 l63 0 q17 0 17 -17 l0 -36 l4 0 q24 53 101 53 l51 0 q72 0 110.5 -40 q38.5 -40 38.5 -115 l0 -200 q0 -74 -38.5 -114.5 q-38.5 -40.5 -110.5 -40.5 l-51 0 q-77 0 -101 53 l-4 0 l0 -177 q0 -17 -17 -17 ZM242 85 l53 0 q72 0 72 74 l0 192 q0 74 -72 74 l-53 0 q-82 0 -82 -85 l0 -170 q0 -85 82 -85 Z" /><glyph glyph-name="q" unicode="q" d="M352 172 l0 243 q0 10 -11 10 l-119 0 q-72 0 -72 -74 l0 -192 q0 -74 72 -74 l46 0 q84 0 84 87 ZM245 0 l-37 0 q-74 0 -114.5 41 q-40.5 41 -40.5 114 l0 200 q0 74 40.5 114.5 q40.5 40.5 114.5 40.5 l224 0 q18 0 18 -17 l0 -617 q0 -17 -18 -17 l-63 0 q-17 0 -17 17 l0 179 l-4 0 q-27 -55 -103 -55 Z" /><glyph glyph-name="r" unicode="r" d="M143 0 l-63 0 q-17 0 -17 17 l0 476 q0 17 17 17 l63 0 q17 0 17 -17 l0 -38 l4 0 q10 25 38.5 40 q28.5 15 63.5 15 l37 0 q17 0 17 -17 l0 -52 q0 -19 -17 -16 l-60 0 q-83 0 -83 -91 l0 -317 q0 -17 -17 -17 Z" /><glyph glyph-name="s" unicode="s" d="M245 0 l-184 0 q-17 0 -17 17 l0 49 q0 16 17 16 l168 0 q65 0 65 45 l0 12 q0 40 -47 61 l-109 52 q-51 24 -74 53 q-23 29 -23 76 q0 129 143 129 l166 0 q16 0 16 -17 l0 -49 q0 -17 -16 -17 l-146 0 q-30 0 -46 -10.5 q-16 -10.5 -16 -27.5 l0 -11 q0 -32 51 -56 l110 -56 q52 -23 71.5 -54.5 q19.5 -31.5 19.5 -81.5 q0 -130 -149 -130 Z" /><glyph glyph-name="t" unicode="t" d="M78 425 l-48 0 q-10 0 -13.5 3.5 q-3.5 3.5 -3.5 12.5 l0 52 q0 17 17 17 l48 0 q10 0 10 10 l0 90 q0 17 18 17 l63 0 q17 0 17 -17 l0 -90 q0 -10 11 -10 l93 0 q18 0 18 -17 l0 -52 q0 -16 -18 -16 l-93 0 q-11 0 -11 -10 l0 -257 q0 -73 75 -73 l39 0 q18 0 18 -17 l0 -52 q0 -16 -18 -16 l-54 0 q-74 0 -116 40 q-42 40 -42 113 l0 262 q0 10 -10 10 Z" /><glyph glyph-name="u" unicode="u" d="M252 0 l-45 0 q-72 0 -110.5 40.5 q-38.5 40.5 -38.5 114.5 l0 338 q0 17 17 17 l63 0 q17 0 17 -17 l0 -334 q0 -74 72 -74 l48 0 q82 0 82 85 l0 323 q0 17 17 17 l63 0 q18 0 18 -17 l0 -476 q0 -17 -18 -17 l-63 0 q-17 0 -17 17 l0 36 l-4 0 q-24 -53 -101 -53 Z" /><glyph glyph-name="v" unicode="v" d="M31 510 l67 0 q16 0 19 -17 l104 -402 l7 0 l102 402 q4 17 21 17 l66 0 q18 0 12 -17 l-135 -475 q-4 -18 -22 -18 l-96 0 q-18 0 -22 18 l-135 475 q-4 17 12 17 Z" /><glyph glyph-name="w" unicode="w" d="M242 0 l-86 0 q-15 0 -20 17 l-115 476 q-4 17 12 17 l72 0 q18 0 20 -17 l73 -378 l7 0 l88 378 q3 17 19 17 l66 0 q17 0 21 -17 l86 -378 l7 0 l73 378 q3 17 20 17 l72 0 q17 0 12 -17 l-115 -476 q-3 -17 -20 -17 l-86 0 q-16 0 -20 17 l-80 371 l-7 0 l-79 -371 q-3 -17 -20 -17 Z" /><glyph glyph-name="x" unicode="x" d="M111 0 l-76 0 q-22 0 -11 17 l133 243 l-130 233 q-11 17 9 17 l77 0 q19 0 26 -17 l81 -172 l4 0 l76 172 q7 17 25 17 l76 0 q21 0 10 -17 l-126 -232 l136 -244 q10 -17 -9 -17 l-79 0 q-17 0 -24 17 l-85 177 l-4 0 l-84 -177 q-7 -17 -25 -17 Z" /><glyph glyph-name="y" unicode="y" d="M123 -162 l-53 0 q-17 0 -17 17 l0 51 q0 18 17 18 l23 0 q61 0 84.5 24 q23.5 24 39.5 79 l-40 0 q-15 0 -21 17 l-133 449 q-4 17 13 17 l67 0 q16 0 20 -17 l109 -392 l4 0 l109 392 q3 17 20 17 l64 0 q19 0 16 -18 l-137 -481 q-23 -84 -65 -128.5 q-42 -44.5 -120 -44.5 Z" /><glyph glyph-name="z" unicode="z" d="M32 17 l0 26 q0 25 14 43 l231 335 l0 4 l-219 0 q-18 0 -18 18 l0 50 q0 17 18 17 l316 0 q17 0 17 -17 l0 -46 q0 -24 -12 -38 l-219 -320 l0 -4 l223 0 q18 0 18 -18 l0 -50 q0 -17 -18 -17 l-333 0 q-18 0 -18 17 Z" /><glyph glyph-name="braceleft" unicode="{" d="M231 643 l6 0 q17 0 17 -17 l0 -37 q0 -17 -17 -17 l-3 0 q-33 0 -46.5 -17.5 q-13.5 -17.5 -13.5 -56.5 l0 -130 q0 -79 -59 -98 q59 -17 59 -97 l0 -130 q0 -39 13.5 -56.5 q13.5 -17.5 46.5 -17.5 l3 0 q17 0 17 -17 l0 -37 q0 -17 -17 -17 l-6 0 q-136 0 -136 155 l0 113 q0 61 -49 61 q-18 0 -18 18 l0 51 q0 17 18 17 q49 0 49 62 l0 113 q0 155 136 155 Z" /><glyph glyph-name="bar" unicode="|" d="M146 626 l0 -609 q0 -17 -18 -17 l-34 0 q-17 0 -17 17 l0 609 q0 17 17 17 l34 0 q18 0 18 -17 Z" /><glyph glyph-name="braceright" unicode="}" d="M188 488 l0 -113 q0 -62 49 -62 q17 0 17 -17 l0 -51 q0 -18 -21 -18 q-45 0 -45 -61 l0 -113 q0 -155 -136 -155 l-6 0 q-18 0 -18 17 l0 37 q0 17 18 17 l3 0 q33 0 46 17.5 q13 17.5 13 56.5 l0 130 q0 80 59 97 q-59 20 -59 98 l0 130 q0 39 -13 56.5 q-13 17.5 -46 17.5 l-3 0 q-18 0 -18 17 l0 37 q0 17 18 17 l6 0 q136 0 136 -155 Z" /><glyph glyph-name="asciitilde" unicode="~" d="M379.5 269 q-40.5 0 -108.5 15.5 q-68 15.5 -96 15.5 q-28 0 -58.5 -13.5 q-30.5 -13.5 -34.5 -13.5 q-12 0 -12 13 l0 43 q0 20 24 31 q39 15 76.5 15 q37.5 0 103 -15.5 q65.5 -15.5 97 -15.5 q31.5 0 62.5 13.5 q31 13.5 34 13.5 q12 0 12 -12 l0 -44 q0 -20 -24 -31 q-35 -15 -75.5 -15 Z" /><glyph glyph-name="nonbreakingspace" unicode=" " d="" /><glyph glyph-name="copyright" unicode="©" d="M492 403 l0 -25 q0 -12 -12 -12 l-41 0 q-12 0 -12 12 l0 15 q0 38 -13 49.5 q-13 11.5 -53 11.5 l-10 0 q-40 0 -52 -11.5 q-12 -11.5 -12 -49.5 l0 -143 q0 -40 12 -51.5 q12 -11.5 52 -11.5 l10 0 q41 0 53.5 11.5 q12.5 11.5 12.5 51.5 l0 16 q0 13 12 13 l41 0 q12 0 12 -13 l0 -27 q0 -109 -114 -109 l-43 0 q-55 0 -84.5 27.5 q-29.5 27.5 -29.5 81.5 l0 164 q0 109 114 109 l43 0 q114 0 114 -109 ZM213 60 l285 0 q81 0 81 79 l0 365 q0 79 -81 79 l-285 0 q-81 0 -81 -79 l0 -365 q0 -79 81 -79 ZM195 643 l321 0 q60 0 94.5 -34 q34.5 -34 34.5 -94 l0 -387 q0 -60 -34.5 -94 q-34.5 -34 -94.5 -34 l-321 0 q-59 0 -93.5 34 q-34.5 34 -34.5 94 l0 387 q0 60 34.5 94 q34.5 34 93.5 34 Z" /><glyph glyph-name="Agrave" unicode="à" d="M295 707 l-48 0 q-14 0 -23 12 l-84 100 q-6 7 -3.5 12 q2.5 5 11.5 5 l78 0 q17 0 25 -16 l52 -96 q9 -17 -8 -17 ZM108 0 l-72 0 q-14 0 -10 17 l174 609 q5 17 24 17 l100 0 q20 0 24 -17 l174 -609 q4 -17 -11 -17 l-71 0 q-9 0 -12.5 3.5 q-3.5 3.5 -5.5 13.5 l-38 130 l-220 0 l-38 -130 q-4 -17 -18 -17 ZM272 547 l-88 -320 l181 0 l-89 320 l-4 0 Z" /><glyph glyph-name="Aacute" unicode="á" d="M318 836 l78 0 q9 0 11.5 -5 q2.5 -5 -2.5 -12 l-85 -100 q-9 -12 -22 -12 l-49 0 q-15 0 -8 17 l52 96 q8 16 25 16 ZM108 0 l-72 0 q-14 0 -10 17 l174 609 q5 17 24 17 l100 0 q20 0 24 -17 l174 -609 q4 -17 -11 -17 l-71 0 q-9 0 -12.5 3.5 q-3.5 3.5 -5.5 13.5 l-38 130 l-220 0 l-38 -130 q-4 -17 -18 -17 ZM272 547 l-88 -320 l181 0 l-89 320 l-4 0 Z" /><glyph glyph-name="Acircumflex" unicode="â" d="M376 707 l-46 0 q-11 0 -16 10 l-40 78 l-41 -78 q-3 -10 -15 -10 l-45 0 q-15 0 -7 12 l63 107 q7 10 21 10 l48 0 q14 0 21 -10 l64 -107 q8 -12 -7 -12 ZM108 0 l-72 0 q-14 0 -10 17 l174 609 q5 17 24 17 l100 0 q20 0 24 -17 l174 -609 q4 -17 -11 -17 l-71 0 q-9 0 -12.5 3.5 q-3.5 3.5 -5.5 13.5 l-38 130 l-220 0 l-38 -130 q-4 -17 -18 -17 ZM272 547 l-88 -320 l181 0 l-89 320 l-4 0 Z" /><glyph glyph-name="Atilde" unicode="ã" d="M227 702 q-68 0 -68 77 l0 39 q0 10 10 10 l30 0 q10 0 10 -10 l0 -20 q0 -25 4.5 -34 q4.5 -9 14 -9 q9.5 0 15.5 7 q6 7 20 32 q22 38 59 38 q67 0 67 -77 l0 -38 q0 -12 -9 -12 l-30 0 q-10 0 -10 12 l0 19 q0 26 -4 34.5 q-4 8.5 -14.5 8.5 q-10.5 0 -15 -5 q-4.5 -5 -10 -14 q-5.5 -9 -6.5 -10.5 q-1 -1.5 -8 -15.5 q-18 -32 -55 -32 ZM108 0 l-72 0 q-14 0 -10 17 l174 609 q5 17 24 17 l100 0 q20 0 24 -17 l174 -609 q4 -17 -11 -17 l-71 0 q-9 0 -12.5 3.5 q-3.5 3.5 -5.5 13.5 l-38 130 l-220 0 l-38 -130 q-4 -17 -18 -17 ZM272 547 l-88 -320 l181 0 l-89 320 l-4 0 Z" /><glyph glyph-name="Adieresis" unicode="ä" d="M138 724 l0 95 q0 17 16 17 l60 0 q15 0 15 -16 l0 -96 q0 -17 -15 -17 l-60 0 q-16 0 -16 17 ZM318 724 l0 95 q0 17 15 17 l61 0 q15 0 15 -16 l0 -96 q0 -17 -15 -17 l-61 0 q-15 0 -15 17 ZM108 0 l-72 0 q-14 0 -10 17 l174 609 q5 17 24 17 l100 0 q20 0 24 -17 l174 -609 q4 -17 -11 -17 l-71 0 q-9 0 -12.5 3.5 q-3.5 3.5 -5.5 13.5 l-38 130 l-220 0 l-38 -130 q-4 -17 -18 -17 ZM272 547 l-88 -320 l181 0 l-89 320 l-4 0 Z" /><glyph glyph-name="Aring" unicode="å" d="M294 700 l-43 0 q-60 0 -60 62 l0 51 q0 60 60 60 l43 0 q29 0 45.5 -16 q16.5 -16 16.5 -44 l0 -51 q0 -30 -16.5 -46 q-16.5 -16 -45.5 -16 ZM265 740 l14 0 q18 0 25 8 q7 8 7 26 l0 24 q0 19 -7 27 q-7 8 -24 8 l-14 0 q-33 0 -33 -35 l0 -24 q0 -34 32 -34 ZM108 0 l-72 0 q-14 0 -10 17 l174 609 q5 17 24 17 l100 0 q20 0 24 -17 l174 -609 q4 -17 -11 -17 l-71 0 q-9 0 -12.5 3.5 q-3.5 3.5 -5.5 13.5 l-38 130 l-220 0 l-38 -130 q-4 -17 -18 -17 ZM272 547 l-88 -320 l181 0 l-89 320 l-4 0 Z" /><glyph glyph-name="AE" unicode="æ" d="M86 0 l-70 0 q-19 0 -11 18 l301 608 q8 17 27 17 l376 0 q17 0 17 -17 l0 -51 q0 -17 -17 -17 l-228 0 q-11 0 -11 -10 l0 -169 q0 -10 11 -10 l193 0 q18 0 18 -17 l0 -51 q0 -17 -18 -17 l-193 0 q-11 0 -11 -10 l0 -178 q0 -11 11 -11 l228 0 q17 0 17 -17 l0 -51 q0 -17 -17 -17 l-320 0 q-17 0 -17 17 l0 130 l-198 0 l-66 -130 q-7 -17 -22 -17 ZM372 234 l0 314 l-4 0 l-156 -314 l160 0 Z" /><glyph glyph-name="Ccedilla" unicode="ç" d="M471 422 l-63 0 q-17 0 -17 18 l0 44 q0 74 -72 74 l-87 0 q-72 0 -72 -74 l0 -325 q0 -74 72 -74 l87 0 q72 0 72 74 l0 44 q0 18 17 18 l63 0 q18 0 18 -18 l0 -48 q0 -73 -41 -114 q-41 -41 -114 -41 l-9 0 l-42 -44 l0 -4 q76 0 76 -69 l0 -16 q0 -67 -90 -67 l-38 0 q-15 0 -15 16 l0 16 q0 10 3 13.5 q3 3.5 12 3.5 l29 0 q28 0 38 5.5 q10 5.5 10 19.5 l0 3 q0 16 -10 22 q-10 6 -38 6 l-21 0 q-18 0 -24 17 q-6 17 7 32 l40 46 l-44 0 q-74 0 -114.5 41 q-40.5 41 -40.5 114 l0 333 q0 74 40.5 114.5 q40.5 40.5 114.5 40.5 l116 0 q73 0 114 -40.5 q41 -40.5 41 -114.5 l0 -48 q0 -18 -18 -18 Z" /><glyph glyph-name="Egrave" unicode="è" d="M276 707 l-48 0 q-14 0 -23 12 l-84 100 q-5 7 -2.5 12 q2.5 5 10.5 5 l78 0 q18 0 25 -16 l52 -96 q8 -17 -8 -17 ZM410 0 l-320 0 q-17 0 -17 17 l0 609 q0 17 17 17 l320 0 q16 0 16 -17 l0 -51 q0 -17 -16 -17 l-228 0 q-12 0 -12 -10 l0 -169 q0 -10 12 -10 l193 0 q18 0 18 -17 l0 -51 q0 -17 -18 -17 l-193 0 q-12 0 -12 -10 l0 -178 q0 -11 12 -11 l228 0 q16 0 16 -17 l0 -51 q0 -17 -16 -17 Z" /><glyph glyph-name="Eacute" unicode="é" d="M283 836 l79 0 q8 0 10.5 -5 q2.5 -5 -2.5 -12 l-84 -100 q-10 -12 -24 -12 l-47 0 q-17 0 -8 17 l51 96 q8 16 25 16 ZM410 0 l-320 0 q-17 0 -17 17 l0 609 q0 17 17 17 l320 0 q16 0 16 -17 l0 -51 q0 -17 -16 -17 l-228 0 q-12 0 -12 -10 l0 -169 q0 -10 12 -10 l193 0 q18 0 18 -17 l0 -51 q0 -17 -18 -17 l-193 0 q-12 0 -12 -10 l0 -178 q0 -11 12 -11 l228 0 q16 0 16 -17 l0 -51 q0 -17 -16 -17 Z" /><glyph glyph-name="Ecircumflex" unicode="ê" d="M351 707 l-46 0 q-12 0 -16 10 l-40 78 l-40 -78 q-5 -10 -16 -10 l-46 0 q-6 0 -8 3.5 q-2 3.5 1 8.5 l64 107 q7 10 21 10 l48 0 q14 0 21 -10 l63 -107 q8 -12 -6 -12 ZM410 0 l-320 0 q-17 0 -17 17 l0 609 q0 17 17 17 l320 0 q16 0 16 -17 l0 -51 q0 -17 -16 -17 l-228 0 q-12 0 -12 -10 l0 -169 q0 -10 12 -10 l193 0 q18 0 18 -17 l0 -51 q0 -17 -18 -17 l-193 0 q-12 0 -12 -10 l0 -178 q0 -11 12 -11 l228 0 q16 0 16 -17 l0 -51 q0 -17 -16 -17 Z" /><glyph glyph-name="Edieresis" unicode="ë" d="M114 724 l0 95 q0 17 15 17 l61 0 q16 0 16 -16 l0 -96 q0 -17 -16 -17 l-61 0 q-15 0 -15 17 ZM293 724 l0 95 q0 17 16 17 l60 0 q17 0 17 -16 l0 -96 q0 -17 -17 -17 l-60 0 q-16 0 -16 17 ZM410 0 l-320 0 q-17 0 -17 17 l0 609 q0 17 17 17 l320 0 q16 0 16 -17 l0 -51 q0 -17 -16 -17 l-228 0 q-12 0 -12 -10 l0 -169 q0 -10 12 -10 l193 0 q18 0 18 -17 l0 -51 q0 -17 -18 -17 l-193 0 q-12 0 -12 -10 l0 -178 q0 -11 12 -11 l228 0 q16 0 16 -17 l0 -51 q0 -17 -16 -17 Z" /><glyph glyph-name="Igrave" unicode="ì" d="M151 707 l-48 0 q-14 0 -23 12 l-84 100 q-5 7 -2.5 12 q2.5 5 10.5 5 l78 0 q18 0 25 -16 l52 -96 q9 -17 -8 -17 ZM175 626 l0 -609 q0 -17 -17 -17 l-63 0 q-17 0 -17 17 l0 609 q0 17 17 17 l63 0 q17 0 17 -17 Z" /><glyph glyph-name="Iacute" unicode="í" d="M171 836 l78 0 q9 0 11.5 -5 q2.5 -5 -3.5 -12 l-84 -100 q-9 -12 -23 -12 l-48 0 q-16 0 -8 17 l51 96 q9 16 26 16 ZM175 626 l0 -609 q0 -17 -17 -17 l-63 0 q-17 0 -17 17 l0 609 q0 17 17 17 l63 0 q17 0 17 -17 Z" /><glyph glyph-name="Icircumflex" unicode="î" d="M228 707 l-47 0 q-10 0 -15 10 l-41 78 l-40 -78 q-4 -10 -16 -10 l-44 0 q-15 0 -8 12 l63 107 q7 10 22 10 l48 0 q14 0 21 -10 l63 -107 q8 -12 -6 -12 ZM175 626 l0 -609 q0 -17 -17 -17 l-63 0 q-17 0 -17 17 l0 609 q0 17 17 17 l63 0 q17 0 17 -17 Z" /><glyph glyph-name="Idieresis" unicode="ï" d="M-10 724 l0 95 q0 17 16 17 l60 0 q17 0 17 -16 l0 -96 q0 -17 -17 -17 l-60 0 q-16 0 -16 17 ZM170 724 l0 95 q0 17 16 17 l60 0 q17 0 17 -16 l0 -96 q0 -17 -17 -17 l-60 0 q-16 0 -16 17 ZM175 626 l0 -609 q0 -17 -17 -17 l-63 0 q-17 0 -17 17 l0 609 q0 17 17 17 l63 0 q17 0 17 -17 Z" /><glyph glyph-name="Eth" unicode="ð" d="M191 85 l140 0 q73 0 73 74 l0 325 q0 74 -73 74 l-140 0 q-11 0 -11 -10 l0 -178 q0 -10 11 -10 l103 0 q17 0 17 -17 l0 -40 q0 -17 -17 -17 l-103 0 q-11 0 -11 -10 l0 -180 q0 -11 11 -11 ZM346 0 l-247 0 q-17 0 -17 17 l0 259 q0 10 -10 10 l-32 0 q-17 0 -17 17 l0 40 q0 17 17 17 l32 0 q10 0 10 10 l0 256 q0 17 17 17 l247 0 q74 0 115 -40.5 q41 -40.5 41 -114.5 l0 -333 q0 -73 -41 -114 q-41 -41 -115 -41 Z" /><glyph glyph-name="Ntilde" unicode="ñ" d="M244 702 q-66 0 -66 77 l0 39 q0 10 9 10 l29 0 q11 0 11 -10 l0 -20 q0 -26 4 -34.5 q4 -8.5 14 -8.5 q10 0 16 7 q6 7 19.5 30.5 q13.5 23.5 26.5 31.5 q13 8 33 8 q67 0 67 -77 l0 -38 q0 -12 -10 -12 l-29 0 q-10 0 -10 12 l0 19 q0 26 -4.5 34.5 q-4.5 8.5 -14.5 8.5 q-10 0 -14.5 -5 q-4.5 -5 -10 -14 q-5.5 -9 -6.5 -10.5 q-1 -1.5 -2 -3.5 q-13 -26 -27 -35 q-14 -9 -35 -9 ZM152 0 l-62 0 q-17 0 -17 17 l0 609 q0 17 17 17 l56 0 q16 0 22 -11 l242 -435 l4 0 l0 429 q0 17 17 17 l62 0 q17 0 17 -17 l0 -609 q0 -17 -17 -17 l-54 0 q-16 0 -26 16 l-240 430 l-4 0 l0 -429 q0 -17 -17 -17 Z" /><glyph glyph-name="Ograve" unicode="ò" d="M301 707 l-48 0 q-14 0 -23 12 l-84 100 q-5 7 -2.5 12 q2.5 5 10.5 5 l78 0 q18 0 25 -16 l52 -96 q9 -17 -8 -17 ZM232 85 l87 0 q73 0 73 74 l0 325 q0 74 -73 74 l-87 0 q-72 0 -72 -74 l0 -325 q0 -74 72 -74 ZM334 0 l-116 0 q-74 0 -114.5 41 q-40.5 41 -40.5 114 l0 333 q0 74 40.5 114.5 q40.5 40.5 114.5 40.5 l116 0 q74 0 115 -40.5 q41 -40.5 41 -114.5 l0 -333 q0 -73 -41 -114 q-41 -41 -115 -41 Z" /><glyph glyph-name="Oacute" unicode="ó" d="M312 836 l78 0 q8 0 10.5 -5 q2.5 -5 -2.5 -12 l-84 -100 q-9 -12 -23 -12 l-48 0 q-17 0 -8 17 l52 96 q7 16 25 16 ZM232 85 l87 0 q73 0 73 74 l0 325 q0 74 -73 74 l-87 0 q-72 0 -72 -74 l0 -325 q0 -74 72 -74 ZM334 0 l-116 0 q-74 0 -114.5 41 q-40.5 41 -40.5 114 l0 333 q0 74 40.5 114.5 q40.5 40.5 114.5 40.5 l116 0 q74 0 115 -40.5 q41 -40.5 41 -114.5 l0 -333 q0 -73 -41 -114 q-41 -41 -115 -41 Z" /><glyph glyph-name="Ocircumflex" unicode="ô" d="M380 707 l-46 0 q-11 0 -15 10 l-41 78 l-40 -78 q-4 -10 -16 -10 l-45 0 q-15 0 -7 12 l63 107 q7 10 21 10 l49 0 q14 0 21 -10 l62 -107 q8 -12 -6 -12 ZM232 85 l87 0 q73 0 73 74 l0 325 q0 74 -73 74 l-87 0 q-72 0 -72 -74 l0 -325 q0 -74 72 -74 ZM334 0 l-116 0 q-74 0 -114.5 41 q-40.5 41 -40.5 114 l0 333 q0 74 40.5 114.5 q40.5 40.5 114.5 40.5 l116 0 q74 0 115 -40.5 q41 -40.5 41 -114.5 l0 -333 q0 -73 -41 -114 q-41 -41 -115 -41 Z" /><glyph glyph-name="Otilde" unicode="õ" d="M228 702 q-67 0 -67 77 l0 39 q0 10 10 10 l30 0 q10 0 10 -10 l0 -20 q0 -26 4 -34.5 q4 -8.5 14 -8.5 q10 0 16 7 q6 7 19.5 30.5 q13.5 23.5 26.5 31.5 q13 8 33 8 q67 0 67 -77 l0 -38 q0 -12 -9 -12 l-30 0 q-10 0 -10 12 l0 19 q0 26 -4 34.5 q-4 8.5 -14.5 8.5 q-10.5 0 -15 -5 q-4.5 -5 -18.5 -28 q-13 -26 -27 -35 q-14 -9 -35 -9 ZM232 85 l87 0 q73 0 73 74 l0 325 q0 74 -73 74 l-87 0 q-72 0 -72 -74 l0 -325 q0 -74 72 -74 ZM334 0 l-116 0 q-74 0 -114.5 41 q-40.5 41 -40.5 114 l0 333 q0 74 40.5 114.5 q40.5 40.5 114.5 40.5 l116 0 q74 0 115 -40.5 q41 -40.5 41 -114.5 l0 -333 q0 -73 -41 -114 q-41 -41 -115 -41 Z" /><glyph glyph-name="Odieresis" unicode="ö" d="M140 724 l0 95 q0 17 16 17 l60 0 q16 0 16 -16 l0 -96 q0 -17 -16 -17 l-60 0 q-16 0 -16 17 ZM320 724 l0 95 q0 17 16 17 l60 0 q16 0 16 -16 l0 -96 q0 -17 -16 -17 l-60 0 q-16 0 -16 17 ZM232 85 l87 0 q73 0 73 74 l0 325 q0 74 -73 74 l-87 0 q-72 0 -72 -74 l0 -325 q0 -74 72 -74 ZM334 0 l-116 0 q-74 0 -114.5 41 q-40.5 41 -40.5 114 l0 333 q0 74 40.5 114.5 q40.5 40.5 114.5 40.5 l116 0 q74 0 115 -40.5 q41 -40.5 41 -114.5 l0 -333 q0 -73 -41 -114 q-41 -41 -115 -41 Z" /><glyph glyph-name="multiply" unicode="×" d="M315 322 l105 -106 q13 -13 0 -27 l-34 -32 q-12 -15 -26 -1 l-105 106 l-106 -106 q-14 -14 -26 1 l-33 32 q-14 14 -1 27 l106 106 l-105 104 q-13 14 0 27 l33 33 q13 15 27 0 l105 -104 l104 104 q14 14 27 0 l33 -33 q13 -13 0 -27 l-104 -104 Z" /><glyph glyph-name="Oslash" unicode="ø" d="M502 488 l0 -333 q0 -73 -41 -114 q-41 -41 -114 -41 l-122 0 q-68 0 -108 35 l-20 -28 q-11 -14 -26 -5 l-17 13 q-14 11 -4 26 l32 45 q-12 30 -12 69 l0 333 q0 74 40.5 114.5 q40.5 40.5 114.5 40.5 l122 0 q68 0 109 -35 l19 27 q11 15 26 5 l17 -12 q14 -10 5 -25 l-33 -46 q12 -30 12 -69 ZM167 484 l0 -279 l230 321 q-15 32 -64 32 l-94 0 q-72 0 -72 -74 ZM405 159 l0 279 l-230 -321 q17 -32 64 -32 l94 0 q72 0 72 74 Z" /><glyph glyph-name="Ugrave" unicode="ù" d="M306 707 l-48 0 q-14 0 -23 12 l-84 100 q-6 7 -3.5 12 q2.5 5 11.5 5 l78 0 q17 0 26 -16 l51 -96 q8 -17 -8 -17 ZM409 643 l63 0 q18 0 18 -16 l0 -472 q0 -73 -41.5 -114 q-41.5 -41 -114.5 -41 l-111 0 q-73 0 -114 41 q-41 41 -41 114 l0 471 q0 17 17 17 l63 0 q17 0 17 -17 l0 -467 q0 -74 72 -74 l82 0 q73 0 73 74 l0 467 q0 17 17 17 Z" /><glyph glyph-name="Uacute" unicode="ú" d="M319 836 l79 0 q8 0 10.5 -5 q2.5 -5 -2.5 -12 l-85 -100 q-9 -12 -23 -12 l-48 0 q-16 0 -8 17 l52 96 q8 16 25 16 ZM409 643 l63 0 q18 0 18 -16 l0 -472 q0 -73 -41.5 -114 q-41.5 -41 -114.5 -41 l-111 0 q-73 0 -114 41 q-41 41 -41 114 l0 471 q0 17 17 17 l63 0 q17 0 17 -17 l0 -467 q0 -74 72 -74 l82 0 q73 0 73 74 l0 467 q0 17 17 17 Z" /><glyph glyph-name="Ucircumflex" unicode="û" d="M382 707 l-45 0 q-12 0 -16 10 l-41 78 l-40 -78 q-5 -10 -16 -10 l-45 0 q-15 0 -7 12 l63 107 q7 10 21 10 l49 0 q14 0 21 -10 l63 -107 q8 -12 -7 -12 ZM409 643 l63 0 q18 0 18 -16 l0 -472 q0 -73 -41.5 -114 q-41.5 -41 -114.5 -41 l-111 0 q-73 0 -114 41 q-41 41 -41 114 l0 471 q0 17 17 17 l63 0 q17 0 17 -17 l0 -467 q0 -74 72 -74 l82 0 q73 0 73 74 l0 467 q0 17 17 17 Z" /><glyph glyph-name="Udieresis" unicode="ü" d="M143 724 l0 95 q0 17 16 17 l60 0 q15 0 15 -16 l0 -96 q0 -17 -15 -17 l-60 0 q-16 0 -16 17 ZM323 724 l0 95 q0 17 15 17 l61 0 q15 0 15 -16 l0 -96 q0 -17 -15 -17 l-61 0 q-15 0 -15 17 ZM409 643 l63 0 q18 0 18 -16 l0 -472 q0 -73 -41.5 -114 q-41.5 -41 -114.5 -41 l-111 0 q-73 0 -114 41 q-41 41 -41 114 l0 471 q0 17 17 17 l63 0 q17 0 17 -17 l0 -467 q0 -74 72 -74 l82 0 q73 0 73 74 l0 467 q0 17 17 17 Z" /><glyph glyph-name="Yacute" unicode="ý" d="M293 836 l79 0 q8 0 10.5 -5 q2.5 -5 -2.5 -12 l-84 -100 q-10 -12 -24 -12 l-47 0 q-18 0 -8 17 l51 96 q8 16 25 16 ZM286 0 l-64 0 q-17 0 -17 17 l0 221 l-187 387 q-4 8 0 13 q4 5 11 5 l80 0 q13 0 20 -17 l123 -275 l6 0 l121 275 q6 17 20 17 l80 0 q8 0 11.5 -5 q3.5 -5 -0.5 -13 l-187 -387 l0 -221 q0 -17 -17 -17 Z" /><glyph glyph-name="Thorn" unicode="þ" d="M201 218 l81 0 q38 0 55 17.5 q17 17.5 17 55.5 l0 60 q0 74 -72 74 l-81 0 q-10 0 -10 -10 l0 -187 q0 -10 10 -10 ZM174 0 l-64 0 q-17 0 -17 17 l0 609 q0 17 17 17 l64 0 q17 0 17 -17 l0 -106 q0 -10 11 -10 l95 0 q73 0 114.5 -40.5 q41.5 -40.5 41.5 -114.5 l0 -68 q0 -74 -41.5 -114.5 q-41.5 -40.5 -114.5 -40.5 l-95 0 q-11 0 -11 -10 l0 -105 q0 -17 -17 -17 Z" /><glyph glyph-name="germandbls" unicode="ß" d="M271 362 l30 0 q78 0 78 74 l0 51 q0 73 -74 73 l-71 0 q-71 0 -71 -73 l0 -470 q0 -17 -17 -17 l-64 0 q-17 0 -17 17 l0 471 q0 74 41 114.5 q41 40.5 114 40.5 l99 0 q73 0 114 -41.5 q41 -41.5 41 -114.5 l0 -55 q0 -83 -72 -110 q39 -8 60.5 -41 q21.5 -33 21.5 -78 l0 -54 q0 -73 -40.5 -111 q-40.5 -38 -114.5 -38 l-73 0 q-18 0 -18 16 l0 50 q0 17 18 17 l59 0 q74 0 74 73 l0 49 q0 74 -82 74 l-36 0 q-17 0 -17 16 l0 50 q0 17 17 17 Z" /><glyph glyph-name="agrave" unicode="à" d="M309 574 l-48 0 q-14 0 -23 12 l-84 100 q-6 8 -3.5 12.5 q2.5 4.5 11.5 4.5 l78 0 q18 0 26 -16 l52 -96 q8 -17 -9 -17 ZM247 0 l-39 0 q-74 0 -114.5 41 q-40.5 41 -40.5 114 l0 200 q0 74 40.5 114.5 q40.5 40.5 114.5 40.5 l224 0 q18 0 18 -17 l0 -476 q0 -17 -18 -17 l-63 0 q-17 0 -17 17 l0 36 l-4 0 q-24 -53 -101 -53 ZM352 170 l0 245 q0 10 -11 10 l-119 0 q-72 0 -72 -74 l0 -192 q0 -74 72 -74 l48 0 q82 0 82 85 Z" /><glyph glyph-name="aacute" unicode="á" d="M309 703 l78 0 q8 0 10.5 -4.5 q2.5 -4.5 -2.5 -12.5 l-84 -100 q-9 -12 -24 -12 l-47 0 q-16 0 -8 17 l52 96 q7 16 25 16 ZM247 0 l-39 0 q-74 0 -114.5 41 q-40.5 41 -40.5 114 l0 200 q0 74 40.5 114.5 q40.5 40.5 114.5 40.5 l224 0 q18 0 18 -17 l0 -476 q0 -17 -18 -17 l-63 0 q-17 0 -17 17 l0 36 l-4 0 q-24 -53 -101 -53 ZM352 170 l0 245 q0 10 -11 10 l-119 0 q-72 0 -72 -74 l0 -192 q0 -74 72 -74 l48 0 q82 0 82 85 Z" /><glyph glyph-name="acircumflex" unicode="â" d="M369 574 l-46 0 q-12 0 -16 10 l-40 78 l-40 -78 q-5 -10 -16 -10 l-46 0 q-6 0 -8 4 q-2 4 1 8 l64 107 q7 10 21 10 l48 0 q14 0 21 -10 l63 -107 q8 -12 -6 -12 ZM247 0 l-39 0 q-74 0 -114.5 41 q-40.5 41 -40.5 114 l0 200 q0 74 40.5 114.5 q40.5 40.5 114.5 40.5 l224 0 q18 0 18 -17 l0 -476 q0 -17 -18 -17 l-63 0 q-17 0 -17 17 l0 36 l-4 0 q-24 -53 -101 -53 ZM352 170 l0 245 q0 10 -11 10 l-119 0 q-72 0 -72 -74 l0 -192 q0 -74 72 -74 l48 0 q82 0 82 85 Z" /><glyph glyph-name="atilde" unicode="ã" d="M158 652 l0 38 q0 11 10 11 l29 0 q9 0 9 -11 l0 -19 q0 -25 5 -34 q5 -9 14.5 -9 q9.5 0 15.5 7 q6 7 20 32 q24 38 59 38 q67 0 67 -77 l0 -38 q0 -12 -9 -12 l-30 0 q-10 0 -10 12 l0 18 q0 26 -4.5 34.5 q-4.5 8.5 -14.5 8.5 q-10 0 -15 -5.5 q-5 -5.5 -17 -27.5 q-23 -43 -62 -43 q-67 0 -67 77 ZM247 0 l-39 0 q-74 0 -114.5 41 q-40.5 41 -40.5 114 l0 200 q0 74 40.5 114.5 q40.5 40.5 114.5 40.5 l224 0 q18 0 18 -17 l0 -476 q0 -17 -18 -17 l-63 0 q-17 0 -17 17 l0 36 l-4 0 q-24 -53 -101 -53 ZM352 170 l0 245 q0 10 -11 10 l-119 0 q-72 0 -72 -74 l0 -192 q0 -74 72 -74 l48 0 q82 0 82 85 Z" /><glyph glyph-name="adieresis" unicode="ä" d="M136 591 l0 95 q0 17 16 17 l60 0 q16 0 16 -16 l0 -96 q0 -17 -16 -17 l-60 0 q-16 0 -16 17 ZM316 591 l0 95 q0 17 16 17 l60 0 q16 0 16 -16 l0 -96 q0 -17 -16 -17 l-60 0 q-16 0 -16 17 ZM247 0 l-39 0 q-74 0 -114.5 41 q-40.5 41 -40.5 114 l0 200 q0 74 40.5 114.5 q40.5 40.5 114.5 40.5 l224 0 q18 0 18 -17 l0 -476 q0 -17 -18 -17 l-63 0 q-17 0 -17 17 l0 36 l-4 0 q-24 -53 -101 -53 ZM352 170 l0 245 q0 10 -11 10 l-119 0 q-72 0 -72 -74 l0 -192 q0 -74 72 -74 l48 0 q82 0 82 85 Z" /><glyph glyph-name="aring" unicode="å" d="M352 170 l0 245 q0 10 -11 10 l-119 0 q-72 0 -72 -74 l0 -192 q0 -74 72 -74 l48 0 q82 0 82 85 ZM247 0 l-39 0 q-74 0 -114.5 41 q-40.5 41 -40.5 114 l0 200 q0 74 40.5 114.5 q40.5 40.5 114.5 40.5 l224 0 q18 0 18 -17 l0 -476 q0 -17 -18 -17 l-63 0 q-17 0 -17 17 l0 36 l-4 0 q-24 -53 -101 -53 ZM222 657 l0 -33 q0 -19 7.5 -26 q7.5 -7 26.5 -7 l15 0 q19 0 26.5 7 q7.5 7 7.5 26 l0 33 q0 20 -7 26.5 q-7 6.5 -26 6.5 l-16 0 q-19 0 -26.5 -6.5 q-7.5 -6.5 -7.5 -26.5 ZM184 612 l0 60 q0 52 57 52 l45 0 q58 0 58 -52 l0 -60 q0 -55 -58 -55 l-45 0 q-57 0 -57 55 Z" /><glyph glyph-name="ae" unicode="æ" d="M440 189 l0 -30 q0 -74 73 -74 l190 0 q18 0 18 -17 l0 -52 q0 -16 -18 -16 l-205 0 q-86 0 -123 61 q-33 -61 -136 -61 l-34 0 q-72 0 -113.5 39.5 q-41.5 39.5 -41.5 110.5 l0 16 q0 73 40.5 111 q40.5 38 114.5 38 l130 0 q8 0 8 8 l0 29 q0 73 -72 73 l-160 0 q-17 0 -17 17 l0 51 q0 17 17 17 l157 0 q93 0 124 -59 q31 59 121 59 l53 0 q73 0 114 -40.5 q41 -40.5 41 -114.5 l0 -138 q0 -18 -18 -18 l-251 0 q-12 0 -12 -10 ZM635 278 l0 73 q0 74 -73 74 l-46 0 q-76 0 -76 -72 l0 -75 q0 -11 11 -11 l173 0 q11 0 11 11 ZM343 164 l0 70 q0 10 -11 10 l-112 0 q-41 0 -59.5 -18 q-18.5 -18 -18.5 -56 l0 -14 q0 -39 18.5 -57.5 q18.5 -18.5 59.5 -18.5 l41 0 q82 0 82 84 Z" /><glyph glyph-name="ccedilla" unicode="ç" d="M355 425 l-133 0 q-72 0 -72 -74 l0 -192 q0 -74 72 -74 l133 0 q18 0 18 -17 l0 -52 q0 -16 -18 -16 l-63 0 l-37 -38 l0 -4 q76 0 76 -70 l0 -15 q0 -66 -90 -66 l-37 0 q-10 0 -13 3 q-3 3 -3 12 l0 17 q0 15 16 15 l28 0 q28 0 38 6 q10 6 10 21 l0 2 q0 16 -9.5 21.5 q-9.5 5.5 -38.5 5.5 l-21 0 q-18 0 -24 17.5 q-6 17.5 7 31.5 l35 41 l-21 0 q-74 0 -114.5 41 q-40.5 41 -40.5 114 l0 200 q0 74 40.5 114.5 q40.5 40.5 114.5 40.5 l147 0 q18 0 18 -17 l0 -52 q0 -16 -18 -16 Z" /><glyph glyph-name="egrave" unicode="è" d="M282 574 l-48 0 q-14 0 -22 12 l-85 100 q-6 8 -3.5 12.5 q2.5 4.5 11.5 4.5 l78 0 q18 0 26 -16 l52 -96 q7 -17 -9 -17 ZM424 0 l-216 0 q-74 0 -114.5 41 q-40.5 41 -40.5 114 l0 200 q0 74 40.5 114.5 q40.5 40.5 114.5 40.5 l82 0 q74 0 115 -40.5 q41 -40.5 41 -114.5 l0 -127 q0 -18 -18 -18 l-268 0 q-11 0 -11 -10 l0 -43 q0 -73 73 -73 l202 0 q18 0 18 -18 l0 -50 q0 -16 -18 -16 ZM160 278 l179 0 q10 0 10 10 l0 64 q0 38 -17 55.5 q-17 17.5 -55 17.5 l-55 0 q-38 0 -55 -17.5 q-17 -17.5 -17 -55.5 l0 -64 q0 -10 10 -10 Z" /><glyph glyph-name="eacute" unicode="é" d="M289 703 l77 0 q9 0 11.5 -4.5 q2.5 -4.5 -3.5 -12.5 l-84 -100 q-9 -12 -24 -12 l-47 0 q-17 0 -8 17 l52 96 q8 16 26 16 ZM424 0 l-216 0 q-74 0 -114.5 41 q-40.5 41 -40.5 114 l0 200 q0 74 40.5 114.5 q40.5 40.5 114.5 40.5 l82 0 q74 0 115 -40.5 q41 -40.5 41 -114.5 l0 -127 q0 -18 -18 -18 l-268 0 q-11 0 -11 -10 l0 -43 q0 -73 73 -73 l202 0 q18 0 18 -18 l0 -50 q0 -16 -18 -16 ZM160 278 l179 0 q10 0 10 10 l0 64 q0 38 -17 55.5 q-17 17.5 -55 17.5 l-55 0 q-38 0 -55 -17.5 q-17 -17.5 -17 -55.5 l0 -64 q0 -10 10 -10 Z" /><glyph glyph-name="ecircumflex" unicode="ê" d="M354 574 l-45 0 q-12 0 -16 10 l-40 78 l-41 -78 q-4 -10 -15 -10 l-46 0 q-14 0 -6 12 l62 107 q7 10 21 10 l49 0 q14 0 21 -10 l63 -107 q8 -12 -7 -12 ZM424 0 l-216 0 q-74 0 -114.5 41 q-40.5 41 -40.5 114 l0 200 q0 74 40.5 114.5 q40.5 40.5 114.5 40.5 l82 0 q74 0 115 -40.5 q41 -40.5 41 -114.5 l0 -127 q0 -18 -18 -18 l-268 0 q-11 0 -11 -10 l0 -43 q0 -73 73 -73 l202 0 q18 0 18 -18 l0 -50 q0 -16 -18 -16 ZM160 278 l179 0 q10 0 10 10 l0 64 q0 38 -17 55.5 q-17 17.5 -55 17.5 l-55 0 q-38 0 -55 -17.5 q-17 -17.5 -17 -55.5 l0 -64 q0 -10 10 -10 Z" /><glyph glyph-name="edieresis" unicode="ë" d="M117 591 l0 95 q0 17 16 17 l59 0 q17 0 17 -16 l0 -96 q0 -17 -17 -17 l-59 0 q-16 0 -16 17 ZM296 591 l0 95 q0 17 17 17 l59 0 q17 0 17 -16 l0 -96 q0 -17 -17 -17 l-59 0 q-17 0 -17 17 ZM424 0 l-216 0 q-74 0 -114.5 41 q-40.5 41 -40.5 114 l0 200 q0 74 40.5 114.5 q40.5 40.5 114.5 40.5 l82 0 q74 0 115 -40.5 q41 -40.5 41 -114.5 l0 -127 q0 -18 -18 -18 l-268 0 q-11 0 -11 -10 l0 -43 q0 -73 73 -73 l202 0 q18 0 18 -18 l0 -50 q0 -16 -18 -16 ZM160 278 l179 0 q10 0 10 10 l0 64 q0 38 -17 55.5 q-17 17.5 -55 17.5 l-55 0 q-38 0 -55 -17.5 q-17 -17.5 -17 -55.5 l0 -64 q0 -10 10 -10 Z" /><glyph glyph-name="igrave" unicode="ì" d="M140 574 l-48 0 q-14 0 -23 12 l-84 100 q-5 8 -2.5 12.5 q2.5 4.5 10.5 4.5 l78 0 q18 0 25 -16 l52 -96 q8 -17 -8 -17 ZM68 17 l0 476 q0 17 16 17 l64 0 q17 0 17 -17 l0 -476 q0 -10 -3.5 -13.5 q-3.5 -3.5 -12.5 -3.5 l-64 0 q-17 0 -17 17 Z" /><glyph glyph-name="iacute" unicode="í" d="M162 703 l78 0 q8 0 10.5 -4.5 q2.5 -4.5 -2.5 -12.5 l-84 -100 q-9 -12 -24 -12 l-47 0 q-17 0 -8 17 l52 96 q7 16 25 16 ZM68 17 l0 476 q0 17 16 17 l64 0 q17 0 17 -17 l0 -476 q0 -10 -3.5 -13.5 q-3.5 -3.5 -12.5 -3.5 l-64 0 q-17 0 -17 17 Z" /><glyph glyph-name="icircumflex" unicode="î" d="M218 574 l-46 0 q-11 0 -15 10 l-41 78 l-40 -78 q-4 -10 -16 -10 l-45 0 q-15 0 -7 12 l63 107 q7 10 21 10 l49 0 q14 0 21 -10 l62 -107 q8 -12 -6 -12 ZM68 17 l0 476 q0 17 16 17 l64 0 q17 0 17 -17 l0 -476 q0 -10 -3.5 -13.5 q-3.5 -3.5 -12.5 -3.5 l-64 0 q-17 0 -17 17 Z" /><glyph glyph-name="idieresis" unicode="ï" d="M-20 591 l0 95 q0 17 16 17 l60 0 q17 0 17 -16 l0 -96 q0 -17 -17 -17 l-60 0 q-16 0 -16 17 ZM160 591 l0 95 q0 17 16 17 l60 0 q17 0 17 -16 l0 -96 q0 -17 -17 -17 l-60 0 q-16 0 -16 17 ZM68 17 l0 476 q0 17 16 17 l64 0 q17 0 17 -17 l0 -476 q0 -10 -3.5 -13.5 q-3.5 -3.5 -12.5 -3.5 l-64 0 q-17 0 -17 17 Z" /><glyph glyph-name="eth" unicode="ð" d="M443 323 l0 -168 q0 -73 -41 -114 q-41 -41 -114 -41 l-80 0 q-74 0 -114.5 41 q-40.5 41 -40.5 114 l0 100 q0 74 40.5 114.5 q40.5 40.5 114.5 40.5 l39 0 q36 0 66 -14 q30 -14 41 -39 l4 0 q-6 34 -31 65 l-93 104 l-87 -73 q-13 -10 -24 4 l-23 27 q-8 11 3 22 l85 72 l-66 73 q-15 16 3 31 l31 23 q16 11 30 -4 l64 -71 l90 76 q14 11 23 0 l23 -29 q12 -16 -1 -25 l-88 -74 l101 -111 q45 -52 45 -144 ZM345 159 l0 81 q0 85 -75 85 l-41 0 q-79 0 -79 -74 l0 -92 q0 -74 72 -74 l52 0 q71 0 71 74 Z" /><glyph glyph-name="ntilde" unicode="ñ" d="M139 652 l0 38 q0 11 10 11 l30 0 q10 0 10 -11 l0 -19 q0 -26 4 -34.5 q4 -8.5 14 -8.5 q10 0 16 7 q6 7 19.5 30.5 q13.5 23.5 26.5 31.5 q13 8 33 8 q67 0 67 -77 l0 -38 q0 -12 -9 -12 l-30 0 q-10 0 -10 12 l0 18 q0 26 -4 34.5 q-4 8.5 -14.5 8.5 q-10.5 0 -15.5 -5.5 q-5 -5.5 -18 -27.5 q-13 -26 -27 -34.5 q-14 -8.5 -35 -8.5 q-67 0 -67 77 ZM143 0 l-63 0 q-17 0 -17 17 l0 476 q0 17 17 17 l63 0 q17 0 17 -17 l0 -36 l4 0 q24 53 101 53 l44 0 q73 0 112 -40 q39 -40 39 -115 l0 -338 q0 -17 -18 -17 l-63 0 q-17 0 -17 17 l0 334 q0 74 -73 74 l-47 0 q-82 0 -82 -85 l0 -323 q0 -17 -17 -17 Z" /><glyph glyph-name="ograve" unicode="ò" d="M280 574 l-48 0 q-14 0 -23 12 l-84 100 q-5 8 -2.5 12.5 q2.5 4.5 10.5 4.5 l79 0 q17 0 25 -16 l51 -96 q10 -17 -8 -17 ZM296 0 l-88 0 q-74 0 -114.5 41 q-40.5 41 -40.5 114 l0 200 q0 74 40.5 114.5 q40.5 40.5 114.5 40.5 l88 0 q73 0 114.5 -40.5 q41.5 -40.5 41.5 -114.5 l0 -200 q0 -73 -41.5 -114 q-41.5 -41 -114.5 -41 ZM222 85 l61 0 q72 0 72 73 l0 194 q0 73 -72 73 l-61 0 q-38 0 -55 -17.5 q-17 -17.5 -17 -55.5 l0 -194 q0 -38 17 -55.5 q17 -17.5 55 -17.5 Z" /><glyph glyph-name="oacute" unicode="ó" d="M296 703 l78 0 q9 0 11.5 -4.5 q2.5 -4.5 -3.5 -12.5 l-84 -100 q-10 -12 -24 -12 l-47 0 q-17 0 -8 17 l51 96 q9 16 26 16 ZM296 0 l-88 0 q-74 0 -114.5 41 q-40.5 41 -40.5 114 l0 200 q0 74 40.5 114.5 q40.5 40.5 114.5 40.5 l88 0 q73 0 114.5 -40.5 q41.5 -40.5 41.5 -114.5 l0 -200 q0 -73 -41.5 -114 q-41.5 -41 -114.5 -41 ZM222 85 l61 0 q72 0 72 73 l0 194 q0 73 -72 73 l-61 0 q-38 0 -55 -17.5 q-17 -17.5 -17 -55.5 l0 -194 q0 -38 17 -55.5 q17 -17.5 55 -17.5 Z" /><glyph glyph-name="ocircumflex" unicode="ô" d="M354 574 l-46 0 q-12 0 -16 10 l-40 78 l-40 -78 q-5 -10 -16 -10 l-46 0 q-6 0 -8 4 q-2 4 1 8 l64 107 q7 10 21 10 l48 0 q14 0 21 -10 l63 -107 q8 -12 -6 -12 ZM296 0 l-88 0 q-74 0 -114.5 41 q-40.5 41 -40.5 114 l0 200 q0 74 40.5 114.5 q40.5 40.5 114.5 40.5 l88 0 q73 0 114.5 -40.5 q41.5 -40.5 41.5 -114.5 l0 -200 q0 -73 -41.5 -114 q-41.5 -41 -114.5 -41 ZM222 85 l61 0 q72 0 72 73 l0 194 q0 73 -72 73 l-61 0 q-38 0 -55 -17.5 q-17 -17.5 -17 -55.5 l0 -194 q0 -38 17 -55.5 q17 -17.5 55 -17.5 Z" /><glyph glyph-name="otilde" unicode="õ" d="M131 652 l0 38 q0 11 10 11 l30 0 q10 0 10 -11 l0 -19 q0 -26 4 -34.5 q4 -8.5 14 -8.5 q10 0 16 7 q6 7 19.5 30.5 q13.5 23.5 26.5 31.5 q13 8 33 8 q67 0 67 -77 l0 -38 q0 -12 -9 -12 l-30 0 q-10 0 -10 12 l0 18 q0 26 -4 34.5 q-4 8.5 -14.5 8.5 q-10.5 0 -15.5 -5.5 q-5 -5.5 -18 -27.5 q-13 -26 -27 -34.5 q-14 -8.5 -35 -8.5 q-67 0 -67 77 ZM296 0 l-88 0 q-74 0 -114.5 41 q-40.5 41 -40.5 114 l0 200 q0 74 40.5 114.5 q40.5 40.5 114.5 40.5 l88 0 q73 0 114.5 -40.5 q41.5 -40.5 41.5 -114.5 l0 -200 q0 -73 -41.5 -114 q-41.5 -41 -114.5 -41 ZM222 85 l61 0 q72 0 72 73 l0 194 q0 73 -72 73 l-61 0 q-38 0 -55 -17.5 q-17 -17.5 -17 -55.5 l0 -194 q0 -38 17 -55.5 q17 -17.5 55 -17.5 Z" /><glyph glyph-name="odieresis" unicode="ö" d="M116 591 l0 95 q0 17 16 17 l60 0 q16 0 16 -16 l0 -96 q0 -17 -16 -17 l-60 0 q-16 0 -16 17 ZM296 591 l0 95 q0 17 16 17 l60 0 q16 0 16 -16 l0 -96 q0 -17 -16 -17 l-60 0 q-16 0 -16 17 ZM296 0 l-88 0 q-74 0 -114.5 41 q-40.5 41 -40.5 114 l0 200 q0 74 40.5 114.5 q40.5 40.5 114.5 40.5 l88 0 q73 0 114.5 -40.5 q41.5 -40.5 41.5 -114.5 l0 -200 q0 -73 -41.5 -114 q-41.5 -41 -114.5 -41 ZM222 85 l61 0 q72 0 72 73 l0 194 q0 73 -72 73 l-61 0 q-38 0 -55 -17.5 q-17 -17.5 -17 -55.5 l0 -194 q0 -38 17 -55.5 q17 -17.5 55 -17.5 Z" /><glyph glyph-name="divide" unicode="÷" d="M207 155 l0 54 q0 16 17 16 l34 0 q18 0 18 -16 l0 -54 q0 -17 -18 -17 l-34 0 q-17 0 -17 17 ZM393 287 l-303 0 q-18 0 -18 17 l0 34 q0 17 18 17 l303 0 q16 0 16 -17 l0 -34 q0 -17 -16 -17 ZM207 433 l0 53 q0 18 17 18 l34 0 q18 0 18 -18 l0 -53 q0 -17 -18 -17 l-34 0 q-17 0 -17 17 Z" /><glyph glyph-name="oslash" unicode="ø" d="M460 355 l0 -200 q0 -73 -41 -114 q-41 -41 -115 -41 l-87 0 q-81 0 -123 50 l-31 -31 q-14 -13 -24 0 l-14 13 q-13 12 0 25 l43 43 q-7 24 -7 55 l0 200 q0 74 41 114.5 q41 40.5 115 40.5 l87 0 q82 0 124 -50 l30 30 q11 14 24 1 l14 -13 q14 -12 0 -25 l-43 -43 q7 -24 7 -55 ZM159 351 l0 -160 l197 197 q-13 37 -66 37 l-59 0 q-72 0 -72 -74 ZM362 159 l0 160 l-197 -198 q13 -36 66 -36 l59 0 q72 0 72 74 Z" /><glyph glyph-name="ugrave" unicode="ù" d="M284 574 l-49 0 q-15 0 -22 12 l-84 100 q-6 8 -3.5 12.5 q2.5 4.5 10.5 4.5 l78 0 q18 0 26 -16 l52 -96 q8 -17 -8 -17 ZM252 0 l-45 0 q-72 0 -110.5 40.5 q-38.5 40.5 -38.5 114.5 l0 338 q0 17 17 17 l63 0 q17 0 17 -17 l0 -334 q0 -74 72 -74 l48 0 q82 0 82 85 l0 323 q0 17 17 17 l63 0 q18 0 18 -17 l0 -476 q0 -17 -18 -17 l-63 0 q-17 0 -17 17 l0 36 l-4 0 q-24 -53 -101 -53 Z" /><glyph glyph-name="uacute" unicode="ú" d="M296 703 l79 0 q8 0 10.5 -4.5 q2.5 -4.5 -2.5 -12.5 l-85 -100 q-9 -12 -24 -12 l-46 0 q-18 0 -9 17 l52 96 q8 16 25 16 ZM252 0 l-45 0 q-72 0 -110.5 40.5 q-38.5 40.5 -38.5 114.5 l0 338 q0 17 17 17 l63 0 q17 0 17 -17 l0 -334 q0 -74 72 -74 l48 0 q82 0 82 85 l0 323 q0 17 17 17 l63 0 q18 0 18 -17 l0 -476 q0 -17 -18 -17 l-63 0 q-17 0 -17 17 l0 36 l-4 0 q-24 -53 -101 -53 Z" /><glyph glyph-name="ucircumflex" unicode="û" d="M358 574 l-46 0 q-11 0 -16 10 l-40 78 l-40 -78 q-4 -10 -16 -10 l-45 0 q-15 0 -7 12 l62 107 q7 10 22 10 l48 0 q15 0 22 -10 l62 -107 q8 -12 -6 -12 ZM252 0 l-45 0 q-72 0 -110.5 40.5 q-38.5 40.5 -38.5 114.5 l0 338 q0 17 17 17 l63 0 q17 0 17 -17 l0 -334 q0 -74 72 -74 l48 0 q82 0 82 85 l0 323 q0 17 17 17 l63 0 q18 0 18 -17 l0 -476 q0 -17 -18 -17 l-63 0 q-17 0 -17 17 l0 36 l-4 0 q-24 -53 -101 -53 Z" /><glyph glyph-name="udieresis" unicode="ü" d="M120 591 l0 95 q0 17 16 17 l60 0 q16 0 16 -16 l0 -96 q0 -17 -16 -17 l-60 0 q-16 0 -16 17 ZM300 591 l0 95 q0 17 16 17 l60 0 q16 0 16 -16 l0 -96 q0 -17 -16 -17 l-60 0 q-16 0 -16 17 ZM252 0 l-45 0 q-72 0 -110.5 40.5 q-38.5 40.5 -38.5 114.5 l0 338 q0 17 17 17 l63 0 q17 0 17 -17 l0 -334 q0 -74 72 -74 l48 0 q82 0 82 85 l0 323 q0 17 17 17 l63 0 q18 0 18 -17 l0 -476 q0 -17 -18 -17 l-63 0 q-17 0 -17 17 l0 36 l-4 0 q-24 -53 -101 -53 Z" /><glyph glyph-name="yacute" unicode="ý" d="M276 703 l78 0 q9 0 11.5 -4.5 q2.5 -4.5 -3.5 -12.5 l-84 -100 q-9 -12 -24 -12 l-47 0 q-17 0 -8 17 l52 96 q8 16 25 16 ZM123 -162 l-53 0 q-17 0 -17 17 l0 51 q0 18 17 18 l23 0 q61 0 84.5 24 q23.5 24 39.5 79 l-40 0 q-15 0 -21 17 l-133 449 q-4 17 13 17 l67 0 q16 0 20 -17 l109 -392 l4 0 l109 392 q3 17 20 17 l64 0 q19 0 16 -18 l-137 -481 q-23 -84 -65 -128.5 q-42 -44.5 -120 -44.5 Z" /><glyph glyph-name="thorn" unicode="þ" d="M245 85 l52 0 q72 0 72 74 l0 192 q0 74 -72 74 l-52 0 q-82 0 -82 -85 l0 -170 q0 -85 82 -85 ZM163 53 l0 -169 q0 -17 -17 -17 l-64 0 q-17 0 -17 17 l0 802 q0 17 17 17 l64 0 q17 0 17 -17 l0 -229 l4 0 q23 53 100 53 l45 0 q73 0 114 -40.5 q41 -40.5 41 -114.5 l0 -200 q0 -73 -41 -114 q-41 -41 -114 -41 l-45 0 q-77 0 -100 53 l-4 0 Z" /><glyph glyph-name="ydieresis" unicode="ÿ" d="M99 591 l0 95 q0 17 15 17 l61 0 q16 0 16 -16 l0 -96 q0 -17 -16 -17 l-61 0 q-15 0 -15 17 ZM278 591 l0 95 q0 17 16 17 l60 0 q17 0 17 -16 l0 -96 q0 -17 -17 -17 l-60 0 q-16 0 -16 17 ZM123 -162 l-53 0 q-17 0 -17 17 l0 51 q0 18 17 18 l23 0 q61 0 84.5 24 q23.5 24 39.5 79 l-40 0 q-15 0 -21 17 l-133 449 q-4 17 13 17 l67 0 q16 0 20 -17 l109 -392 l4 0 l109 392 q3 17 20 17 l64 0 q19 0 16 -18 l-137 -481 q-23 -84 -65 -128.5 q-42 -44.5 -120 -44.5 Z" /><glyph glyph-name="Amacron" unicode="&#x100;" d="M373 740 l-199 0 q-17 0 -17 17 l0 35 q0 17 17 17 l199 0 q17 0 17 -17 l0 -35 q0 -17 -17 -17 ZM108 0 l-72 0 q-14 0 -10 17 l174 609 q5 17 24 17 l100 0 q20 0 24 -17 l174 -609 q4 -17 -11 -17 l-71 0 q-9 0 -12.5 3.5 q-3.5 3.5 -5.5 13.5 l-38 130 l-220 0 l-38 -130 q-4 -17 -18 -17 ZM272 547 l-88 -320 l181 0 l-89 320 l-4 0 Z" /><glyph glyph-name="amacron" unicode="&#x101;" d="M380 605 l-200 0 q-17 0 -17 17 l0 34 q0 17 17 17 l200 0 q17 0 17 -17 l0 -34 q0 -17 -17 -17 ZM247 0 l-39 0 q-74 0 -114.5 41 q-40.5 41 -40.5 114 l0 200 q0 74 40.5 114.5 q40.5 40.5 114.5 40.5 l224 0 q18 0 18 -17 l0 -476 q0 -17 -18 -17 l-63 0 q-17 0 -17 17 l0 36 l-4 0 q-24 -53 -101 -53 ZM352 170 l0 245 q0 10 -11 10 l-119 0 q-72 0 -72 -74 l0 -192 q0 -74 72 -74 l48 0 q82 0 82 85 Z" /><glyph glyph-name="Abreve" unicode="&#x102;" d="M164 824 q0 12 12 12 l38 0 q12 0 12 -12 l0 -10 q0 -31 10.5 -43.5 q10.5 -12.5 34.5 -12.5 l6 0 q24 0 34.5 13 q10.5 13 10.5 43 l0 10 q0 12 12 12 l37 0 q12 0 12 -12 l0 -11 q0 -106 -97 -106 l-25 0 q-97 0 -97 106 l0 11 ZM108 0 l-72 0 q-14 0 -10 17 l174 609 q5 17 24 17 l100 0 q20 0 24 -17 l174 -609 q4 -17 -11 -17 l-71 0 q-9 0 -12.5 3.5 q-3.5 3.5 -5.5 13.5 l-38 130 l-220 0 l-38 -130 q-4 -17 -18 -17 ZM272 547 l-88 -320 l181 0 l-89 320 l-4 0 Z" /><glyph glyph-name="abreve" unicode="&#x103;" d="M352 170 l0 245 q0 10 -11 10 l-119 0 q-72 0 -72 -74 l0 -192 q0 -74 72 -74 l48 0 q82 0 82 85 ZM247 0 l-39 0 q-74 0 -114.5 41 q-40.5 41 -40.5 114 l0 200 q0 74 40.5 114.5 q40.5 40.5 114.5 40.5 l224 0 q18 0 18 -17 l0 -476 q0 -17 -18 -17 l-63 0 q-17 0 -17 17 l0 36 l-4 0 q-24 -53 -101 -53 ZM164 680 l0 11 q0 12 13 12 l38 0 q12 0 12 -12 l0 -10 q0 -31 10 -43.5 q10 -12.5 34 -12.5 l6 0 q24 0 34.5 13 q10.5 13 10.5 43 l0 10 q0 12 12 12 l37 0 q12 0 12 -12 l0 -11 q0 -106 -96 -106 l-26 0 q-97 0 -97 106 Z" /><glyph glyph-name="Aogonek" unicode="&#x104;" d="M511 0 l-52 0 l-42 -62 l40 0 q14 0 19 -3.5 q5 -3.5 5 -13.5 q0 -17 -28.5 -27 q-28.5 -10 -57 -10 q-28.5 0 -36.5 15.5 q-8 15.5 5 33.5 l57 86 l-37 128 l-220 0 l-38 -130 q-4 -17 -18 -17 l-72 0 q-14 0 -10 17 l174 609 q5 17 24 17 l100 0 q20 0 24 -17 l174 -609 q4 -17 -11 -17 ZM184 227 l181 0 l-89 320 l-4 0 l-88 -320 Z" /><glyph glyph-name="aogonek" unicode="&#x105;" d="M208 510 l224 0 q18 0 18 -17 l0 -476 q0 -17 -18 -17 l-46 0 q-13 -17 -26.5 -41.5 q-13.5 -24.5 -12.5 -24.5 q30 0 42 3 q23 2 19 -15 q-1 -17 -29 -27.5 q-28 -10.5 -53 -10.5 q-25 0 -29 21 q-4 21 9 38 l46 75 l0 35 l-4 0 q-24 -53 -101 -53 l-39 0 q-74 0 -114.5 41 q-40.5 41 -40.5 114 l0 200 q0 74 40.5 114.5 q40.5 40.5 114.5 40.5 ZM222 85 l48 0 q82 0 82 85 l0 245 q0 10 -11 10 l-119 0 q-72 0 -72 -74 l0 -192 q0 -74 72 -74 Z" /><glyph glyph-name="Cacute" unicode="&#x106;" d="M334 0 l-116 0 q-74 0 -114.5 41 q-40.5 41 -40.5 114 l0 333 q0 74 40.5 114.5 q40.5 40.5 114.5 40.5 l116 0 q73 0 114 -40.5 q41 -40.5 41 -114.5 l0 -48 q0 -18 -18 -18 l-63 0 q-17 0 -17 18 l0 44 q0 74 -72 74 l-87 0 q-72 0 -72 -74 l0 -325 q0 -74 72 -74 l87 0 q72 0 72 74 l0 44 q0 18 17 18 l63 0 q18 0 18 -18 l0 -48 q0 -73 -41 -114 q-41 -41 -114 -41 ZM308 836 l78 0 q9 0 11.5 -5 q2.5 -5 -3.5 -12 l-84 -100 q-9 -12 -23 -12 l-48 0 q-16 0 -9 17 l52 96 q8 16 26 16 Z" /><glyph glyph-name="cacute" unicode="&#x107;" d="M267 703 l79 0 q8 0 10.5 -4.5 q2.5 -4.5 -2.5 -12.5 l-84 -100 q-10 -12 -24 -12 l-47 0 q-18 0 -8 17 l51 96 q8 16 25 16 ZM373 68 l0 -52 q0 -16 -18 -16 l-147 0 q-74 0 -114.5 41 q-40.5 41 -40.5 114 l0 200 q0 74 40.5 114.5 q40.5 40.5 114.5 40.5 l147 0 q18 0 18 -17 l0 -52 q0 -16 -18 -16 l-133 0 q-72 0 -72 -74 l0 -192 q0 -74 72 -74 l133 0 q18 0 18 -17 Z" /><glyph glyph-name="Cdotaccent" unicode="&#x10a;" d="M334 0 l-116 0 q-74 0 -114.5 41 q-40.5 41 -40.5 114 l0 333 q0 74 40.5 114.5 q40.5 40.5 114.5 40.5 l116 0 q73 0 114 -40.5 q41 -40.5 41 -114.5 l0 -48 q0 -18 -18 -18 l-63 0 q-17 0 -17 18 l0 44 q0 74 -72 74 l-87 0 q-72 0 -72 -74 l0 -325 q0 -74 72 -74 l87 0 q72 0 72 74 l0 44 q0 18 17 18 l63 0 q18 0 18 -18 l0 -48 q0 -73 -41 -114 q-41 -41 -114 -41 ZM227 727 l0 95 q0 17 16 17 l65 0 q17 0 17 -16 l0 -96 q0 -17 -17 -17 l-65 0 q-16 0 -16 17 Z" /><glyph glyph-name="cdotaccent" unicode="&#x10b;" d="M188 590 l0 97 q0 16 16 16 l66 0 q15 0 15 -16 l0 -97 q0 -16 -15 -16 l-66 0 q-16 0 -16 16 ZM373 68 l0 -52 q0 -16 -18 -16 l-147 0 q-74 0 -114.5 41 q-40.5 41 -40.5 114 l0 200 q0 74 40.5 114.5 q40.5 40.5 114.5 40.5 l147 0 q18 0 18 -17 l0 -52 q0 -16 -18 -16 l-133 0 q-72 0 -72 -74 l0 -192 q0 -74 72 -74 l133 0 q18 0 18 -17 Z" /><glyph glyph-name="Ccaron" unicode="&#x10c;" d="M334 0 l-116 0 q-74 0 -114.5 41 q-40.5 41 -40.5 114 l0 333 q0 74 40.5 114.5 q40.5 40.5 114.5 40.5 l116 0 q73 0 114 -40.5 q41 -40.5 41 -114.5 l0 -48 q0 -18 -18 -18 l-63 0 q-17 0 -17 18 l0 44 q0 74 -72 74 l-87 0 q-72 0 -72 -74 l0 -325 q0 -74 72 -74 l87 0 q72 0 72 74 l0 44 q0 18 17 18 l63 0 q18 0 18 -18 l0 -48 q0 -73 -41 -114 q-41 -41 -114 -41 ZM302 707 l-48 0 q-14 0 -21 10 l-63 107 q-8 12 7 12 l45 0 q12 0 16 -10 l40 -78 l40 78 q5 10 16 10 l47 0 q6 0 7.5 -4 q1.5 -4 -1.5 -8 l-63 -107 q-7 -10 -22 -10 Z" /><glyph glyph-name="ccaron" unicode="&#x10d;" d="M214 574 q-14 0 -21 10 l-62 107 q-8 12 6 12 l46 0 q11 0 15 -10 l41 -78 l40 78 q4 10 16 10 l45 0 q15 0 7 -12 l-63 -107 q-7 -10 -21 -10 l-49 0 ZM373 68 l0 -52 q0 -16 -18 -16 l-147 0 q-74 0 -114.5 41 q-40.5 41 -40.5 114 l0 200 q0 74 40.5 114.5 q40.5 40.5 114.5 40.5 l147 0 q18 0 18 -17 l0 -52 q0 -16 -18 -16 l-133 0 q-72 0 -72 -74 l0 -192 q0 -74 72 -74 l133 0 q18 0 18 -17 Z" /><glyph glyph-name="Dcaron" unicode="&#x10e;" d="M251 707 q-14 0 -21 10 l-64 107 q-3 4 -1 8 q2 4 9 4 l45 0 q11 0 16 -10 l40 -78 l41 78 q4 10 15 10 l46 0 q14 0 6 -12 l-63 -107 q-7 -10 -21 -10 l-48 0 ZM181 85 l141 0 q72 0 72 74 l0 325 q0 74 -72 74 l-141 0 q-11 0 -11 -10 l0 -452 q0 -11 11 -11 ZM73 17 l0 609 q0 17 17 17 l246 0 q73 0 114.5 -40.5 q41.5 -40.5 41.5 -114.5 l0 -333 q0 -73 -41.5 -114 q-41.5 -41 -114.5 -41 l-246 0 q-17 0 -17 17 Z" /><glyph glyph-name="dcaron" unicode="&#x10f;" d="M599 687 l0 -45 q0 -28 -18 -71 l-42 -98 q-7 -9 -15 -9 q-14 0 -14 16 l0 206 q0 17 16 17 l57 0 q16 0 16 -16 ZM253 0 l-51 0 q-72 0 -110.5 40.5 q-38.5 40.5 -38.5 114.5 l0 200 q0 75 38.5 115 q38.5 40 110.5 40 l51 0 q77 0 100 -53 l4 0 l0 229 q0 17 17 17 l64 0 q17 0 17 -17 l0 -669 q0 -17 -17 -17 l-64 0 q-17 0 -17 17 l0 36 l-4 0 q-23 -53 -100 -53 ZM357 170 l0 170 q0 85 -82 85 l-53 0 q-72 0 -72 -74 l0 -192 q0 -74 72 -74 l53 0 q82 0 82 85 Z" /><glyph glyph-name="Dcroat" unicode="&#x110;" d="M191 85 l140 0 q73 0 73 74 l0 325 q0 74 -73 74 l-140 0 q-11 0 -11 -10 l0 -139 q0 -11 11 -11 l103 0 q17 0 17 -17 l0 -40 q0 -16 -17 -16 l-103 0 q-11 0 -11 -10 l0 -219 q0 -11 11 -11 ZM346 0 l-247 0 q-17 0 -17 17 l0 298 q0 10 -10 10 l-32 0 q-10 0 -13.5 3.5 q-3.5 3.5 -3.5 12.5 l0 40 q0 17 17 17 l32 0 q10 0 10 11 l0 217 q0 17 17 17 l247 0 q74 0 115 -40.5 q41 -40.5 41 -114.5 l0 -333 q0 -73 -41 -114 q-41 -41 -115 -41 Z" /><glyph glyph-name="dcroat" unicode="&#x111;" d="M253 0 l-45 0 q-74 0 -114.5 41 q-40.5 41 -40.5 114 l0 142 q0 73 40.5 114 q40.5 41 114.5 41 l45 0 q35 0 62 -14 q27 -14 38 -40 l4 0 l0 134 q0 10 -11 10 l-142 0 q-16 0 -16 17 l0 40 q0 17 16 17 l142 0 q11 0 11 11 l0 59 q0 17 17 17 l64 0 q17 0 17 -17 l0 -59 q0 -11 11 -11 l58 0 q17 0 17 -17 l0 -40 q0 -17 -17 -17 l-58 0 q-11 0 -11 -10 l0 -515 q0 -17 -17 -17 l-64 0 q-17 0 -17 17 l0 36 l-4 0 q-23 -53 -100 -53 ZM357 170 l0 112 q0 84 -82 84 l-53 0 q-72 0 -72 -73 l0 -134 q0 -74 72 -74 l53 0 q82 0 82 85 Z" /><glyph glyph-name="Emacron" unicode="&#x112;" d="M349 740 l-200 0 q-16 0 -16 17 l0 35 q0 17 16 17 l200 0 q17 0 17 -17 l0 -35 q0 -17 -17 -17 ZM410 0 l-320 0 q-17 0 -17 17 l0 609 q0 17 17 17 l320 0 q16 0 16 -17 l0 -51 q0 -17 -16 -17 l-228 0 q-12 0 -12 -10 l0 -169 q0 -10 12 -10 l193 0 q18 0 18 -17 l0 -51 q0 -17 -18 -17 l-193 0 q-12 0 -12 -10 l0 -178 q0 -11 12 -11 l228 0 q16 0 16 -17 l0 -51 q0 -17 -16 -17 Z" /><glyph glyph-name="emacron" unicode="&#x113;" d="M352 605 l-199 0 q-17 0 -17 17 l0 34 q0 17 17 17 l199 0 q18 0 18 -17 l0 -34 q0 -17 -18 -17 ZM424 0 l-216 0 q-74 0 -114.5 41 q-40.5 41 -40.5 114 l0 200 q0 74 40.5 114.5 q40.5 40.5 114.5 40.5 l82 0 q74 0 115 -40.5 q41 -40.5 41 -114.5 l0 -127 q0 -18 -18 -18 l-268 0 q-11 0 -11 -10 l0 -43 q0 -73 73 -73 l202 0 q18 0 18 -18 l0 -50 q0 -16 -18 -16 ZM160 278 l179 0 q10 0 10 10 l0 64 q0 38 -17 55.5 q-17 17.5 -55 17.5 l-55 0 q-38 0 -55 -17.5 q-17 -17.5 -17 -55.5 l0 -64 q0 -10 10 -10 Z" /><glyph glyph-name="Ebreve" unicode="&#x114;" d="M138 824 q0 12 12 12 l38 0 q12 0 12 -12 l0 -10 q0 -31 10 -43.5 q10 -12.5 34 -12.5 l6 0 q24 0 34.5 13 q10.5 13 10.5 43 l0 10 q0 12 13 12 l36 0 q13 0 13 -12 l0 -11 q0 -106 -97 -106 l-26 0 q-96 0 -96 106 l0 11 ZM410 0 l-320 0 q-17 0 -17 17 l0 609 q0 17 17 17 l320 0 q16 0 16 -17 l0 -51 q0 -17 -16 -17 l-228 0 q-12 0 -12 -10 l0 -169 q0 -10 12 -10 l193 0 q18 0 18 -17 l0 -51 q0 -17 -18 -17 l-193 0 q-12 0 -12 -10 l0 -178 q0 -11 12 -11 l228 0 q16 0 16 -17 l0 -51 q0 -17 -16 -17 Z" /><glyph glyph-name="ebreve" unicode="&#x115;" d="M160 278 l179 0 q10 0 10 10 l0 64 q0 38 -17 55.5 q-17 17.5 -55 17.5 l-55 0 q-38 0 -55 -17.5 q-17 -17.5 -17 -55.5 l0 -64 q0 -10 10 -10 ZM424 0 l-216 0 q-74 0 -114.5 41 q-40.5 41 -40.5 114 l0 200 q0 74 40.5 114.5 q40.5 40.5 114.5 40.5 l82 0 q74 0 115 -40.5 q41 -40.5 41 -114.5 l0 -127 q0 -18 -18 -18 l-268 0 q-11 0 -11 -10 l0 -43 q0 -73 73 -73 l202 0 q18 0 18 -18 l0 -50 q0 -16 -18 -16 ZM142 680 l0 11 q0 12 12 12 l38 0 q11 0 11 -12 l0 -10 q0 -30 10.5 -43 q10.5 -13 34.5 -13 l6 0 q25 0 35.5 13 q10.5 13 10.5 43 l0 10 q0 12 11 12 l38 0 q12 0 12 -12 l0 -11 q0 -52 -25.5 -79 q-25.5 -27 -71.5 -27 l-26 0 q-96 0 -96 106 Z" /><glyph glyph-name="Edotaccent" unicode="&#x116;" d="M201 727 l0 95 q0 17 16 17 l66 0 q16 0 16 -16 l0 -96 q0 -17 -16 -17 l-66 0 q-16 0 -16 17 ZM410 0 l-320 0 q-17 0 -17 17 l0 609 q0 17 17 17 l320 0 q16 0 16 -17 l0 -51 q0 -17 -16 -17 l-228 0 q-12 0 -12 -10 l0 -169 q0 -10 12 -10 l193 0 q18 0 18 -17 l0 -51 q0 -17 -18 -17 l-193 0 q-12 0 -12 -10 l0 -178 q0 -11 12 -11 l228 0 q16 0 16 -17 l0 -51 q0 -17 -16 -17 Z" /><glyph glyph-name="edotaccent" unicode="&#x117;" d="M204 590 l0 97 q0 16 16 16 l66 0 q16 0 16 -16 l0 -97 q0 -16 -16 -16 l-66 0 q-16 0 -16 16 ZM424 0 l-216 0 q-74 0 -114.5 41 q-40.5 41 -40.5 114 l0 200 q0 74 40.5 114.5 q40.5 40.5 114.5 40.5 l82 0 q74 0 115 -40.5 q41 -40.5 41 -114.5 l0 -127 q0 -18 -18 -18 l-268 0 q-11 0 -11 -10 l0 -43 q0 -73 73 -73 l202 0 q18 0 18 -18 l0 -50 q0 -16 -18 -16 ZM160 278 l179 0 q10 0 10 10 l0 64 q0 38 -17 55.5 q-17 17.5 -55 17.5 l-55 0 q-38 0 -55 -17.5 q-17 -17.5 -17 -55.5 l0 -64 q0 -10 10 -10 Z" /><glyph glyph-name="Eogonek" unicode="&#x118;" d="M410 558 l-228 0 q-12 0 -12 -10 l0 -169 q0 -10 12 -10 l193 0 q18 0 18 -17 l0 -51 q0 -17 -18 -17 l-193 0 q-12 0 -12 -10 l0 -178 q0 -11 12 -11 l228 0 q16 0 16 -17 l0 -51 q0 -17 -16 -17 l-45 0 l-43 -62 l41 0 q14 0 18.5 -3.5 q4.5 -3.5 4.5 -13.5 q0 -17 -28.5 -27 q-28.5 -10 -57 -10 q-28.5 0 -36.5 15.5 q-8 15.5 6 33.5 l45 67 l-225 0 q-17 0 -17 17 l0 609 q0 17 17 17 l320 0 q16 0 16 -17 l0 -51 q0 -17 -16 -17 Z" /><glyph glyph-name="eogonek" unicode="&#x119;" d="M428 210 l-268 0 q-11 0 -11 -10 l0 -43 q0 -73 73 -73 l202 0 q18 0 18 -18 l0 -50 q0 -16 -18 -16 l-53 0 q-13 -17 -26.5 -41.5 q-13.5 -24.5 -12.5 -24.5 q30 0 42 3 q22 1 18 -15 q-1 -17 -29 -27.5 q-28 -10.5 -52.5 -10.5 q-24.5 0 -28.5 21 q-4 21 9 38 l34 57 l-117 0 q-74 0 -114.5 41 q-40.5 41 -40.5 114 l0 200 q0 74 40.5 114.5 q40.5 40.5 114.5 40.5 l82 0 q74 0 115 -40.5 q41 -40.5 41 -114.5 l0 -127 q0 -18 -18 -18 ZM150 352 l0 -64 q0 -10 10 -10 l179 0 q10 0 10 10 l0 64 q0 38 -17 55.5 q-17 17.5 -55 17.5 l-55 0 q-38 0 -55 -17.5 q-17 -17.5 -17 -55.5 Z" /><glyph glyph-name="Ecaron" unicode="&#x11a;" d="M230 707 q-14 0 -21 10 l-63 107 q-8 12 7 12 l45 0 q11 0 15 -10 l41 -78 l40 78 q5 10 16 10 l46 0 q15 0 7 -12 l-64 -107 q-7 -10 -21 -10 l-48 0 ZM410 0 l-320 0 q-17 0 -17 17 l0 609 q0 17 17 17 l320 0 q16 0 16 -17 l0 -51 q0 -17 -16 -17 l-228 0 q-12 0 -12 -10 l0 -169 q0 -10 12 -10 l193 0 q18 0 18 -17 l0 -51 q0 -17 -18 -17 l-193 0 q-12 0 -12 -10 l0 -178 q0 -11 12 -11 l228 0 q16 0 16 -17 l0 -51 q0 -17 -16 -17 Z" /><glyph glyph-name="ecaron" unicode="&#x11b;" d="M228 574 q-14 0 -21 10 l-62 107 q-8 12 6 12 l46 0 q11 0 15 -10 l41 -78 l40 78 q4 10 16 10 l45 0 q15 0 7 -12 l-63 -107 q-7 -10 -21 -10 l-49 0 ZM424 0 l-216 0 q-74 0 -114.5 41 q-40.5 41 -40.5 114 l0 200 q0 74 40.5 114.5 q40.5 40.5 114.5 40.5 l82 0 q74 0 115 -40.5 q41 -40.5 41 -114.5 l0 -127 q0 -18 -18 -18 l-268 0 q-11 0 -11 -10 l0 -43 q0 -73 73 -73 l202 0 q18 0 18 -18 l0 -50 q0 -16 -18 -16 ZM160 278 l179 0 q10 0 10 10 l0 64 q0 38 -17 55.5 q-17 17.5 -55 17.5 l-55 0 q-38 0 -55 -17.5 q-17 -17.5 -17 -55.5 l0 -64 q0 -10 10 -10 Z" /><glyph glyph-name="Gcircumflex" unicode="&#x11c;" d="M375 707 l-46 0 q-11 0 -16 10 l-40 78 l-41 -78 q-2 -10 -15 -10 l-45 0 q-15 0 -7 12 l63 107 q7 10 21 10 l48 0 q15 0 22 -10 l63 -107 q8 -12 -7 -12 ZM325 0 l-107 0 q-74 0 -114.5 41 q-40.5 41 -40.5 114 l0 333 q0 74 40.5 114.5 q40.5 40.5 114.5 40.5 l107 0 q74 0 114.5 -40.5 q40.5 -40.5 40.5 -114.5 l0 -36 q0 -18 -17 -18 l-63 0 q-17 0 -17 18 l0 32 q0 74 -72 74 l-79 0 q-72 0 -72 -74 l0 -325 q0 -74 72 -74 l79 0 q72 0 72 74 l0 90 q0 10 -11 10 l-81 0 q-17 0 -17 17 l0 51 q0 17 17 17 l168 0 q21 0 21 -21 l0 -168 q0 -73 -41 -114 q-41 -41 -114 -41 Z" /><glyph glyph-name="gcircumflex" unicode="&#x11d;" d="M373 574 l-45 0 q-12 0 -16 10 l-40 78 l-41 -78 q-4 -10 -15 -10 l-46 0 q-14 0 -6 12 l62 107 q7 10 21 10 l49 0 q14 0 21 -10 l63 -107 q8 -12 -7 -12 ZM249 25 l-45 0 q-72 0 -110.5 40.5 q-38.5 40.5 -38.5 114.5 l0 175 q0 74 41 114.5 q41 40.5 114 40.5 l224 0 q18 0 18 -17 l0 -495 q0 -73 -41.5 -113.5 q-41.5 -40.5 -114.5 -40.5 l-188 0 q-17 0 -17 16 l0 52 q0 17 17 17 l173 0 q73 0 73 74 l0 76 l-4 0 q-25 -54 -101 -54 ZM354 195 l0 220 q0 10 -11 10 l-119 0 q-71 0 -71 -74 l0 -166 q0 -74 71 -74 l48 0 q82 0 82 84 Z" /><glyph glyph-name="Gbreve" unicode="&#x11e;" d="M162 824 q0 12 12 12 l38 0 q13 0 13 -12 l0 -10 q0 -31 10 -43.5 q10 -12.5 33 -12.5 l7 0 q25 0 35 13 q10 13 10 43 l0 10 q0 12 12 12 l37 0 q12 0 12 -12 l0 -11 q0 -106 -97 -106 l-25 0 q-97 0 -97 106 l0 11 ZM325 0 l-107 0 q-74 0 -114.5 41 q-40.5 41 -40.5 114 l0 333 q0 74 40.5 114.5 q40.5 40.5 114.5 40.5 l107 0 q74 0 114.5 -40.5 q40.5 -40.5 40.5 -114.5 l0 -36 q0 -18 -17 -18 l-63 0 q-17 0 -17 18 l0 32 q0 74 -72 74 l-79 0 q-72 0 -72 -74 l0 -325 q0 -74 72 -74 l79 0 q72 0 72 74 l0 90 q0 10 -11 10 l-81 0 q-17 0 -17 17 l0 51 q0 17 17 17 l168 0 q21 0 21 -21 l0 -168 q0 -73 -41 -114 q-41 -41 -114 -41 Z" /><glyph glyph-name="gbreve" unicode="&#x11f;" d="M354 195 l0 220 q0 10 -11 10 l-119 0 q-71 0 -71 -74 l0 -166 q0 -74 71 -74 l48 0 q82 0 82 84 ZM249 25 l-45 0 q-72 0 -110.5 40.5 q-38.5 40.5 -38.5 114.5 l0 175 q0 74 41 114.5 q41 40.5 114 40.5 l224 0 q18 0 18 -17 l0 -495 q0 -73 -41.5 -113.5 q-41.5 -40.5 -114.5 -40.5 l-188 0 q-17 0 -17 16 l0 52 q0 17 17 17 l173 0 q73 0 73 74 l0 76 l-4 0 q-25 -54 -101 -54 ZM169 680 l0 11 q0 12 13 12 l37 0 q12 0 12 -12 l0 -10 q0 -31 10.5 -43.5 q10.5 -12.5 34.5 -12.5 l6 0 q24 0 34.5 13 q10.5 13 10.5 43 l0 10 q0 12 12 12 l37 0 q12 0 12 -12 l0 -11 q0 -106 -97 -106 l-25 0 q-97 0 -97 106 Z" /><glyph glyph-name="Gdotaccent" unicode="&#x120;" d="M222 727 l0 95 q0 17 17 17 l65 0 q16 0 16 -16 l0 -96 q0 -17 -16 -17 l-65 0 q-17 0 -17 17 ZM325 0 l-107 0 q-74 0 -114.5 41 q-40.5 41 -40.5 114 l0 333 q0 74 40.5 114.5 q40.5 40.5 114.5 40.5 l107 0 q74 0 114.5 -40.5 q40.5 -40.5 40.5 -114.5 l0 -36 q0 -18 -17 -18 l-63 0 q-17 0 -17 18 l0 32 q0 74 -72 74 l-79 0 q-72 0 -72 -74 l0 -325 q0 -74 72 -74 l79 0 q72 0 72 74 l0 90 q0 10 -11 10 l-81 0 q-17 0 -17 17 l0 51 q0 17 17 17 l168 0 q21 0 21 -21 l0 -168 q0 -73 -41 -114 q-41 -41 -114 -41 Z" /><glyph glyph-name="gdotaccent" unicode="&#x121;" d="M225 590 l0 97 q0 16 16 16 l66 0 q16 0 16 -16 l0 -97 q0 -16 -16 -16 l-66 0 q-16 0 -16 16 ZM249 25 l-45 0 q-72 0 -110.5 40.5 q-38.5 40.5 -38.5 114.5 l0 175 q0 74 41 114.5 q41 40.5 114 40.5 l224 0 q18 0 18 -17 l0 -495 q0 -73 -41.5 -113.5 q-41.5 -40.5 -114.5 -40.5 l-188 0 q-17 0 -17 16 l0 52 q0 17 17 17 l173 0 q73 0 73 74 l0 76 l-4 0 q-25 -54 -101 -54 ZM354 195 l0 220 q0 10 -11 10 l-119 0 q-71 0 -71 -74 l0 -166 q0 -74 71 -74 l48 0 q82 0 82 84 Z" /><glyph glyph-name="uni0122" unicode="&#x122;" d="M330 -48 l0 -47 q0 -31 -19 -60 l-42 -74 q-6 -9 -15 -9 q-14 0 -14 16 l0 173 q0 17 17 17 l56 0 q17 0 17 -16 ZM325 0 l-107 0 q-74 0 -114.5 41 q-40.5 41 -40.5 114 l0 333 q0 74 40.5 114.5 q40.5 40.5 114.5 40.5 l107 0 q74 0 114.5 -40.5 q40.5 -40.5 40.5 -114.5 l0 -36 q0 -18 -17 -18 l-63 0 q-17 0 -17 18 l0 32 q0 74 -72 74 l-79 0 q-72 0 -72 -74 l0 -325 q0 -74 72 -74 l79 0 q72 0 72 74 l0 90 q0 10 -11 10 l-81 0 q-17 0 -17 17 l0 51 q0 17 17 17 l168 0 q21 0 21 -21 l0 -168 q0 -73 -41 -114 q-41 -41 -114 -41 Z" /><glyph glyph-name="uni0123" unicode="&#x123;" d="M249 25 l-45 0 q-72 0 -110.5 40.5 q-38.5 40.5 -38.5 114.5 l0 175 q0 74 41 114.5 q41 40.5 114 40.5 l224 0 q18 0 18 -17 l0 -495 q0 -73 -41.5 -113.5 q-41.5 -40.5 -114.5 -40.5 l-188 0 q-17 0 -17 16 l0 52 q0 17 17 17 l173 0 q73 0 73 74 l0 76 l-4 0 q-25 -54 -101 -54 ZM354 195 l0 220 q0 10 -11 10 l-119 0 q-71 0 -71 -74 l0 -166 q0 -74 71 -74 l48 0 q82 0 82 84 ZM230 589 l0 47 q0 31 18 61 l43 74 q5 8 14 8 q14 0 14 -15 l0 -174 q0 -17 -16 -17 l-57 0 q-16 0 -16 16 Z" /><glyph glyph-name="hcircumflex" unicode="&#x125;" d="M405 643 l-45 0 q-12 0 -16 10 l-40 77 l-41 -77 q-4 -10 -15 -10 l-46 0 q-14 0 -7 12 l63 106 q7 11 21 11 l49 0 q14 0 21 -11 l63 -106 q7 -12 -7 -12 ZM143 0 l-63 0 q-17 0 -17 17 l0 669 q0 17 17 17 l63 0 q17 0 17 -17 l0 -229 l4 0 q24 53 101 53 l44 0 q73 0 112 -40 q39 -40 39 -115 l0 -338 q0 -17 -18 -17 l-63 0 q-17 0 -17 17 l0 334 q0 74 -73 74 l-47 0 q-82 0 -82 -85 l0 -323 q0 -17 -17 -17 Z" /><glyph glyph-name="Hbar" unicode="&#x126;" d="M169 0 l-63 0 q-18 0 -18 17 l0 421 q0 11 -10 11 l-38 0 q-10 0 -13.5 3.5 q-3.5 3.5 -3.5 12.5 l0 40 q0 17 17 17 l38 0 q10 0 10 11 l0 93 q0 17 18 17 l63 0 q18 0 18 -17 l0 -93 q0 -11 10 -11 l212 0 q10 0 10 9 l0 95 q0 17 17 17 l63 0 q18 0 18 -17 l0 -93 q0 -11 11 -11 l38 0 q17 0 17 -17 l0 -40 q0 -16 -17 -16 l-38 0 q-11 0 -11 -11 l0 -421 q0 -17 -18 -17 l-63 0 q-17 0 -17 17 l0 241 q0 11 -11 11 l-211 0 q-10 0 -10 -11 l0 -241 q0 -17 -18 -17 ZM197 354 l211 0 q11 0 11 11 l0 73 q0 11 -11 11 l-211 0 q-10 0 -10 -11 l0 -73 q0 -11 10 -11 Z" /><glyph glyph-name="hbar" unicode="&#x127;" d="M179 0 l-63 0 q-18 0 -18 17 l0 515 q0 10 -10 10 l-58 0 q-17 0 -17 17 l0 40 q0 17 17 17 l58 0 q10 0 10 11 l0 59 q0 17 18 17 l63 0 q18 0 18 -17 l0 -59 q0 -11 10 -11 l142 0 q17 0 17 -17 l0 -40 q0 -17 -17 -17 l-142 0 q-10 0 -10 -10 l0 -129 l4 0 q10 26 37 40.5 q27 14.5 62 14.5 l46 0 q73 0 114 -41 q41 -41 41 -114 l0 -286 q0 -17 -18 -17 l-63 0 q-17 0 -17 17 l0 281 q0 74 -72 74 l-53 0 q-81 0 -81 -84 l0 -271 q0 -17 -18 -17 Z" /><glyph glyph-name="Itilde" unicode="&#x128;" d="M78 702 q-66 0 -66 77 l0 39 q0 10 9 10 l30 0 q10 0 10 -10 l0 -20 q0 -26 4 -34.5 q4 -8.5 14 -8.5 q10 0 16 7 q6 7 20 31 q14 24 26.5 31.5 q12.5 7.5 33.5 7.5 q67 0 67 -77 l0 -38 q0 -12 -10 -12 l-30 0 q-10 0 -10 12 l0 19 q0 26 -4 34.5 q-4 8.5 -14 8.5 q-10 0 -15.5 -6 q-5.5 -6 -18.5 -29.5 q-13 -23.5 -27.5 -32.5 q-14.5 -9 -34.5 -9 ZM175 626 l0 -609 q0 -17 -17 -17 l-63 0 q-17 0 -17 17 l0 609 q0 17 17 17 l63 0 q17 0 17 -17 Z" /><glyph glyph-name="itilde" unicode="&#x129;" d="M2 652 l0 38 q0 11 9 11 l30 0 q10 0 10 -11 l0 -19 q0 -26 4 -34.5 q4 -8.5 14 -8.5 q10 0 16 7 q6 7 20 30.5 q14 23.5 26.5 31.5 q12.5 8 33.5 8 q67 0 67 -77 l0 -38 q0 -12 -10 -12 l-30 0 q-10 0 -10 12 l0 18 q0 26 -4 34.5 q-4 8.5 -14.5 8.5 q-10.5 0 -15.5 -6 q-5 -6 -18 -29.5 q-13 -23.5 -27 -32 q-14 -8.5 -35 -8.5 q-66 0 -66 77 ZM68 17 l0 476 q0 17 16 17 l64 0 q17 0 17 -17 l0 -476 q0 -10 -3.5 -13.5 q-3.5 -3.5 -12.5 -3.5 l-64 0 q-17 0 -17 17 Z" /><glyph glyph-name="Imacron" unicode="&#x12a;" d="M226 740 l-199 0 q-17 0 -17 17 l0 35 q0 17 17 17 l199 0 q17 0 17 -17 l0 -35 q0 -17 -17 -17 ZM175 626 l0 -609 q0 -17 -17 -17 l-63 0 q-17 0 -17 17 l0 609 q0 17 17 17 l63 0 q17 0 17 -17 Z" /><glyph glyph-name="imacron" unicode="&#x12b;" d="M216 605 l-200 0 q-17 0 -17 17 l0 34 q0 17 17 17 l200 0 q16 0 16 -17 l0 -34 q0 -17 -16 -17 ZM68 17 l0 476 q0 17 16 17 l64 0 q17 0 17 -17 l0 -476 q0 -10 -3.5 -13.5 q-3.5 -3.5 -12.5 -3.5 l-64 0 q-17 0 -17 17 Z" /><glyph glyph-name="Ibreve" unicode="&#x12c;" d="M17 824 q0 12 12 12 l38 0 q13 0 13 -12 l0 -10 q0 -31 10 -43.5 q10 -12.5 33 -12.5 l7 0 q25 0 35 13 q10 13 10 43 l0 10 q0 12 12 12 l37 0 q12 0 12 -12 l0 -11 q0 -106 -97 -106 l-25 0 q-97 0 -97 106 l0 11 ZM175 626 l0 -609 q0 -17 -17 -17 l-63 0 q-17 0 -17 17 l0 609 q0 17 17 17 l63 0 q17 0 17 -17 Z" /><glyph glyph-name="ibreve" unicode="&#x12d;" d="M68 17 l0 476 q0 17 16 17 l64 0 q17 0 17 -17 l0 -476 q0 -10 -3.5 -13.5 q-3.5 -3.5 -12.5 -3.5 l-64 0 q-17 0 -17 17 ZM7 680 l0 11 q0 12 12 12 l38 0 q13 0 13 -12 l0 -10 q0 -31 10 -43.5 q10 -12.5 33 -12.5 l7 0 q25 0 35 13 q10 13 10 43 l0 10 q0 12 12 12 l37 0 q12 0 12 -12 l0 -11 q0 -106 -97 -106 l-25 0 q-97 0 -97 106 Z" /><glyph glyph-name="Iogonek" unicode="&#x12e;" d="M158 0 l-6 0 l-44 -62 l41 0 q14 0 19 -3.5 q5 -3.5 5 -13.5 q0 -17 -29 -27 q-29 -10 -57.5 -10 q-28.5 0 -36 15.5 q-7.5 15.5 5.5 33.5 l45 67 l-6 0 q-17 0 -17 17 l0 609 q0 17 17 17 l63 0 q17 0 17 -17 l0 -609 q0 -17 -17 -17 Z" /><glyph glyph-name="iogonek" unicode="&#x12f;" d="M84 702 l65 0 q16 0 16 -16 l0 -91 q0 -17 -16 -17 l-65 0 q-16 0 -16 17 l0 91 q0 16 16 16 ZM84 510 l64 0 q17 0 17 -17 l0 -476 q0 -10 -3.5 -13.5 q-3.5 -3.5 -12.5 -3.5 l-12 0 q-13 -17 -26.5 -41.5 q-13.5 -24.5 -12.5 -24.5 q30 0 42 3 q22 1 18 -15 q-1 -17 -29 -27.5 q-28 -10.5 -52.5 -10.5 q-24.5 0 -28.5 21 q-4 21 9 38 l34 57 l-6 0 q-17 0 -17 17 l0 476 q0 17 16 17 Z" /><glyph glyph-name="Idotaccent" unicode="&#x130;" d="M175 626 l0 -609 q0 -17 -17 -17 l-63 0 q-17 0 -17 17 l0 609 q0 17 17 17 l63 0 q17 0 17 -17 ZM78 714 l0 90 q0 17 16 17 l65 0 q16 0 16 -16 l0 -91 q0 -17 -16 -17 l-65 0 q-16 0 -16 17 Z" /><glyph glyph-name="dotlessi" unicode="&#x131;" d="M70 17 l0 476 q0 17 17 17 l64 0 q17 0 17 -17 l0 -476 q0 -10 -3.5 -13.5 q-3.5 -3.5 -12.5 -3.5 l-65 0 q-17 0 -17 17 Z" /><glyph glyph-name="IJ" unicode="&#x132;" d="M593 643 l63 0 q17 0 17 -16 l0 -472 q0 -73 -41 -114 q-41 -41 -114 -41 l-100 0 q-74 0 -115 41 q-41 41 -41 114 l0 90 q0 17 17 17 l64 0 q17 0 17 -17 l0 -86 q0 -74 72 -74 l71 0 q72 0 72 74 l0 467 q0 17 18 17 ZM178 626 l0 -609 q0 -17 -17 -17 l-64 0 q-17 0 -17 17 l0 609 q0 17 17 17 l64 0 q17 0 17 -17 Z" /><glyph glyph-name="ij" unicode="&#x133;" d="M68 17 l0 476 q0 17 16 17 l64 0 q17 0 17 -17 l0 -476 q0 -10 -3.5 -13.5 q-3.5 -3.5 -12.5 -3.5 l-64 0 q-17 0 -17 17 ZM68 595 l0 91 q0 16 16 16 l65 0 q16 0 16 -16 l0 -91 q0 -17 -16 -17 l-65 0 q-16 0 -16 17 ZM297 595 l0 91 q0 16 16 16 l65 0 q17 0 17 -16 l0 -91 q0 -17 -17 -17 l-65 0 q-16 0 -16 17 ZM238 -156 l-52 0 q-17 0 -17 17 l0 51 q0 17 17 17 l25 0 q47 0 66.5 20 q19.5 20 19.5 67 l0 477 q0 17 18 17 l63 0 q17 0 17 -17 l0 -494 q0 -73 -41.5 -114 q-41.5 -41 -115.5 -41 Z" /><glyph glyph-name="Jcircumflex" unicode="&#x134;" d="M365 643 l63 0 q17 0 17 -16 l0 -472 q0 -73 -41 -114 q-41 -41 -114 -41 l-100 0 q-74 0 -115 41 q-41 41 -41 114 l0 90 q0 17 18 17 l63 0 q17 0 17 -17 l0 -86 q0 -74 72 -74 l71 0 q72 0 72 74 l0 467 q0 17 18 17 ZM497 707 l-46 0 q-12 0 -16 10 l-40 78 l-40 -78 q-5 -10 -16 -10 l-46 0 q-6 0 -8 3.5 q-2 3.5 1 8.5 l64 107 q7 10 21 10 l48 0 q14 0 21 -10 l63 -107 q8 -12 -6 -12 Z" /><glyph glyph-name="jcircumflex" unicode="&#x135;" d="M216 574 l-46 0 q-11 0 -16 10 l-40 78 l-41 -78 q-3 -10 -15 -10 l-45 0 q-15 0 -7 12 l62 107 q7 10 22 10 l48 0 q15 0 22 -10 l62 -107 q8 -12 -6 -12 ZM9 -156 l-53 0 q-17 0 -17 17 l0 51 q0 17 17 17 l26 0 q47 0 66.5 20 q19.5 20 19.5 67 l0 477 q0 17 17 17 l63 0 q17 0 17 -17 l0 -494 q0 -73 -41.5 -114 q-41.5 -41 -114.5 -41 Z" /><glyph glyph-name="uni0136" unicode="&#x136;" d="M342 -48 l0 -47 q0 -31 -18 -60 l-42 -74 q-6 -9 -15 -9 q-14 0 -14 16 l0 173 q0 17 16 17 l58 0 q15 0 15 -16 ZM153 0 l-63 0 q-17 0 -17 17 l0 609 q0 17 17 17 l63 0 q17 0 17 -17 l0 -317 l3 0 q10 27 26 50 l191 267 q11 17 32 17 l74 0 q21 0 7 -19 l-195 -265 l220 -339 q12 -20 -12 -20 l-56 0 q-27 0 -38 17 l-173 271 l-79 -93 l0 -178 q0 -17 -17 -17 Z" /><glyph glyph-name="uni0137" unicode="&#x137;" d="M353 510 l72 0 q9 0 12.5 -5.5 q3.5 -5.5 -2.5 -14.5 l-141 -224 l0 -4 l152 -242 q5 -8 1.5 -14 q-3.5 -6 -14.5 -6 l-65 0 q-23 0 -34 17 l-141 231 q-7 13 0 27 l131 219 q9 16 29 16 ZM143 0 l-63 0 q-17 0 -17 17 l0 669 q0 17 17 17 l63 0 q17 0 17 -17 l0 -669 q0 -17 -17 -17 ZM292 -48 l0 -47 q0 -31 -18 -60 l-42 -74 q-8 -9 -15 -9 q-14 0 -14 16 l0 173 q0 17 16 17 l58 0 q15 0 15 -16 Z" /><glyph glyph-name="Lacute" unicode="&#x139;" d="M167 836 l78 0 q9 0 11.5 -5 q2.5 -5 -3.5 -12 l-85 -100 q-8 -12 -22 -12 l-48 0 q-16 0 -9 17 l52 96 q8 16 26 16 ZM414 0 l-324 0 q-17 0 -17 17 l0 609 q0 17 17 17 l63 0 q17 0 17 -17 l0 -529 q0 -10 12 -10 l232 0 q17 0 17 -18 l0 -52 q0 -17 -17 -17 Z" /><glyph glyph-name="lacute" unicode="&#x13a;" d="M159 881 l78 0 q8 0 11 -5 q3 -5 -2 -12 l-85 -101 q-11 -11 -24 -11 l-47 0 q-16 0 -8 17 l52 96 q7 16 25 16 ZM148 0 l-63 0 q-17 0 -17 17 l0 669 q0 17 17 17 l63 0 q17 0 17 -17 l0 -669 q0 -17 -17 -17 Z" /><glyph glyph-name="uni013B" unicode="&#x13b;" d="M294 -48 l0 -47 q0 -29 -19 -60 l-42 -74 q-6 -9 -15 -9 q-14 0 -14 16 l0 173 q0 17 16 17 l58 0 q16 0 16 -16 ZM414 0 l-324 0 q-17 0 -17 17 l0 609 q0 17 17 17 l63 0 q17 0 17 -17 l0 -529 q0 -10 12 -10 l232 0 q17 0 17 -18 l0 -52 q0 -17 -17 -17 Z" /><glyph glyph-name="uni013C" unicode="&#x13c;" d="M162 -48 l0 -47 q0 -31 -19 -60 l-42 -74 q-6 -9 -15 -9 q-13 0 -13 16 l0 173 q0 17 16 17 l57 0 q16 0 16 -16 ZM148 0 l-63 0 q-17 0 -17 17 l0 669 q0 17 17 17 l63 0 q17 0 17 -17 l0 -669 q0 -17 -17 -17 Z" /><glyph glyph-name="Lcaron" unicode="&#x13d;" d="M382 627 l0 -45 q0 -28 -18 -71 l-43 -98 q-5 -9 -15 -9 q-13 0 -13 16 l0 206 q0 17 16 17 l57 0 q16 0 16 -16 ZM414 0 l-324 0 q-17 0 -17 17 l0 609 q0 17 17 17 l63 0 q17 0 17 -17 l0 -529 q0 -10 12 -10 l232 0 q17 0 17 -18 l0 -52 q0 -17 -17 -17 Z" /><glyph glyph-name="lcaron" unicode="&#x13e;" d="M317 687 l0 -45 q0 -32 -18 -71 l-43 -98 q-5 -9 -14 -9 q-14 0 -14 16 l0 206 q0 17 16 17 l57 0 q16 0 16 -16 ZM148 0 l-63 0 q-17 0 -17 17 l0 669 q0 17 17 17 l63 0 q17 0 17 -17 l0 -669 q0 -17 -17 -17 Z" /><glyph glyph-name="Ldot" unicode="&#x13f;" d="M420 0 l-325 0 q-17 0 -17 17 l0 609 q0 17 17 17 l64 0 q17 0 17 -17 l0 -529 q0 -10 11 -10 l233 0 q17 0 17 -18 l0 -52 q0 -17 -17 -17 ZM384 371 l0 -104 q0 -17 -16 -17 l-68 0 q-17 0 -17 18 l0 102 q0 17 17 17 l68 0 q16 0 16 -16 Z" /><glyph glyph-name="ldot" unicode="&#x140;" d="M154 0 l-64 0 q-17 0 -17 17 l0 669 q0 17 17 17 l64 0 q17 0 17 -17 l0 -669 q0 -17 -17 -17 ZM340 371 l0 -104 q0 -17 -15 -17 l-69 0 q-16 0 -16 18 l0 102 q0 17 16 17 l69 0 q15 0 15 -16 Z" /><glyph glyph-name="Lslash" unicode="&#x141;" d="M440 0 l-325 0 q-17 0 -17 17 l0 302 l-67 -38 q-7 -4 -12 -1 q-5 3 -5 11 l0 51 q0 15 17 25 l67 37 l0 222 q0 17 17 17 l64 0 q17 0 17 -17 l0 -165 l89 50 q17 7 17 -10 l0 -52 q0 -15 -17 -26 l-89 -50 l0 -276 q0 -10 11 -10 l233 0 q16 0 16 -18 l0 -52 q0 -17 -16 -17 Z" /><glyph glyph-name="lslash" unicode="&#x142;" d="M187 0 l-63 0 q-17 0 -17 17 l0 309 l-72 -41 q-17 -7 -17 11 l0 53 q0 15 17 24 l72 40 l0 273 q0 17 17 17 l63 0 q18 0 18 -17 l0 -217 l72 41 q16 8 16 -10 l0 -52 q0 -17 -16 -25 l-72 -41 l0 -365 q0 -17 -18 -17 Z" /><glyph glyph-name="Nacute" unicode="&#x143;" d="M336 836 l77 0 q9 0 11.5 -5 q2.5 -5 -2.5 -12 l-85 -100 q-7 -12 -22 -12 l-49 0 q-15 0 -8 17 l52 96 q8 16 26 16 ZM152 0 l-62 0 q-17 0 -17 17 l0 609 q0 17 17 17 l56 0 q16 0 22 -11 l242 -435 l4 0 l0 429 q0 17 17 17 l62 0 q17 0 17 -17 l0 -609 q0 -17 -17 -17 l-54 0 q-16 0 -26 16 l-240 430 l-4 0 l0 -429 q0 -17 -17 -17 Z" /><glyph glyph-name="nacute" unicode="&#x144;" d="M309 703 l79 0 q8 0 10.5 -4.5 q2.5 -4.5 -2.5 -12.5 l-85 -100 q-9 -12 -24 -12 l-47 0 q-16 0 -8 17 l52 96 q8 16 25 16 ZM143 0 l-63 0 q-17 0 -17 17 l0 476 q0 17 17 17 l63 0 q17 0 17 -17 l0 -36 l4 0 q24 53 101 53 l44 0 q73 0 112 -40 q39 -40 39 -115 l0 -338 q0 -17 -18 -17 l-63 0 q-17 0 -17 17 l0 334 q0 74 -73 74 l-47 0 q-82 0 -82 -85 l0 -323 q0 -17 -17 -17 Z" /><glyph glyph-name="uni0145" unicode="&#x145;" d="M342 -48 l0 -47 q0 -31 -18 -60 l-43 -74 q-5 -9 -14 -9 q-14 0 -14 16 l0 173 q0 17 16 17 l57 0 q16 0 16 -16 ZM152 0 l-62 0 q-17 0 -17 17 l0 609 q0 17 17 17 l56 0 q16 0 22 -11 l242 -435 l4 0 l0 429 q0 17 17 17 l62 0 q17 0 17 -17 l0 -609 q0 -17 -17 -17 l-54 0 q-16 0 -26 16 l-240 430 l-4 0 l0 -429 q0 -17 -17 -17 Z" /><glyph glyph-name="uni0146" unicode="&#x146;" d="M306 -48 l0 -47 q0 -31 -19 -60 l-41 -74 q-8 -9 -15 -9 q-14 0 -14 16 l0 173 q0 17 16 17 l57 0 q16 0 16 -16 ZM143 0 l-63 0 q-17 0 -17 17 l0 476 q0 17 17 17 l63 0 q17 0 17 -17 l0 -36 l4 0 q24 53 101 53 l44 0 q73 0 112 -40 q39 -40 39 -115 l0 -338 q0 -17 -18 -17 l-63 0 q-17 0 -17 17 l0 334 q0 74 -73 74 l-47 0 q-82 0 -82 -85 l0 -323 q0 -17 -17 -17 Z" /><glyph glyph-name="Ncaron" unicode="&#x147;" d="M152 0 l-62 0 q-17 0 -17 17 l0 609 q0 17 17 17 l56 0 q16 0 22 -11 l242 -435 l4 0 l0 429 q0 17 17 17 l62 0 q17 0 17 -17 l0 -609 q0 -17 -17 -17 l-54 0 q-16 0 -26 16 l-240 430 l-4 0 l0 -429 q0 -17 -17 -17 ZM274 707 q-15 0 -22 10 l-63 107 q-3 4 -1 8 q2 4 8 4 l45 0 q12 0 16 -10 l40 -78 l41 78 q4 10 15 10 l47 0 q6 0 7.5 -4 q1.5 -4 -1.5 -8 l-63 -107 q-7 -10 -21 -10 l-48 0 Z" /><glyph glyph-name="ncaron" unicode="&#x148;" d="M237 574 q-15 0 -22 10 l-62 107 q-8 12 7 12 l45 0 q12 0 16 -10 l40 -78 l40 78 q5 10 16 10 l46 0 q14 0 6 -12 l-62 -107 q-7 -10 -22 -10 l-48 0 ZM143 0 l-63 0 q-17 0 -17 17 l0 476 q0 17 17 17 l63 0 q17 0 17 -17 l0 -36 l4 0 q24 53 101 53 l44 0 q73 0 112 -40 q39 -40 39 -115 l0 -338 q0 -17 -18 -17 l-63 0 q-17 0 -17 17 l0 334 q0 74 -73 74 l-47 0 q-82 0 -82 -85 l0 -323 q0 -17 -17 -17 Z" /><glyph glyph-name="Eng" unicode="&#x14a;" d="M360 -160 l-53 0 q-17 0 -17 17 l0 51 q0 17 17 17 l25 0 q46 0 65.5 20 q19.5 20 19.5 67 l0 4 q-20 35 -116 211.5 q-96 176.5 -121 218.5 l-4 0 l0 -429 q0 -17 -17 -17 l-64 0 q-17 0 -17 17 l0 609 q0 17 17 17 l58 0 q15 0 21 -11 l240 -435 l4 0 l0 429 q0 17 17 17 l64 0 q17 0 17 -17 l0 -631 q0 -73 -41.5 -114 q-41.5 -41 -114.5 -41 Z" /><glyph glyph-name="eng" unicode="&#x14b;" d="M303 -160 l-52 0 q-17 0 -17 17 l0 51 q0 17 17 17 l25 0 q47 0 66.5 20 q19.5 20 19.5 67 l0 339 q0 74 -73 74 l-47 0 q-82 0 -82 -85 l0 -323 q0 -17 -17 -17 l-63 0 q-17 0 -17 17 l0 476 q0 17 17 17 l63 0 q17 0 17 -17 l0 -36 l4 0 q24 53 101 53 l39 0 q73 0 114.5 -40.5 q41.5 -40.5 41.5 -114.5 l0 -360 q0 -73 -42 -114 q-42 -41 -115 -41 Z" /><glyph glyph-name="Omacron" unicode="&#x14c;" d="M376 740 l-200 0 q-17 0 -17 17 l0 35 q0 17 17 17 l200 0 q17 0 17 -17 l0 -35 q0 -17 -17 -17 ZM232 85 l87 0 q73 0 73 74 l0 325 q0 74 -73 74 l-87 0 q-72 0 -72 -74 l0 -325 q0 -74 72 -74 ZM334 0 l-116 0 q-74 0 -114.5 41 q-40.5 41 -40.5 114 l0 333 q0 74 40.5 114.5 q40.5 40.5 114.5 40.5 l116 0 q74 0 115 -40.5 q41 -40.5 41 -114.5 l0 -333 q0 -73 -41 -114 q-41 -41 -115 -41 Z" /><glyph glyph-name="omacron" unicode="&#x14d;" d="M352 605 l-200 0 q-17 0 -17 17 l0 34 q0 17 17 17 l200 0 q17 0 17 -17 l0 -34 q0 -17 -17 -17 ZM296 0 l-88 0 q-74 0 -114.5 41 q-40.5 41 -40.5 114 l0 200 q0 74 40.5 114.5 q40.5 40.5 114.5 40.5 l88 0 q73 0 114.5 -40.5 q41.5 -40.5 41.5 -114.5 l0 -200 q0 -73 -41.5 -114 q-41.5 -41 -114.5 -41 ZM222 85 l61 0 q72 0 72 73 l0 194 q0 73 -72 73 l-61 0 q-38 0 -55 -17.5 q-17 -17.5 -17 -55.5 l0 -194 q0 -38 17 -55.5 q17 -17.5 55 -17.5 Z" /><glyph glyph-name="Obreve" unicode="&#x14e;" d="M167 824 q0 12 12 12 l38 0 q12 0 12 -12 l0 -10 q0 -30 10.5 -43 q10.5 -13 33.5 -13 l6 0 q25 0 35.5 13 q10.5 13 10.5 43 l0 10 q0 12 12 12 l37 0 q12 0 12 -12 l0 -11 q0 -106 -97 -106 l-25 0 q-97 0 -97 106 l0 11 ZM232 85 l87 0 q73 0 73 74 l0 325 q0 74 -73 74 l-87 0 q-72 0 -72 -74 l0 -325 q0 -74 72 -74 ZM334 0 l-116 0 q-74 0 -114.5 41 q-40.5 41 -40.5 114 l0 333 q0 74 40.5 114.5 q40.5 40.5 114.5 40.5 l116 0 q74 0 115 -40.5 q41 -40.5 41 -114.5 l0 -333 q0 -73 -41 -114 q-41 -41 -115 -41 Z" /><glyph glyph-name="obreve" unicode="&#x14f;" d="M222 85 l61 0 q72 0 72 73 l0 194 q0 73 -72 73 l-61 0 q-38 0 -55 -17.5 q-17 -17.5 -17 -55.5 l0 -194 q0 -38 17 -55.5 q17 -17.5 55 -17.5 ZM296 0 l-88 0 q-74 0 -114.5 41 q-40.5 41 -40.5 114 l0 200 q0 74 40.5 114.5 q40.5 40.5 114.5 40.5 l88 0 q73 0 114.5 -40.5 q41.5 -40.5 41.5 -114.5 l0 -200 q0 -73 -41.5 -114 q-41.5 -41 -114.5 -41 ZM143 680 l0 11 q0 12 12 12 l38 0 q12 0 12 -12 l0 -10 q0 -31 10 -43.5 q10 -12.5 34 -12.5 l7 0 q24 0 34.5 13 q10.5 13 10.5 43 l0 10 q0 12 12 12 l36 0 q13 0 13 -12 l0 -11 q0 -106 -97 -106 l-26 0 q-46 0 -71 27 q-25 27 -25 79 Z" /><glyph glyph-name="Ohungarumlaut" unicode="&#x150;" d="M251 836 l52 0 q19 0 9 -17 l-75 -100 q-9 -12 -22 -12 l-32 0 q-17 0 -8 17 l51 96 q9 16 25 16 ZM393 836 l52 0 q19 0 8 -17 l-74 -100 q-11 -12 -23 -12 l-31 0 q-17 0 -8 17 l51 96 q7 16 25 16 ZM232 85 l87 0 q73 0 73 74 l0 325 q0 74 -73 74 l-87 0 q-72 0 -72 -74 l0 -325 q0 -74 72 -74 ZM334 0 l-116 0 q-74 0 -114.5 41 q-40.5 41 -40.5 114 l0 333 q0 74 40.5 114.5 q40.5 40.5 114.5 40.5 l116 0 q74 0 115 -40.5 q41 -40.5 41 -114.5 l0 -333 q0 -73 -41 -114 q-41 -41 -115 -41 Z" /><glyph glyph-name="ohungarumlaut" unicode="&#x151;" d="M230 703 l52 0 q19 0 8 -17 l-75 -100 q-7 -12 -21 -12 l-32 0 q-16 0 -8 17 l51 96 q7 16 25 16 ZM372 703 l51 0 q20 0 9 -17 l-75 -100 q-9 -12 -22 -12 l-31 0 q-18 0 -8 17 l51 96 q7 16 25 16 ZM296 0 l-88 0 q-74 0 -114.5 41 q-40.5 41 -40.5 114 l0 200 q0 74 40.5 114.5 q40.5 40.5 114.5 40.5 l88 0 q73 0 114.5 -40.5 q41.5 -40.5 41.5 -114.5 l0 -200 q0 -73 -41.5 -114 q-41.5 -41 -114.5 -41 ZM222 85 l61 0 q72 0 72 73 l0 194 q0 73 -72 73 l-61 0 q-38 0 -55 -17.5 q-17 -17.5 -17 -55.5 l0 -194 q0 -38 17 -55.5 q17 -17.5 55 -17.5 Z" /><glyph glyph-name="OE" unicode="&#x152;" d="M68 155 l0 333 q0 74 41 114.5 q41 40.5 115 40.5 l475 0 q17 0 17 -17 l0 -51 q0 -17 -17 -17 l-223 0 q-10 0 -10 -10 l0 -169 q0 -10 10 -10 l189 0 q17 0 17 -17 l0 -51 q0 -17 -17 -17 l-189 0 q-10 0 -10 -10 l0 -178 q0 -11 10 -11 l223 0 q17 0 17 -17 l0 -51 q0 -17 -17 -17 l-475 0 q-74 0 -115 41 q-41 41 -41 114 ZM239 85 l118 0 q12 0 12 11 l0 452 q0 10 -12 10 l-118 0 q-72 0 -72 -74 l0 -325 q0 -74 72 -74 Z" /><glyph glyph-name="oe" unicode="&#x153;" d="M284 0 l-76 0 q-74 0 -114.5 41 q-40.5 41 -40.5 114 l0 200 q0 74 40.5 114.5 q40.5 40.5 114.5 40.5 l71 0 q89 0 130 -62 q32 62 123 62 l59 0 q73 0 114.5 -40.5 q41.5 -40.5 41.5 -114.5 l0 -127 q0 -18 -18 -18 l-267 0 q-10 0 -10 -10 l0 -41 q0 -74 72 -74 l202 0 q16 0 16 -17 l0 -52 q0 -9 -3 -12.5 q-3 -3.5 -13 -3.5 l-200 0 q-50 0 -80 16 q-30 16 -50 50 q-24 -66 -112 -66 ZM462 278 l176 0 q11 0 11 10 l0 63 q0 74 -72 74 l-53 0 q-72 0 -72 -74 l0 -63 q0 -10 10 -10 ZM222 85 l59 0 q72 0 72 74 l0 192 q0 74 -72 74 l-59 0 q-72 0 -72 -74 l0 -192 q0 -74 72 -74 Z" /><glyph glyph-name="Racute" unicode="&#x154;" d="M295 836 l78 0 q9 0 11.5 -5 q2.5 -5 -3.5 -12 l-85 -100 q-8 -12 -22 -12 l-48 0 q-16 0 -9 17 l52 96 q8 16 26 16 ZM153 0 l-63 0 q-17 0 -17 17 l0 609 q0 17 17 17 l234 0 q73 0 114.5 -41.5 q41.5 -41.5 41.5 -114.5 l0 -84 q0 -115 -95 -145 l0 -4 l111 -234 q11 -20 -13 -20 l-62 0 q-24 0 -31 17 l-107 230 l-101 0 q-12 0 -12 -10 l0 -220 q0 -17 -17 -17 ZM181 327 l127 0 q74 0 74 73 l0 84 q0 74 -74 74 l-127 0 q-11 0 -11 -10 l0 -211 q0 -10 11 -10 Z" /><glyph glyph-name="racute" unicode="&#x155;" d="M210 703 l78 0 q20 0 9 -17 l-85 -100 q-9 -12 -23 -12 l-48 0 q-15 0 -8 17 l52 96 q8 16 25 16 ZM143 0 l-63 0 q-17 0 -17 17 l0 476 q0 17 17 17 l63 0 q17 0 17 -17 l0 -38 l4 0 q10 25 38.5 40 q28.5 15 63.5 15 l37 0 q17 0 17 -17 l0 -52 q0 -19 -17 -16 l-60 0 q-83 0 -83 -91 l0 -317 q0 -17 -17 -17 Z" /><glyph glyph-name="uni0156" unicode="&#x156;" d="M325 -48 l0 -47 q0 -31 -19 -60 l-42 -74 q-6 -9 -15 -9 q-14 0 -14 16 l0 173 q0 17 17 17 l56 0 q17 0 17 -16 ZM153 0 l-63 0 q-17 0 -17 17 l0 609 q0 17 17 17 l234 0 q73 0 114.5 -41.5 q41.5 -41.5 41.5 -114.5 l0 -84 q0 -115 -95 -145 l0 -4 l111 -234 q11 -20 -13 -20 l-62 0 q-24 0 -31 17 l-107 230 l-101 0 q-12 0 -12 -10 l0 -220 q0 -17 -17 -17 ZM181 327 l127 0 q74 0 74 73 l0 84 q0 74 -74 74 l-127 0 q-11 0 -11 -10 l0 -211 q0 -10 11 -10 Z" /><glyph glyph-name="uni0157" unicode="&#x157;" d="M157 -48 l0 -47 q0 -31 -19 -60 l-42 -74 q-6 -9 -15 -9 q-13 0 -13 16 l0 173 q0 17 16 17 l57 0 q16 0 16 -16 ZM143 0 l-63 0 q-17 0 -17 17 l0 476 q0 17 17 17 l63 0 q17 0 17 -17 l0 -38 l4 0 q10 25 38.5 40 q28.5 15 63.5 15 l37 0 q17 0 17 -17 l0 -52 q0 -19 -17 -16 l-60 0 q-83 0 -83 -91 l0 -317 q0 -17 -17 -17 Z" /><glyph glyph-name="Rcaron" unicode="&#x158;" d="M235 707 q-14 0 -21 10 l-62 107 q-8 12 6 12 l46 0 q11 0 15 -10 l41 -78 l40 78 q4 10 16 10 l46 0 q6 0 7.5 -4 q1.5 -4 -1.5 -8 l-62 -107 q-7 -10 -22 -10 l-49 0 ZM153 0 l-63 0 q-17 0 -17 17 l0 609 q0 17 17 17 l234 0 q73 0 114.5 -41.5 q41.5 -41.5 41.5 -114.5 l0 -84 q0 -115 -95 -145 l0 -4 l111 -234 q11 -20 -13 -20 l-62 0 q-24 0 -31 17 l-107 230 l-101 0 q-12 0 -12 -10 l0 -220 q0 -17 -17 -17 ZM181 327 l127 0 q74 0 74 73 l0 84 q0 74 -74 74 l-127 0 q-11 0 -11 -10 l0 -211 q0 -10 11 -10 Z" /><glyph glyph-name="rcaron" unicode="&#x159;" d="M160 574 q-14 0 -21 10 l-63 107 q-8 12 7 12 l46 0 q11 0 15 -10 l41 -78 l40 78 q4 10 16 10 l45 0 q15 0 7 -12 l-63 -107 q-7 -10 -21 -10 l-49 0 ZM143 0 l-63 0 q-17 0 -17 17 l0 476 q0 17 17 17 l63 0 q17 0 17 -17 l0 -38 l4 0 q10 25 38.5 40 q28.5 15 63.5 15 l37 0 q17 0 17 -17 l0 -52 q0 -19 -17 -16 l-60 0 q-83 0 -83 -91 l0 -317 q0 -17 -17 -17 Z" /><glyph glyph-name="Sacute" unicode="&#x15a;" d="M61 156 l0 26 q0 17 17 17 l64 0 q17 0 17 -17 l0 -18 q0 -42 18.5 -60.5 q18.5 -18.5 61.5 -18.5 l69 0 q43 0 62 19.5 q19 19.5 19 63.5 l0 23 q0 32 -24.5 50.5 q-24.5 18.5 -60.5 24 q-36 5.5 -79 15.5 q-43 10 -79 23 q-36 13 -60.5 49 q-24.5 36 -24.5 92 l0 42 q0 73 41.5 114.5 q41.5 41.5 114.5 41.5 l106 0 q74 0 115.5 -41.5 q41.5 -41.5 41.5 -114.5 l0 -22 q0 -17 -17 -17 l-64 0 q-17 0 -17 17 l0 13 q0 43 -18.5 61.5 q-18.5 18.5 -61.5 18.5 l-63 0 q-43 0 -61.5 -19.5 q-18.5 -19.5 -18.5 -66.5 l0 -31 q0 -45 65 -61 q29 -7 63.5 -12 q34.5 -5 69.5 -15 q35 -10 64 -26.5 q29 -16.5 47 -50 q18 -33.5 18 -81.5 l0 -39 q0 -73 -41.5 -114.5 q-41.5 -41.5 -114.5 -41.5 l-112 0 q-73 0 -115 41.5 q-42 41.5 -42 114.5 ZM303 836 l78 0 q9 0 11.5 -5 q2.5 -5 -3.5 -12 l-84 -100 q-9 -12 -23 -12 l-48 0 q-16 0 -9 17 l52 96 q8 16 26 16 Z" /><glyph glyph-name="sacute" unicode="&#x15b;" d="M239 703 l78 0 q8 0 10.5 -4.5 q2.5 -4.5 -2.5 -12.5 l-84 -100 q-9 -12 -24 -12 l-47 0 q-16 0 -8 17 l52 96 q7 16 25 16 ZM245 0 l-184 0 q-17 0 -17 17 l0 49 q0 16 17 16 l168 0 q65 0 65 45 l0 12 q0 40 -47 61 l-109 52 q-51 24 -74 53 q-23 29 -23 76 q0 129 143 129 l166 0 q16 0 16 -17 l0 -49 q0 -17 -16 -17 l-146 0 q-30 0 -46 -10.5 q-16 -10.5 -16 -27.5 l0 -11 q0 -32 51 -56 l110 -56 q52 -23 71.5 -54.5 q19.5 -31.5 19.5 -81.5 q0 -130 -149 -130 Z" /><glyph glyph-name="Scircumflex" unicode="&#x15c;" d="M61 156 l0 26 q0 17 17 17 l64 0 q17 0 17 -17 l0 -18 q0 -42 18.5 -60.5 q18.5 -18.5 61.5 -18.5 l69 0 q43 0 62 19.5 q19 19.5 19 63.5 l0 23 q0 32 -24.5 50.5 q-24.5 18.5 -60.5 24 q-36 5.5 -79 15.5 q-43 10 -79 23 q-36 13 -60.5 49 q-24.5 36 -24.5 92 l0 42 q0 73 41.5 114.5 q41.5 41.5 114.5 41.5 l106 0 q74 0 115.5 -41.5 q41.5 -41.5 41.5 -114.5 l0 -22 q0 -17 -17 -17 l-64 0 q-17 0 -17 17 l0 13 q0 43 -18.5 61.5 q-18.5 18.5 -61.5 18.5 l-63 0 q-43 0 -61.5 -19.5 q-18.5 -19.5 -18.5 -66.5 l0 -31 q0 -45 65 -61 q29 -7 63.5 -12 q34.5 -5 69.5 -15 q35 -10 64 -26.5 q29 -16.5 47 -50 q18 -33.5 18 -81.5 l0 -39 q0 -73 -41.5 -114.5 q-41.5 -41.5 -114.5 -41.5 l-112 0 q-73 0 -115 41.5 q-42 41.5 -42 114.5 ZM376 707 l-46 0 q-11 0 -16 10 l-40 78 l-41 -78 q-3 -10 -15 -10 l-45 0 q-15 0 -7 12 l63 107 q7 10 21 10 l48 0 q15 0 22 -10 l63 -107 q8 -12 -7 -12 Z" /><glyph glyph-name="scircumflex" unicode="&#x15d;" d="M315 574 l-46 0 q-13 0 -15 10 l-41 78 l-40 -78 q-5 -10 -16 -10 l-46 0 q-6 0 -7.5 4 q-1.5 4 1.5 8 l62 107 q7 10 22 10 l48 0 q15 0 22 -10 l62 -107 q3 -4 1.5 -8 q-1.5 -4 -7.5 -4 ZM245 0 l-184 0 q-17 0 -17 17 l0 49 q0 16 17 16 l168 0 q65 0 65 45 l0 12 q0 40 -47 61 l-109 52 q-51 24 -74 53 q-23 29 -23 76 q0 129 143 129 l166 0 q16 0 16 -17 l0 -49 q0 -17 -16 -17 l-146 0 q-30 0 -46 -10.5 q-16 -10.5 -16 -27.5 l0 -11 q0 -32 51 -56 l110 -56 q52 -23 71.5 -54.5 q19.5 -31.5 19.5 -81.5 q0 -130 -149 -130 Z" /><glyph glyph-name="Scedilla" unicode="&#x15e;" d="M159 472 l0 -31 q0 -45 65 -61 q29 -7 63.5 -12 q34.5 -5 69.5 -15 q35 -10 64 -26.5 q29 -16.5 47 -50 q18 -33.5 18 -81.5 l0 -39 q0 -73 -41.5 -114.5 q-41.5 -41.5 -114.5 -41.5 l-1 0 l-37 -38 l0 -4 q76 0 76 -70 l0 -15 q0 -66 -90 -66 l-37 0 q-9 0 -12 3 q-3 3 -3 12 l0 17 q0 9 3 12 q3 3 12 3 l28 0 q28 0 38 5.5 q10 5.5 10 21.5 l0 2 q0 16 -9.5 21.5 q-9.5 5.5 -38.5 5.5 l-20 0 q-18 0 -24.5 17.5 q-6.5 17.5 6.5 31.5 l36 41 l-49 0 q-73 0 -115 41.5 q-42 41.5 -42 114.5 l0 26 q0 17 17 17 l64 0 q17 0 17 -17 l0 -18 q0 -42 18.5 -60.5 q18.5 -18.5 61.5 -18.5 l69 0 q43 0 62 19.5 q19 19.5 19 63.5 l0 23 q0 32 -24.5 50.5 q-24.5 18.5 -60.5 24 q-36 5.5 -79 15.5 q-43 10 -79 23 q-36 13 -60.5 49 q-24.5 36 -24.5 92 l0 42 q0 73 41.5 114.5 q41.5 41.5 114.5 41.5 l106 0 q74 0 115.5 -41.5 q41.5 -41.5 41.5 -114.5 l0 -22 q0 -17 -17 -17 l-64 0 q-17 0 -17 17 l0 13 q0 43 -18.5 61.5 q-18.5 18.5 -61.5 18.5 l-63 0 q-43 0 -61.5 -19.5 q-18.5 -19.5 -18.5 -66.5 Z" /><glyph glyph-name="scedilla" unicode="&#x15f;" d="M225 -42 q75 0 75 -70 l0 -15 q0 -66 -89 -66 l-38 0 q-10 0 -12.5 3 q-2.5 3 -2.5 12 l0 17 q0 9 3 12 q3 3 12 3 l28 0 q28 0 38 6 q10 6 10 21 l0 2 q0 16 -9.5 21.5 q-9.5 5.5 -38.5 5.5 l-20 0 q-18 0 -24.5 17.5 q-6.5 17.5 6.5 31.5 l36 41 l-138 0 q-17 0 -17 17 l0 49 q0 16 17 16 l168 0 q65 0 65 45 l0 12 q0 40 -47 61 l-109 52 q-51 24 -74 53 q-23 29 -23 76 q0 129 143 129 l166 0 q16 0 16 -17 l0 -49 q0 -17 -16 -17 l-146 0 q-30 0 -46 -10.5 q-16 -10.5 -16 -27.5 l0 -11 q0 -32 51 -56 l110 -56 q52 -23 71.5 -54.5 q19.5 -31.5 19.5 -81.5 q0 -123 -132 -130 l-37 -38 l0 -4 Z" /><glyph glyph-name="Scaron" unicode="&#x160;" d="M61 156 l0 26 q0 17 17 17 l64 0 q17 0 17 -17 l0 -18 q0 -42 18.5 -60.5 q18.5 -18.5 61.5 -18.5 l69 0 q43 0 62 19.5 q19 19.5 19 63.5 l0 23 q0 32 -24.5 50.5 q-24.5 18.5 -60.5 24 q-36 5.5 -79 15.5 q-43 10 -79 23 q-36 13 -60.5 49 q-24.5 36 -24.5 92 l0 42 q0 73 41.5 114.5 q41.5 41.5 114.5 41.5 l106 0 q74 0 115.5 -41.5 q41.5 -41.5 41.5 -114.5 l0 -22 q0 -17 -17 -17 l-64 0 q-17 0 -17 17 l0 13 q0 43 -18.5 61.5 q-18.5 18.5 -61.5 18.5 l-63 0 q-43 0 -61.5 -19.5 q-18.5 -19.5 -18.5 -66.5 l0 -31 q0 -45 65 -61 q29 -7 63.5 -12 q34.5 -5 69.5 -15 q35 -10 64 -26.5 q29 -16.5 47 -50 q18 -33.5 18 -81.5 l0 -39 q0 -73 -41.5 -114.5 q-41.5 -41.5 -114.5 -41.5 l-112 0 q-73 0 -115 41.5 q-42 41.5 -42 114.5 ZM293 707 l-48 0 q-15 0 -22 10 l-63 107 q-3 4 -1 8 q2 4 8 4 l46 0 q11 0 16 -10 l40 -78 l40 78 q4 10 16 10 l46 0 q6 0 7.5 -4 q1.5 -4 -1.5 -8 l-63 -107 q-7 -10 -21 -10 Z" /><glyph glyph-name="scaron" unicode="&#x161;" d="M189 574 q-15 0 -22 10 l-62 107 q-7 12 6 12 l46 0 q11 0 16 -10 l40 -78 l41 78 q2 10 15 10 l46 0 q13 0 6 -12 l-62 -107 q-7 -10 -22 -10 l-48 0 ZM245 0 l-184 0 q-17 0 -17 17 l0 49 q0 16 17 16 l168 0 q65 0 65 45 l0 12 q0 40 -47 61 l-109 52 q-51 24 -74 53 q-23 29 -23 76 q0 129 143 129 l166 0 q16 0 16 -17 l0 -49 q0 -17 -16 -17 l-146 0 q-30 0 -46 -10.5 q-16 -10.5 -16 -27.5 l0 -11 q0 -32 51 -56 l110 -56 q52 -23 71.5 -54.5 q19.5 -31.5 19.5 -81.5 q0 -130 -149 -130 Z" /><glyph glyph-name="uni0162" unicode="&#x162;" d="M262 -48 l0 -47 q0 -31 -18 -60 l-43 -74 q-5 -9 -15 -9 q-13 0 -13 16 l0 173 q0 17 16 17 l57 0 q16 0 16 -16 ZM249 0 l-63 0 q-18 0 -18 17 l0 531 q0 10 -10 10 l-126 0 q-18 0 -18 17 l0 51 q0 17 18 17 l371 0 q18 0 18 -17 l0 -51 q0 -17 -18 -17 l-126 0 q-11 0 -11 -10 l0 -531 q0 -17 -17 -17 Z" /><glyph glyph-name="uni0163" unicode="&#x163;" d="M250 -48 l0 -47 q0 -31 -18 -60 l-43 -74 q-6 -9 -14 -9 q-14 0 -14 16 l0 173 q0 17 16 17 l57 0 q16 0 16 -16 ZM78 425 l-48 0 q-10 0 -13.5 3.5 q-3.5 3.5 -3.5 12.5 l0 52 q0 17 17 17 l48 0 q10 0 10 10 l0 90 q0 17 18 17 l63 0 q17 0 17 -17 l0 -90 q0 -10 11 -10 l93 0 q18 0 18 -17 l0 -52 q0 -16 -18 -16 l-93 0 q-11 0 -11 -10 l0 -257 q0 -73 75 -73 l39 0 q18 0 18 -17 l0 -52 q0 -16 -18 -16 l-54 0 q-74 0 -116 40 q-42 40 -42 113 l0 262 q0 10 -10 10 Z" /><glyph glyph-name="Tcaron" unicode="&#x164;" d="M195 707 q-14 0 -21 10 l-64 107 q-3 4 -1 8 q2 4 9 4 l45 0 q11 0 15 -10 l41 -78 l40 78 q5 10 16 10 l46 0 q15 0 7 -12 l-64 -107 q-7 -10 -21 -10 l-48 0 ZM249 0 l-63 0 q-18 0 -18 17 l0 531 q0 10 -10 10 l-126 0 q-18 0 -18 17 l0 51 q0 17 18 17 l371 0 q18 0 18 -17 l0 -51 q0 -17 -18 -17 l-126 0 q-11 0 -11 -10 l0 -531 q0 -17 -17 -17 Z" /><glyph glyph-name="tcaron" unicode="&#x165;" d="M437 627 l0 -45 q0 -23 -18 -71 l-43 -98 q-7 -9 -15 -9 q-13 0 -13 16 l0 206 q0 17 16 17 l57 0 q16 0 16 -16 ZM78 425 l-48 0 q-10 0 -13.5 3.5 q-3.5 3.5 -3.5 12.5 l0 52 q0 17 17 17 l48 0 q10 0 10 10 l0 90 q0 17 18 17 l63 0 q17 0 17 -17 l0 -90 q0 -10 11 -10 l93 0 q18 0 18 -17 l0 -52 q0 -16 -18 -16 l-93 0 q-11 0 -11 -10 l0 -257 q0 -73 75 -73 l39 0 q18 0 18 -17 l0 -52 q0 -16 -18 -16 l-54 0 q-74 0 -116 40 q-42 40 -42 113 l0 262 q0 10 -10 10 Z" /><glyph glyph-name="Tbar" unicode="&#x166;" d="M266 0 l-63 0 q-17 0 -17 17 l0 273 q0 11 -11 11 l-74 0 q-17 0 -17 17 l0 39 q0 18 17 18 l74 0 q11 0 11 10 l0 163 q0 10 -11 10 l-132 0 q-17 0 -17 17 l0 51 q0 17 17 17 l383 0 q17 0 17 -17 l0 -51 q0 -17 -17 -17 l-132 0 q-10 0 -10 -10 l0 -163 q0 -10 10 -10 l78 0 q17 0 17 -18 l0 -39 q0 -17 -17 -17 l-78 0 q-10 0 -10 -11 l0 -273 q0 -17 -18 -17 Z" /><glyph glyph-name="tbar" unicode="&#x167;" d="M310 0 l-59 0 q-74 0 -116.5 40 q-42.5 40 -42.5 113 l0 78 q0 11 -10 11 l-52 0 q-17 0 -17 17 l0 40 q0 17 17 17 l52 0 q10 0 10 10 l0 89 q0 10 -10 10 l-52 0 q-10 0 -13.5 3.5 q-3.5 3.5 -3.5 12.5 l0 52 q0 17 17 17 l52 0 q10 0 10 10 l0 90 q0 17 17 17 l64 0 q17 0 17 -17 l0 -90 q0 -10 11 -10 l99 0 q17 0 17 -17 l0 -52 q0 -9 -3.5 -12.5 q-3.5 -3.5 -13.5 -3.5 l-99 0 q-11 0 -11 -10 l0 -89 q0 -10 11 -10 l99 0 q17 0 17 -17 l0 -40 q0 -17 -17 -17 l-99 0 q-11 0 -11 -11 l0 -73 q0 -73 75 -73 l45 0 q17 0 17 -17 l0 -52 q0 -9 -3.5 -12.5 q-3.5 -3.5 -13.5 -3.5 Z" /><glyph glyph-name="Utilde" unicode="&#x168;" d="M231 702 q-67 0 -67 77 l0 39 q0 10 10 10 l29 0 q10 0 10 -10 l0 -20 q0 -25 4.5 -34 q4.5 -9 14 -9 q9.5 0 15.5 7 q6 7 20 30.5 q14 23.5 27 31.5 q13 8 33 8 q66 0 66 -77 l0 -38 q0 -12 -9 -12 l-29 0 q-10 0 -10 12 l0 19 q0 26 -4.5 34.5 q-4.5 8.5 -16 8.5 q-11.5 0 -26.5 -26 q-20 -34 -33.5 -42.5 q-13.5 -8.5 -33.5 -8.5 ZM409 643 l63 0 q18 0 18 -16 l0 -472 q0 -73 -41.5 -114 q-41.5 -41 -114.5 -41 l-111 0 q-73 0 -114 41 q-41 41 -41 114 l0 471 q0 17 17 17 l63 0 q17 0 17 -17 l0 -467 q0 -74 72 -74 l82 0 q73 0 73 74 l0 467 q0 17 17 17 Z" /><glyph glyph-name="utilde" unicode="&#x169;" d="M134 652 l0 38 q0 11 10 11 l30 0 q10 0 10 -11 l0 -19 q0 -26 4 -34.5 q4 -8.5 14 -8.5 q10 0 16 7 q6 7 19.5 30.5 q13.5 23.5 26.5 31.5 q13 8 33 8 q67 0 67 -77 l0 -38 q0 -12 -9 -12 l-30 0 q-10 0 -10 12 l0 18 q0 26 -4 34.5 q-4 8.5 -14.5 8.5 q-10.5 0 -15.5 -5.5 q-5 -5.5 -18 -27.5 q-13 -26 -27 -34.5 q-14 -8.5 -35 -8.5 q-67 0 -67 77 ZM252 0 l-45 0 q-72 0 -110.5 40.5 q-38.5 40.5 -38.5 114.5 l0 338 q0 17 17 17 l63 0 q17 0 17 -17 l0 -334 q0 -74 72 -74 l48 0 q82 0 82 85 l0 323 q0 17 17 17 l63 0 q18 0 18 -17 l0 -476 q0 -17 -18 -17 l-63 0 q-17 0 -17 17 l0 36 l-4 0 q-24 -53 -101 -53 Z" /><glyph glyph-name="Umacron" unicode="&#x16a;" d="M378 740 l-199 0 q-17 0 -17 17 l0 35 q0 17 17 17 l199 0 q17 0 17 -17 l0 -35 q0 -17 -17 -17 ZM409 643 l63 0 q18 0 18 -16 l0 -472 q0 -73 -41.5 -114 q-41.5 -41 -114.5 -41 l-111 0 q-73 0 -114 41 q-41 41 -41 114 l0 471 q0 17 17 17 l63 0 q17 0 17 -17 l0 -467 q0 -74 72 -74 l82 0 q73 0 73 74 l0 467 q0 17 17 17 Z" /><glyph glyph-name="umacron" unicode="&#x16b;" d="M356 605 l-200 0 q-17 0 -17 17 l0 34 q0 17 17 17 l200 0 q17 0 17 -17 l0 -34 q0 -17 -17 -17 ZM252 0 l-45 0 q-72 0 -110.5 40.5 q-38.5 40.5 -38.5 114.5 l0 338 q0 17 17 17 l63 0 q17 0 17 -17 l0 -334 q0 -74 72 -74 l48 0 q82 0 82 85 l0 323 q0 17 17 17 l63 0 q18 0 18 -17 l0 -476 q0 -17 -18 -17 l-63 0 q-17 0 -17 17 l0 36 l-4 0 q-24 -53 -101 -53 Z" /><glyph glyph-name="Ubreve" unicode="&#x16c;" d="M170 824 q0 12 12 12 l38 0 q12 0 12 -12 l0 -10 q0 -31 10 -43.5 q10 -12.5 34 -12.5 l6 0 q24 0 34.5 13 q10.5 13 10.5 43 l0 10 q0 12 13 12 l36 0 q13 0 13 -12 l0 -11 q0 -106 -97 -106 l-26 0 q-96 0 -96 106 l0 11 ZM409 643 l63 0 q18 0 18 -16 l0 -472 q0 -73 -41.5 -114 q-41.5 -41 -114.5 -41 l-111 0 q-73 0 -114 41 q-41 41 -41 114 l0 471 q0 17 17 17 l63 0 q17 0 17 -17 l0 -467 q0 -74 72 -74 l82 0 q73 0 73 74 l0 467 q0 17 17 17 Z" /><glyph glyph-name="ubreve" unicode="&#x16d;" d="M252 0 l-45 0 q-72 0 -110.5 40.5 q-38.5 40.5 -38.5 114.5 l0 338 q0 17 17 17 l63 0 q17 0 17 -17 l0 -334 q0 -74 72 -74 l48 0 q82 0 82 85 l0 323 q0 17 17 17 l63 0 q18 0 18 -17 l0 -476 q0 -17 -18 -17 l-63 0 q-17 0 -17 17 l0 36 l-4 0 q-24 -53 -101 -53 ZM147 675 l0 12 q0 12 12 12 l38 0 q12 0 12 -12 l0 -10 q0 -30 10 -42.5 q10 -12.5 34 -12.5 l6 0 q25 0 35.5 12.5 q10.5 12.5 10.5 42.5 l0 10 q0 11 12 11 l37 0 q12 0 12 -11 l0 -12 q0 -105 -97 -105 l-25 0 q-97 0 -97 105 Z" /><glyph glyph-name="Uring" unicode="&#x16e;" d="M299 700 l-43 0 q-60 0 -60 62 l0 51 q0 29 16 44.5 q16 15.5 44 15.5 l43 0 q29 0 45.5 -16 q16.5 -16 16.5 -44 l0 -51 q0 -30 -16.5 -46 q-16.5 -16 -45.5 -16 ZM270 740 l15 0 q32 0 32 34 l0 24 q0 35 -32 35 l-14 0 q-32 0 -32 -35 l0 -24 q0 -34 31 -34 ZM409 643 l63 0 q18 0 18 -16 l0 -472 q0 -73 -41.5 -114 q-41.5 -41 -114.5 -41 l-111 0 q-73 0 -114 41 q-41 41 -41 114 l0 471 q0 17 17 17 l63 0 q17 0 17 -17 l0 -467 q0 -74 72 -74 l82 0 q73 0 73 74 l0 467 q0 17 17 17 Z" /><glyph glyph-name="uring" unicode="&#x16f;" d="M252 0 l-45 0 q-72 0 -110.5 40.5 q-38.5 40.5 -38.5 114.5 l0 338 q0 17 17 17 l63 0 q17 0 17 -17 l0 -334 q0 -74 72 -74 l48 0 q82 0 82 85 l0 323 q0 17 17 17 l63 0 q18 0 18 -17 l0 -476 q0 -17 -18 -17 l-63 0 q-17 0 -17 17 l0 36 l-4 0 q-24 -53 -101 -53 ZM204 657 l0 -33 q0 -19 7.5 -26 q7.5 -7 26.5 -7 l16 0 q19 0 26.5 7 q7.5 7 7.5 26 l0 33 q0 20 -7.5 26.5 q-7.5 6.5 -26.5 6.5 l-16 0 q-19 0 -26.5 -6.5 q-7.5 -6.5 -7.5 -26.5 ZM166 612 l0 60 q0 52 57 52 l45 0 q58 0 58 -52 l0 -60 q0 -55 -58 -55 l-45 0 q-57 0 -57 55 Z" /><glyph glyph-name="Uhungarumlaut" unicode="&#x170;" d="M251 836 l52 0 q18 0 7 -17 l-74 -100 q-9 -12 -22 -12 l-32 0 q-15 0 -8 17 l51 96 q9 16 26 16 ZM392 836 l52 0 q19 0 8 -17 l-74 -100 q-9 -12 -22 -12 l-32 0 q-16 0 -8 17 l51 96 q7 16 25 16 ZM409 643 l63 0 q18 0 18 -16 l0 -472 q0 -73 -41.5 -114 q-41.5 -41 -114.5 -41 l-111 0 q-73 0 -114 41 q-41 41 -41 114 l0 471 q0 17 17 17 l63 0 q17 0 17 -17 l0 -467 q0 -74 72 -74 l82 0 q73 0 73 74 l0 467 q0 17 17 17 Z" /><glyph glyph-name="uhungarumlaut" unicode="&#x171;" d="M243 703 l52 0 q18 0 7 -17 l-74 -100 q-8 -12 -21 -12 l-33 0 q-16 0 -7 17 l50 96 q9 16 26 16 ZM385 703 l51 0 q19 0 8 -17 l-74 -100 q-9 -12 -22 -12 l-32 0 q-16 0 -8 17 l51 96 q7 16 26 16 ZM252 0 l-45 0 q-72 0 -110.5 40.5 q-38.5 40.5 -38.5 114.5 l0 338 q0 17 17 17 l63 0 q17 0 17 -17 l0 -334 q0 -74 72 -74 l48 0 q82 0 82 85 l0 323 q0 17 17 17 l63 0 q18 0 18 -17 l0 -476 q0 -17 -18 -17 l-63 0 q-17 0 -17 17 l0 36 l-4 0 q-24 -53 -101 -53 Z" /><glyph glyph-name="Uogonek" unicode="&#x172;" d="M409 643 l63 0 q18 0 18 -16 l0 -472 q0 -73 -41.5 -114 q-41.5 -41 -114.5 -41 l-13 0 l-43 -62 l40 0 q14 0 19 -3.5 q5 -3.5 5 -13.5 q0 -17 -29 -27 q-29 -10 -57 -10 q-28 0 -36 15.5 q-8 15.5 6 33.5 l44 67 l-47 0 q-73 0 -114 41 q-41 41 -41 114 l0 471 q0 17 17 17 l63 0 q17 0 17 -17 l0 -467 q0 -74 72 -74 l82 0 q73 0 73 74 l0 467 q0 17 17 17 Z" /><glyph glyph-name="uogonek" unicode="&#x173;" d="M374 510 l63 0 q18 0 18 -17 l0 -476 q0 -17 -18 -17 l-44 0 q-12 -18 -26.5 -42 q-14.5 -24 -13.5 -24 q30 0 42 3 q13 1 17 -3 q4 -4 2 -12 q-1 -17 -29 -27.5 q-28 -10.5 -53 -10.5 q-25 0 -28.5 21 q-3.5 21 8.5 38 l45 74 l0 36 l-4 0 q-24 -53 -101 -53 l-45 0 q-72 0 -110.5 40.5 q-38.5 40.5 -38.5 114.5 l0 338 q0 17 17 17 l63 0 q17 0 17 -17 l0 -334 q0 -74 72 -74 l48 0 q82 0 82 85 l0 323 q0 17 17 17 Z" /><glyph glyph-name="Wcircumflex" unicode="&#x174;" d="M506 707 l-46 0 q-11 0 -15 10 l-41 78 l-40 -78 q-4 -10 -16 -10 l-45 0 q-15 0 -7 12 l63 107 q7 10 21 10 l49 0 q14 0 21 -10 l62 -107 q8 -12 -6 -12 ZM267 0 l-106 0 q-18 0 -21 17 l-119 609 q-2 17 17 17 l77 0 q19 0 20 -17 l81 -524 l6 0 l118 526 q2 15 18 15 l84 0 q16 0 19 -15 l119 -526 l6 0 l81 523 q1 18 20 18 l77 0 q20 0 17 -18 l-119 -608 q-3 -17 -20 -17 l-106 0 q-17 0 -20 17 l-113 506 l-4 0 l-113 -506 q-3 -17 -19 -17 Z" /><glyph glyph-name="wcircumflex" unicode="&#x175;" d="M447 574 l-46 0 q-12 0 -16 10 l-40 78 l-40 -78 q-5 -10 -16 -10 l-46 0 q-6 0 -8 4 q-2 4 1 8 l64 107 q7 10 21 10 l48 0 q14 0 21 -10 l63 -107 q8 -12 -6 -12 ZM242 0 l-86 0 q-15 0 -20 17 l-115 476 q-4 17 12 17 l72 0 q18 0 20 -17 l73 -378 l7 0 l88 378 q3 17 19 17 l66 0 q17 0 21 -17 l86 -378 l7 0 l73 378 q3 17 20 17 l72 0 q17 0 12 -17 l-115 -476 q-3 -17 -20 -17 l-86 0 q-16 0 -20 17 l-80 371 l-7 0 l-79 -371 q-3 -17 -20 -17 Z" /><glyph glyph-name="Ycircumflex" unicode="&#x176;" d="M353 707 l-46 0 q-11 0 -15 10 l-41 78 l-40 -78 q-4 -10 -16 -10 l-45 0 q-15 0 -7 12 l63 107 q7 10 21 10 l48 0 q14 0 21 -10 l64 -107 q8 -12 -7 -12 ZM286 0 l-64 0 q-17 0 -17 17 l0 221 l-187 387 q-4 8 0 13 q4 5 11 5 l80 0 q13 0 20 -17 l123 -275 l6 0 l121 275 q6 17 20 17 l80 0 q8 0 11.5 -5 q3.5 -5 -0.5 -13 l-187 -387 l0 -221 q0 -17 -17 -17 Z" /><glyph glyph-name="ycircumflex" unicode="&#x177;" d="M342 574 l-46 0 q-11 0 -16 10 l-40 78 l-41 -78 q-3 -10 -15 -10 l-45 0 q-15 0 -7 12 l63 107 q7 10 21 10 l48 0 q15 0 22 -10 l63 -107 q8 -12 -7 -12 ZM123 -162 l-53 0 q-17 0 -17 17 l0 51 q0 18 17 18 l23 0 q61 0 84.5 24 q23.5 24 39.5 79 l-40 0 q-15 0 -21 17 l-133 449 q-4 17 13 17 l67 0 q16 0 20 -17 l109 -392 l4 0 l109 392 q3 17 20 17 l64 0 q19 0 16 -18 l-137 -481 q-23 -84 -65 -128.5 q-42 -44.5 -120 -44.5 Z" /><glyph glyph-name="Ydieresis" unicode="&#x178;" d="M118 724 l0 95 q0 17 16 17 l60 0 q15 0 15 -16 l0 -96 q0 -17 -15 -17 l-60 0 q-16 0 -16 17 ZM298 724 l0 95 q0 17 15 17 l61 0 q15 0 15 -16 l0 -96 q0 -17 -15 -17 l-61 0 q-15 0 -15 17 ZM286 0 l-64 0 q-17 0 -17 17 l0 221 l-187 387 q-4 8 0 13 q4 5 11 5 l80 0 q13 0 20 -17 l123 -275 l6 0 l121 275 q6 17 20 17 l80 0 q8 0 11.5 -5 q3.5 -5 -0.5 -13 l-187 -387 l0 -221 q0 -17 -17 -17 Z" /><glyph glyph-name="Zacute" unicode="&#x179;" d="M311 836 l79 0 q8 0 10.5 -5 q2.5 -5 -2.5 -12 l-85 -100 q-9 -12 -23 -12 l-48 0 q-16 0 -8 17 l52 96 q8 16 25 16 ZM46 17 l0 47 q0 26 9 37 l289 447 l0 4 l-265 0 q-18 0 -18 17 l0 57 q0 17 18 17 l354 0 q17 0 17 -17 l0 -66 q0 -22 -11 -39 l-278 -426 l0 -4 l282 0 q17 0 17 -16 l0 -56 q0 -19 -17 -19 l-380 0 q-17 0 -17 17 Z" /><glyph glyph-name="zacute" unicode="&#x17a;" d="M275 703 l78 0 q8 0 11 -4.5 q3 -4.5 -2 -12.5 l-85 -100 q-11 -12 -24 -12 l-47 0 q-16 0 -8 17 l52 96 q7 16 25 16 ZM32 17 l0 26 q0 25 14 43 l231 335 l0 4 l-219 0 q-18 0 -18 18 l0 50 q0 17 18 17 l316 0 q17 0 17 -17 l0 -46 q0 -24 -12 -38 l-219 -320 l0 -4 l223 0 q18 0 18 -18 l0 -50 q0 -17 -18 -17 l-333 0 q-18 0 -18 17 Z" /><glyph glyph-name="Zdotaccent" unicode="&#x17b;" d="M227 727 l0 95 q0 17 16 17 l65 0 q17 0 17 -16 l0 -96 q0 -17 -17 -17 l-65 0 q-16 0 -16 17 ZM46 17 l0 47 q0 26 9 37 l289 447 l0 4 l-265 0 q-18 0 -18 17 l0 57 q0 17 18 17 l354 0 q17 0 17 -17 l0 -66 q0 -22 -11 -39 l-278 -426 l0 -4 l282 0 q17 0 17 -16 l0 -56 q0 -19 -17 -19 l-380 0 q-17 0 -17 17 Z" /><glyph glyph-name="zdotaccent" unicode="&#x17c;" d="M188 590 l0 97 q0 16 17 16 l65 0 q17 0 17 -16 l0 -97 q0 -16 -17 -16 l-65 0 q-17 0 -17 16 ZM32 17 l0 26 q0 25 14 43 l231 335 l0 4 l-219 0 q-18 0 -18 18 l0 50 q0 17 18 17 l316 0 q17 0 17 -17 l0 -46 q0 -24 -12 -38 l-219 -320 l0 -4 l223 0 q18 0 18 -18 l0 -50 q0 -17 -18 -17 l-333 0 q-18 0 -18 17 Z" /><glyph glyph-name="Zcaron" unicode="&#x17d;" d="M247 707 q-14 0 -21 10 l-62 107 q-8 12 7 12 l45 0 q12 0 15 -10 l41 -78 l40 78 q5 10 16 10 l46 0 q14 0 6 -12 l-63 -107 q-7 -10 -21 -10 l-49 0 ZM46 17 l0 47 q0 26 9 37 l289 447 l0 4 l-265 0 q-18 0 -18 17 l0 57 q0 17 18 17 l354 0 q17 0 17 -17 l0 -66 q0 -22 -11 -39 l-278 -426 l0 -4 l282 0 q17 0 17 -16 l0 -56 q0 -19 -17 -19 l-380 0 q-17 0 -17 17 Z" /><glyph glyph-name="zcaron" unicode="&#x17e;" d="M212 574 q-14 0 -21 10 l-63 107 q-8 12 7 12 l45 0 q12 0 15 -10 l41 -78 l40 78 q5 10 16 10 l46 0 q15 0 7 -12 l-64 -107 q-7 -10 -21 -10 l-48 0 ZM32 17 l0 26 q0 25 14 43 l231 335 l0 4 l-219 0 q-18 0 -18 18 l0 50 q0 17 18 17 l316 0 q17 0 17 -17 l0 -46 q0 -24 -12 -38 l-219 -320 l0 -4 l223 0 q18 0 18 -18 l0 -50 q0 -17 -18 -17 l-333 0 q-18 0 -18 17 Z" /><glyph glyph-name="florin" unicode="&#x192;" d="M84 -133 l-50 0 q-20 0 -20 16 l0 52 q0 17 19 17 l43 0 q35 0 53 18 q18 18 27 56 l60 282 q3 12 -9 12 l-65 0 q-20 0 -20 17 l0 50 q0 17 19 17 l85 0 q10 0 13 11 l28 134 q18 81 60 117.5 q42 36.5 116 36.5 l37 0 q20 0 20 -16 l0 -52 q0 -17 -18 -17 l-37 0 q-36 0 -54 -18 q-18 -18 -26 -56 l-28 -129 q-3 -11 8 -11 l82 0 q20 0 20 -17 l0 -50 q0 -17 -15 -17 l-105 0 q-10 0 -13 -11 l-64 -300 q-15 -71 -54.5 -106.5 q-39.5 -35.5 -111.5 -35.5 Z" /><glyph glyph-name="AEacute" unicode="&#x1fc;" d="M486 836 l79 0 q8 0 10.5 -5 q2.5 -5 -2.5 -12 l-84 -100 q-9 -12 -23 -12 l-48 0 q-16 0 -8 17 l52 96 q7 16 24 16 ZM86 0 l-70 0 q-19 0 -11 18 l301 608 q8 17 27 17 l376 0 q17 0 17 -17 l0 -51 q0 -17 -17 -17 l-228 0 q-11 0 -11 -10 l0 -169 q0 -10 11 -10 l193 0 q18 0 18 -17 l0 -51 q0 -17 -18 -17 l-193 0 q-11 0 -11 -10 l0 -178 q0 -11 11 -11 l228 0 q17 0 17 -17 l0 -51 q0 -17 -17 -17 l-320 0 q-17 0 -17 17 l0 130 l-198 0 l-66 -130 q-7 -17 -22 -17 ZM372 234 l0 314 l-4 0 l-156 -314 l160 0 Z" /><glyph glyph-name="aeacute" unicode="&#x1fd;" d="M435 703 l79 0 q8 0 10.5 -4.5 q2.5 -4.5 -2.5 -12.5 l-84 -100 q-10 -12 -24 -12 l-47 0 q-17 0 -8 17 l52 96 q7 16 24 16 ZM440 189 l0 -30 q0 -74 73 -74 l190 0 q18 0 18 -17 l0 -52 q0 -16 -18 -16 l-205 0 q-86 0 -123 61 q-33 -61 -136 -61 l-34 0 q-72 0 -113.5 39.5 q-41.5 39.5 -41.5 110.5 l0 16 q0 73 40.5 111 q40.5 38 114.5 38 l130 0 q8 0 8 8 l0 29 q0 73 -72 73 l-160 0 q-17 0 -17 17 l0 51 q0 17 17 17 l157 0 q93 0 124 -59 q31 59 121 59 l53 0 q73 0 114 -40.5 q41 -40.5 41 -114.5 l0 -138 q0 -18 -18 -18 l-251 0 q-12 0 -12 -10 ZM635 278 l0 73 q0 74 -73 74 l-46 0 q-76 0 -76 -72 l0 -75 q0 -11 11 -11 l173 0 q11 0 11 11 ZM343 164 l0 70 q0 10 -11 10 l-112 0 q-41 0 -59.5 -18 q-18.5 -18 -18.5 -56 l0 -14 q0 -39 18.5 -57.5 q18.5 -18.5 59.5 -18.5 l41 0 q82 0 82 84 Z" /><glyph glyph-name="Oslashacute" unicode="&#x1fe;" d="M502 488 l0 -333 q0 -73 -41 -114 q-41 -41 -114 -41 l-122 0 q-68 0 -108 35 l-20 -28 q-11 -14 -26 -5 l-17 13 q-14 11 -4 26 l32 45 q-12 30 -12 69 l0 333 q0 74 40.5 114.5 q40.5 40.5 114.5 40.5 l122 0 q68 0 109 -35 l19 27 q11 15 26 5 l17 -12 q14 -10 5 -25 l-33 -46 q12 -30 12 -69 ZM167 484 l0 -279 l230 321 q-15 32 -64 32 l-94 0 q-72 0 -72 -74 ZM405 159 l0 279 l-230 -321 q17 -32 64 -32 l94 0 q72 0 72 74 ZM300 707 l-47 0 q-18 0 -8 17 l51 96 q8 16 25 16 l79 0 q8 0 10.5 -5 q2.5 -5 -2.5 -12 l-84 -100 q-10 -12 -24 -12 Z" /><glyph glyph-name="oslashacute" unicode="&#x1ff;" d="M460 355 l0 -200 q0 -73 -41 -114 q-41 -41 -115 -41 l-87 0 q-81 0 -123 50 l-31 -31 q-14 -13 -24 0 l-14 13 q-13 12 0 25 l43 43 q-7 24 -7 55 l0 200 q0 74 41 114.5 q41 40.5 115 40.5 l87 0 q82 0 124 -50 l30 30 q11 14 24 1 l14 -13 q14 -12 0 -25 l-43 -43 q7 -24 7 -55 ZM159 351 l0 -160 l197 197 q-13 37 -66 37 l-59 0 q-72 0 -72 -74 ZM362 159 l0 160 l-197 -198 q13 -36 66 -36 l59 0 q72 0 72 74 ZM283 574 l-47 0 q-16 0 -8 17 l52 96 q8 16 25 16 l78 0 q9 0 11.5 -4.5 q2.5 -4.5 -3.5 -12.5 l-84 -100 q-9 -12 -24 -12 Z" /><glyph glyph-name="uni0218" unicode="&#x218;" d="M61 156 l0 26 q0 17 17 17 l64 0 q17 0 17 -17 l0 -18 q0 -42 18.5 -60.5 q18.5 -18.5 61.5 -18.5 l69 0 q43 0 62 19.5 q19 19.5 19 63.5 l0 23 q0 32 -24.5 50.5 q-24.5 18.5 -60.5 24 q-36 5.5 -79 15.5 q-43 10 -79 23 q-36 13 -60.5 49 q-24.5 36 -24.5 92 l0 42 q0 73 41.5 114.5 q41.5 41.5 114.5 41.5 l106 0 q74 0 115.5 -41.5 q41.5 -41.5 41.5 -114.5 l0 -22 q0 -17 -17 -17 l-64 0 q-17 0 -17 17 l0 13 q0 43 -18.5 61.5 q-18.5 18.5 -61.5 18.5 l-63 0 q-43 0 -61.5 -19.5 q-18.5 -19.5 -18.5 -66.5 l0 -31 q0 -45 65 -61 q29 -7 63.5 -12 q34.5 -5 69.5 -15 q35 -10 64 -26.5 q29 -16.5 47 -50 q18 -33.5 18 -81.5 l0 -39 q0 -73 -41.5 -114.5 q-41.5 -41.5 -114.5 -41.5 l-112 0 q-73 0 -115 41.5 q-42 41.5 -42 114.5 ZM323 -48 l0 -47 q0 -30 -17 -60 l-43 -74 q-6 -9 -15 -9 q-13 0 -13 16 l0 173 q0 17 15 17 l58 0 q15 0 15 -16 Z" /><glyph glyph-name="uni0219" unicode="&#x219;" d="M268 -48 l0 -47 q0 -31 -18 -60 l-43 -74 q-6 -9 -14 -9 q-14 0 -14 16 l0 173 q0 17 16 17 l57 0 q16 0 16 -16 ZM245 0 l-184 0 q-17 0 -17 17 l0 49 q0 16 17 16 l168 0 q65 0 65 45 l0 12 q0 40 -47 61 l-109 52 q-51 24 -74 53 q-23 29 -23 76 q0 129 143 129 l166 0 q16 0 16 -17 l0 -49 q0 -17 -16 -17 l-146 0 q-30 0 -46 -10.5 q-16 -10.5 -16 -27.5 l0 -11 q0 -32 51 -56 l110 -56 q52 -23 71.5 -54.5 q19.5 -31.5 19.5 -81.5 q0 -130 -149 -130 Z" /><glyph glyph-name="Wgrave" unicode="&#x1e80;" d="M424 707 l-48 0 q-14 0 -23 12 l-85 100 q-5 7 -2 12 q3 5 11 5 l78 0 q18 0 25 -16 l52 -96 q8 -17 -8 -17 ZM267 0 l-106 0 q-18 0 -21 17 l-119 609 q-2 17 17 17 l77 0 q19 0 20 -17 l81 -524 l6 0 l118 526 q2 15 18 15 l84 0 q16 0 19 -15 l119 -526 l6 0 l81 523 q1 18 20 18 l77 0 q20 0 17 -18 l-119 -608 q-3 -17 -20 -17 l-106 0 q-17 0 -20 17 l-113 506 l-4 0 l-113 -506 q-3 -17 -19 -17 Z" /><glyph glyph-name="wgrave" unicode="&#x1e81;" d="M367 574 l-48 0 q-14 0 -23 12 l-84 100 q-6 8 -3.5 12.5 q2.5 4.5 11.5 4.5 l78 0 q18 0 26 -16 l51 -96 q9 -17 -8 -17 ZM242 0 l-86 0 q-15 0 -20 17 l-115 476 q-4 17 12 17 l72 0 q18 0 20 -17 l73 -378 l7 0 l88 378 q3 17 19 17 l66 0 q17 0 21 -17 l86 -378 l7 0 l73 378 q3 17 20 17 l72 0 q17 0 12 -17 l-115 -476 q-3 -17 -20 -17 l-86 0 q-16 0 -20 17 l-80 371 l-7 0 l-79 -371 q-3 -17 -20 -17 Z" /><glyph glyph-name="Wacute" unicode="&#x1e82;" d="M451 836 l78 0 q8 0 10.5 -5 q2.5 -5 -3.5 -12 l-84 -100 q-8 -12 -22 -12 l-49 0 q-17 0 -8 17 l52 96 q8 16 26 16 ZM267 0 l-106 0 q-18 0 -21 17 l-119 609 q-2 17 17 17 l77 0 q19 0 20 -17 l81 -524 l6 0 l118 526 q2 15 18 15 l84 0 q16 0 19 -15 l119 -526 l6 0 l81 523 q1 18 20 18 l77 0 q20 0 17 -18 l-119 -608 q-3 -17 -20 -17 l-106 0 q-17 0 -20 17 l-113 506 l-4 0 l-113 -506 q-3 -17 -19 -17 Z" /><glyph glyph-name="wacute" unicode="&#x1e83;" d="M391 703 l78 0 q8 0 10.5 -4.5 q2.5 -4.5 -2.5 -12.5 l-84 -100 q-9 -12 -24 -12 l-47 0 q-16 0 -8 17 l52 96 q7 16 25 16 ZM242 0 l-86 0 q-15 0 -20 17 l-115 476 q-4 17 12 17 l72 0 q18 0 20 -17 l73 -378 l7 0 l88 378 q3 17 19 17 l66 0 q17 0 21 -17 l86 -378 l7 0 l73 378 q3 17 20 17 l72 0 q17 0 12 -17 l-115 -476 q-3 -17 -20 -17 l-86 0 q-16 0 -20 17 l-80 371 l-7 0 l-79 -371 q-3 -17 -20 -17 Z" /><glyph glyph-name="Wdieresis" unicode="&#x1e84;" d="M265 724 l0 95 q0 17 16 17 l60 0 q16 0 16 -16 l0 -96 q0 -17 -16 -17 l-60 0 q-16 0 -16 17 ZM445 724 l0 95 q0 17 16 17 l60 0 q16 0 16 -16 l0 -96 q0 -17 -16 -17 l-60 0 q-16 0 -16 17 ZM267 0 l-106 0 q-18 0 -21 17 l-119 609 q-2 17 17 17 l77 0 q19 0 20 -17 l81 -524 l6 0 l118 526 q2 15 18 15 l84 0 q16 0 19 -15 l119 -526 l6 0 l81 523 q1 18 20 18 l77 0 q20 0 17 -18 l-119 -608 q-3 -17 -20 -17 l-106 0 q-17 0 -20 17 l-113 506 l-4 0 l-113 -506 q-3 -17 -19 -17 Z" /><glyph glyph-name="wdieresis" unicode="&#x1e85;" d="M209 591 l0 95 q0 17 16 17 l60 0 q16 0 16 -16 l0 -96 q0 -17 -16 -17 l-60 0 q-16 0 -16 17 ZM389 591 l0 95 q0 17 16 17 l60 0 q16 0 16 -16 l0 -96 q0 -17 -16 -17 l-60 0 q-16 0 -16 17 ZM242 0 l-86 0 q-15 0 -20 17 l-115 476 q-4 17 12 17 l72 0 q18 0 20 -17 l73 -378 l7 0 l88 378 q3 17 19 17 l66 0 q17 0 21 -17 l86 -378 l7 0 l73 378 q3 17 20 17 l72 0 q17 0 12 -17 l-115 -476 q-3 -17 -20 -17 l-86 0 q-16 0 -20 17 l-80 371 l-7 0 l-79 -371 q-3 -17 -20 -17 Z" /><glyph glyph-name="uni1E9E" unicode="&#x1e9e;" d="M151 0 l-64 0 q-17 0 -17 17 l0 471 q0 74 41 114.5 q41 40.5 115 40.5 l241 0 q19 0 19 -17 l0 -59 q0 -13 -6 -25 l-89 -167 l0 -4 l11 0 q110 -6 110 -124 l0 -93 q0 -73 -41.5 -113.5 q-41.5 -40.5 -114.5 -40.5 l-84 0 q-18 0 -18 16 l0 50 q0 17 18 17 l72 0 q72 0 72 73 l0 64 q0 76 -68 76 l-41 0 q-17 0 -17 17 l0 42 q0 19 7 30 l89 172 l-146 0 q-72 0 -72 -73 l0 -467 q0 -17 -17 -17 Z" /><glyph glyph-name="Ygrave" unicode="&#x1ef2;" d="M283 707 l-49 0 q-14 0 -22 12 l-85 100 q-5 7 -2.5 12 q2.5 5 11.5 5 l77 0 q18 0 26 -16 l52 -96 q7 -17 -8 -17 ZM286 0 l-64 0 q-17 0 -17 17 l0 221 l-187 387 q-4 8 0 13 q4 5 11 5 l80 0 q13 0 20 -17 l123 -275 l6 0 l121 275 q6 17 20 17 l80 0 q8 0 11.5 -5 q3.5 -5 -0.5 -13 l-187 -387 l0 -221 q0 -17 -17 -17 Z" /><glyph glyph-name="ygrave" unicode="&#x1ef3;" d="M271 574 l-49 0 q-13 0 -22 12 l-85 100 q-11 17 9 17 l78 0 q17 0 25 -16 l52 -96 q7 -17 -8 -17 ZM123 -162 l-53 0 q-17 0 -17 17 l0 51 q0 18 17 18 l23 0 q61 0 84.5 24 q23.5 24 39.5 79 l-40 0 q-15 0 -21 17 l-133 449 q-4 17 13 17 l67 0 q16 0 20 -17 l109 -392 l4 0 l109 392 q3 17 20 17 l64 0 q19 0 16 -18 l-137 -481 q-23 -84 -65 -128.5 q-42 -44.5 -120 -44.5 Z" /></font>
</defs>
</svg>
