<?xml version="1.0" standalone="no"?><!DOCTYPE svg PUBLIC "-//W3C//DTD SVG 1.1//EN" "http://www.w3.org/Graphics/SVG/1.1/DTD/svg11.dtd" ><svg xmlns="http://www.w3.org/2000/svg"><metadata></metadata><defs><font id="1.400;UKWN;WorkSans-SemiBold" horiz-adv-x="1315"><font-face font-family="Work Sans SemiBold" font-weight="600" font-stretch="normal" units-per-em="1000" panose-1="0 0 7 0 0 0 0 0 0 0" ascent="930" descent="-243" x-height="0" bbox="-340 -339 1281 924" underline-thickness="50" underline-position="-75" unicode-range="U+0020-fb02" /><missing-glyph horiz-adv-x="500" d="M50 660 l400 0 l0 -660 l-400 0 l0 660 ZM370 80 l0 500 l-240 0 l0 -500 l240 0 Z" /><glyph glyph-name="space" unicode=" " d="" /><glyph glyph-name="A" unicode="a" d="M461 161 l-254 0 l-54 -161 l-141 0 l241 660 l165 0 l241 -660 l-143 0 l-55 161 ZM427 263 l-62 186 l-30 100 l-2 0 l-28 -98 l-64 -188 l186 0 Z" /><glyph glyph-name="Aacute" unicode="á" d="M377 730 l-103 0 l56 155 l136 0 l-89 -155 ZM461 161 l-254 0 l-54 -161 l-141 0 l241 660 l165 0 l241 -660 l-143 0 l-55 161 ZM427 263 l-62 186 l-30 100 l-2 0 l-28 -98 l-64 -188 l186 0 Z" /><glyph glyph-name="Acircumflex" unicode="â" d="M261 726 l-106 0 l111 167 l138 0 l111 -167 l-106 0 l-74 98 l-74 -98 ZM461 161 l-254 0 l-54 -161 l-141 0 l241 660 l165 0 l241 -660 l-143 0 l-55 161 ZM427 263 l-62 186 l-30 100 l-2 0 l-28 -98 l-64 -188 l186 0 Z" /><glyph glyph-name="Agrave" unicode="à" d="M280 730 l-89 155 l136 0 l56 -155 l-103 0 ZM461 161 l-254 0 l-54 -161 l-141 0 l241 660 l165 0 l241 -660 l-143 0 l-55 161 ZM427 263 l-62 186 l-30 100 l-2 0 l-28 -98 l-64 -188 l186 0 Z" /><glyph glyph-name="Aogonek" unicode="&#x104;" d="M668 -193 q-33 -22 -96 -22 q-59 0 -95.5 28.5 q-36.5 28.5 -36.5 81.5 q0 70 74 109 l-53 157 l-254 0 l-54 -161 l-141 0 l241 660 l165 0 l241 -660 q-67 -16 -93.5 -37 q-26.5 -21 -26.5 -50 q0 -22 16 -34.5 q16 -12.5 43 -12.5 q33 0 50 11 l20 -70 ZM427 263 l-62 186 l-30 100 l-2 0 l-28 -98 l-64 -188 l186 0 Z" /><glyph glyph-name="Aring" unicode="å" d="M461 161 l-254 0 l-54 -161 l-141 0 l235 634 q-25 15 -38.5 40 q-13.5 25 -13.5 58 q0 57 38.5 91.5 q38.5 34.5 102.5 34.5 q65 0 103 -34.5 q38 -34.5 38 -91.5 q0 -32 -14 -57.5 q-14 -25.5 -39 -40.5 l235 -634 l-143 0 l-55 161 ZM336 790 q-28 0 -45.5 -17 q-17.5 -17 -17.5 -44 q0 -27 17.5 -44 q17.5 -17 45.5 -17 q28 0 45.5 17 q17.5 17 17.5 44 q0 27 -17.5 44 q-17.5 17 -45.5 17 ZM427 263 l-62 186 l-29 100 l-3 0 l-28 -98 l-64 -188 l186 0 Z" /><glyph glyph-name="AE" unicode="æ" d="M897 108 l0 -108 l-465 0 l0 202 l-200 0 l-91 -202 l-141 0 l321 660 l562 0 l0 -108 l-320 0 l0 -168 l244 0 l0 -103 l-244 0 l0 -173 l334 0 ZM432 301 l0 254 l-40 0 l-115 -254 l155 0 Z" /><glyph glyph-name="B" unicode="b" d="M86 660 l289 0 q118 0 176 -46.5 q58 -46.5 58 -133.5 q0 -55 -33 -95.5 q-33 -40.5 -93 -50.5 l0 -1 q68 -10 105.5 -51.5 q37.5 -41.5 37.5 -100.5 q0 -86 -62 -133.5 q-62 -47.5 -179 -47.5 l-299 0 l0 660 ZM356 383 q110 0 110 85 q0 85 -110 85 l-136 0 l0 -170 l136 0 ZM373 104 q55 0 82.5 22.5 q27.5 22.5 27.5 64.5 q0 42 -27.5 64 q-27.5 22 -82.5 22 l-153 0 l0 -173 l153 0 Z" /><glyph glyph-name="C" unicode="c" d="M651 182 q-29 -95 -103 -143.5 q-74 -48.5 -177 -48.5 q-97 0 -169 41 q-72 41 -110.5 117.5 q-38.5 76.5 -38.5 181.5 q0 105 38.5 181.5 q38.5 76.5 110 117.5 q71.5 41 167.5 41 q103 0 174.5 -43 q71.5 -43 98.5 -128 l-125 -53 q-16 59 -50 85 q-34 26 -92 26 q-84 0 -131.5 -59 q-47.5 -59 -47.5 -168 q0 -109 46 -168 q46 -59 130 -59 q121 0 152 117 l127 -38 Z" /><glyph glyph-name="Cacute" unicode="&#x106;" d="M497 885 l-89 -155 l-103 0 l56 155 l136 0 ZM651 182 q-29 -95 -103 -143.5 q-74 -48.5 -177 -48.5 q-97 0 -169 41 q-72 41 -110.5 117.5 q-38.5 76.5 -38.5 181.5 q0 105 38.5 181.5 q38.5 76.5 110 117.5 q71.5 41 167.5 41 q103 0 174.5 -43 q71.5 -43 98.5 -128 l-125 -53 q-16 59 -50 85 q-34 26 -92 26 q-84 0 -131.5 -59 q-47.5 -59 -47.5 -168 q0 -109 46 -168 q46 -59 130 -59 q121 0 152 117 l127 -38 Z" /><glyph glyph-name="Ccaron" unicode="&#x10c;" d="M433 727 l-138 0 l-111 167 l106 0 l74 -98 l74 98 l106 0 l-111 -167 ZM651 182 q-29 -95 -103 -143.5 q-74 -48.5 -177 -48.5 q-97 0 -169 41 q-72 41 -110.5 117.5 q-38.5 76.5 -38.5 181.5 q0 105 38.5 181.5 q38.5 76.5 110 117.5 q71.5 41 167.5 41 q103 0 174.5 -43 q71.5 -43 98.5 -128 l-125 -53 q-16 59 -50 85 q-34 26 -92 26 q-84 0 -131.5 -59 q-47.5 -59 -47.5 -168 q0 -109 46 -168 q46 -59 130 -59 q121 0 152 117 l127 -38 Z" /><glyph glyph-name="Ccedilla" unicode="ç" d="M651 182 q-24 -78 -79 -125 q-55 -47 -133 -61 q27 -19 41 -44 q14 -25 14 -53 q0 -53 -36.5 -83.5 q-36.5 -30.5 -96.5 -30.5 q-78 0 -119 38 l36 71 q13 -14 31.5 -22 q18.5 -8 39.5 -8 q24 0 39.5 14.5 q15.5 14.5 15.5 38.5 q0 25 -15 42 q-15 17 -56 33 q-131 11 -205.5 100.5 q-74.5 89.5 -74.5 237.5 q0 105 38.5 181.5 q38.5 76.5 110 117.5 q71.5 41 167.5 41 q103 0 174.5 -43 q71.5 -43 98.5 -128 l-125 -53 q-16 59 -50 85 q-34 26 -92 26 q-84 0 -131.5 -59 q-47.5 -59 -47.5 -168 q0 -109 46 -168 q46 -59 130 -59 q121 0 152 117 l127 -38 Z" /><glyph glyph-name="D" unicode="d" d="M341 660 q155 0 240 -86 q85 -86 85 -244 q0 -158 -85 -244 q-85 -86 -240 -86 l-255 0 l0 660 l255 0 ZM334 110 q94 0 141.5 56.5 q47.5 56.5 47.5 163.5 q0 107 -47.5 163.5 q-47.5 56.5 -141.5 56.5 l-110 0 l0 -440 l110 0 Z" /><glyph glyph-name="Dcaron" unicode="&#x10e;" d="M256 727 l-111 167 l106 0 l74 -98 l74 98 l106 0 l-111 -167 l-138 0 ZM341 660 q155 0 240 -86 q85 -86 85 -244 q0 -158 -85 -244 q-85 -86 -240 -86 l-255 0 l0 660 l255 0 ZM334 110 q94 0 141.5 56.5 q47.5 56.5 47.5 163.5 q0 107 -47.5 163.5 q-47.5 56.5 -141.5 56.5 l-110 0 l0 -440 l110 0 Z" /><glyph glyph-name="Dcroat" unicode="&#x110;" d="M362 660 q155 0 239.5 -86 q84.5 -86 84.5 -244 q0 -158 -84.5 -244 q-84.5 -86 -239.5 -86 l-255 0 l0 284 l-89 0 l0 94 l89 0 l0 282 l255 0 ZM354 110 q94 0 142 56.5 q48 56.5 48 163.5 q0 107 -48 163.5 q-48 56.5 -142 56.5 l-109 0 l0 -172 l154 0 l0 -94 l-154 0 l0 -174 l109 0 Z" /><glyph glyph-name="E" unicode="e" d="M595 111 l0 -111 l-509 0 l0 660 l495 0 l0 -111 l-357 0 l0 -164 l281 0 l0 -106 l-281 0 l0 -168 l371 0 Z" /><glyph glyph-name="Eacute" unicode="é" d="M371 730 l-103 0 l56 155 l136 0 l-89 -155 ZM595 111 l0 -111 l-509 0 l0 660 l495 0 l0 -111 l-357 0 l0 -164 l281 0 l0 -106 l-281 0 l0 -168 l371 0 Z" /><glyph glyph-name="Ecaron" unicode="&#x11a;" d="M258 727 l-111 167 l106 0 l74 -98 l74 98 l106 0 l-111 -167 l-138 0 ZM595 111 l0 -111 l-509 0 l0 660 l495 0 l0 -111 l-357 0 l0 -164 l281 0 l0 -106 l-281 0 l0 -168 l371 0 Z" /><glyph glyph-name="Ecircumflex" unicode="ê" d="M255 726 l-106 0 l111 167 l138 0 l111 -167 l-106 0 l-74 98 l-74 -98 ZM595 111 l0 -111 l-509 0 l0 660 l495 0 l0 -111 l-357 0 l0 -164 l281 0 l0 -106 l-281 0 l0 -168 l371 0 Z" /><glyph glyph-name="Egrave" unicode="è" d="M295 730 l-89 155 l136 0 l56 -155 l-103 0 ZM595 111 l0 -111 l-509 0 l0 660 l495 0 l0 -111 l-357 0 l0 -164 l281 0 l0 -106 l-281 0 l0 -168 l371 0 Z" /><glyph glyph-name="Eogonek" unicode="&#x118;" d="M604 -193 q-33 -22 -96 -22 q-59 0 -95 28 q-36 28 -36 78 q0 73 82 109 l-373 0 l0 660 l495 0 l0 -111 l-357 0 l0 -164 l281 0 l0 -106 l-281 0 l0 -168 l371 0 l0 -110 l1 -1 q-67 -16 -93.5 -37.5 q-26.5 -21.5 -26.5 -49.5 q0 -22 15.5 -34.5 q15.5 -12.5 42.5 -12.5 q33 0 50 11 l20 -70 Z" /><glyph glyph-name="F" unicode="f" d="M224 549 l0 -167 l281 0 l0 -112 l-281 0 l0 -270 l-138 0 l0 660 l494 0 l0 -111 l-356 0 Z" /><glyph glyph-name="G" unicode="g" d="M658 349 l0 -349 l-101 0 l-3 79 q-60 -89 -195 -89 q-91 0 -160 40 q-69 40 -107.5 116.5 q-38.5 76.5 -38.5 182.5 q0 105 39.5 182 q39.5 77 112 118 q72.5 41 169.5 41 q107 0 174.5 -39 q67.5 -39 106.5 -123 l-127 -55 q-15 51 -54.5 77.5 q-39.5 26.5 -95.5 26.5 q-86 0 -134 -59 q-48 -59 -48 -168 q0 -113 47 -171 q47 -58 138 -58 q70 0 114 33.5 q44 33.5 44 97.5 l0 15 l-193 0 l0 102 l312 0 Z" /><glyph glyph-name="H" unicode="h" d="M653 660 l0 -660 l-138 0 l0 278 l-291 0 l0 -278 l-138 0 l0 660 l138 0 l0 -271 l291 0 l0 271 l138 0 Z" /><glyph glyph-name="I" unicode="i" d="M224 0 l-138 0 l0 660 l138 0 l0 -660 Z" /><glyph glyph-name="Iacute" unicode="í" d="M286 885 l-89 -155 l-103 0 l56 155 l136 0 ZM224 0 l-138 0 l0 660 l138 0 l0 -660 Z" /><glyph glyph-name="Icircumflex" unicode="î" d="M229 726 l-74 98 l-74 -98 l-106 0 l111 167 l138 0 l111 -167 l-106 0 ZM224 0 l-138 0 l0 660 l138 0 l0 -660 Z" /><glyph glyph-name="Idieresis" unicode="ï" d="M58 865 q34 0 54 -19 q20 -19 20 -51 q0 -32 -20 -51 q-20 -19 -54 -19 q-33 0 -52.5 19 q-19.5 19 -19.5 51 q0 32 19.5 51 q19.5 19 52.5 19 ZM250 865 q34 0 54 -19 q20 -19 20 -51 q0 -32 -20 -51 q-20 -19 -54 -19 q-33 0 -52.5 19 q-19.5 19 -19.5 51 q0 32 19.5 51 q19.5 19 52.5 19 ZM224 0 l-138 0 l0 660 l138 0 l0 -660 Z" /><glyph glyph-name="Igrave" unicode="ì" d="M203 730 l-103 0 l-89 155 l136 0 l56 -155 ZM224 0 l-138 0 l0 660 l138 0 l0 -660 Z" /><glyph glyph-name="Imacron" unicode="&#x12a;" d="M284 739 l-259 0 l0 91 l259 0 l0 -91 ZM224 0 l-138 0 l0 660 l138 0 l0 -660 Z" /><glyph glyph-name="Iogonek" unicode="&#x12e;" d="M244 -191 q-37 -24 -98 -24 q-58 0 -93.5 28 q-35.5 28 -35.5 78 q0 34 19 62 q19 28 54 47 l-4 0 l0 660 l138 0 l0 -660 q-61 -19 -85 -39.5 q-24 -20.5 -24 -45.5 q0 -23 14 -35.5 q14 -12.5 41 -12.5 q33 0 52 12 l22 -70 Z" /><glyph glyph-name="J" unicode="j" d="M525 243 q0 -119 -68 -186 q-68 -67 -191 -67 q-114 0 -173 52.5 q-59 52.5 -59 143.5 q0 28 6 59 l135 24 q-4 -28 -4 -56 q0 -57 24 -83.5 q24 -26.5 75 -26.5 q64 0 90.5 38.5 q26.5 38.5 26.5 120.5 l0 398 l138 0 l0 -417 Z" /><glyph glyph-name="K" unicode="k" d="M318 302 l-94 -107 l0 -195 l-138 0 l0 660 l138 0 l0 -313 l271 313 l160 0 l-237 -269 l245 -391 l-158 0 l-187 302 Z" /><glyph glyph-name="L" unicode="l" d="M572 111 l0 -111 l-486 0 l0 660 l138 0 l0 -549 l348 0 Z" /><glyph glyph-name="Lacute" unicode="&#x139;" d="M197 730 l-103 0 l56 155 l136 0 l-89 -155 ZM572 111 l0 -111 l-486 0 l0 660 l138 0 l0 -549 l348 0 Z" /><glyph glyph-name="Lcaron" unicode="&#x13d;" d="M400 477 l-89 0 l23 224 l118 0 l-52 -224 ZM572 111 l0 -111 l-486 0 l0 660 l138 0 l0 -549 l348 0 Z" /><glyph glyph-name="Lslash" unicode="&#x141;" d="M610 111 l0 -111 l-486 0 l0 232 l-109 -55 l0 110 l109 54 l0 319 l138 0 l0 -249 l173 87 l0 -110 l-173 -87 l0 -190 l348 0 Z" /><glyph glyph-name="M" unicode="m" d="M804 0 l-124 0 l0 344 l6 193 l-2 0 l-183 -537 l-113 0 l-182 537 l-2 0 l7 -193 l0 -344 l-125 0 l0 660 l200 0 l119 -360 l42 -149 l2 0 l43 148 l118 361 l194 0 l0 -660 Z" /><glyph glyph-name="N" unicode="n" d="M653 0 l-158 0 l-231 388 l-57 111 l-1 0 l4 -117 l0 -382 l-124 0 l0 660 l157 0 l231 -387 l57 -112 l2 0 l-4 117 l0 382 l124 0 l0 -660 Z" /><glyph glyph-name="Nacute" unicode="&#x143;" d="M503 885 l-89 -155 l-103 0 l56 155 l136 0 ZM653 0 l-158 0 l-231 388 l-57 111 l-1 0 l4 -117 l0 -382 l-124 0 l0 660 l157 0 l231 -387 l57 -112 l2 0 l-4 117 l0 382 l124 0 l0 -660 Z" /><glyph glyph-name="Ncaron" unicode="&#x147;" d="M438 727 l-138 0 l-111 167 l106 0 l74 -98 l74 98 l106 0 l-111 -167 ZM653 0 l-158 0 l-231 388 l-57 111 l-1 0 l4 -117 l0 -382 l-124 0 l0 660 l157 0 l231 -387 l57 -112 l2 0 l-4 117 l0 382 l124 0 l0 -660 Z" /><glyph glyph-name="O" unicode="o" d="M371 670 q97 0 168.5 -41 q71.5 -41 110 -117.5 q38.5 -76.5 38.5 -181.5 q0 -105 -38.5 -181.5 q-38.5 -76.5 -110 -117.5 q-71.5 -41 -168.5 -41 q-97 0 -169 41 q-72 41 -110.5 117.5 q-38.5 76.5 -38.5 181.5 q0 105 38.5 181.5 q38.5 76.5 110.5 117.5 q72 41 169 41 ZM371 557 q-84 0 -129.5 -58.5 q-45.5 -58.5 -45.5 -168.5 q0 -110 45.5 -168.5 q45.5 -58.5 129.5 -58.5 q83 0 128.5 58.5 q45.5 58.5 45.5 168.5 q0 110 -45.5 168.5 q-45.5 58.5 -128.5 58.5 Z" /><glyph glyph-name="Oacute" unicode="ó" d="M502 885 l-89 -155 l-103 0 l56 155 l136 0 ZM371 670 q97 0 168.5 -41 q71.5 -41 110 -117.5 q38.5 -76.5 38.5 -181.5 q0 -105 -38.5 -181.5 q-38.5 -76.5 -110 -117.5 q-71.5 -41 -168.5 -41 q-97 0 -169 41 q-72 41 -110.5 117.5 q-38.5 76.5 -38.5 181.5 q0 105 38.5 181.5 q38.5 76.5 110.5 117.5 q72 41 169 41 ZM371 557 q-84 0 -129.5 -58.5 q-45.5 -58.5 -45.5 -168.5 q0 -110 45.5 -168.5 q45.5 -58.5 129.5 -58.5 q83 0 128.5 58.5 q45.5 58.5 45.5 168.5 q0 110 -45.5 168.5 q-45.5 58.5 -128.5 58.5 Z" /><glyph glyph-name="Ocircumflex" unicode="ô" d="M445 726 l-74 98 l-74 -98 l-106 0 l111 167 l138 0 l111 -167 l-106 0 ZM371 670 q97 0 168.5 -41 q71.5 -41 110 -117.5 q38.5 -76.5 38.5 -181.5 q0 -105 -38.5 -181.5 q-38.5 -76.5 -110 -117.5 q-71.5 -41 -168.5 -41 q-97 0 -169 41 q-72 41 -110.5 117.5 q-38.5 76.5 -38.5 181.5 q0 105 38.5 181.5 q38.5 76.5 110.5 117.5 q72 41 169 41 ZM371 557 q-84 0 -129.5 -58.5 q-45.5 -58.5 -45.5 -168.5 q0 -110 45.5 -168.5 q45.5 -58.5 129.5 -58.5 q83 0 128.5 58.5 q45.5 58.5 45.5 168.5 q0 110 -45.5 168.5 q-45.5 58.5 -128.5 58.5 Z" /><glyph glyph-name="Ograve" unicode="ò" d="M419 730 l-103 0 l-89 155 l136 0 l56 -155 ZM371 670 q97 0 168.5 -41 q71.5 -41 110 -117.5 q38.5 -76.5 38.5 -181.5 q0 -105 -38.5 -181.5 q-38.5 -76.5 -110 -117.5 q-71.5 -41 -168.5 -41 q-97 0 -169 41 q-72 41 -110.5 117.5 q-38.5 76.5 -38.5 181.5 q0 105 38.5 181.5 q38.5 76.5 110.5 117.5 q72 41 169 41 ZM371 557 q-84 0 -129.5 -58.5 q-45.5 -58.5 -45.5 -168.5 q0 -110 45.5 -168.5 q45.5 -58.5 129.5 -58.5 q83 0 128.5 58.5 q45.5 58.5 45.5 168.5 q0 110 -45.5 168.5 q-45.5 58.5 -128.5 58.5 Z" /><glyph glyph-name="Ohungarumlaut" unicode="&#x150;" d="M406 885 l-90 -155 l-102 0 l55 155 l137 0 ZM613 885 l-90 -155 l-102 0 l55 155 l137 0 ZM371 670 q97 0 168.5 -41 q71.5 -41 110 -117.5 q38.5 -76.5 38.5 -181.5 q0 -105 -38.5 -181.5 q-38.5 -76.5 -110 -117.5 q-71.5 -41 -168.5 -41 q-97 0 -169 41 q-72 41 -110.5 117.5 q-38.5 76.5 -38.5 181.5 q0 105 38.5 181.5 q38.5 76.5 110.5 117.5 q72 41 169 41 ZM371 557 q-84 0 -129.5 -58.5 q-45.5 -58.5 -45.5 -168.5 q0 -110 45.5 -168.5 q45.5 -58.5 129.5 -58.5 q83 0 128.5 58.5 q45.5 58.5 45.5 168.5 q0 110 -45.5 168.5 q-45.5 58.5 -128.5 58.5 Z" /><glyph glyph-name="Oslash" unicode="ø" d="M598 584 q44 -44 67 -108.5 q23 -64.5 23 -145.5 q0 -105 -38.5 -181.5 q-38.5 -76.5 -110 -117.5 q-71.5 -41 -168.5 -41 q-100 0 -172 43 l-46 -64 l-80 0 l73 103 q-45 45 -69 110.5 q-24 65.5 -24 147.5 q0 105 38.5 181.5 q38.5 76.5 110.5 117.5 q72 41 169 41 q102 0 176 -45 l41 57 l80 0 l-70 -98 ZM371 557 q-84 0 -129.5 -58.5 q-45.5 -58.5 -45.5 -168.5 q0 -94 33 -150 l243 346 q-42 31 -101 31 ZM371 103 q83 0 128.5 58.5 q45.5 58.5 45.5 168.5 q0 87 -29 143 l-241 -343 q39 -27 96 -27 Z" /><glyph glyph-name="OE" unicode="&#x152;" d="M1022 111 l0 -111 l-453 0 l0 85 q-38 -45 -90.5 -70 q-52.5 -25 -117.5 -25 q-94 0 -163.5 41 q-69.5 41 -107 117.5 q-37.5 76.5 -37.5 181.5 q0 105 37.5 181.5 q37.5 76.5 107.5 117.5 q70 41 165 41 q65 0 117 -24 q52 -24 89 -69 l0 83 l439 0 l0 -111 l-339 0 l0 -164 l263 0 l0 -106 l-263 0 l0 -168 l353 0 ZM368 103 q78 0 122.5 59 q44.5 59 44.5 168 q0 109 -44.5 168 q-44.5 59 -122.5 59 q-85 0 -129.5 -58.5 q-44.5 -58.5 -44.5 -168.5 q0 -110 44.5 -168.5 q44.5 -58.5 129.5 -58.5 Z" /><glyph glyph-name="P" unicode="p" d="M363 660 q115 0 179 -55.5 q64 -55.5 64 -156.5 q0 -98 -64 -153 q-64 -55 -179 -55 l-139 0 l0 -240 l-138 0 l0 660 l277 0 ZM342 347 q64 0 94 25.5 q30 25.5 30 76.5 q0 51 -30 76 q-30 25 -94 25 l-118 0 l0 -203 l118 0 Z" /><glyph glyph-name="Thorn" unicode="þ" d="M352 553 q125 0 190.5 -55 q65.5 -55 64.5 -161 q1 -105 -64.5 -160.5 q-65.5 -55.5 -190.5 -55.5 l-128 0 l0 -121 l-138 0 l0 660 l138 0 l0 -107 l128 0 ZM342 230 q63 0 94 26.5 q31 26.5 31 80.5 q0 54 -31 80.5 q-31 26.5 -94 26.5 l-118 0 l0 -214 l118 0 Z" /><glyph glyph-name="Q" unicode="q" d="M528 -86 q39 0 70 10 q31 10 51 28 l36 -106 q-26 -22 -69.5 -34.5 q-43.5 -12.5 -92.5 -12.5 q-96 0 -150 49.5 q-54 49.5 -52 144.5 q-126 15 -197 104 q-71 89 -71 233 q0 105 38.5 181.5 q38.5 76.5 110.5 117.5 q72 41 169 41 q97 0 168.5 -41 q71.5 -41 110 -117.5 q38.5 -76.5 38.5 -181.5 q0 -145 -72 -234 q-72 -89 -199 -103 q5 -45 33 -62 q28 -17 78 -17 ZM196 330 q0 -110 45.5 -168.5 q45.5 -58.5 129.5 -58.5 q83 0 128.5 58.5 q45.5 58.5 45.5 168.5 q0 110 -45.5 168.5 q-45.5 58.5 -128.5 58.5 q-84 0 -129.5 -58.5 q-45.5 -58.5 -45.5 -168.5 Z" /><glyph glyph-name="R" unicode="r" d="M346 253 l-124 0 l0 -253 l-136 0 l0 660 l291 0 q113 0 176.5 -53.5 q63.5 -53.5 63.5 -150.5 q0 -71 -35 -119 q-35 -48 -100 -69 l174 -268 l-155 0 l-155 253 ZM222 358 l137 0 q60 0 88.5 23.5 q28.5 23.5 28.5 72.5 q0 49 -28.5 72.5 q-28.5 23.5 -88.5 23.5 l-137 0 l0 -192 Z" /><glyph glyph-name="Racute" unicode="&#x154;" d="M369 730 l-103 0 l56 155 l136 0 l-89 -155 ZM346 253 l-124 0 l0 -253 l-136 0 l0 660 l291 0 q113 0 176.5 -53.5 q63.5 -53.5 63.5 -150.5 q0 -71 -35 -119 q-35 -48 -100 -69 l174 -268 l-155 0 l-155 253 ZM222 358 l137 0 q60 0 88.5 23.5 q28.5 23.5 28.5 72.5 q0 49 -28.5 72.5 q-28.5 23.5 -88.5 23.5 l-137 0 l0 -192 Z" /><glyph glyph-name="Rcaron" unicode="&#x158;" d="M255 727 l-111 167 l106 0 l74 -98 l74 98 l106 0 l-111 -167 l-138 0 ZM346 253 l-124 0 l0 -253 l-136 0 l0 660 l291 0 q113 0 176.5 -53.5 q63.5 -53.5 63.5 -150.5 q0 -71 -35 -119 q-35 -48 -100 -69 l174 -268 l-155 0 l-155 253 ZM222 358 l137 0 q60 0 88.5 23.5 q28.5 23.5 28.5 72.5 q0 49 -28.5 72.5 q-28.5 23.5 -88.5 23.5 l-137 0 l0 -192 Z" /><glyph glyph-name="S" unicode="s" d="M327 670 q92 0 158 -30.5 q66 -30.5 116 -96.5 l-95 -93 q-26 54 -69 80.5 q-43 26.5 -109 26.5 q-60 0 -92.5 -22.5 q-32.5 -22.5 -32.5 -59.5 q0 -34 33 -54 q33 -20 119 -35 q90 -17 143 -42 q53 -25 77.5 -62.5 q24.5 -37.5 24.5 -93.5 q0 -61 -34.5 -105.5 q-34.5 -44.5 -96 -68.5 q-61.5 -24 -140.5 -24 q-109 0 -178.5 30.5 q-69.5 30.5 -112.5 92.5 l82 98 q37 -61 85 -84.5 q48 -23.5 119 -23.5 q64 0 97.5 20 q33.5 20 33.5 57 q0 27 -31.5 45 q-31.5 18 -112.5 34 q-93 19 -148.5 45 q-55.5 26 -80.5 64 q-25 38 -25 94 q0 59 32 106.5 q32 47.5 93.5 74.5 q61.5 27 144.5 27 Z" /><glyph glyph-name="Sacute" unicode="&#x15a;" d="M459 885 l-89 -155 l-103 0 l56 155 l136 0 ZM327 670 q92 0 158 -30.5 q66 -30.5 116 -96.5 l-95 -93 q-26 54 -69 80.5 q-43 26.5 -109 26.5 q-60 0 -92.5 -22.5 q-32.5 -22.5 -32.5 -59.5 q0 -34 33 -54 q33 -20 119 -35 q90 -17 143 -42 q53 -25 77.5 -62.5 q24.5 -37.5 24.5 -93.5 q0 -61 -34.5 -105.5 q-34.5 -44.5 -96 -68.5 q-61.5 -24 -140.5 -24 q-109 0 -178.5 30.5 q-69.5 30.5 -112.5 92.5 l82 98 q37 -61 85 -84.5 q48 -23.5 119 -23.5 q64 0 97.5 20 q33.5 20 33.5 57 q0 27 -31.5 45 q-31.5 18 -112.5 34 q-93 19 -148.5 45 q-55.5 26 -80.5 64 q-25 38 -25 94 q0 59 32 106.5 q32 47.5 93.5 74.5 q61.5 27 144.5 27 Z" /><glyph glyph-name="Scaron" unicode="&#x160;" d="M395 727 l-138 0 l-111 167 l106 0 l74 -98 l74 98 l106 0 l-111 -167 ZM327 670 q92 0 158 -30.5 q66 -30.5 116 -96.5 l-95 -93 q-26 54 -69 80.5 q-43 26.5 -109 26.5 q-60 0 -92.5 -22.5 q-32.5 -22.5 -32.5 -59.5 q0 -34 33 -54 q33 -20 119 -35 q90 -17 143 -42 q53 -25 77.5 -62.5 q24.5 -37.5 24.5 -93.5 q0 -61 -34.5 -105.5 q-34.5 -44.5 -96 -68.5 q-61.5 -24 -140.5 -24 q-109 0 -178.5 30.5 q-69.5 30.5 -112.5 92.5 l82 98 q37 -61 85 -84.5 q48 -23.5 119 -23.5 q64 0 97.5 20 q33.5 20 33.5 57 q0 27 -31.5 45 q-31.5 18 -112.5 34 q-93 19 -148.5 45 q-55.5 26 -80.5 64 q-25 38 -25 94 q0 59 32 106.5 q32 47.5 93.5 74.5 q61.5 27 144.5 27 Z" /><glyph glyph-name="uni1E9E" unicode="&#x1e9e;" d="M478 366 q92 -2 147 -47.5 q55 -45.5 55 -131.5 q0 -89 -59 -140.5 q-59 -51.5 -153 -51.5 q-65 0 -110 16 q-45 16 -69 44 l42 85 q19 -19 48 -29.5 q29 -10.5 64 -10.5 q46 0 74.5 24.5 q28.5 24.5 28.5 65.5 q0 43 -31 66.5 q-31 23.5 -87 23.5 l-84 0 l0 86 l157 184 l-142 0 q-60 0 -97.5 -38 q-37.5 -38 -37.5 -100 l0 -412 l-138 0 l0 428 q0 70 31.5 122.5 q31.5 52.5 89 81 q57.5 28.5 133.5 28.5 l300 0 l0 -109 l-162 -185 Z" /><glyph glyph-name="T" unicode="t" d="M608 549 l-221 0 l0 -549 l-138 0 l0 549 l-222 0 l0 111 l581 0 l0 -111 Z" /><glyph glyph-name="Tcaron" unicode="&#x164;" d="M246 727 l-111 167 l106 0 l74 -98 l74 98 l106 0 l-111 -167 l-138 0 ZM608 549 l-221 0 l0 -549 l-138 0 l0 549 l-222 0 l0 111 l581 0 l0 -111 Z" /><glyph glyph-name="U" unicode="u" d="M640 260 q0 -134 -71.5 -202 q-71.5 -68 -210.5 -68 q-139 0 -210.5 68 q-71.5 68 -71.5 202 l0 400 l138 0 l0 -394 q0 -83 35.5 -123 q35.5 -40 108.5 -40 q73 0 108 40 q35 40 35 123 l0 394 l139 0 l0 -400 Z" /><glyph glyph-name="Uacute" unicode="ú" d="M489 885 l-89 -155 l-103 0 l56 155 l136 0 ZM640 260 q0 -134 -71.5 -202 q-71.5 -68 -210.5 -68 q-139 0 -210.5 68 q-71.5 68 -71.5 202 l0 400 l138 0 l0 -394 q0 -83 35.5 -123 q35.5 -40 108.5 -40 q73 0 108 40 q35 40 35 123 l0 394 l139 0 l0 -400 Z" /><glyph glyph-name="Ucircumflex" unicode="û" d="M432 726 l-74 98 l-74 -98 l-106 0 l111 167 l138 0 l111 -167 l-106 0 ZM640 260 q0 -134 -71.5 -202 q-71.5 -68 -210.5 -68 q-139 0 -210.5 68 q-71.5 68 -71.5 202 l0 400 l138 0 l0 -394 q0 -83 35.5 -123 q35.5 -40 108.5 -40 q73 0 108 40 q35 40 35 123 l0 394 l139 0 l0 -400 Z" /><glyph glyph-name="Ugrave" unicode="ù" d="M406 730 l-103 0 l-89 155 l136 0 l56 -155 ZM640 260 q0 -134 -71.5 -202 q-71.5 -68 -210.5 -68 q-139 0 -210.5 68 q-71.5 68 -71.5 202 l0 400 l138 0 l0 -394 q0 -83 35.5 -123 q35.5 -40 108.5 -40 q73 0 108 40 q35 40 35 123 l0 394 l139 0 l0 -400 Z" /><glyph glyph-name="Uhungarumlaut" unicode="&#x170;" d="M387 887 l-90 -156 l-102 0 l55 156 l137 0 ZM590 885 l-90 -155 l-102 0 l56 155 l136 0 ZM640 260 q0 -134 -71.5 -202 q-71.5 -68 -210.5 -68 q-139 0 -210.5 68 q-71.5 68 -71.5 202 l0 400 l138 0 l0 -394 q0 -83 35.5 -123 q35.5 -40 108.5 -40 q73 0 108 40 q35 40 35 123 l0 394 l139 0 l0 -400 Z" /><glyph glyph-name="Uogonek" unicode="&#x172;" d="M640 660 l0 -400 q0 -111 -49.5 -177 q-49.5 -66 -145.5 -85 q-83 -38 -83 -84 q0 -22 16 -35 q16 -13 42 -13 q33 0 50 11 l20 -71 q-34 -21 -95 -21 q-58 0 -95 28.5 q-37 28.5 -37 78.5 q0 61 55 99 q-119 10 -180.5 77.5 q-61.5 67.5 -61.5 191.5 l0 400 l138 0 l0 -394 q0 -83 35.5 -123 q35.5 -40 108.5 -40 q73 0 108 40 q35 40 35 123 l0 394 l139 0 Z" /><glyph glyph-name="V" unicode="v" d="M416 0 l-161 0 l-241 660 l146 0 l139 -420 l38 -130 l37 129 l140 421 l142 0 l-240 -660 Z" /><glyph glyph-name="W" unicode="w" d="M370 0 l-159 0 l-192 660 l149 0 l128 -551 l132 551 l132 0 l134 -551 l128 551 l142 0 l-192 -660 l-155 0 l-92 360 l-31 156 l-2 0 l-31 -156 l-91 -360 Z" /><glyph glyph-name="X" unicode="x" d="M459 0 l-144 239 l-141 -239 l-158 0 l227 333 l-211 327 l163 0 l134 -230 l134 230 l149 0 l-212 -322 l224 -338 l-165 0 Z" /><glyph glyph-name="Y" unicode="y" d="M382 247 l0 -247 l-138 0 l0 247 l-234 413 l147 0 l106 -197 l50 -104 l51 104 l106 197 l146 0 l-234 -413 Z" /><glyph glyph-name="Yacute" unicode="ý" d="M444 885 l-89 -155 l-103 0 l56 155 l136 0 ZM382 247 l0 -247 l-138 0 l0 247 l-234 413 l147 0 l106 -197 l50 -104 l51 104 l106 197 l146 0 l-234 -413 Z" /><glyph glyph-name="Z" unicode="z" d="M593 110 l0 -110 l-549 0 l0 104 l385 446 l-377 0 l0 110 l529 0 l0 -104 l-385 -446 l397 0 Z" /><glyph glyph-name="Zacute" unicode="&#x179;" d="M357 730 l-103 0 l56 155 l136 0 l-89 -155 ZM593 110 l0 -110 l-549 0 l0 104 l385 446 l-377 0 l0 110 l529 0 l0 -104 l-385 -446 l397 0 Z" /><glyph glyph-name="Zcaron" unicode="&#x17d;" d="M243 727 l-111 167 l106 0 l74 -98 l74 98 l106 0 l-111 -167 l-138 0 ZM593 110 l0 -110 l-549 0 l0 104 l385 446 l-377 0 l0 110 l529 0 l0 -104 l-385 -446 l397 0 Z" /><glyph glyph-name="Scedilla" unicode="&#x15e;" d="M355 386 q90 -17 143 -42 q53 -25 77.5 -62.5 q24.5 -37.5 24.5 -93.5 q0 -77 -54.5 -127.5 q-54.5 -50.5 -146.5 -65.5 q27 -19 40.5 -44 q13.5 -25 13.5 -52 q0 -53 -36.5 -83.5 q-36.5 -30.5 -96.5 -30.5 q-78 0 -119 38 l36 71 q13 -14 31.5 -22 q18.5 -8 39.5 -8 q24 0 39.5 14.5 q15.5 14.5 15.5 38.5 q0 24 -15 41 q-15 17 -54 33 q-94 4 -155.5 34.5 q-61.5 30.5 -100.5 87.5 l82 98 q37 -61 85 -84.5 q48 -23.5 119 -23.5 q64 0 97.5 20 q33.5 20 33.5 57 q0 27 -31.5 45 q-31.5 18 -112.5 34 q-93 19 -148.5 45 q-55.5 26 -80.5 64 q-25 38 -25 94 q0 59 32 106.5 q32 47.5 93.5 74.5 q61.5 27 144.5 27 q92 0 158 -30.5 q66 -30.5 116 -96.5 l-95 -93 q-26 54 -69 80.5 q-43 26.5 -109 26.5 q-60 0 -92.5 -22.5 q-32.5 -22.5 -32.5 -59.5 q0 -34 33 -54 q33 -20 119 -35 Z" /><glyph glyph-name="uni0162" unicode="&#x162;" d="M387 549 l0 -548 q57 -37 57 -100 q0 -54 -37 -85 q-37 -31 -97 -31 q-77 0 -121 39 l40 72 q27 -30 68 -30 q24 0 40 14.5 q16 14.5 16 39.5 q0 27 -17.5 44 q-17.5 17 -59.5 36 l-27 0 l0 549 l-222 0 l0 111 l581 0 l0 -111 l-221 0 Z" /><glyph glyph-name="a" unicode="a" d="M529 83 q21 0 34 4 l-10 -83 q-28 -14 -65 -14 q-96 0 -115 75 q-22 -37 -68 -56 q-46 -19 -109 -19 q-73 0 -114 33 q-41 33 -41 95 q0 122 195 158 l120 23 l0 24 q0 40 -22.5 63.5 q-22.5 23.5 -62.5 23.5 q-46 0 -75 -20 q-29 -20 -40 -65 l-109 46 q16 65 72 102 q56 37 146 37 q107 0 167 -46.5 q60 -46.5 60 -137.5 l0 -205 q0 -20 9 -29 q9 -9 28 -9 ZM239 83 q44 0 80.5 21.5 q36.5 21.5 36.5 58.5 l0 52 l-107 -24 q-34 -8 -50.5 -21.5 q-16.5 -13.5 -16.5 -37.5 q0 -24 15 -36.5 q15 -12.5 42 -12.5 Z" /><glyph glyph-name="aogonek" unicode="&#x105;" d="M491 -134 q33 0 50 11 l20 -71 q-34 -21 -93 -21 q-59 0 -94.5 28 q-35.5 28 -35.5 79 q0 82 98 120 q-45 16 -57 64 q-20 -41 -67.5 -63.5 q-47.5 -22.5 -115.5 -22.5 q-73 0 -114 33 q-41 33 -41 95 q0 122 195 158 l120 23 l0 24 q0 40 -22.5 63.5 q-22.5 23.5 -62.5 23.5 q-46 0 -75 -20 q-29 -20 -40 -65 l-109 46 q16 65 72 102 q56 37 146 37 q107 0 167 -46.5 q60 -46.5 60 -137.5 l0 -205 q0 -20 9 -29 q9 -9 28 -9 q21 0 34 4 l-10 -83 q-62 -15 -89 -37 q-27 -22 -27 -53 q0 -23 14 -35.5 q14 -12.5 40 -12.5 ZM239 83 q44 0 80.5 21.5 q36.5 21.5 36.5 58.5 l0 52 l-107 -24 q-34 -8 -50.5 -21.5 q-16.5 -13.5 -16.5 -37.5 q0 -24 15 -36.5 q15 -12.5 42 -12.5 Z" /><glyph glyph-name="ae" unicode="æ" d="M836 272 q0 -34 -4 -64 l-335 0 q8 -58 39 -87 q31 -29 78 -29 q43 0 66.5 15.5 q23.5 15.5 34.5 46.5 l111 -41 q-49 -123 -215 -123 q-129 0 -185 96 q-50 -96 -222 -96 q-78 0 -120.5 34.5 q-42.5 34.5 -42.5 93.5 q0 61 45.5 98.5 q45.5 37.5 140.5 55.5 l134 26 l0 25 q0 41 -24.5 64 q-24.5 23 -69.5 23 q-83 0 -109 -82 l-109 38 q16 68 73.5 106 q57.5 38 150.5 38 q58 0 100.5 -20.5 q42.5 -20.5 67.5 -60.5 q29 39 71 60 q42 21 94 21 q111 0 170.5 -66 q59.5 -66 59.5 -172 ZM610 409 q-48 0 -77 -29.5 q-29 -29.5 -36 -87.5 l215 0 q-5 58 -29 87.5 q-24 29.5 -73 29.5 ZM245 83 q47 0 81.5 27 q34.5 27 34.5 74 l0 36 l-92 -21 q-47 -12 -67 -26 q-20 -14 -20 -41 q0 -25 15 -37 q15 -12 48 -12 Z" /><glyph glyph-name="b" unicode="b" d="M366 510 q100 0 157 -69 q57 -69 57 -192 q0 -122 -57 -190.5 q-57 -68.5 -157 -68.5 q-59 0 -102.5 29.5 q-43.5 29.5 -65.5 79.5 l-5 -99 l-121 0 l0 719 l137 0 l0 -301 q23 43 63 67.5 q40 24.5 94 24.5 ZM325 95 q56 0 87 40 q31 40 31 115 q0 75 -31 115 q-31 40 -87 40 q-50 0 -81 -35 q-31 -35 -35 -98 l0 -44 q4 -64 35 -98.5 q31 -34.5 81 -34.5 Z" /><glyph glyph-name="c" unicode="c" d="M301 510 q99 0 154 -40 q55 -40 75 -107 l-128 -46 q-18 91 -97 91 q-59 0 -90.5 -40.5 q-31.5 -40.5 -31.5 -118.5 q0 -78 32 -117.5 q32 -39.5 89 -39.5 q88 0 104 89 l124 -40 q-16 -69 -74.5 -110 q-58.5 -41 -151.5 -41 q-124 0 -192 68.5 q-68 68.5 -68 191.5 q0 123 67.5 191.5 q67.5 68.5 187.5 68.5 Z" /><glyph glyph-name="ccedilla" unicode="ç" d="M532 141 q-13 -56 -54.5 -94.5 q-41.5 -38.5 -106.5 -50.5 q27 -19 41 -44.5 q14 -25.5 14 -52.5 q0 -53 -36.5 -83.5 q-36.5 -30.5 -96.5 -30.5 q-78 0 -119 38 l36 71 q13 -14 31.5 -22 q18.5 -8 39.5 -8 q24 0 39.5 14.5 q15.5 14.5 15.5 38.5 q0 25 -16 42 q-16 17 -57 33 q-104 12 -160.5 79 q-56.5 67 -56.5 179 q0 123 67.5 191.5 q67.5 68.5 187.5 68.5 q99 0 154 -40 q55 -40 75 -107 l-128 -46 q-18 91 -97 91 q-59 0 -90.5 -40.5 q-31.5 -40.5 -31.5 -118.5 q0 -78 32 -117.5 q32 -39.5 89 -39.5 q88 0 104 89 l124 -40 Z" /><glyph glyph-name="d" unicode="d" d="M556 719 l0 -719 l-122 0 l-6 93 q-22 -47 -65.5 -75 q-43.5 -28 -99.5 -28 q-100 0 -157 68.5 q-57 68.5 -57 190.5 q0 123 57 192 q57 69 157 69 q54 0 94 -24.5 q40 -24.5 62 -67.5 l0 301 l137 0 ZM303 95 q54 0 85 39 q31 39 31 111 l0 10 q0 71 -31 110.5 q-31 39.5 -85 39.5 q-55 0 -86 -40 q-31 -40 -31 -115 q0 -75 31 -115 q31 -40 86 -40 Z" /><glyph glyph-name="eth" unicode="ð" d="M462 607 q94 -126 94 -309 q0 -152 -64 -230 q-64 -78 -197 -78 q-115 0 -180.5 66.5 q-65.5 66.5 -65.5 184.5 q0 77 30.5 133.5 q30.5 56.5 85 86.5 q54.5 30 124.5 30 q107 0 152 -70 q-21 97 -77 163 l-172 -39 l-10 53 l145 25 q-54 51 -141 102 l140 0 q55 -31 103 -79 l116 29 l14 -54 l-97 -14 ZM304 92 q58 0 90 41 q32 41 32 108 q0 76 -30.5 115 q-30.5 39 -88.5 39 q-58 0 -88.5 -39 q-30.5 -39 -30.5 -115 q0 -73 30 -111 q30 -38 86 -38 Z" /><glyph glyph-name="dcaron" unicode="&#x10f;" d="M734 719 l-48 -224 l-82 0 l20 224 l110 0 ZM419 719 l137 0 l0 -719 l-122 0 l-6 93 q-22 -47 -65.5 -75 q-43.5 -28 -99.5 -28 q-100 0 -157 68.5 q-57 68.5 -57 190.5 q0 123 57 192 q57 69 157 69 q54 0 94 -24.5 q40 -24.5 62 -67.5 l0 301 ZM303 95 q54 0 85 39 q31 39 31 111 l0 10 q0 71 -31 110.5 q-31 39.5 -85 39.5 q-55 0 -86 -40 q-31 -40 -31 -115 q0 -75 31 -115 q31 -40 86 -40 Z" /><glyph glyph-name="dcroat" unicode="&#x111;" d="M633 548 l-77 0 l0 -548 l-122 0 l-6 93 q-22 -47 -65.5 -75 q-43.5 -28 -99.5 -28 q-100 0 -157 68.5 q-57 68.5 -57 190.5 q0 123 57 192 q57 69 157 69 q54 0 94 -24.5 q40 -24.5 62 -67.5 l0 130 l-140 0 l0 84 l140 0 l0 87 l137 0 l0 -87 l77 0 l0 -84 ZM303 95 q54 0 85 39 q31 39 31 111 l0 10 q0 71 -31 110.5 q-31 39.5 -85 39.5 q-55 0 -86 -40 q-31 -40 -31 -115 q0 -75 31 -115 q31 -40 86 -40 Z" /><glyph glyph-name="e" unicode="e" d="M539 252 q0 -28 -4 -54 l-354 0 q21 -106 125 -106 q43 0 71 16 q28 16 39 46 l112 -41 q-24 -60 -80.5 -91.5 q-56.5 -31.5 -141.5 -31.5 q-124 0 -192 68.5 q-68 68.5 -68 191.5 q0 123 66 191.5 q66 68.5 186 68.5 q116 0 178.5 -67 q62.5 -67 62.5 -191 ZM297 409 q-50 0 -79.5 -29 q-29.5 -29 -37.5 -86 l233 0 q-8 56 -38 85.5 q-30 29.5 -78 29.5 Z" /><glyph glyph-name="eogonek" unicode="&#x119;" d="M539 252 q0 -28 -4 -54 l-354 0 q21 -106 125 -106 q43 0 71 16 q28 16 39 46 l112 -41 q-35 -86 -133 -112 q-39 -22 -57.5 -42.5 q-18.5 -20.5 -18.5 -42.5 q0 -23 15.5 -36.5 q15.5 -13.5 41.5 -13.5 q33 0 50 11 l20 -71 q-34 -21 -95 -21 q-59 0 -95.5 28.5 q-36.5 28.5 -36.5 79.5 q0 58 55 98 q-109 9 -168.5 76.5 q-59.5 67.5 -59.5 182.5 q0 123 66 191.5 q66 68.5 186 68.5 q116 0 178.5 -67 q62.5 -67 62.5 -191 ZM297 409 q-50 0 -79.5 -29 q-29.5 -29 -37.5 -86 l233 0 q-8 56 -38 85.5 q-30 29.5 -78 29.5 Z" /><glyph glyph-name="f" unicode="f" d="M239 500 l158 0 l0 -102 l-152 0 l0 -398 l-137 0 l0 398 l-87 0 l0 102 l87 0 l0 60 q0 82 51 125.5 q51 43.5 138 43.5 q33 0 60.5 -7 q27.5 -7 43.5 -19 l-19 -91 q-23 15 -57 15 q-86 0 -86 -77 l0 -50 Z" /><glyph glyph-name="g" unicode="g" d="M376 94 q82 0 126.5 -36 q44.5 -36 44.5 -103 q0 -80 -74 -125 q-74 -45 -195 -45 q-125 0 -185.5 33 q-60.5 33 -60.5 90 q0 34 23 59 q23 25 68 36 q-34 14 -54 39.5 q-20 25.5 -20 60.5 q0 36 21 62 q21 26 58 39 q-38 22 -58 56.5 q-20 34.5 -20 79.5 q0 79 61.5 124.5 q61.5 45.5 167.5 45.5 q54 0 101 -13 q13 59 50.5 92.5 q37.5 33.5 101.5 29.5 l18 -98 q-7 1 -21 1 q-37 0 -61.5 -13 q-24.5 -13 -34.5 -35 q37 -22 56.5 -56 q19.5 -34 19.5 -78 q0 -78 -61.5 -123.5 q-61.5 -45.5 -168.5 -45.5 q-49 0 -90 9 q-39 -10 -39 -45 q0 -20 15 -30.5 q15 -10.5 42 -10.5 l169 0 ZM279 424 q-40 0 -65.5 -23 q-25.5 -23 -25.5 -60 q0 -38 25.5 -61 q25.5 -23 65.5 -23 q41 0 66.5 23 q25.5 23 25.5 61 q0 37 -25.5 60 q-25.5 23 -66.5 23 ZM289 -121 q70 0 108 17.5 q38 17.5 38 44.5 q0 21 -17.5 31.5 q-17.5 10.5 -57.5 10.5 l-136 0 q-83 0 -83 -45 q0 -28 37 -43.5 q37 -15.5 111 -15.5 Z" /><glyph glyph-name="gbreve" unicode="&#x11f;" d="M282 563 q-74 0 -118 42.5 q-44 42.5 -44 114.5 l94 0 q0 -32 19 -53.5 q19 -21.5 49 -21.5 q30 0 48.5 21.5 q18.5 21.5 18.5 53.5 l94 0 q0 -72 -43.5 -114.5 q-43.5 -42.5 -117.5 -42.5 ZM557 521 q-45 2 -72.5 -14 q-27.5 -16 -32.5 -51 q51 -45 51 -116 q0 -78 -62 -123.5 q-62 -45.5 -168 -45.5 q-50 0 -90 9 q-39 -10 -39 -45 q0 -20 15 -30.5 q15 -10.5 42 -10.5 l169 0 q81 0 125.5 -36 q44.5 -36 44.5 -103 q0 -80 -74 -125 q-74 -45 -194 -45 q-125 0 -186 33 q-61 33 -61 90 q0 34 23.5 59 q23.5 25 68.5 36 q-34 14 -54 39.5 q-20 25.5 -20 60.5 q0 36 21 62 q21 26 58 39 q-38 22 -58 56.5 q-20 34.5 -20 79.5 q0 79 61.5 124.5 q61.5 45.5 167.5 45.5 q70 0 125 -22 q4 57 44 94 q40 37 96 37 l19 -98 ZM273 257 q40 0 66 23 q26 23 26 61 q0 37 -26 60 q-26 23 -66 23 q-40 0 -65.5 -23 q-25.5 -23 -25.5 -60 q0 -38 25.5 -61 q25.5 -23 65.5 -23 ZM217 -17 q-83 0 -83 -45 q0 -28 37 -43.5 q37 -15.5 112 -15.5 q70 0 107.5 17.5 q37.5 17.5 37.5 44.5 q0 21 -17 31.5 q-17 10.5 -58 10.5 l-136 0 Z" /><glyph glyph-name="h" unicode="h" d="M370 510 q81 0 130.5 -47 q49.5 -47 49.5 -135 l0 -328 l-137 0 l0 288 q0 114 -89 114 q-48 0 -81.5 -34 q-33.5 -34 -33.5 -104 l0 -264 l-137 0 l0 719 l137 0 l0 -304 q23 48 64.5 71.5 q41.5 23.5 96.5 23.5 Z" /><glyph glyph-name="i" unicode="i" d="M141 572 q-85 0 -85 73 q0 74 85 74 q85 0 85 -74 q0 -73 -85 -73 ZM209 0 l-137 0 l0 500 l137 0 l0 -500 Z" /><glyph glyph-name="dotlessi" unicode="&#x131;" d="M209 0 l-137 0 l0 500 l137 0 l0 -500 Z" /><glyph glyph-name="idieresis" unicode="ï" d="M51 564 q-34 0 -53 18.5 q-19 18.5 -19 52.5 q0 34 19 52.5 q19 18.5 53 18.5 q34 0 53 -18.5 q19 -18.5 19 -52.5 q0 -34 -19 -52.5 q-19 -18.5 -53 -18.5 ZM231 564 q-34 0 -53 18.5 q-19 18.5 -19 52.5 q0 34 19 52.5 q19 18.5 53 18.5 q34 0 53 -18.5 q19 -18.5 19 -52.5 q0 -34 -19 -52.5 q-19 -18.5 -53 -18.5 ZM209 0 l-137 0 l0 500 l137 0 l0 -500 Z" /><glyph glyph-name="imacron" unicode="&#x12b;" d="M268 579 l-254 0 l0 91 l254 0 l0 -91 ZM209 0 l-137 0 l0 500 l137 0 l0 -500 Z" /><glyph glyph-name="iogonek" unicode="&#x12f;" d="M141 572 q-85 0 -85 73 q0 74 85 74 q85 0 85 -74 q0 -73 -85 -73 ZM233 -192 q-37 -23 -98 -23 q-58 0 -93.5 28 q-35.5 28 -35.5 78 q0 68 78 109 l-12 0 l0 500 l137 0 l0 -500 q-55 -20 -79.5 -41 q-24.5 -21 -24.5 -48 q0 -21 14 -33 q14 -12 40 -12 q31 0 52 12 l22 -70 Z" /><glyph glyph-name="j" unicode="j" d="M141 719 q41 0 63 -19.5 q22 -19.5 22 -54.5 q0 -35 -22 -54 q-22 -19 -63 -19 q-41 0 -63 19 q-22 19 -22 54 q0 35 22 54.5 q22 19.5 63 19.5 ZM209 -37 q0 -93 -48 -135.5 q-48 -42.5 -130 -42.5 q-72 0 -120 32 l22 98 q27 -24 70 -24 q34 0 51.5 20 q17.5 20 17.5 65 l0 524 l137 0 l0 -537 Z" /><glyph glyph-name="k" unicode="k" d="M300 221 l-91 -97 l0 -124 l-137 0 l0 719 l137 0 l0 -447 l217 228 l155 0 l-188 -196 l200 -304 l-155 0 l-138 221 Z" /><glyph glyph-name="l" unicode="l" d="M207 159 q0 -36 10.5 -50 q10.5 -14 38.5 -14 q17 0 29.5 2.5 q12.5 2.5 29.5 8.5 l-12 -95 q-16 -10 -42 -15.5 q-26 -5.5 -51 -5.5 q-73 0 -106.5 35.5 q-33.5 35.5 -33.5 113.5 l0 580 l137 0 l0 -560 Z" /><glyph glyph-name="lacute" unicode="&#x13a;" d="M259 924 l-72 -145 l-102 0 l45 145 l129 0 ZM207 159 q0 -36 10.5 -50 q10.5 -14 38.5 -14 q17 0 29.5 2.5 q12.5 2.5 29.5 8.5 l-12 -95 q-16 -10 -42 -15.5 q-26 -5.5 -51 -5.5 q-73 0 -106.5 35.5 q-33.5 35.5 -33.5 113.5 l0 580 l137 0 l0 -560 Z" /><glyph glyph-name="lcaron" unicode="&#x13e;" d="M334 495 l-82 0 l21 224 l110 0 l-49 -224 ZM207 159 q0 -36 10.5 -50 q10.5 -14 38.5 -14 q17 0 29.5 2.5 q12.5 2.5 29.5 8.5 l-12 -95 q-16 -10 -42 -15.5 q-26 -5.5 -51 -5.5 q-73 0 -106.5 35.5 q-33.5 35.5 -33.5 113.5 l0 580 l137 0 l0 -560 Z" /><glyph glyph-name="lslash" unicode="&#x142;" d="M250 338 l0 -179 q0 -36 10.5 -50 q10.5 -14 38.5 -14 q17 0 29.5 2.5 q12.5 2.5 29.5 8.5 l-12 -95 q-16 -10 -41.5 -15.5 q-25.5 -5.5 -51.5 -5.5 q-73 0 -106.5 35.5 q-33.5 35.5 -33.5 113.5 l0 116 l-90 -58 l0 109 l90 48 l0 365 l137 0 l0 -284 l110 72 l0 -110 l-110 -59 Z" /><glyph glyph-name="m" unicode="m" d="M698 510 q77 0 127.5 -47 q50.5 -47 50.5 -135 l0 -328 l-137 0 l0 301 q0 52 -23 76.5 q-23 24.5 -63 24.5 q-48 0 -79 -35 q-31 -35 -31 -98 l0 -269 l-137 0 l0 301 q0 52 -23 76.5 q-23 24.5 -64 24.5 q-45 0 -77.5 -34.5 q-32.5 -34.5 -32.5 -102.5 l0 -265 l-137 0 l0 500 l123 0 l4 -89 q25 49 68.5 74 q43.5 25 97.5 25 q56 0 99.5 -26 q43.5 -26 63.5 -75 q24 49 70 75 q46 26 100 26 Z" /><glyph glyph-name="n" unicode="n" d="M370 510 q81 0 130.5 -47 q49.5 -47 49.5 -135 l0 -328 l-137 0 l0 288 q0 114 -89 114 q-48 0 -81.5 -34 q-33.5 -34 -33.5 -104 l0 -264 l-137 0 l0 500 l123 0 l4 -89 q25 49 69 74 q44 25 102 25 Z" /><glyph glyph-name="o" unicode="o" d="M302 510 q121 0 188.5 -69 q67.5 -69 67.5 -191 q0 -122 -67.5 -191 q-67.5 -69 -188.5 -69 q-121 0 -188.5 69 q-67.5 69 -67.5 191 q0 122 67.5 191 q67.5 69 188.5 69 ZM302 408 q-58 0 -88.5 -39.5 q-30.5 -39.5 -30.5 -118.5 q0 -79 30.5 -118.5 q30.5 -39.5 88.5 -39.5 q58 0 88.5 39.5 q30.5 39.5 30.5 118.5 q0 79 -30.5 118.5 q-30.5 39.5 -88.5 39.5 Z" /><glyph glyph-name="oslash" unicode="ø" d="M302 510 q88 0 149 -38 l39 50 l67 0 l-65 -83 q66 -68 66 -189 q0 -122 -67.5 -191 q-67.5 -69 -188.5 -69 q-82 0 -140 32 l-40 -53 l-67 0 l64 85 q-36 33 -54.5 83 q-18.5 50 -18.5 113 q0 122 67.5 191 q67.5 69 188.5 69 ZM207 156 l28 40 l141 187 q-28 25 -74 25 q-58 0 -88.5 -39.5 q-30.5 -39.5 -30.5 -118.5 q0 -56 23 -94 l1 0 ZM302 92 q58 0 88.5 39.5 q30.5 39.5 30.5 118.5 q0 51 -19 83 l-1 0 l-25 -37 l-140 -185 q25 -19 66 -19 Z" /><glyph glyph-name="oe" unicode="&#x153;" d="M922 272 q0 -35 -5 -57 l-354 0 q15 -123 127 -123 q43 0 71.5 16 q28.5 16 38.5 46 l112 -41 q-24 -60 -80.5 -91.5 q-56.5 -31.5 -141.5 -31.5 q-66 0 -115.5 24.5 q-49.5 24.5 -78.5 71.5 q-30 -47 -80 -71.5 q-50 -24.5 -117 -24.5 q-118 0 -185.5 69 q-67.5 69 -67.5 191 q0 122 67.5 191 q67.5 69 185.5 69 q67 0 116.5 -24.5 q49.5 -24.5 79.5 -70.5 q29 46 76 70.5 q47 24.5 111 24.5 q76 0 130.5 -30.5 q54.5 -30.5 82 -84.5 q27.5 -54 27.5 -123 ZM682 409 q-50 0 -80.5 -30 q-30.5 -30 -37.5 -88 l228 0 q-7 57 -34.5 87.5 q-27.5 30.5 -75.5 30.5 ZM304 92 q58 0 88.5 39.5 q30.5 39.5 30.5 118.5 q0 79 -30.5 118.5 q-30.5 39.5 -88.5 39.5 q-118 0 -118 -158 q0 -158 118 -158 Z" /><glyph glyph-name="p" unicode="p" d="M366 510 q100 0 157 -68.5 q57 -68.5 57 -190.5 q0 -123 -57 -192 q-57 -69 -157 -69 q-54 0 -94 24.5 q-40 24.5 -63 67.5 l0 -292 l-137 0 l0 710 l121 0 l5 -99 q22 50 65.5 79.5 q43.5 29.5 102.5 29.5 ZM325 95 q56 0 87 40 q31 40 31 115 q0 75 -31 115 q-31 40 -87 40 q-50 0 -81 -34.5 q-31 -34.5 -35 -98.5 l0 -44 q4 -63 35 -98 q31 -35 81 -35 Z" /><glyph glyph-name="thorn" unicode="þ" d="M369 510 q95 0 153 -66.5 q58 -66.5 58 -190.5 q0 -89 -29 -148 q-29 -59 -77.5 -87 q-48.5 -28 -107.5 -28 q-53 0 -93.5 22.5 q-40.5 22.5 -63.5 61.5 l0 -284 l-137 0 l0 929 l137 0 l0 -299 q24 42 64.5 66 q40.5 24 95.5 24 ZM325 95 q57 0 87.5 39.5 q30.5 39.5 30.5 115.5 q0 76 -30.5 115.5 q-30.5 39.5 -87.5 39.5 q-53 0 -84.5 -39 q-31.5 -39 -31.5 -111 l0 -10 q0 -71 31 -110.5 q31 -39.5 85 -39.5 Z" /><glyph glyph-name="q" unicode="q" d="M557 500 l0 -710 l-137 0 l0 293 q-22 -43 -62.5 -68 q-40.5 -25 -93.5 -25 q-100 0 -157.5 69 q-57.5 69 -57.5 192 q0 122 57 190.5 q57 68.5 157 68.5 q58 0 102 -29.5 q44 -29.5 66 -78.5 l6 98 l120 0 ZM304 95 q54 0 85 39.5 q31 39.5 31 110.5 l0 10 q0 72 -31 111 q-31 39 -85 39 q-55 0 -86 -39.5 q-31 -39.5 -31 -115.5 q0 -76 31 -115.5 q31 -39.5 86 -39.5 Z" /><glyph glyph-name="r" unicode="r" d="M355 510 q35 0 54 -11 l-17 -120 q-23 15 -63 15 q-49 0 -84.5 -35.5 q-35.5 -35.5 -35.5 -99.5 l0 -259 l-137 0 l0 500 l119 0 l9 -98 q41 108 155 108 Z" /><glyph glyph-name="s" unicode="s" d="M266 -10 q-167 0 -232 96 l80 82 q20 -43 57.5 -60.5 q37.5 -17.5 92.5 -17.5 q44 0 68 12 q24 12 24 33 q0 17 -22.5 29 q-22.5 12 -77.5 23 q-115 23 -161.5 60.5 q-46.5 37.5 -46.5 101.5 q0 42 26 79 q26 37 77 59.5 q51 22.5 122 22.5 q84 0 136 -25.5 q52 -25.5 87 -80.5 l-85 -72 q-22 40 -54.5 59 q-32.5 19 -81.5 19 q-41 0 -65.5 -14 q-24.5 -14 -24.5 -34 q0 -21 24 -35 q24 -14 85 -26 q109 -22 154.5 -57.5 q45.5 -35.5 45.5 -98.5 q0 -70 -59.5 -112.5 q-59.5 -42.5 -168.5 -42.5 Z" /><glyph glyph-name="germandbls" unicode="ß" d="M411 374 q60 0 101 -25.5 q41 -25.5 61.5 -68 q20.5 -42.5 20.5 -91.5 q0 -53 -24.5 -98.5 q-24.5 -45.5 -74.5 -73 q-50 -27.5 -122 -27.5 q-36 0 -67 9 q-31 9 -50 24 l26 95 q27 -24 74 -24 q50 0 78 31 q28 31 28 82 q0 53 -34 81 q-34 28 -98 28 l-45 0 l11 104 l34 0 q51 0 80 28.5 q29 28.5 29 73.5 q0 47 -27.5 71.5 q-27.5 24.5 -79.5 24.5 q-68 0 -95.5 -38.5 q-27.5 -38.5 -27.5 -122.5 l0 -457 l-137 0 l0 474 q0 120 62 185 q62 65 203 65 q79 0 132 -26.5 q53 -26.5 79 -70 q26 -43.5 26 -94.5 q0 -39 -18.5 -75 q-18.5 -36 -55 -59 q-36.5 -23 -89.5 -23 l0 -2 Z" /><glyph glyph-name="longs" unicode="&#x17f;" d="M70 560 q0 83 45 126 q45 43 125 43 q63 0 90 -24 l-12 -91 q-19 13 -44 13 q-70 0 -70 -78 l0 -549 l-134 0 l0 560 Z" /><glyph glyph-name="t" unicode="t" d="M415 31 q-24 -19 -60.5 -30 q-36.5 -11 -76.5 -11 q-167 0 -167 151 l0 257 l-91 0 l0 102 l91 0 l0 115 l137 38 l0 -153 l162 0 l0 -102 l-162 0 l0 -235 q0 -69 69 -69 q44 0 77 28 l21 -91 Z" /><glyph glyph-name="tcaron" unicode="&#x165;" d="M382 556 l-82 0 l21 211 l110 0 l-49 -211 ZM317 94 q44 0 77 28 l21 -91 q-24 -19 -60.5 -30 q-36.5 -11 -76.5 -11 q-167 0 -167 151 l0 257 l-91 0 l0 102 l91 0 l0 115 l137 38 l0 -153 l162 0 l0 -102 l-162 0 l0 -235 q0 -69 69 -69 Z" /><glyph glyph-name="u" unicode="u" d="M547 500 l0 -500 l-122 0 l-5 86 q-48 -96 -175 -96 q-81 0 -128.5 43.5 q-47.5 43.5 -47.5 135.5 l0 331 l137 0 l0 -296 q0 -58 22 -82 q22 -24 65 -24 q52 0 84.5 33.5 q32.5 33.5 32.5 100.5 l0 268 l137 0 Z" /><glyph glyph-name="uni0123" unicode="&#x123;" d="M336 572 l-123 0 l71 202 l90 0 l-38 -202 ZM376 94 q82 0 126.5 -36 q44.5 -36 44.5 -103 q0 -80 -74 -125 q-74 -45 -195 -45 q-125 0 -185.5 33 q-60.5 33 -60.5 90 q0 34 23 59 q23 25 68 36 q-34 14 -54 39.5 q-20 25.5 -20 60.5 q0 36 21 62 q21 26 58 39 q-38 22 -58 56.5 q-20 34.5 -20 79.5 q0 79 61.5 124.5 q61.5 45.5 167.5 45.5 q54 0 101 -13 q13 59 50.5 92.5 q37.5 33.5 101.5 29.5 l18 -98 q-7 1 -21 1 q-37 0 -61.5 -13 q-24.5 -13 -34.5 -35 q37 -22 56.5 -56 q19.5 -34 19.5 -78 q0 -78 -61.5 -123.5 q-61.5 -45.5 -168.5 -45.5 q-49 0 -90 9 q-39 -10 -39 -45 q0 -20 15 -30.5 q15 -10.5 42 -10.5 l169 0 ZM279 424 q-40 0 -65.5 -23 q-25.5 -23 -25.5 -60 q0 -38 25.5 -61 q25.5 -23 65.5 -23 q41 0 66.5 23 q25.5 23 25.5 61 q0 37 -25.5 60 q-25.5 23 -66.5 23 ZM289 -121 q70 0 108 17.5 q38 17.5 38 44.5 q0 21 -17.5 31.5 q-17.5 10.5 -57.5 10.5 l-136 0 q-83 0 -83 -45 q0 -28 37 -43.5 q37 -15.5 111 -15.5 Z" /><glyph glyph-name="scedilla" unicode="&#x15f;" d="M294 301 q109 -22 154.5 -57.5 q45.5 -35.5 45.5 -98.5 q0 -57 -40 -96.5 q-40 -39.5 -115 -52.5 q27 -19 41.5 -44.5 q14.5 -25.5 14.5 -52.5 q0 -53 -36.5 -83.5 q-36.5 -30.5 -96.5 -30.5 q-78 0 -119 38 l36 71 q13 -14 31.5 -22 q18.5 -8 39.5 -8 q24 0 39.5 14.5 q15.5 14.5 15.5 38.5 q0 24 -15 41 q-15 17 -54 33 q-144 8 -202 95 l80 82 q20 -43 57.5 -60.5 q37.5 -17.5 92.5 -17.5 q44 0 68 12 q24 12 24 33 q0 17 -22.5 29 q-22.5 12 -77.5 23 q-115 23 -161.5 60.5 q-46.5 37.5 -46.5 101.5 q0 42 26 79 q26 37 77 59.5 q51 22.5 122 22.5 q84 0 136 -25.5 q52 -25.5 87 -80.5 l-85 -72 q-22 40 -54.5 59 q-32.5 19 -81.5 19 q-41 0 -65.5 -14 q-24.5 -14 -24.5 -34 q0 -21 24 -35 q24 -14 85 -26 Z" /><glyph glyph-name="uni0163" unicode="&#x163;" d="M326 -6 q25 -19 38.5 -44 q13.5 -25 13.5 -51 q0 -53 -36.5 -83.5 q-36.5 -30.5 -96.5 -30.5 q-78 0 -119 38 l36 71 q12 -13 30 -21.5 q18 -8.5 39 -8.5 q26 0 41.5 14 q15.5 14 15.5 39 q0 27 -16.5 44.5 q-16.5 17.5 -61.5 36.5 q-99 28 -99 143 l0 257 l-91 0 l0 102 l91 0 l0 115 l137 38 l0 -153 l162 0 l0 -102 l-162 0 l0 -235 q0 -69 69 -69 q44 0 77 28 l21 -91 q-34 -28 -89 -37 Z" /><glyph glyph-name="uogonek" unicode="&#x173;" d="M555 -193 q-35 -22 -95 -22 q-58 0 -91 27 q-33 27 -33 76 q0 39 23 67.5 q23 28.5 69 48.5 l-9 92 q-26 -51 -72 -78.5 q-46 -27.5 -102 -27.5 q-81 0 -128.5 43.5 q-47.5 43.5 -47.5 135.5 l0 331 l137 0 l0 -296 q0 -58 21.5 -82 q21.5 -24 62.5 -24 q51 0 85.5 37.5 q34.5 37.5 34.5 101.5 l0 263 l137 0 l0 -500 q-59 -20 -86.5 -41.5 q-27.5 -21.5 -27.5 -47.5 q0 -22 14 -33.5 q14 -11.5 38 -11.5 q31 0 50 11 l20 -70 Z" /><glyph glyph-name="v" unicode="v" d="M542 500 l-190 -500 l-158 0 l-190 500 l147 0 l123 -404 l126 404 l142 0 Z" /><glyph glyph-name="w" unicode="w" d="M869 500 l-159 -500 l-159 0 l-109 353 l-105 -353 l-158 0 l-159 500 l145 0 l100 -390 l112 390 l135 0 l112 -390 l100 390 l145 0 Z" /><glyph glyph-name="x" unicode="x" d="M395 0 l-113 182 l-115 -182 l-153 0 l184 253 l-175 247 l158 0 l107 -175 l107 175 l154 0 l-177 -247 l180 -253 l-157 0 Z" /><glyph glyph-name="y" unicode="y" d="M349 -31 q-37 -102 -85.5 -143 q-48.5 -41 -129.5 -41 q-81 0 -127 39 l34 97 q16 -18 35.5 -24.5 q19.5 -6.5 48.5 -6.5 q31 0 50 13 q19 13 32 47 l18 43 l-55 130 l-153 377 l152 0 l94 -300 l27 -100 l30 106 l92 294 l139 0 l-202 -531 Z" /><glyph glyph-name="z" unicode="z" d="M44 88 l221 256 l57 57 l-83 -2 l-193 0 l0 101 l428 0 l0 -88 l-221 -255 l-57 -58 l92 2 l195 0 l0 -101 l-439 0 l0 88 Z" /><glyph glyph-name="ordfeminine" unicode="ª" d="M373 380 q15 0 22 3 l-8 -58 q-20 -11 -49 -11 q-31 0 -52 13.5 q-21 13.5 -28 39.5 q-17 -25 -49.5 -39 q-32.5 -14 -76.5 -14 q-53 0 -81.5 21.5 q-28.5 21.5 -28.5 61.5 q0 43 31.5 69.5 q31.5 26.5 101.5 39.5 l85 16 l0 13 q0 26 -15 40 q-15 14 -43 14 q-28 0 -46.5 -12 q-18.5 -12 -26.5 -42 l-82 26 q9 48 50 75 q41 27 110 27 q158 0 158 -129 l0 -124 q0 -30 28 -30 ZM169 381 q28 0 49.5 15 q21.5 15 21.5 40 l0 37 l-53 -12 q-33 -7 -48 -18 q-15 -11 -15 -30 q0 -32 45 -32 ZM31 245 l349 0 l0 -76 l-349 0 l0 76 Z" /><glyph glyph-name="ordmasculine" unicode="º" d="M200 314 q-82 0 -127.5 46 q-45.5 46 -45.5 128 q0 83 45.5 129 q45.5 46 127.5 46 q82 0 127 -46 q45 -46 45 -129 q0 -82 -45 -128 q-45 -46 -127 -46 ZM200 386 q34 0 50.5 25.5 q16.5 25.5 16.5 76.5 q0 104 -67 104 q-67 0 -67 -104 q0 -51 16.5 -76.5 q16.5 -25.5 50.5 -25.5 ZM36 245 l328 0 l0 -76 l-328 0 l0 76 Z" /><glyph glyph-name="pi" unicode="&#x3c0;" d="M595 401 l0 -235 q0 -40 24 -56.5 q24 -16.5 77 -13.5 l-16 -98 q-13 -1 -37 -1 q-103 0 -144 33.5 q-41 33.5 -41 109.5 l0 261 l-169 0 l0 -401 l-137 0 l0 401 l-127 0 l0 99 l709 0 l0 -99 l-139 0 Z" /><glyph glyph-name="zero" unicode="0" d="M318 -10 q-131 0 -197.5 86 q-66.5 86 -66.5 254 q0 168 66.5 254 q66.5 86 197.5 86 q131 0 197.5 -86 q66.5 -86 66.5 -254 q0 -168 -66.5 -254 q-66.5 -86 -197.5 -86 ZM318 101 q64 0 95 56 q31 56 31 173 q0 117 -31 173 q-31 56 -95 56 q-64 0 -95 -56 q-31 -56 -31 -173 q0 -117 31 -173 q31 -56 95 -56 Z" /><glyph glyph-name="one" unicode="1" d="M343 660 l0 -660 l-134 0 l0 492 q0 16 1 25 q-36 -33 -77.5 -56 q-41.5 -23 -83.5 -31 l-18 116 q46 5 110.5 41.5 q64.5 36.5 89.5 72.5 l112 0 Z" /><glyph glyph-name="two" unicode="2" d="M65 94 q121 81 192 142 q71 61 103 113 q32 52 32 103 q0 47 -28.5 76 q-28.5 29 -78.5 29 q-55 0 -87 -38 q-32 -38 -35 -108 l-119 45 q7 100 74 157 q67 57 175 57 q77 0 130.5 -29 q53.5 -29 80.5 -76.5 q27 -47.5 27 -104.5 q0 -93 -70 -175.5 q-70 -82.5 -223 -176.5 l0 -1 q58 4 121 4 l182 0 l0 -111 l-476 0 l0 94 Z" /><glyph glyph-name="three" unicode="3" d="M296 670 q106 0 165.5 -50 q59.5 -50 59.5 -130 q0 -49 -20 -84.5 q-20 -35.5 -49 -53.5 q-29 -18 -55 -18 l0 -3 q33 0 64.5 -17 q31.5 -17 52 -51.5 q20.5 -34.5 20.5 -83.5 q0 -55 -31.5 -98 q-31.5 -43 -87.5 -67 q-56 -24 -128 -24 q-97 0 -158.5 39.5 q-61.5 39.5 -89.5 122.5 l125 56 q11 -55 40.5 -81 q29.5 -26 83.5 -26 q51 0 81 25.5 q30 25.5 30 68.5 q0 46 -28.5 66.5 q-28.5 20.5 -89.5 20.5 l-33 0 l0 96 l28 0 q108 0 108 91 q0 44 -24.5 67 q-24.5 23 -69.5 23 q-46 0 -74 -24 q-28 -24 -35 -70 l-123 45 q19 79 82.5 119.5 q63.5 40.5 155.5 40.5 Z" /><glyph glyph-name="four" unicode="4" d="M598 155 l-107 0 l0 -155 l-125 0 l0 155 l-329 0 l0 73 l289 432 l165 0 l0 -405 l107 0 l0 -100 ZM170 255 l196 0 l0 202 l3 108 l-2 0 q-22 -51 -60 -109 l-137 -201 Z" /><glyph glyph-name="five" unicode="5" d="M328 425 q96 0 151.5 -56.5 q55.5 -56.5 55.5 -148.5 q0 -111 -67.5 -170.5 q-67.5 -59.5 -177.5 -59.5 q-89 0 -149.5 33.5 q-60.5 33.5 -98.5 105.5 l124 69 q13 -49 40.5 -73.5 q27.5 -24.5 82.5 -24.5 q55 0 86.5 29 q31.5 29 31.5 82 q-1 54 -30 82.5 q-29 28.5 -85 28.5 q-83 0 -121 -48 l-108 12 l41 374 l397 0 l0 -111 l-293 0 l-19 -155 l-3 -19 l1 0 q22 24 58.5 37 q36.5 13 82.5 13 Z" /><glyph glyph-name="six" unicode="6" d="M336 670 q83 0 138.5 -34.5 q55.5 -34.5 83.5 -109.5 l-116 -54 q-26 84 -115 84 q-42 0 -75 -28.5 q-33 -28.5 -51.5 -79.5 q-18.5 -51 -18.5 -117 l0 -17 l3 0 q16 49 62 74 q46 25 106 25 q63 0 112 -25.5 q49 -25.5 76.5 -72.5 q27.5 -47 27.5 -110 q0 -99 -65 -157 q-65 -58 -179 -58 q-128 0 -197.5 89.5 q-69.5 89.5 -69.5 250.5 q0 111 36 187.5 q36 76.5 98.5 114.5 q62.5 38 143.5 38 ZM327 312 q-51 0 -82 -29 q-31 -29 -31 -76 q0 -49 31 -78 q31 -29 82 -29 q53 0 82.5 28 q29.5 28 29.5 79 q0 49 -29.5 77 q-29.5 28 -82.5 28 Z" /><glyph glyph-name="seven" unicode="7" d="M564 660 l0 -105 q-120 -120 -172 -255 q-52 -135 -52 -300 l-138 0 q0 313 224 547 l-385 0 l0 113 l523 0 Z" /><glyph glyph-name="eight" unicode="8" d="M311 668 q108 0 171 -48 q63 -48 63 -132 q0 -51 -26.5 -89 q-26.5 -38 -73.5 -57 l0 -1 q59 -21 91.5 -63 q32.5 -42 32.5 -102 q0 -86 -69.5 -136 q-69.5 -50 -188.5 -50 q-118 0 -187.5 50 q-69.5 50 -69.5 136 q0 60 32.5 102.5 q32.5 42.5 92.5 62.5 l0 1 q-48 19 -74.5 57 q-26.5 38 -26.5 89 q0 84 62.5 132 q62.5 48 170.5 48 ZM311 562 q-47 0 -74 -23 q-27 -23 -27 -64 q0 -40 27.5 -63.5 q27.5 -23.5 73.5 -23.5 q47 0 74.5 23.5 q27.5 23.5 27.5 63.5 q0 41 -27 64 q-27 23 -75 23 ZM311 97 q58 0 90 25.5 q32 25.5 32 70.5 q0 46 -32.5 71.5 q-32.5 25.5 -89.5 25.5 q-56 0 -89 -26 q-33 -26 -33 -71 q0 -45 33 -70.5 q33 -25.5 89 -25.5 Z" /><glyph glyph-name="nine" unicode="9" d="M297 670 q128 0 197.5 -89.5 q69.5 -89.5 69.5 -252.5 q0 -170 -70 -254 q-70 -84 -200 -84 q-91 0 -149.5 36 q-58.5 36 -88.5 110 l127 54 q12 -45 36.5 -67.5 q24.5 -22.5 75.5 -22.5 q75 0 109.5 58 q34.5 58 34.5 167 l0 14 l-4 0 q-13 -51 -60 -76 q-47 -25 -107 -25 q-62 0 -111 26 q-49 26 -77.5 74 q-28.5 48 -28.5 112 q0 102 65.5 161 q65.5 59 180.5 59 ZM295 557 q-54 0 -83 -28 q-29 -28 -29 -79 q0 -50 29 -78 q29 -28 83 -28 q51 0 81.5 29 q30.5 29 30.5 77 q0 49 -30.5 78 q-30.5 29 -81.5 29 Z" /><glyph glyph-name="fraction" unicode="&#x2044;" d="M315 660 l104 0 l-476 -660 l-105 0 l477 660 Z" /><glyph glyph-name="uni2070" unicode="&#x2070;" d="M203 327 q-175 0 -175 204 q0 204 175 204 q176 0 176 -204 q0 -204 -176 -204 ZM203 404 q38 0 55 30 q17 30 17 97 q0 67 -17 97 q-17 30 -55 30 q-38 0 -55 -30 q-17 -30 -17 -97 q0 -67 17 -97 q17 -30 55 -30 Z" /><glyph glyph-name="onesuperior" unicode="¹" d="M232 730 l0 -397 l-104 0 l0 229 q0 28 3 67 q-57 -46 -115 -52 l0 86 q31 5 71 25.5 q40 20.5 56 41.5 l89 0 Z" /><glyph glyph-name="twosuperior" unicode="²" d="M33 400 q66 40 90 57 q66 48 92.5 79.5 q26.5 31.5 26.5 61.5 q0 25 -15 40.5 q-15 15.5 -43 15.5 q-31 0 -48 -21.5 q-17 -21.5 -18 -61.5 l-98 29 q2 64 47 99.5 q45 35.5 120 35.5 q81 0 122.5 -38 q41.5 -38 41.5 -91 q0 -40 -28 -78 q-28 -38 -87 -78 q-27 -19 -68 -37 l0 -1 q54 3 82 3 l107 0 l0 -82 l-324 0 l0 67 Z" /><glyph glyph-name="threesuperior" unicode="³" d="M185 735 q73 0 112.5 -29.5 q39.5 -29.5 39.5 -81.5 q0 -40 -24 -64.5 q-24 -24.5 -58 -26.5 l0 -3 q39 0 64.5 -23 q25.5 -23 25.5 -64 q0 -52 -43.5 -84 q-43.5 -32 -114.5 -32 q-70 0 -112.5 24 q-42.5 24 -59.5 75 l97 38 q6 -59 69 -59 q28 0 44 13.5 q16 13.5 16 37.5 q0 43 -60 43 l-23 0 l0 59 l19 0 q27 0 41.5 12.5 q14.5 12.5 14.5 35.5 q0 48 -53 48 q-25 0 -41 -13.5 q-16 -13.5 -20 -40.5 l-94 31 q11 52 54 78 q43 26 106 26 Z" /><glyph glyph-name="uni2074" unicode="&#x2074;" d="M364 423 l-64 0 l0 -90 l-90 0 l0 90 l-200 0 l0 49 l169 258 l121 0 l0 -237 l64 0 l0 -70 ZM210 493 l0 91 q0 19 2 55 l1 24 l-3 0 q-11 -28 -31 -58 l-77 -112 l108 0 Z" /><glyph glyph-name="uni2075" unicode="&#x2075;" d="M217 588 q62 0 96 -33.5 q34 -33.5 34 -88.5 q0 -68 -45 -103 q-45 -35 -117 -35 q-62 0 -102.5 18.5 q-40.5 18.5 -64.5 63.5 l94 44 q13 -49 71 -49 q29 0 47 16 q18 16 18 43 q0 56 -63 56 q-25 0 -41 -7 q-16 -7 -26 -22 l-83 6 l22 233 l272 0 l0 -79 l-194 0 l-6 -64 q-1 -12 -5 -26 l1 0 q12 14 33 20.5 q21 6.5 59 6.5 Z" /><glyph glyph-name="uni2076" unicode="&#x2076;" d="M208 327 q-86 0 -132 51.5 q-46 51.5 -46 152.5 q0 99 51.5 151.5 q51.5 52.5 135.5 52.5 q56 0 92.5 -20 q36.5 -20 55.5 -65 l-81 -40 q-6 21 -22.5 33.5 q-16.5 12.5 -43.5 12.5 q-41 0 -64.5 -33 q-23.5 -33 -23.5 -82 l0 -11 l1 0 q18 26 43 38.5 q25 12.5 62 12.5 q60 0 97 -32.5 q37 -32.5 37 -93.5 q0 -61 -42.5 -94.5 q-42.5 -33.5 -119.5 -33.5 ZM209 405 q30 0 47 13.5 q17 13.5 17 38.5 q0 24 -17 38 q-17 14 -47 14 q-29 0 -46 -14.5 q-17 -14.5 -17 -37.5 q0 -25 17 -38.5 q17 -13.5 46 -13.5 Z" /><glyph glyph-name="uni2077" unicode="&#x2077;" d="M332 730 l0 -72 q-69 -67 -97.5 -147 q-28.5 -80 -28.5 -178 l-104 0 q0 87 31.5 168 q31.5 81 93.5 146 l-220 0 l0 83 l325 0 Z" /><glyph glyph-name="uni2078" unicode="&#x2078;" d="M202 734 q73 0 115.5 -30 q42.5 -30 42.5 -82 q0 -31 -17.5 -53.5 q-17.5 -22.5 -52.5 -33.5 l0 -1 q40 -11 61.5 -34 q21.5 -23 21.5 -58 q0 -54 -45.5 -84.5 q-45.5 -30.5 -125.5 -30.5 q-79 0 -124.5 30.5 q-45.5 30.5 -45.5 84.5 q0 34 21 58 q21 24 60 34 l0 1 q-33 10 -51 33 q-18 23 -18 54 q0 52 42.5 82 q42.5 30 115.5 30 ZM202 665 q-28 0 -43.5 -12.5 q-15.5 -12.5 -15.5 -34.5 q0 -23 15.5 -35.5 q15.5 -12.5 43.5 -12.5 q28 0 44 13 q16 13 16 35 q0 22 -15.5 34.5 q-15.5 12.5 -44.5 12.5 ZM202 397 q32 0 50 13.5 q18 13.5 18 37.5 q0 24 -18 37.5 q-18 13.5 -50 13.5 q-31 0 -49 -13.5 q-18 -13.5 -18 -37.5 q0 -24 17.5 -37.5 q17.5 -13.5 49.5 -13.5 Z" /><glyph glyph-name="uni2079" unicode="&#x2079;" d="M191 735 q86 0 132.5 -52 q46.5 -52 46.5 -152 q0 -102 -49.5 -153 q-49.5 -51 -135.5 -51 q-124 0 -153 91 l91 33 q5 -24 20 -34.5 q15 -10.5 45 -10.5 q43 0 62.5 29.5 q19.5 29.5 19.5 74.5 q0 11 -1 16 l-1 0 q-9 -19 -36.5 -33 q-27.5 -14 -59.5 -14 q-66 0 -105.5 34 q-39.5 34 -39.5 91 q0 62 43.5 96.5 q43.5 34.5 120.5 34.5 ZM195 657 q-31 0 -47.5 -14 q-16.5 -14 -16.5 -39 q0 -24 16.5 -37.5 q16.5 -13.5 46.5 -13.5 q29 0 46.5 14 q17.5 14 17.5 37 q0 24 -17 38.5 q-17 14.5 -46 14.5 Z" /><glyph glyph-name="asterisk" unicode="*" d="M397 423 l78 -105 l-81 -59 l-76 107 l-27 55 l-27 -55 l-76 -107 l-81 59 l79 105 l43 43 l-60 9 l-125 39 l30 95 l125 -42 l54 -29 l-10 61 l-3 131 l101 0 l-2 -131 l-10 -61 l54 29 l125 42 l30 -95 l-125 -39 l-60 -9 l44 -43 Z" /><glyph glyph-name="backslash" unicode="\" d="M148 719 l289 -789 l-127 0 l-290 789 l128 0 Z" /><glyph glyph-name="periodcentered" unicode="·" d="M128 435 q40 0 63.5 -21.5 q23.5 -21.5 23.5 -59.5 q0 -38 -23.5 -59.5 q-23.5 -21.5 -63.5 -21.5 q-40 0 -63.5 21.5 q-23.5 21.5 -23.5 59.5 q0 38 23.5 59.5 q23.5 21.5 63.5 21.5 Z" /><glyph glyph-name="bullet" unicode="&#x2022;" d="M215 473 q65 0 104 -38 q39 -38 39 -101 q0 -62 -39 -100 q-39 -38 -104 -38 q-65 0 -104 38 q-39 38 -39 100 q0 63 39 101 q39 38 104 38 Z" /><glyph glyph-name="comma" unicode="," d="M139 153 q46 0 71 -32.5 q25 -32.5 25 -84.5 q0 -61 -32.5 -111.5 q-32.5 -50.5 -95.5 -78.5 l-63 48 q44 17 74 44 q30 27 40 61 l-4 3 q-10 -10 -29 -10 q-29 0 -51 20 q-22 20 -22 57 q0 39 24 61.5 q24 22.5 63 22.5 Z" /><glyph glyph-name="exclam" unicode="!" d="M217 420 l-17 -207 l-110 0 l-17 207 l0 240 l144 0 l0 -240 ZM145 145 q39 0 62 -21 q23 -21 23 -56 q0 -35 -23 -56 q-23 -21 -62 -21 q-39 0 -62 21 q-23 21 -23 56 q0 35 23 56 q23 21 62 21 Z" /><glyph glyph-name="exclamdown" unicode="¡" d="M143 355 q-39 0 -62 21 q-23 21 -23 56 q0 35 23 56 q23 21 62 21 q39 0 62 -21 q23 -21 23 -56 q0 -35 -23 -56 q-23 -21 -62 -21 ZM71 80 l17 207 l110 0 l17 -207 l0 -240 l-144 0 l0 240 Z" /><glyph glyph-name="numbersign" unicode="#" d="M513 406 l-24 -149 l114 0 l0 -87 l-128 0 l-28 -170 l-98 0 l28 170 l-143 0 l-28 -170 l-98 0 l27 170 l-111 0 l0 87 l126 0 l24 149 l-107 0 l0 87 l121 0 l27 167 l99 0 l-27 -167 l142 0 l28 167 l98 0 l-27 -167 l118 0 l0 -87 l-133 0 ZM415 406 l-143 0 l-24 -149 l143 0 l24 149 Z" /><glyph glyph-name="period" unicode="." d="M141 153 q40 0 63.5 -22 q23.5 -22 23.5 -59 q0 -37 -23.5 -59 q-23.5 -22 -63.5 -22 q-40 0 -63.5 21.5 q-23.5 21.5 -23.5 59.5 q0 38 23.5 59.5 q23.5 21.5 63.5 21.5 Z" /><glyph glyph-name="question" unicode="?" d="M295 670 q110 0 176.5 -45.5 q66.5 -45.5 66.5 -131.5 q0 -87 -51.5 -132.5 q-51.5 -45.5 -137.5 -54.5 l-7 -94 l-122 0 l-6 151 q95 10 136 36.5 q41 26.5 41 73.5 q0 39 -26.5 60.5 q-26.5 21.5 -78.5 21.5 q-52 0 -84.5 -29.5 q-32.5 -29.5 -36.5 -83.5 l-130 54 q13 80 78.5 127 q65.5 47 181.5 47 ZM281 147 q40 0 63 -21 q23 -21 23 -57 q0 -36 -23 -57 q-23 -21 -63 -21 q-40 0 -62.5 21 q-22.5 21 -22.5 57 q0 36 22.5 57 q22.5 21 62.5 21 Z" /><glyph glyph-name="questiondown" unicode="¿" d="M301 353 q-40 0 -63 21 q-23 21 -23 57 q0 36 23 57 q23 21 63 21 q40 0 62.5 -21 q22.5 -21 22.5 -57 q0 -36 -22.5 -57 q-22.5 -21 -62.5 -21 ZM287 -170 q-111 0 -177.5 45.5 q-66.5 45.5 -66.5 132.5 q0 87 51.5 132.5 q51.5 45.5 138.5 54.5 l6 94 l123 0 l6 -152 q-96 -10 -137 -36 q-41 -26 -41 -74 q0 -39 26.5 -60.5 q26.5 -21.5 79.5 -21.5 q52 0 84 30 q32 30 37 84 l130 -55 q-13 -79 -79 -126.5 q-66 -47.5 -181 -47.5 Z" /><glyph glyph-name="quotesingle" unicode="&#39;" d="M164 416 l-94 0 l0 266 l122 0 l-28 -266 Z" /><glyph glyph-name="semicolon" unicode=";" d="M153 348 q-40 0 -63.5 21.5 q-23.5 21.5 -23.5 59.5 q0 38 23.5 59.5 q23.5 21.5 63.5 21.5 q40 0 63.5 -21.5 q23.5 -21.5 23.5 -59.5 q0 -38 -23.5 -59.5 q-23.5 -21.5 -63.5 -21.5 ZM149 153 q46 0 71 -32.5 q25 -32.5 25 -84.5 q0 -61 -32.5 -111.5 q-32.5 -50.5 -95.5 -78.5 l-63 48 q45 17 75 44 q30 27 40 61 l-4 3 q-12 -10 -30 -10 q-29 0 -51 20 q-22 20 -22 57 q0 38 24.5 61 q24.5 23 62.5 23 Z" /><glyph glyph-name="slash" unicode="/" d="M147 -70 l-127 0 l289 789 l128 0 l-290 -789 Z" /><glyph glyph-name="underscore" unicode="_" d="M539 -190 l-539 0 l0 113 l539 0 l0 -113 Z" /><glyph glyph-name="braceleft" unicode="{" d="M262 -27 q0 -38 24 -54.5 q24 -16.5 78 -16.5 l-8 -93 q-112 0 -160 36.5 q-48 36.5 -48 117.5 l0 161 q0 56 -25.5 80 q-25.5 24 -86.5 24 l0 95 q61 0 86.5 24 q25.5 24 25.5 80 l0 162 q0 80 48 116.5 q48 36.5 160 36.5 l8 -93 q-54 0 -78 -16.5 q-24 -16.5 -24 -54.5 l0 -176 q0 -51 -26.5 -81.5 q-26.5 -30.5 -79.5 -45.5 q53 -14 79.5 -44.5 q26.5 -30.5 26.5 -81.5 l0 -176 Z" /><glyph glyph-name="braceright" unicode="}" d="M246 427 q0 -56 25.5 -80 q25.5 -24 86.5 -24 l0 -95 q-61 0 -86.5 -24 q-25.5 -24 -25.5 -80 l0 -161 q0 -81 -47.5 -117.5 q-47.5 -36.5 -160.5 -36.5 l-8 93 q55 0 79 16.5 q24 16.5 24 54.5 l0 176 q0 51 26.5 81.5 q26.5 30.5 79.5 45.5 q-53 14 -79.5 44.5 q-26.5 30.5 -26.5 81.5 l0 176 q0 38 -24 54.5 q-24 16.5 -79 16.5 l8 93 q112 0 160 -36 q48 -36 48 -117 l0 -162 Z" /><glyph glyph-name="bracketleft" unicode="[" d="M206 618 l0 -685 l141 0 l0 -101 l-261 0 l0 887 l261 0 l0 -101 l-141 0 Z" /><glyph glyph-name="bracketright" unicode="]" d="M290 -168 l-262 0 l0 101 l141 0 l0 685 l-141 0 l0 101 l262 0 l0 -887 Z" /><glyph glyph-name="parenleft" unicode="(" d="M359 675 q-90 -82 -128.5 -174 q-38.5 -92 -38.5 -225 q0 -134 38.5 -226 q38.5 -92 128.5 -174 l-68 -67 q-112 83 -169 200.5 q-57 117.5 -57 266.5 q0 149 57 266 q57 117 169 200 l68 -67 Z" /><glyph glyph-name="parenright" unicode=")" d="M85 742 q112 -83 169 -200 q57 -117 57 -266 q0 -149 -57 -266.5 q-57 -117.5 -169 -200.5 l-68 67 q90 82 128.5 174 q38.5 92 38.5 226 q0 133 -38.5 225 q-38.5 92 -128.5 174 l68 67 Z" /><glyph glyph-name="uni207D" unicode="&#x207d;" d="M249 768 q-49 -47 -70 -101.5 q-21 -54.5 -21 -135.5 q0 -81 20.5 -135 q20.5 -54 70.5 -102 l-56 -48 q-132 103 -132 285 q0 182 132 285 l56 -48 Z" /><glyph glyph-name="uni207E" unicode="&#x207e;" d="M52 816 q132 -102 132 -285 q0 -183 -132 -285 l-56 48 q50 48 71 102 q21 54 21 135 q0 81 -21 135.5 q-21 54.5 -71 101.5 l56 48 Z" /><glyph glyph-name="emdash" unicode="&#x2014;" d="M929 209 l-850 0 l0 113 l850 0 l0 -113 Z" /><glyph glyph-name="endash" unicode="&#x2013;" d="M602 209 l-523 0 l0 113 l523 0 l0 -113 Z" /><glyph glyph-name="hyphen" unicode="-" d="M437 206 l-353 0 l0 118 l353 0 l0 -118 Z" /><glyph glyph-name="guillemotright" unicode="»" d="M166 461 l125 -196 l-125 -196 l-126 0 l124 196 l-124 196 l126 0 ZM385 461 l125 -196 l-125 -196 l-126 0 l124 196 l-124 196 l126 0 Z" /><glyph glyph-name="guilsinglleft" unicode="&#x2039;" d="M168 265 l124 -196 l-126 0 l-125 196 l125 196 l126 0 l-124 -196 Z" /><glyph glyph-name="guilsinglright" unicode="&#x203a;" d="M167 461 l125 -196 l-125 -196 l-126 0 l124 196 l-124 196 l126 0 Z" /><glyph glyph-name="quoteleft" unicode="&#x2018;" d="M141 388 q-46 0 -71 32.5 q-25 32.5 -25 84.5 q0 61 32.5 111.5 q32.5 50.5 95.5 78.5 l63 -48 q-44 -16 -74 -43.5 q-30 -27.5 -40 -61.5 l4 -3 q10 10 29 10 q29 0 51 -20 q22 -20 22 -57 q0 -38 -24 -61 q-24 -23 -63 -23 Z" /><glyph glyph-name="quoteright" unicode="&#x2019;" d="M143 694 q46 0 71 -32.5 q25 -32.5 25 -84.5 q0 -61 -32.5 -111.5 q-32.5 -50.5 -95.5 -78.5 l-63 48 q44 16 74.5 43.5 q30.5 27.5 40.5 61.5 l-4 3 q-12 -10 -30 -10 q-29 0 -51 20 q-22 20 -22 57 q0 38 24.5 61 q24.5 23 62.5 23 Z" /><glyph glyph-name="nonbreakingspace" unicode=" " d="" /><glyph glyph-name="Euro" unicode="&#x20ac;" d="M671 172 q-24 -87 -93.5 -134.5 q-69.5 -47.5 -163.5 -47.5 q-112 0 -186 57.5 q-74 57.5 -100 163.5 l-90 0 l0 73 l79 0 q-2 15 -2 46 l0 24 l-77 0 l0 73 l86 0 q22 115 97 179 q75 64 191 64 q93 0 160.5 -41 q67.5 -41 91.5 -115 l-106 -49 q-12 51 -49 77 q-37 26 -88 26 q-64 0 -107 -36.5 q-43 -36.5 -60 -104.5 l237 0 l-24 -73 l-223 0 q-1 -8 -1 -24 q0 -16 2 -46 l205 0 l-22 -73 l-169 0 q19 -58 59 -88.5 q40 -30.5 99 -30.5 q52 0 91 29.5 q39 29.5 53 85.5 l110 -35 Z" /><glyph glyph-name="cent" unicode="¢" d="M537 142 q-11 -64 -60.5 -103.5 q-49.5 -39.5 -129.5 -46.5 l0 -92 l-80 0 l0 93 q-103 12 -158.5 79 q-55.5 67 -55.5 178 q0 111 56 178.5 q56 67.5 158 79.5 l0 92 l80 0 l0 -92 q81 -7 127 -45.5 q46 -38.5 61 -99.5 l-109 -43 q-16 75 -79 94 l0 -329 q67 17 85 93 l105 -36 ZM175 249 q0 -137 92 -162 l0 326 q-92 -24 -92 -164 Z" /><glyph glyph-name="currency" unicode="¤" d="M539 329 q0 -62 -29 -111 l95 -86 l-82 -81 l-88 95 q-47 -26 -108 -26 q-61 0 -110 27 l-88 -96 l-80 81 l93 87 q-28 50 -28 110 q0 61 29 111 l-94 86 l80 81 l89 -95 q47 26 109 26 q59 0 110 -27 l86 96 l82 -81 l-94 -88 q28 -48 28 -109 ZM327 223 q44 0 72 29.5 q28 29.5 28 76.5 q0 47 -28 76.5 q-28 29.5 -72 29.5 q-44 0 -72.5 -29.5 q-28.5 -29.5 -28.5 -76.5 q0 -47 28.5 -76.5 q28.5 -29.5 72.5 -29.5 Z" /><glyph glyph-name="dollar" unicode="$" d="M279 1 q-89 7 -149.5 42.5 q-60.5 35.5 -96.5 99.5 l81 76 q18 -48 62.5 -79 q44.5 -31 102.5 -40 l0 182 q-67 13 -113.5 30.5 q-46.5 17.5 -77.5 53.5 q-31 36 -31 96 q0 79 59 132.5 q59 53.5 163 63.5 l0 94 l86 0 l0 -94 q81 -6 132.5 -37 q51.5 -31 92.5 -89 l-77 -79 q-28 50 -62.5 75 q-34.5 25 -85.5 31 l0 -186 q67 -14 113.5 -32 q46.5 -18 77.5 -55 q31 -37 31 -98 q0 -79 -61 -128.5 q-61 -49.5 -161 -57.5 l0 -94 l-86 0 l0 93 ZM279 558 q-47 -7 -71.5 -29.5 q-24.5 -22.5 -24.5 -57.5 q0 -32 24.5 -50 q24.5 -18 71.5 -30 l0 167 ZM365 100 q97 11 97 81 q0 33 -25 51.5 q-25 18.5 -72 30.5 l0 -163 Z" /><glyph glyph-name="florin" unicode="&#x192;" d="M424 629 q-66 0 -80 -81 l-23 -137 l140 0 l0 -101 l-156 0 l-46 -272 q-14 -81 -59.5 -123.5 q-45.5 -42.5 -119.5 -42.5 q-35 0 -56.5 5.5 q-21.5 5.5 -45.5 20.5 l18 94 q26 -19 62 -19 q33 0 53.5 20.5 q20.5 20.5 26.5 59.5 l43 257 l-137 0 l0 101 l154 0 l25 152 q14 82 59.5 124.5 q45.5 42.5 120.5 42.5 q34 0 55.5 -5.5 q21.5 -5.5 46.5 -20.5 l-19 -94 q-26 19 -62 19 Z" /><glyph glyph-name="sterling" unicode="£" d="M591 167 q2 -18 2 -27 q0 -67 -36.5 -108.5 q-36.5 -41.5 -101.5 -41.5 q-44 0 -79.5 15.5 q-35.5 15.5 -77.5 43.5 q-56 -59 -141 -59 q-52 0 -84.5 24.5 q-32.5 24.5 -32.5 65.5 q0 41 34.5 66.5 q34.5 25.5 88.5 25.5 q50 0 92 -15 l0 10 q0 49 -28 97 l-162 0 l0 87 l99 0 q-26 36 -36 63.5 q-10 27.5 -10 57.5 q0 55 27.5 100 q27.5 45 79.5 71.5 q52 26.5 121 26.5 q183 0 223 -168 l-113 -54 q-15 61 -41 89 q-26 28 -73 28 q-47 0 -75 -24.5 q-28 -24.5 -28 -65.5 q0 -23 10.5 -47 q10.5 -24 38.5 -65 l9 -12 l192 0 l0 -87 l-147 0 q10 -33 10 -70 q0 -40 -14 -79 q25 -14 46.5 -21.5 q21.5 -7.5 46.5 -7.5 q38 0 55.5 21.5 q17.5 21.5 16.5 67.5 l88 -8 ZM163 50 q50 0 74 38 q-40 21 -74 21 q-21 0 -32 -7.5 q-11 -7.5 -11 -20.5 q0 -15 12 -23 q12 -8 31 -8 Z" /><glyph glyph-name="uni20BA" unicode="&#x20ba;" d="M648 290 q-4 -142 -73.5 -216 q-69.5 -74 -201.5 -74 l-213 0 l0 262 l-113 -32 l0 60 l113 32 l0 84 l-113 -32 l0 61 l113 32 l0 193 l136 0 l0 -155 l188 53 l0 -60 l-188 -54 l0 -83 l188 53 l0 -61 l-188 -53 l0 -193 l62 0 q78 0 117.5 44.5 q39.5 44.5 39.5 138.5 l133 0 Z" /><glyph glyph-name="uni20BD" unicode="&#x20bd;" d="M264 267 l0 -66 l180 0 l0 -93 l-180 0 l0 -108 l-135 0 l0 108 l-88 0 l0 93 l88 0 l0 66 l-88 0 l0 99 l88 0 l0 294 l262 0 q117 0 180 -51 q63 -51 63 -146 q0 -94 -63 -145 q-63 -51 -180 -51 l-127 0 ZM264 366 l106 0 q64 0 94 22.5 q30 22.5 30 70.5 q0 48 -30 70.5 q-30 22.5 -94 22.5 l-106 0 l0 -186 Z" /><glyph glyph-name="yen" unicode="¥" d="M463 302 l123 0 l0 -60 l-193 0 l0 -69 l193 0 l0 -57 l-193 0 l0 -116 l-129 0 l0 116 l-192 0 l0 57 l192 0 l0 69 l-192 0 l0 60 l122 0 l54 -4 l-223 362 l145 0 l112 -220 l46 -101 l2 0 l45 102 l112 219 l145 0 l-223 -362 l54 4 Z" /><glyph glyph-name="approxequal" unicode="&#x2248;" d="M190 519 q31 0 59.5 -9 q28.5 -9 66.5 -26 q30 -15 53 -22.5 q23 -7.5 45 -7.5 q37 0 67.5 11.5 q30.5 11.5 64.5 41.5 l0 -106 q-57 -53 -129 -53 q-29 0 -55 8.5 q-26 8.5 -64 25.5 q-38 16 -60.5 23.5 q-22.5 7.5 -47.5 7.5 q-43 0 -72 -12.5 q-29 -12.5 -60 -41.5 l0 107 q34 29 62.5 41 q28.5 12 69.5 12 ZM190 297 q31 0 59.5 -9 q28.5 -9 66.5 -26 q32 -14 54 -21.5 q22 -7.5 44 -7.5 q38 0 68.5 11 q30.5 11 63.5 42 l0 -106 q-57 -53 -129 -53 q-29 0 -55 8.5 q-26 8.5 -64 25.5 q-38 16 -60.5 23.5 q-22.5 7.5 -47.5 7.5 q-43 0 -72 -12.5 q-29 -12.5 -60 -41.5 l0 107 q33 29 61.5 40.5 q28.5 11.5 70.5 11.5 Z" /><glyph glyph-name="asciitilde" unicode="~" d="M533 410 q-5 -87 -42.5 -132.5 q-37.5 -45.5 -106.5 -45.5 q-35 0 -59.5 10.5 q-24.5 10.5 -53.5 30.5 q-21 14 -34.5 20.5 q-13.5 6.5 -28.5 6.5 q-44 0 -53 -65 l-112 0 q11 178 150 178 q34 0 58.5 -10.5 q24.5 -10.5 53.5 -30.5 q20 -14 34.5 -20.5 q14.5 -6.5 29.5 -6.5 q43 0 52 65 l112 0 Z" /><glyph glyph-name="divide" unicode="÷" d="M303 607 q37 0 58.5 -20.5 q21.5 -20.5 21.5 -56.5 q0 -35 -21.5 -55.5 q-21.5 -20.5 -58.5 -20.5 q-37 0 -58.5 20.5 q-21.5 20.5 -21.5 55.5 q0 36 21.5 56.5 q21.5 20.5 58.5 20.5 ZM551 270 l-498 0 l0 104 l498 0 l0 -104 ZM303 191 q37 0 58.5 -20.5 q21.5 -20.5 21.5 -55.5 q0 -36 -21.5 -56.5 q-21.5 -20.5 -58.5 -20.5 q-37 0 -58.5 20.5 q-21.5 20.5 -21.5 56.5 q0 35 21.5 55.5 q21.5 20.5 58.5 20.5 Z" /><glyph glyph-name="equal" unicode="=" d="M540 366 l-476 0 l0 102 l476 0 l0 -102 ZM540 156 l-476 0 l0 101 l476 0 l0 -101 Z" /><glyph glyph-name="uni207C" unicode="&#x207c;" d="M54 642 l289 0 l0 -76 l-289 0 l0 76 ZM54 498 l289 0 l0 -76 l-289 0 l0 76 Z" /><glyph glyph-name="greater" unicode="&gt;" d="M538 361 l0 -127 l-485 -220 l0 132 l389 152 l-389 151 l0 133 l485 -221 Z" /><glyph glyph-name="greaterequal" unicode="&#x2265;" d="M540 476 l0 -157 l-486 -170 l0 121 l412 128 l-412 127 l0 122 l486 -171 ZM54 105 l486 0 l0 -105 l-486 0 l0 105 Z" /><glyph glyph-name="infinity" unicode="&#x221e;" d="M689 516 q78 0 129.5 -54 q51.5 -54 51.5 -164 q0 -110 -52.5 -164 q-52.5 -54 -138.5 -54 q-59 0 -110 30.5 q-51 30.5 -122 104.5 q-55 -60 -88 -88 q-33 -28 -60.5 -37.5 q-27.5 -9.5 -67.5 -9.5 q-77 0 -128.5 54.5 q-51.5 54.5 -51.5 163.5 q0 109 51.5 163.5 q51.5 54.5 129.5 54.5 q61 0 116 -28.5 q55 -28.5 127 -104.5 q55 60 91.5 88.5 q36.5 28.5 62.5 36.5 q26 8 60 8 ZM686 218 q36 0 57 28 q21 28 21 78 q0 49 -20 77 q-20 28 -54 28 q-21 0 -38 -7.5 q-17 -7.5 -44 -31.5 q-27 -24 -73 -76 q48 -52 82.5 -74 q34.5 -22 68.5 -22 ZM233 168 q21 0 37.5 7.5 q16.5 7.5 42 31.5 q25.5 24 72.5 76 q-52 55 -83 75 q-31 20 -65 20 q-35 0 -57.5 -27 q-22.5 -27 -22.5 -78 q0 -50 21.5 -77.5 q21.5 -27.5 54.5 -27.5 Z" /><glyph glyph-name="integral" unicode="&#x222b;" d="M350 758 q39 0 63 -7 q24 -7 44 -21 l-13 -94 q-28 21 -67 21 q-35 0 -56 -19 q-21 -19 -21 -59 l0 -538 q0 -81 -49.5 -125 q-49.5 -44 -128.5 -44 q-39 0 -63 7 q-24 7 -45 21 l13 94 q30 -21 67 -21 q35 0 56 19 q21 19 21 59 l0 538 q0 81 50 125 q50 44 129 44 Z" /><glyph glyph-name="less" unicode="&lt;" d="M551 449 l-389 -151 l389 -152 l0 -132 l-485 220 l0 127 l485 221 l0 -133 Z" /><glyph glyph-name="lessequal" unicode="&#x2264;" d="M550 525 l-412 -127 l412 -128 l0 -121 l-486 170 l0 157 l486 171 l0 -122 ZM64 105 l486 0 l0 -105 l-486 0 l0 105 Z" /><glyph glyph-name="logicalnot" unicode="¬" d="M545 374 l0 -264 l-116 0 l0 160 l-370 0 l0 104 l486 0 Z" /><glyph glyph-name="minus" unicode="&#x2212;" d="M545 267 l-486 0 l0 109 l486 0 l0 -109 Z" /><glyph glyph-name="uni207B" unicode="&#x207b;" d="M30 568 l289 0 l0 -76 l-289 0 l0 76 Z" /><glyph glyph-name="multiply" unicode="×" d="M379 323 l160 -160 l-77 -78 l-160 160 l-160 -160 l-78 78 l160 160 l-160 160 l78 78 l160 -160 l160 160 l77 -78 l-160 -160 Z" /><glyph glyph-name="notequal" unicode="&#x2260;" d="M379 373 l-58 -123 l224 0 l0 -98 l-270 0 l-52 -111 l-97 0 l52 111 l-119 0 l0 98 l165 0 l58 123 l-223 0 l0 98 l269 0 l54 115 l97 0 l-54 -115 l120 0 l0 -98 l-166 0 Z" /><glyph glyph-name="partialdiff" unicode="&#x2202;" d="M301 670 q140 0 210.5 -86 q70.5 -86 70.5 -247 q0 -347 -283 -347 q-66 0 -119.5 26.5 q-53.5 26.5 -84.5 76 q-31 49.5 -31 116.5 q0 65 30.5 114.5 q30.5 49.5 82.5 76.5 q52 27 115 27 q55 0 96.5 -22.5 q41.5 -22.5 66.5 -65.5 q-4 116 -47.5 167.5 q-43.5 51.5 -122.5 51.5 q-43 0 -75 -13 q-32 -13 -63 -44 l-61 90 q49 41 99 60 q50 19 116 19 ZM316 99 q107 0 132 129 q-14 43 -47.5 70 q-33.5 27 -86.5 27 q-52 0 -81 -30 q-29 -30 -29 -83 q0 -53 28.5 -83 q28.5 -30 83.5 -30 Z" /><glyph glyph-name="percent" unicode="%" d="M210 670 q80 0 128 -51 q48 -51 48 -135 q0 -84 -48 -135 q-48 -51 -128 -51 q-79 0 -127.5 51 q-48.5 51 -48.5 135 q0 84 48.5 135 q48.5 51 127.5 51 ZM622 660 l110 0 l-445 -660 l-110 0 l445 660 ZM210 575 q-34 0 -52 -24 q-18 -24 -18 -67 q0 -43 18 -66.5 q18 -23.5 52 -23.5 q34 0 52 23.5 q18 23.5 18 66.5 q0 43 -18 67 q-18 24 -52 24 ZM698 362 q79 0 127.5 -51 q48.5 -51 48.5 -135 q0 -84 -48.5 -135 q-48.5 -51 -127.5 -51 q-80 0 -128 51 q-48 51 -48 135 q0 84 48 135 q48 51 128 51 ZM698 266 q-34 0 -52 -23.5 q-18 -23.5 -18 -66.5 q0 -43 18 -67 q18 -24 52 -24 q34 0 52 24 q18 24 18 67 q0 43 -18 66.5 q-18 23.5 -52 23.5 Z" /><glyph glyph-name="perthousand" unicode="&#x2030;" d="M210 670 q80 0 128 -51 q48 -51 48 -135 q0 -84 -48 -135 q-48 -51 -128 -51 q-79 0 -127.5 51 q-48.5 51 -48.5 135 q0 84 48.5 135 q48.5 51 127.5 51 ZM622 660 l110 0 l-445 -660 l-110 0 l445 660 ZM210 575 q-34 0 -52 -24 q-18 -24 -18 -67 q0 -43 18 -66.5 q18 -23.5 52 -23.5 q34 0 52 23.5 q18 23.5 18 66.5 q0 43 -18 67 q-18 24 -52 24 ZM698 362 q79 0 127.5 -51 q48.5 -51 48.5 -135 q0 -84 -48.5 -135 q-48.5 -51 -127.5 -51 q-80 0 -128 51 q-48 51 -48 135 q0 84 48 135 q48 51 128 51 ZM1105 362 q79 0 127.5 -51 q48.5 -51 48.5 -135 q0 -84 -48.5 -135 q-48.5 -51 -127.5 -51 q-80 0 -128 51 q-48 51 -48 135 q0 84 48 135 q48 51 128 51 ZM698 266 q-34 0 -52 -23.5 q-18 -23.5 -18 -66.5 q0 -43 18 -67 q18 -24 52 -24 q34 0 52 24 q18 24 18 67 q0 43 -18 66.5 q-18 23.5 -52 23.5 ZM1105 266 q-34 0 -52 -23.5 q-18 -23.5 -18 -66.5 q0 -43 18 -67 q18 -24 52 -24 q34 0 52 24 q18 24 18 67 q0 43 -18 66.5 q-18 23.5 -52 23.5 Z" /><glyph glyph-name="plus" unicode="+" d="M550 270 l-191 0 l0 -207 l-113 0 l0 207 l-192 0 l0 104 l192 0 l0 206 l113 0 l0 -206 l191 0 l0 -104 Z" /><glyph glyph-name="plusminus" unicode="±" d="M550 461 l0 -102 l-195 0 l0 -185 l-105 0 l0 185 l-196 0 l0 102 l196 0 l0 187 l105 0 l0 -187 l195 0 ZM54 100 l496 0 l0 -100 l-496 0 l0 100 Z" /><glyph glyph-name="uni207A" unicode="&#x207a;" d="M325 495 l-111 0 l0 -115 l-78 0 l0 115 l-111 0 l0 72 l111 0 l0 114 l78 0 l0 -114 l111 0 l0 -72 Z" /><glyph glyph-name="product" unicode="&#x220f;" d="M623 -128 l-130 0 l0 677 l-287 0 l0 -677 l-131 0 l0 788 l548 0 l0 -788 Z" /><glyph glyph-name="radical" unicode="&#x221a;" d="M708 818 l-320 -818 l-136 0 l-133 332 l-102 0 l0 109 l175 0 l95 -237 l34 -106 l37 113 l230 607 l120 0 Z" /><glyph glyph-name="summation" unicode="&#x2211;" d="M600 552 l-389 0 l282 -273 l0 -24 l-283 -279 l390 0 l0 -104 l-543 0 l0 104 l290 291 l-290 285 l0 108 l543 0 l0 -108 Z" /><glyph glyph-name="mu" unicode="µ" d="M547 500 l0 -500 l-119 0 l-6 89 q-45 -99 -164 -99 q-26 0 -52 8 l0 -208 l-137 0 l0 710 l137 0 l0 -296 q0 -58 21.5 -82 q21.5 -24 65.5 -24 q50 0 80.5 28 q30.5 28 36.5 79 l0 295 l137 0 Z" /><glyph glyph-name="Omega" unicode="&#x2126;" d="M713 98 l0 -98 l-279 0 l0 98 q64 14 98 72 q34 58 34 158 q0 109 -47 169 q-47 60 -131 60 q-84 0 -130.5 -59.5 q-46.5 -59.5 -46.5 -169.5 q0 -100 33.5 -158 q33.5 -58 97.5 -72 l0 -98 l-279 0 l0 98 l148 0 q-67 36 -103.5 98.5 q-36.5 62.5 -36.5 147.5 q0 100 38.5 173.5 q38.5 73.5 110 113 q71.5 39.5 168.5 39.5 q97 0 168.5 -39.5 q71.5 -39.5 110 -113 q38.5 -73.5 38.5 -173.5 q0 -85 -36.5 -147.5 q-36.5 -62.5 -103.5 -98.5 l148 0 Z" /><glyph glyph-name="Delta" unicode="&#x2206;" d="M681 91 l0 -91 l-641 0 l0 91 l248 569 l145 0 l248 -569 ZM153 101 l414 0 l-207 474 l-207 -474 Z" /><glyph glyph-name="arrowup" unicode="&#x2191;" d="M377 666 q61 -85 141 -154.5 q80 -69.5 197 -140.5 l-75 -104 q-133 88 -210 196 q13 -89 13 -184 l0 -279 l-137 0 l0 279 q0 102 12 184 q-77 -108 -210 -196 l-75 104 q118 70 197 140 q79 70 141 155 l6 0 Z" /><glyph glyph-name="uni2197" unicode="&#x2197;" d="M636 601 q-18 -134 -18 -258 q0 -124 18 -224 l-123 -7 q-6 54 -6 106 q0 105 21 202 q-57 -71 -134 -146 l-198 -198 l-89 88 l198 199 q71 73 147 134 q-99 -21 -207 -21 q-45 0 -102 5 l7 124 q101 -18 227 -18 q122 0 255 18 l4 -4 Z" /><glyph glyph-name="arrowright" unicode="&#x2192;" d="M424 672 q71 -117 140.5 -197 q69.5 -80 154.5 -141 l0 -6 q-85 -62 -155 -141 q-70 -79 -140 -197 l-104 75 q88 133 196 210 q-94 -12 -184 -12 l-279 0 l0 137 l279 0 q95 0 184 -13 q-108 77 -196 210 l104 75 Z" /><glyph glyph-name="uni2198" unicode="&#x2198;" d="M630 575 q-18 -101 -18 -227 q0 -122 18 -255 l-5 -4 q-134 18 -258 18 q-123 0 -223 -18 l-7 124 q57 5 102 5 q107 0 207 -21 q-61 47 -148 134 l-197 198 l88 89 l198 -198 q78 -76 135 -147 q-21 100 -21 207 q0 45 5 102 l124 -7 Z" /><glyph glyph-name="arrowdown" unicode="&#x2193;" d="M717 289 q-117 -71 -197 -140.5 q-80 -69.5 -141 -154.5 l-6 0 q-62 85 -141 155 q-79 70 -197 140 l75 104 q133 -88 210 -196 q-12 94 -12 184 l0 279 l137 0 l0 -279 q0 -95 -13 -183 q78 108 210 195 l75 -104 Z" /><glyph glyph-name="uni2199" unicode="&#x2199;" d="M304 197 q100 21 207 21 q45 0 102 -5 l-7 -124 q-100 18 -223 18 q-124 0 -258 -18 l-5 4 q18 133 18 255 q0 126 -18 227 l124 7 q5 -57 5 -102 q0 -107 -21 -207 q57 71 135 147 l198 198 l88 -89 l-197 -198 q-87 -87 -148 -134 Z" /><glyph glyph-name="arrowleft" unicode="&#x2190;" d="M418 263 q-90 0 -184 12 q108 -77 196 -210 l-104 -75 q-70 118 -140 197 q-70 79 -155 141 l0 6 q85 61 154.5 141 q69.5 80 140.5 197 l104 -75 q-88 -133 -196 -210 q89 13 184 13 l279 0 l0 -137 l-279 0 Z" /><glyph glyph-name="uni2196" unicode="&#x2196;" d="M643 164 l-89 -88 l-198 198 q-77 75 -134 146 q21 -99 21 -206 q0 -45 -5 -102 l-124 7 q18 100 18 224 q0 124 -18 258 l4 4 q133 -18 255 -18 q126 0 227 18 l7 -124 q-57 -5 -102 -5 q-108 0 -207 21 q61 -48 147 -134 l198 -199 Z" /><glyph glyph-name="arrowboth" unicode="&#x2194;" d="M759 690 q70 -117 140 -196.5 q70 -79.5 155 -141.5 l0 -6 q-85 -62 -155 -141 q-70 -79 -140 -196 l-108 68 q90 135 199 216 q-82 -12 -159 -12 l-298 0 q-77 0 -158 12 q112 -83 199 -216 l-108 -68 q-70 117 -140 196 q-70 79 -155 141 l0 6 q85 62 155 141.5 q70 79.5 140 196.5 l108 -68 q-90 -136 -198 -216 q81 12 157 12 l298 0 q77 0 158 -12 q-108 80 -198 216 l108 68 Z" /><glyph glyph-name="arrowupdn" unicode="&#x2195;" d="M431 23 q80 110 216 199 l68 -108 q-117 -71 -196.5 -140.5 q-79.5 -69.5 -141.5 -154.5 l-6 0 q-61 85 -140 154.5 q-79 69.5 -197 140.5 l68 108 q138 -91 215 -199 q-11 75 -11 158 l0 298 q0 83 11 158 q-77 -108 -215 -199 l-68 108 q118 71 197 140.5 q79 69.5 140 154.5 l6 0 q62 -85 141.5 -154.5 q79.5 -69.5 196.5 -140.5 l-68 -108 q-136 89 -216 199 q12 -82 12 -158 l0 -298 q0 -76 -12 -158 Z" /><glyph glyph-name="uni25CF" unicode="&#x25cf;" d="M300 -10 q-73 0 -132.5 34 q-59.5 34 -93.5 93.5 q-34 59.5 -34 132.5 q0 73 34 132.5 q34 59.5 93.5 93.5 q59.5 34 132.5 34 q73 0 132.5 -34 q59.5 -34 93.5 -93.5 q34 -59.5 34 -132.5 q0 -73 -34 -132.5 q-34 -59.5 -93.5 -93.5 q-59.5 -34 -132.5 -34 Z" /><glyph glyph-name="circle" unicode="&#x25cb;" d="M300 -10 q-74 0 -135 34 q-61 34 -95.5 93.5 q-34.5 59.5 -34.5 132.5 q0 73 34.5 132.5 q34.5 59.5 95.5 93.5 q61 34 135 34 q74 0 135 -34 q61 -34 95.5 -93.5 q34.5 -59.5 34.5 -132.5 q0 -73 -34.5 -132.5 q-34.5 -59.5 -95.5 -93.5 q-61 -34 -135 -34 ZM300 90 q44 0 80 21 q36 21 56.5 57.5 q20.5 36.5 20.5 81.5 q0 45 -20.5 81.5 q-20.5 36.5 -56.5 57.5 q-36 21 -80 21 q-44 0 -80 -21 q-36 -21 -56.5 -57.5 q-20.5 -36.5 -20.5 -81.5 q0 -45 20.5 -81.5 q20.5 -36.5 56.5 -57.5 q36 -21 80 -21 Z" /><glyph glyph-name="uni25C6" unicode="&#x25c6;" d="M35 259 l265 265 l265 -265 l-265 -265 l-265 265 Z" /><glyph glyph-name="uni25C7" unicode="&#x25c7;" d="M35 259 l265 265 l265 -265 l-265 -265 l-265 265 ZM435 259 l-135 135 l-135 -135 l135 -135 l135 135 Z" /><glyph glyph-name="lozenge" unicode="&#x25ca;" d="M582 330 l-195 -330 l-145 0 l-195 330 l195 330 l145 0 l195 -330 ZM448 330 l-133 250 l-134 -250 l134 -250 l133 250 Z" /><glyph glyph-name="uni25AA" unicode="&#x25aa;" d="M550 500 l0 -500 l-500 0 l0 500 l500 0 Z" /><glyph glyph-name="uni25AB" unicode="&#x25ab;" d="M46 500 l508 0 l0 -500 l-508 0 l0 500 ZM448 95 l0 310 l-296 0 l0 -310 l296 0 Z" /><glyph glyph-name="uni275B" unicode="&#x275b;" d="M626 575 q-188 0 -285.5 -39.5 q-97.5 -39.5 -144.5 -118.5 l7 -5 q36 27 75 40 q39 13 104 13 q121 0 194.5 -61 q73.5 -61 73.5 -173 q0 -117 -74.5 -179 q-74.5 -62 -207.5 -62 q-158 0 -232 76.5 q-74 76.5 -74 212.5 q0 182 122.5 284 q122.5 102 390.5 102 l51 -90 Z" /><glyph glyph-name="uni275C" unicode="&#x275c;" d="M85 -45 q188 0 285.5 39.5 q97.5 39.5 144.5 118.5 l-7 5 q-36 -27 -75 -40 q-39 -13 -104 -13 q-121 0 -194 61 q-73 61 -73 173 q0 117 74 179 q74 62 207 62 q158 0 232 -76.5 q74 -76.5 74 -212.5 q0 -182 -122.5 -284 q-122.5 -102 -390.5 -102 l-51 90 Z" /><glyph glyph-name="uni275D" unicode="&#x275d;" d="M913 465 q121 0 194.5 -61 q73.5 -61 73.5 -173 q0 -117 -74 -179 q-74 -62 -207 -62 q-203 0 -272 131 q-30 -64 -96.5 -97.5 q-66.5 -33.5 -163.5 -33.5 q-158 0 -232 76.5 q-74 76.5 -74 212.5 q0 182 122.5 284 q122.5 102 390.5 102 l51 -90 q-188 0 -285.5 -39.5 q-97.5 -39.5 -144.5 -118.5 l7 -5 q36 27 75 40 q39 13 104 13 q72 0 129.5 -23 q57.5 -23 91.5 -66 q29 138 151.5 213.5 q122.5 75.5 352.5 75.5 l51 -90 q-189 0 -286 -39.5 q-97 -39.5 -144 -118.5 l7 -5 q35 27 74 40 q39 13 104 13 Z" /><glyph glyph-name="uni275E" unicode="&#x275e;" d="M875 540 q158 0 232 -76.5 q74 -76.5 74 -212.5 q0 -182 -122.5 -284 q-122.5 -102 -391.5 -102 l-50 90 q188 0 285.5 39.5 q97.5 39.5 143.5 118.5 l-6 5 q-35 -27 -74.5 -40 q-39.5 -13 -104.5 -13 q-72 0 -129.5 23 q-57.5 23 -92.5 66 q-29 -138 -151.5 -213.5 q-122.5 -75.5 -351.5 -75.5 l-51 90 q189 0 286 39.5 q97 39.5 144 118.5 l-7 5 q-35 -27 -74 -40 q-39 -13 -104 -13 q-121 0 -194.5 61 q-73.5 61 -73.5 173 q0 117 74 179 q74 62 207 62 q203 0 272 -131 q30 64 97 97.5 q67 33.5 163 33.5 Z" /><glyph glyph-name="uni2761" unicode="&#x2761;" d="M638 85 q0 -128 -77 -214 q-77 -86 -251 -86 q-109 0 -171 46.5 q-62 46.5 -62 125.5 q0 24 6 50 l82 20 q-5 -21 -5 -46 q0 -50 27.5 -77.5 q27.5 -27.5 70.5 -27.5 q47 0 68 31.5 q21 31.5 21 89.5 l0 205 l-43 0 q-69 0 -126 27.5 q-57 27.5 -90 79 q-33 51.5 -33 120.5 q0 68 32.5 120.5 q32.5 52.5 93.5 81.5 q61 29 144 29 l313 0 l0 -575 ZM450 565 l0 -565 q0 -46 -15 -80.5 q-15 -34.5 -41 -49.5 l3 -4 q69 19 101 72.5 q32 53.5 32 130.5 l0 496 l-80 0 Z" /><glyph glyph-name="bar" unicode="|" d="M206 -168 l-120 0 l0 887 l120 0 l0 -887 Z" /><glyph glyph-name="brokenbar" unicode="¦" d="M193 345 l-120 0 l0 374 l120 0 l0 -374 ZM193 -168 l-120 0 l0 374 l120 0 l0 -374 Z" /><glyph glyph-name="at" unicode="@" d="M498 660 q128 0 219 -49.5 q91 -49.5 138 -140 q47 -90.5 47 -210.5 q0 -84 -26.5 -143.5 q-26.5 -59.5 -72 -89 q-45.5 -29.5 -101.5 -29.5 q-51 0 -83.5 24 q-32.5 24 -47.5 64 q-54 -84 -162 -84 q-73 0 -119 53 q-46 53 -46 140 q0 86 31.5 147.5 q31.5 61.5 84 93 q52.5 31.5 114.5 31.5 q54 0 85 -23.5 q31 -23.5 42 -57.5 l20 72 l96 0 l-42 -295 q-2 -20 -2 -28 q0 -31 13.5 -46.5 q13.5 -15.5 43.5 -15.5 q46 0 73 48 q27 48 27 139 q0 156 -87 243.5 q-87 87.5 -245 87.5 q-110 0 -192 -44.5 q-82 -44.5 -127 -127.5 q-45 -83 -45 -196 q0 -106 44.5 -183.5 q44.5 -77.5 120.5 -118 q76 -40.5 168 -40.5 q77 0 123 15.5 q46 15.5 84 43.5 l40 -54 q-52 -36 -106 -55 q-54 -19 -143 -19 q-120 0 -213 50 q-93 50 -145 143 q-52 93 -52 218 q0 129 56 228 q56 99 156.5 154 q100.5 55 230.5 55 ZM490 375 q-57 0 -92 -44 q-35 -44 -35 -121 q0 -54 23 -83.5 q23 -29.5 65 -29.5 q42 0 73.5 26 q31.5 26 37.5 75 l10 69 q2 16 2 24 q0 39 -20.5 61.5 q-20.5 22.5 -63.5 22.5 Z" /><glyph glyph-name="ampersand" unicode="&amp;" d="M620 -10 q-51 0 -87 13 q-36 13 -82 54 q-36 -32 -85 -49.5 q-49 -17.5 -108 -17.5 q-101 0 -162.5 48.5 q-61.5 48.5 -61.5 130.5 q0 56 33.5 104 q33.5 48 110.5 80 q-42 50 -57 84 q-15 34 -15 73 q0 41 21 77.5 q21 36.5 62.5 59.5 q41.5 23 100.5 23 q84 0 133 -40 q49 -40 49 -109 q0 -58 -32 -102.5 q-32 -44.5 -108 -79.5 q41 -46 56 -64 l25 -28 q35 -41 47 -54 q33 65 29 152 l95 -5 q2 -60 -14.5 -113 q-16.5 -53 -49.5 -95 q27 -25 49.5 -35 q22.5 -10 49.5 -10 q12 0 18 1 l-17 -98 ZM292 574 q-31 0 -48.5 -18.5 q-17.5 -18.5 -17.5 -48.5 q0 -23 11 -45 q11 -22 46 -64 q47 30 62 56.5 q15 26.5 15 60.5 q0 29 -18 44 q-18 15 -50 15 ZM153 176 q0 -40 32.5 -65.5 q32.5 -25.5 81.5 -25.5 q67 0 122 32 q-37 39 -73 80 l-19 21 q-44 48 -64 71 q-47 -32 -63.5 -56.5 q-16.5 -24.5 -16.5 -56.5 Z" /><glyph glyph-name="paragraph" unicode="¶" d="M627 -100 l-113 0 l0 653 l-116 0 l0 -653 l-114 0 l0 335 q-118 1 -182.5 56 q-64.5 55 -64.5 156 q0 103 68 158 q68 55 200 55 l322 0 l0 -760 Z" /><glyph glyph-name="copyright" unicode="©" d="M395 670 q103 0 180.5 -42 q77.5 -42 120 -119 q42.5 -77 42.5 -179 q0 -102 -42.5 -179 q-42.5 -77 -120 -119 q-77.5 -42 -180.5 -42 q-104 0 -181.5 42 q-77.5 42 -120 119 q-42.5 77 -42.5 179 q0 102 42.5 179 q42.5 77 120 119 q77.5 42 181.5 42 ZM395 593 q-79 0 -138 -32.5 q-59 -32.5 -91 -92 q-32 -59.5 -32 -138.5 q0 -79 32 -138.5 q32 -59.5 91 -92 q59 -32.5 138 -32.5 q78 0 137 32.5 q59 32.5 91.5 92 q32.5 59.5 32.5 138.5 q0 79 -32.5 138.5 q-32.5 59.5 -91.5 92 q-59 32.5 -137 32.5 ZM395 518 q132 0 171 -105 l-82 -41 q-11 26 -30.5 38 q-19.5 12 -52.5 12 q-41 0 -63.5 -24.5 q-22.5 -24.5 -22.5 -68.5 q0 -45 23 -69.5 q23 -24.5 64 -24.5 q34 0 55 12.5 q21 12.5 32 40.5 l78 -36 q-22 -58 -62.5 -85 q-40.5 -27 -109.5 -27 q-83 0 -131.5 51 q-48.5 51 -48.5 138 q0 87 48.5 138 q48.5 51 131.5 51 Z" /><glyph glyph-name="registered" unicode="®" d="M395 670 q103 0 180.5 -42 q77.5 -42 120 -119 q42.5 -77 42.5 -179 q0 -102 -42.5 -179 q-42.5 -77 -120 -119 q-77.5 -42 -180.5 -42 q-104 0 -181.5 42 q-77.5 42 -120 119 q-42.5 77 -42.5 179 q0 102 42.5 179 q42.5 77 120 119 q77.5 42 181.5 42 ZM395 67 q78 0 137 32.5 q59 32.5 91.5 92 q32.5 59.5 32.5 138.5 q0 79 -32.5 138.5 q-32.5 59.5 -91.5 92 q-59 32.5 -137 32.5 q-79 0 -138 -32.5 q-59 -32.5 -91 -92 q-32 -59.5 -32 -138.5 q0 -79 32 -138.5 q32 -59.5 91 -92 q59 -32.5 138 -32.5 ZM558 395 q0 -41 -21.5 -69.5 q-21.5 -28.5 -61.5 -40.5 l92 -137 l-105 0 l-74 128 l-42 0 l0 -128 l-89 0 l0 367 l167 0 q59 0 96.5 -33 q37.5 -33 37.5 -87 ZM346 339 l62 0 q60 0 60 52 q0 52 -60 52 l-62 0 l0 -104 Z" /><glyph glyph-name="section" unicode="§" d="M589 275 q0 -88 -80 -142 q20 -31 20 -80 q0 -74 -60 -118.5 q-60 -44.5 -163 -44.5 q-82 0 -135 24.5 q-53 24.5 -91 73.5 l77 69 q24 -37 58.5 -54 q34.5 -17 89.5 -17 q56 0 85.5 14 q29.5 14 29.5 41 q0 32 -33 49.5 q-33 17.5 -118 27.5 q-130 14 -186 52.5 q-56 38.5 -56 109.5 q0 89 80 141 q-20 33 -20 81 q0 49 27.5 87 q27.5 38 78.5 59.5 q51 21.5 121 21.5 q84 0 134.5 -25 q50.5 -25 87.5 -73 l-75 -69 q-27 37 -60 54 q-33 17 -87 17 q-57 0 -87.5 -16 q-30.5 -16 -30.5 -44 q0 -33 33 -50 q33 -17 118 -27 q130 -14 186 -52.5 q56 -38.5 56 -109.5 ZM133 298 q0 -31 32.5 -47 q32.5 -16 115.5 -25 q95 -11 149 -32 q53 24 53 63 q0 31 -32.5 47 q-32.5 16 -115.5 25 q-92 9 -149 32 q-53 -24 -53 -63 Z" /><glyph glyph-name="trademark" unicode="&#x2122;" d="M325 593 l-101 0 l0 -263 l-89 0 l0 263 l-102 0 l0 67 l292 0 l0 -67 ZM772 660 l0 -330 l-88 0 l0 140 l6 97 l-2 0 l-15 -54 l-64 -183 l-69 0 l-65 183 l-16 54 l-1 0 l5 -97 l0 -140 l-88 0 l0 330 l123 0 l56 -161 l19 -64 l3 0 l18 64 l57 161 l121 0 Z" /><glyph glyph-name="degree" unicode="°" d="M241 313 q-85 0 -137.5 49.5 q-52.5 49.5 -52.5 129.5 q0 80 52.5 129 q52.5 49 137.5 49 q86 0 138.5 -49 q52.5 -49 52.5 -129 q0 -80 -52.5 -129.5 q-52.5 -49.5 -138.5 -49.5 ZM241 406 q38 0 62.5 24 q24.5 24 24.5 62 q0 38 -24.5 62 q-24.5 24 -62.5 24 q-37 0 -61.5 -24 q-24.5 -24 -24.5 -62 q0 -37 24.5 -61.5 q24.5 -24.5 61.5 -24.5 Z" /><glyph glyph-name="estimated" unicode="&#x212e;" d="M397 670 q161 0 249 -95.5 q88 -95.5 87 -276.5 l-536 0 l0 -161 q38 -41 94 -62.5 q56 -21.5 125 -21.5 q92 0 163.5 39 q71.5 39 124.5 126 l0 -87 q-42 -70 -116 -105.5 q-74 -35.5 -171 -35.5 q-112 0 -193 42 q-81 42 -124 118.5 q-43 76.5 -43 179.5 q0 102 42 179 q42 77 119 119 q77 42 179 42 ZM397 607 q-130 0 -200 -83 l0 -161 l399 0 l0 164 q-71 80 -199 80 Z" /><glyph glyph-name="uni2113" unicode="&#x2113;" d="M299 85 q27 0 45.5 3 q18.5 3 40.5 10 l-7 -92 q-42 -16 -103 -16 q-87 0 -126 35 q-39 35 -39 114 l0 52 q-30 -11 -69 -19 l0 77 q40 8 69 18 l0 245 q0 77 33 117.5 q33 40.5 105 40.5 q72 0 101.5 -36 q29.5 -36 29.5 -105 q0 -76 -38.5 -147.5 q-38.5 -71.5 -107.5 -124.5 l0 -102 q0 -32 16 -51 q16 -19 50 -19 ZM270 593 q-20 0 -28.5 -16.5 q-8.5 -16.5 -8.5 -50.5 l0 -181 q36 38 54 86.5 q18 48.5 18 102.5 q0 32 -8 45.5 q-8 13.5 -27 13.5 Z" /><glyph glyph-name="asciicircum" unicode="^" d="M443 355 l-146 278 l-147 -278 l-125 0 l212 371 l119 0 l212 -371 l-125 0 Z" /><glyph glyph-name="dagger" unicode="&#x2020;" d="M529 350 l-182 0 l0 -450 l-129 0 l0 450 l-182 0 l0 108 l182 0 l0 202 l129 0 l0 -202 l182 0 l0 -108 Z" /><glyph glyph-name="daggerdbl" unicode="&#x2021;" d="M347 350 l0 -140 l182 0 l0 -108 l-182 0 l0 -202 l-129 0 l0 202 l-182 0 l0 108 l182 0 l0 140 l-182 0 l0 108 l182 0 l0 202 l129 0 l0 -202 l182 0 l0 -108 l-182 0 Z" /><glyph glyph-name="uniF8FF" unicode="&#xf8ff;" d="M1090 301 l-54 -20 l47 -24 l-53 -20 l42 -29 l-61 -10 l38 -34 l-66 -3 l35 -32 l-61 -4 q-14 -9 -28 -15 l0 -81 q0 -29 -29 -29 l-46 0 q-29 0 -29 23 q0 25 29 25 l11 0 l0 39 q-28 -7 -66 -10 l0 -48 q0 -29 -29 -29 l-46 0 q-29 0 -29 23 q0 25 29 25 l11 0 l0 27 l-226 0 l0 -46 q0 -29 -29 -29 l-46 0 q-30 0 -30 23 q0 12 8 18.5 q8 6.5 22 6.5 l12 0 l0 27 l-88 0 l0 -46 q0 -29 -30 -29 l-44 0 q-31 0 -31 23 q0 25 31 25 l10 0 l0 37 q-72 3 -138 27.5 q-66 24.5 -103 63.5 q-13 1 -21.5 9.5 q-8.5 8.5 -8.5 21.5 q0 13 9 22 q9 9 22 9 l3 0 q41 25 74 79 q33 54 33 101 l-6 59 l40 -18 l-7 58 l41 -23 l0 57 l43 -32 l0 56 l43 -28 l3 58 l42 -35 l7 59 l42 -38 l6 55 l44 -37 l15 57 l36 -42 l13 53 l38 -43 l17 52 l32 -46 l24 50 l32 -45 l31 55 l27 -59 l38 49 l20 -58 l43 53 l10 -64 l57 46 l-8 -65 l64 34 l-22 -60 l63 16 l-26 -47 l64 4 l-36 -40 l70 0 l-48 -49 l71 0 l-50 -39 l56 -13 l-54 -33 l58 -19 l-56 -25 l49 -30 ZM334 256 q24 5 38 21.5 q14 16.5 14 38.5 q0 27 -17 43.5 q-17 16.5 -41 16.5 q-27 0 -46 -19 l8 -16 q17 16 37 16 q24 0 33 -23 q4 -9 4 -20 q0 -33 -39 -45 l9 -13 ZM212 248 q23 0 36.5 14 q13.5 14 14.5 39 l-18 0 q0 -14 -9 -22 q-9 -8 -24 -8 q-16 0 -25 8 q-9 8 -9 22 l-18 0 q0 -24 14.5 -38.5 q14.5 -14.5 37.5 -14.5 Z" /><glyph glyph-name="uni0326" unicode="&#x326;" d="M-247 -239 l-93 0 l36 173 l126 0 l-69 -173 Z" /><glyph glyph-name="uni02C9" unicode="&#x2c9;" d="M432 579 l-364 0 l0 91 l364 0 l0 -91 Z" /><glyph glyph-name="acute" unicode="´" d="M394 742 l-100 -170 l-102 0 l70 170 l132 0 Z" /><glyph glyph-name="breve" unicode="&#x2d8;" d="M411 720 q0 -72 -43.5 -114.5 q-43.5 -42.5 -117.5 -42.5 q-74 0 -117.5 42.5 q-43.5 42.5 -43.5 114.5 l93 0 q0 -32 19 -53.5 q19 -21.5 49 -21.5 q30 0 49 21.5 q19 21.5 19 53.5 l93 0 Z" /><glyph glyph-name="caron" unicode="&#x2c7;" d="M319 572 l-138 0 l-110 170 l105 0 l74 -95 l74 95 l105 0 l-110 -170 Z" /><glyph glyph-name="cedilla" unicode="¸" d="M232 34 q73 -14 112.5 -51 q39.5 -37 39.5 -84 q0 -53 -36.5 -83.5 q-36.5 -30.5 -96.5 -30.5 q-78 0 -119 38 l36 71 q13 -14 31.5 -22 q18.5 -8 39.5 -8 q24 0 39.5 14.5 q15.5 14.5 15.5 38.5 q0 29 -22 48 q-22 19 -82 38 l42 31 Z" /><glyph glyph-name="circumflex" unicode="&#x2c6;" d="M324 565 l-74 96 l-74 -96 l-105 0 l110 171 l138 0 l110 -171 l-105 0 Z" /><glyph glyph-name="dieresis" unicode="¨" d="M146 705 q35 0 55 -19 q20 -19 20 -51 q0 -32 -20 -51 q-20 -19 -55 -19 q-34 0 -54 19 q-20 19 -20 51 q0 32 20 51 q20 19 54 19 ZM356 705 q35 0 55.5 -19 q20.5 -19 20.5 -51 q0 -32 -20.5 -51 q-20.5 -19 -55.5 -19 q-34 0 -54 19 q-20 19 -20 51 q0 32 20 51 q20 19 54 19 Z" /><glyph glyph-name="dotaccent" unicode="&#x2d9;" d="M250 720 q39 0 60 -19 q21 -19 21 -54 q0 -35 -21 -54 q-21 -19 -60 -19 q-38 0 -59 19 q-21 19 -21 54 q0 35 21 54 q21 19 59 19 Z" /><glyph glyph-name="grave" unicode="`" d="M308 572 l-102 0 l-100 170 l132 0 l70 -170 Z" /><glyph glyph-name="hungarumlaut" unicode="&#x2dd;" d="M167 572 l-98 0 l72 170 l122 0 l-96 -170 ZM366 572 l-98 0 l71 170 l123 0 l-96 -170 Z" /><glyph glyph-name="macron" unicode="¯" d="M432 579 l-364 0 l0 91 l364 0 l0 -91 Z" /><glyph glyph-name="ogonek" unicode="&#x2db;" d="M352 14 q-65 -24 -93.5 -48.5 q-28.5 -24.5 -28.5 -51.5 q0 -22 16 -35 q16 -13 42 -13 q33 0 50 11 l20 -71 q-34 -21 -95 -21 q-58 0 -95 28.5 q-37 28.5 -37 78.5 q0 54 41 88.5 q41 34.5 121 57.5 l59 -24 Z" /><glyph glyph-name="ring" unicode="&#x2da;" d="M251 800 q61 0 96 -32.5 q35 -32.5 35 -87.5 q0 -55 -35 -87.5 q-35 -32.5 -96 -32.5 q-61 0 -96.5 32.5 q-35.5 32.5 -35.5 87.5 q0 55 35.5 87.5 q35.5 32.5 96.5 32.5 ZM251 738 q-26 0 -42.5 -16 q-16.5 -16 -16.5 -42 q0 -25 16.5 -41 q16.5 -16 42.5 -16 q26 0 42.5 16 q16.5 16 16.5 41 q0 26 -16.5 42 q-16.5 16 -42.5 16 Z" /><glyph glyph-name="tilde" unicode="&#x2dc;" d="M442 718 q-4 -75 -35.5 -112.5 q-31.5 -37.5 -89.5 -37.5 q-29 0 -48.5 10 q-19.5 10 -40.5 28 q-14 12 -23.5 17.5 q-9.5 5.5 -20.5 5.5 q-18 0 -28 -15 q-10 -15 -14 -46 l-84 0 q8 150 126 150 q29 0 48 -10 q19 -10 40 -28 q15 -12 24 -17.5 q9 -5.5 20 -5.5 q18 0 28 15 q10 15 14 46 l84 0 Z" /></font>
</defs>
</svg>
