<svg id="Icons" xmlns="http://www.w3.org/2000/svg" viewBox="0 0 10.86 14.09"><defs><style>.cls-1{fill:#1588d1;}</style></defs><title>icons</title><path class="cls-1" d="M5.18,4.82v6.27a2.18,2.18,0,0,1-4.36,0V4.27a1.36,1.36,0,1,1,2.73,0V10a0.55,0.55,0,1,1-1.09,0V4.82H1.64V10a1.36,1.36,0,0,0,2.73,0V4.27A2.18,2.18,0,1,0,0,4.27v6.82a3,3,0,0,0,6,0V4.82H5.18Z"/><polygon class="cls-1" points="10.86 3.75 8.61 3.75 8.61 6 7.11 6 7.11 3.75 4.86 3.75 4.86 2.25 7.11 2.25 7.11 0 8.61 0 8.61 2.25 10.86 2.25 10.86 3.75"/></svg>