<?xml version="1.0" encoding="utf-8"?>
<!-- Generator: Adobe Illustrator 19.1.0, SVG Export Plug-In . SVG Version: 6.00 Build 0)  -->
<svg version="1.1" id="Layer_1" xmlns="http://www.w3.org/2000/svg" xmlns:xlink="http://www.w3.org/1999/xlink" x="0px" y="0px"
	 viewBox="0 0 56.6 67.1" style="enable-background:new 0 0 56.6 67.1;" xml:space="preserve">
<style type="text/css">
	.st0{fill:#E6E6E7;}
	.st1{fill:#2487C9;}
	.st2{fill:#FFFFFF;}
</style>
<g>
	<ellipse class="st0" cx="28.3" cy="64.1" rx="23.7" ry="3"/>
	<g>
		<g>

				<image style="overflow:visible;opacity:0.15;" width="236" height="276" xlink:href="84268C6E1FBCB795.png"  transform="matrix(0.24 0 0 0.24 0 0)">
			</image>
			<g>
				<path class="st1" d="M47.5,44.3c0,2.8-2.2,5-5,5H38c-2.8,0-6,2-7.1,4.5l-0.7,1.5c-1.2,2.5-3.1,2.5-4.3,0L25,53.8
					c-1.2-2.5-4.4-4.5-7.2-4.5H14c-2.8,0-5-2.2-5-5V14c0-2.8,2.2-5,5-5h28.5c2.8,0,5,2.2,5,5V44.3z"/>
			</g>
		</g>
		<g>
			<g>
				<g>
					<g>
						<path class="st2" d="M32.5,20.8c1.2,0.8,1.8,2,1.8,3.6c0,1.6-0.5,2.8-1.5,3.7c-1,0.9-2.2,1.4-3.8,1.5l-0.1,2.8H26L26,28.1
							c1.8-0.2,3.1-0.6,3.9-1.1s1.2-1.3,1.2-2.3c0-0.8-0.3-1.5-0.9-1.9s-1.5-0.7-2.6-0.7c-1.1,0-2,0.3-2.7,0.9
							c-0.7,0.6-1.1,1.5-1.2,2.6l-2.8-1.3c0.3-1.5,1-2.6,2.2-3.5c1.2-0.9,2.7-1.3,4.7-1.3C29.7,19.5,31.3,19.9,32.5,20.8z M29,35.1
							c0.4,0.4,0.6,0.8,0.6,1.4c0,0.6-0.2,1.1-0.6,1.5c-0.4,0.4-0.9,0.5-1.5,0.5c-0.7,0-1.2-0.2-1.5-0.5c-0.4-0.4-0.6-0.8-0.6-1.5
							c0-0.6,0.2-1.1,0.6-1.4c0.4-0.4,0.9-0.5,1.5-0.5S28.6,34.7,29,35.1z"/>
					</g>
				</g>
			</g>
		</g>
	</g>
</g>
</svg>
