<svg xmlns="http://www.w3.org/2000/svg" xmlns:xlink="http://www.w3.org/1999/xlink" width="9" height="10" viewBox="0 0 9 10">
    <defs>
        <path id="a" d="M81.08 6.53l-.004-.012a.339.339 0 0 0-.018-.06c-.002-.007-.006-.013-.01-.02a.453.453 0 0 0-.022-.045l-.017-.023a.414.414 0 0 0-.027-.033l-.005-.006-4.043-4.125a.314.314 0 0 0-.476.022.405.405 0 0 0 .02.53l3.405 3.474h-6.546c-.186 0-.337.168-.337.375s.15.375.337.375h6.546l-3.404 3.474a.405.405 0 0 0-.021.53.32.32 0 0 0 .248.121.317.317 0 0 0 .228-.098l4.043-4.126.005-.006c.01-.01.018-.022.027-.033l.017-.023a.415.415 0 0 0 .023-.045l.01-.02a.361.361 0 0 0 .017-.06l.003-.012a.412.412 0 0 0 0-.154z"/>
    </defs>
    <use fill="#298ED0" fill-rule="evenodd" transform="translate(-73 -2)" xlink:href="#a"/>
</svg>
