<svg xmlns="http://www.w3.org/2000/svg" xmlns:xlink="http://www.w3.org/1999/xlink" width="17" height="15" viewBox="0 0 17 15">
    <defs>
        <path id="a" d="M25.032 100.372c-.002-.007-.006-.014-.007-.021a.499.499 0 0 0-.035-.099c-.004-.012-.012-.022-.019-.034a.717.717 0 0 0-.045-.075c-.01-.013-.023-.025-.034-.038a.723.723 0 0 0-.053-.056c-.004-.002-.006-.007-.01-.01l-8.023-6.875a.703.703 0 0 0-.945.038.597.597 0 0 0 .042.883l6.755 5.79H9.668c-.37 0-.668.28-.668.625s.299.625.669.625h12.99l-6.756 5.79a.597.597 0 0 0-.042.882.687.687 0 0 0 .494.203.691.691 0 0 0 .451-.165l8.023-6.875.01-.01c.02-.017.036-.037.054-.056l.033-.038a.657.657 0 0 0 .045-.074c.007-.012.015-.022.02-.034a.53.53 0 0 0 .034-.1c.001-.006.005-.013.007-.02a.58.58 0 0 0 0-.256z"/>
    </defs>
    <use fill="#1589D1" fill-rule="evenodd" transform="rotate(180 12.523 54)" xlink:href="#a"/>
</svg>
