<svg id="Icons" xmlns="http://www.w3.org/2000/svg" viewBox="0 0 10 10"><defs><style>.cls-1{fill:#002d62;}</style></defs><title>CBI_Icon_Master_081116</title><path class="cls-1" d="M5,0.75A4.25,4.25,0,1,1,.75,5,4.25,4.25,0,0,1,5,.75M5,0a5,5,0,1,0,5,5A5,5,0,0,0,5,0H5Z"/><path class="cls-1" d="M5,2.47A2.53,2.53,0,1,1,2.47,5,2.53,2.53,0,0,1,5,2.47m0-.75A3.28,3.28,0,1,0,8.28,5,3.28,3.28,0,0,0,5,1.72H5Z"/><path class="cls-1" d="M5,4.19A0.81,0.81,0,1,1,4.19,5,0.81,0.81,0,0,1,5,4.19m0-.75A1.56,1.56,0,1,0,6.56,5,1.56,1.56,0,0,0,5,3.44H5Z"/></svg>