<?xml version="1.0" encoding="utf-8"?>
<!-- Generator: Adobe Illustrator 19.1.0, SVG Export Plug-In . SVG Version: 6.00 Build 0)  -->
<svg version="1.1" id="Layer_1" xmlns="http://www.w3.org/2000/svg" xmlns:xlink="http://www.w3.org/1999/xlink" x="0px" y="0px"
	 viewBox="-397 634 5 13" style="enable-background:new -397 634 5 13;" xml:space="preserve">
<style type="text/css">
	.st0{fill:#9B9B9B;}
</style>
<g>
	<g>
		<g>
			<path class="st0" d="M-394.5,639.5c-0.3,0-0.5-0.3-0.5-0.5v-4.5c0-0.3,0.2-0.5,0.5-0.5s0.5,0.2,0.5,0.5v4.5
				C-394,639.2-394.2,639.5-394.5,639.5z"/>
		</g>
	</g>
	<g>
		<path class="st0" d="M-394.5,639.6c-0.1,0-0.2,0-0.3-0.1l-2-1.9c-0.2-0.2-0.3-0.5-0.1-0.7c0.2-0.2,0.5-0.2,0.7,0l1.7,1.5l1.7-1.5
			c0.2-0.2,0.5-0.2,0.7,0c0.2,0.2,0.2,0.5,0,0.7l-2,1.9C-394.3,639.5-394.4,639.6-394.5,639.6z"/>
	</g>
	<g>
		<g>
			<path class="st0" d="M-394.5,647c-0.3,0-0.5-0.2-0.5-0.5V642c0-0.3,0.2-0.5,0.5-0.5s0.5,0.3,0.5,0.5v4.5
				C-394,646.8-394.2,647-394.5,647z"/>
		</g>
	</g>
	<g>
		<path class="st0" d="M-392.5,644.3c-0.1,0-0.2,0-0.3-0.1l-1.7-1.6l-1.7,1.5c-0.2,0.2-0.5,0.2-0.7,0c-0.2-0.2-0.2-0.5,0-0.7l2-1.9
			c0.2-0.2,0.5-0.2,0.7,0l2,1.9c0.2,0.2,0.2,0.5,0,0.7C-392.2,644.2-392.4,644.3-392.5,644.3z"/>
	</g>
</g>
</svg>
