<?xml version="1.0" encoding="utf-8"?>
<!-- Generator: Adobe Illustrator 19.1.0, SVG Export Plug-In . SVG Version: 6.00 Build 0)  -->
<svg version="1.1" id="Layer_1" xmlns="http://www.w3.org/2000/svg" xmlns:xlink="http://www.w3.org/1999/xlink" x="0px" y="0px"
	 viewBox="-397 634 5 13" style="enable-background:new -397 634 5 13;" xml:space="preserve">
<style type="text/css">
	.st0{fill:#1588D1;}
</style>
<g>
	<g>
		<g>
			<path class="st0" d="M-394.5,639.6c-0.3,0-0.5-0.2-0.5-0.5v-4.5c0-0.3,0.2-0.5,0.5-0.5s0.5,0.3,0.5,0.5v4.5
				C-394,639.4-394.2,639.6-394.5,639.6z"/>
		</g>
	</g>
	<g>
		<path class="st0" d="M-392.5,636.9c-0.1,0-0.2,0-0.3-0.1l-1.7-1.6l-1.7,1.5c-0.2,0.2-0.5,0.2-0.7,0c-0.2-0.2-0.1-0.5,0.1-0.7
			l2-1.9c0.2-0.1,0.4-0.1,0.6,0l2,1.9c0.2,0.2,0.2,0.5,0,0.7C-392.2,636.8-392.4,636.9-392.5,636.9z"/>
	</g>
	<g>
		<g>
			<path class="st0" d="M-394.5,646.9c-0.3,0-0.5-0.2-0.5-0.5v-4.5c0-0.3,0.2-0.5,0.5-0.5s0.5,0.2,0.5,0.5v4.5
				C-394,646.6-394.2,646.9-394.5,646.9z"/>
		</g>
	</g>
	<g>
		<path class="st0" d="M-394.5,647c-0.1,0-0.2,0-0.3-0.1l-2-1.9c-0.2-0.2-0.2-0.5,0-0.7c0.2-0.2,0.5-0.2,0.7,0l1.7,1.5l1.7-1.5
			c0.2-0.2,0.5-0.2,0.7,0s0.2,0.5,0,0.7l-2,1.9C-394.3,647-394.4,647-394.5,647z"/>
	</g>
</g>
</svg>
