<svg id="Icons" xmlns="http://www.w3.org/2000/svg" viewBox="0 0 5 13"><defs><style>.cls-1{fill:#002d62;}</style></defs><title>CBI_Icon_Master_081116</title><path class="cls-1" d="M4.84,2l-2-1.85a0.5,0.5,0,0,0-.68,0L0.16,2a0.5,0.5,0,0,0,.68.73L2,1.64V5.09a0.5,0.5,0,0,0,1,0V1.65L4.16,2.72A0.5,0.5,0,0,0,4.84,2Z"/><path class="cls-1" d="M4.87,10.31a0.5,0.5,0,0,0-.71,0L3,11.36V7.91a0.5,0.5,0,0,0-1,0v3.45L0.84,10.28A0.5,0.5,0,0,0,.16,11l2,1.85a0.5,0.5,0,0,0,.68,0l2-1.85A0.5,0.5,0,0,0,4.87,10.31Z"/></svg>