<?xml version="1.0" encoding="UTF-8" standalone="no"?>
<svg width="149px" height="252px" viewBox="0 0 149 252" version="1.1" xmlns="http://www.w3.org/2000/svg" xmlns:xlink="http://www.w3.org/1999/xlink" style="background: #7DCC9C;">
    <!-- Generator: Sketch 40 (33762) - http://www.bohemiancoding.com/sketch -->
    <title>delete-target-list</title>
    <desc>Created with Sketch.</desc>
    <defs>
        <linearGradient x1="50%" y1="100%" x2="50%" y2="0%" id="linearGradient-1">
            <stop stop-color="#FFFFFF" stop-opacity="0" offset="0%"></stop>
            <stop stop-color="#FFFFFF" offset="100%"></stop>
        </linearGradient>
    </defs>
    <g id="Page-1" stroke="none" stroke-width="1" fill="none" fill-rule="evenodd">
        <g id="delete-target-list">
            <polygon id="Fill-1" fill="#FFFFFF" points="0.852 121.566 147.853 121.566 147.853 0.001 0.852 0.001"></polygon>
            <path d="M36.2304,33 L127.4084,33" id="Stroke-2" stroke="#6D6D72" opacity="0.5"></path>
            <path d="M28.0932,33.0004 C28.0932,34.8774 26.5722,36.3984 24.6952,36.3984 C22.8182,36.3984 21.2972,34.8774 21.2972,33.0004 C21.2972,31.1234 22.8182,29.6024 24.6952,29.6024 C26.5722,29.6024 28.0932,31.1234 28.0932,33.0004 L28.0932,33.0004 Z" id="Stroke-4" stroke="#6D6D72" opacity="0.5"></path>
            <path d="M36.2304,51 L127.4084,51" id="Stroke-6" stroke="#6D6D72" opacity="0.5"></path>
            <path d="M28.0932,51.5718 C28.0932,53.4488 26.5722,54.9698 24.6952,54.9698 C22.8182,54.9698 21.2972,53.4488 21.2972,51.5718 C21.2972,49.6948 22.8182,48.1738 24.6952,48.1738 C26.5722,48.1738 28.0932,49.6948 28.0932,51.5718 L28.0932,51.5718 Z" id="Stroke-8" stroke="#6D6D72" opacity="0.5"></path>
            <path d="M34,70 L125.178,70" id="Stroke-11" stroke="#B4B4B4" opacity="0.5"></path>
            <path d="M28.0932,70.1432 C28.0932,72.0202 26.5722,73.5412 24.6952,73.5412 C22.8182,73.5412 21.2972,72.0202 21.2972,70.1432 C21.2972,68.2662 22.8182,66.7452 24.6952,66.7452 C26.5722,66.7452 28.0932,68.2662 28.0932,70.1432 L28.0932,70.1432 Z" id="Stroke-13" stroke="#B4B4B4" opacity="0.5"></path>
            <path d="M36.2304,88 L127.4084,88" id="Stroke-15" stroke="#B4B4B4" opacity="0.35"></path>
            <path d="M28.0932,88.7147 C28.0932,90.5917 26.5722,92.1127 24.6952,92.1127 C22.8182,92.1127 21.2972,90.5917 21.2972,88.7147 C21.2972,86.8377 22.8182,85.3167 24.6952,85.3167 C26.5722,85.3167 28.0932,86.8377 28.0932,88.7147 L28.0932,88.7147 Z" id="Stroke-17" stroke="#B4B4B4" opacity="0.35"></path>
            <path d="M36.2304,106 L127.4084,106" id="Stroke-20" stroke="#B4B4B4" opacity="0.1"></path>
            <path d="M28.0932,106.8391 C28.0932,108.7161 26.5722,110.2371 24.6952,110.2371 C22.8182,110.2371 21.2972,108.7161 21.2972,106.8391 C21.2972,104.9621 22.8182,103.4411 24.6952,103.4411 C26.5722,103.4411 28.0932,104.9621 28.0932,106.8391 L28.0932,106.8391 Z" id="Stroke-22" stroke="#B4B4B4" opacity="0.1"></path>
            <path d="M139.6926,120.5655 L139.6926,165.2795 L147.8526,157.1195 L147.8526,120.5655 L139.6926,120.5655 Z M129.0126,120.5655 L129.0126,177.1355 L137.1726,185.2955 L137.1726,120.5655 L129.0126,120.5655 Z M118.3326,120.5655 L118.3326,165.1255 L126.4926,173.2855 L126.4926,120.5655 L118.3326,120.5655 Z M107.6526,120.5655 L107.6526,179.2905 L115.8126,171.1305 L115.8126,120.5655 L107.6526,120.5655 Z M96.9726,120.5655 L96.9726,185.2955 L105.1326,177.1355 L105.1326,120.5655 L96.9726,120.5655 Z M86.2926,120.5655 L86.2926,157.1195 L94.4526,165.2795 L94.4526,120.5655 L86.2926,120.5655 Z M75.6126,120.5655 L75.6126,185.2185 L83.7726,193.3795 L83.7726,120.5655 L75.6126,120.5655 Z M64.9326,120.5655 L64.9326,175.8505 L73.0926,184.0115 L73.0926,120.5655 L64.9326,120.5655 Z M54.2526,120.5655 L54.2526,187.1435 L62.4136,195.3035 L62.4136,120.5655 L54.2526,120.5655 Z M43.5726,120.5655 L43.5726,176.2885 L51.7326,168.1275 L51.7326,120.5655 L43.5726,120.5655 Z M32.8926,120.5655 L32.8926,185.2955 L41.0526,177.1355 L41.0526,120.5655 L32.8926,120.5655 Z M22.2126,120.5655 L22.2126,196.1505 L30.3736,204.3105 L30.3736,120.5655 L22.2126,120.5655 Z M11.5326,121.5655 L11.5326,186.5485 L19.6926,194.7085 L19.6926,120.5655 L11.5326,121.5655 Z M0.8526,120.5655 L0.8526,199.7885 L9.0126,191.6285 L9.0126,120.5655 L0.8526,120.5655 Z" id="Fill-26" fill-opacity="0.970000029" fill="url(#linearGradient-1)"></path>
            <polyline id="Fill-27" fill-opacity="0.75" fill="#FFFFFF" points="54.2527 207.5436 54.2527 199.3836 62.4127 199.3836"></polyline>
            <polyline id="Fill-29" fill-opacity="0.75" fill="#FFFFFF" points="129.0127 177.1355 137.1727 177.1355 137.1727 185.2955"></polyline>
            <polyline id="Fill-31" fill-opacity="0.75" fill="#FFFFFF" points="86.2927 157.1195 94.4527 157.1195 94.4527 165.2795"></polyline>
            <polyline id="Fill-33" fill-opacity="0.75" fill="#FFFFFF" points="54.2527 187.1435 62.4127 187.1435 62.4127 195.3035"></polyline>
            <polyline id="Fill-35" fill-opacity="0.35" fill="#FFFFFF" points="13.1373 224.6563 21.2973 224.6563 21.2973 232.8163"></polyline>
            <polyline id="Fill-37" fill-opacity="0.75" fill="#FFFFFF" points="0 205.3115 8.16 205.3115 8.16 213.4715"></polyline>
            <polyline id="Fill-39" fill-opacity="0.35" fill="#FFFFFF" points="129.0127 186.7601 137.1727 186.7601 137.1727 194.9201"></polyline>
            <polyline id="Fill-41" fill-opacity="0.75" fill="#FFFFFF" points="115.8127 171.1307 107.6527 171.1307 107.6527 179.2907"></polyline>
            <polyline id="Fill-43" fill-opacity="0.75" fill="#FFFFFF" points="105.1328 177.1355 96.9728 177.1355 96.9728 185.2955"></polyline>
            <polyline id="Fill-45" fill-opacity="0.75" fill="#FFFFFF" points="41.0528 177.1355 32.8928 177.1355 32.8928 185.2955"></polyline>
            <polyline id="Fill-47" fill-opacity="0.75" fill="#FFFFFF" points="9.0128 191.6289 0.8528 191.6289 0.8528 199.7889"></polyline>
            <polyline id="Fill-49" fill-opacity="0.75" fill="#FFFFFF" points="148.4418 174.3992 148.4418 182.5592 140.2818 182.5592"></polyline>
            <polyline id="Fill-51" fill-opacity="0.75" fill="#FFFFFF" points="87.9827 186.7874 96.1427 186.7874 96.1427 194.9474"></polyline>
            <polyline id="Fill-53" fill-opacity="0.35" fill="#FFFFFF" points="64.9327 187.1435 73.0927 187.1435 73.0927 195.3035"></polyline>
            <polyline id="Fill-55" fill-opacity="0.35" fill="#FFFFFF" points="30.3728 207.9015 22.2128 207.9015 22.2128 216.0615"></polyline>
            <polyline id="Fill-57" fill-opacity="0.75" fill="#FFFFFF" points="83.7728 203.6617 83.7728 211.8217 75.6128 211.8217"></polyline>
            <polyline id="Fill-59" fill-opacity="0.35" fill="#FFFFFF" points="87.9827 216.4474 96.1427 216.4474 96.1427 224.6074"></polyline>
            <polyline id="Fill-61" fill-opacity="0.35" fill="#FFFFFF" points="64.9327 216.8035 73.0927 216.8035 73.0927 224.9635"></polyline>
            <polyline id="Fill-63" fill-opacity="0.35" fill="#FFFFFF" points="64.9327 233.3218 64.9327 241.4818 56.7727 241.4818"></polyline>
            <polyline id="Fill-65" fill-opacity="0.35" fill="#FFFFFF" points="21.2973 243.253 13.1373 243.253 13.1373 251.413"></polyline>
            <polyline id="Fill-67" fill-opacity="0.35" fill="#FFFFFF" points="43.5727 211.0636 51.7327 211.0636 51.7327 219.2236"></polyline>
            <polyline id="Fill-69" fill-opacity="0.65" fill="#FFFFFF" points="42.5699997 235.7419 42.5699997 227.5819 50.7299997 227.5819"></polyline>
        </g>
    </g>
</svg>