<svg id="Icons" xmlns="http://www.w3.org/2000/svg" xmlns:xlink="http://www.w3.org/1999/xlink" viewBox="0 0 24 24"><defs><style>.cls-1,.cls-4,.cls-6{fill:#2070b9;}.cls-1,.cls-2,.cls-3{clip-rule:evenodd;}.cls-2,.cls-7,.cls-9{fill:#002d62;}.cls-10,.cls-12,.cls-3{fill:#ad68bc;}.cls-10,.cls-4,.cls-7{fill-rule:evenodd;}.cls-5{clip-path:url(#clip-path);}.cls-8{clip-path:url(#clip-path-2);}.cls-11{clip-path:url(#clip-path-3);}.cls-13{fill:#417505;}.cls-14{fill:none;stroke:#417505;stroke-miterlimit:10;}</style><clipPath id="clip-path"><path id="SVGID" class="cls-1" d="M166.22,14.91h10.52v1H166.22v-1Zm0-2.39h11.57v1H166.22v-1Zm0-2.39h8.48v1h-8.48v-1Z"/></clipPath><clipPath id="clip-path-2"><path id="SVGID-2" data-name="SVGID" class="cls-2" d="M248,17.43h2v2a1,1,0,0,1-2,0v-2Zm0-2h1v1h-1v-1Zm1-1h1v1h-1v-1Zm-1-1h1v1h-1v-1Zm1-1h1v1h-1v-1Zm-1-1h1v1h-1v-1Zm1-6.91h1v1h-1v-1Zm-1-1h1v1h-1v-1Zm1,3h1v1h-1v-1Zm-1-1h1v1h-1v-1Zm1,3h1v1h-1v-1Zm-1-1h1v1h-1v-1Zm1,3h1v1h-1v-1Zm-1-1h1v1h-1v-1Z"/></clipPath><clipPath id="clip-path-3"><path id="SVGID-3" data-name="SVGID" class="cls-3" d="M335.2,12.11V9.8h-7.47a1.07,1.07,0,0,0-1.06,1.07v4.26a1.07,1.07,0,0,0,1.06,1.07h7.47V13.89l2.13,1.78V10.33Z"/></clipPath></defs><path id="SVGID-4" data-name="SVGID" class="cls-4" d="M166.22,14.91h10.52v1H166.22v-1Zm0-2.39h11.57v1H166.22v-1Zm0-2.39h8.48v1h-8.48v-1Z"/><g class="cls-5"><rect id="SVGID-5" data-name="SVGID" class="cls-6" x="-12.6" y="-51.56" width="421.81" height="230.51"/></g><path id="SVGID-6" data-name="SVGID" class="cls-7" d="M248,17.43h2v2a1,1,0,0,1-2,0v-2Zm0-2h1v1h-1v-1Zm1-1h1v1h-1v-1Zm-1-1h1v1h-1v-1Zm1-1h1v1h-1v-1Zm-1-1h1v1h-1v-1Zm1-6.91h1v1h-1v-1Zm-1-1h1v1h-1v-1Zm1,3h1v1h-1v-1Zm-1-1h1v1h-1v-1Zm1,3h1v1h-1v-1Zm-1-1h1v1h-1v-1Zm1,3h1v1h-1v-1Zm-1-1h1v1h-1v-1Z"/><g class="cls-8"><rect id="SVGID-7" data-name="SVGID" class="cls-9" x="13.01" y="-53.66" width="435.43" height="237.96"/></g><path id="SVGID-8" data-name="SVGID" class="cls-10" d="M335.2,12.11V9.8h-7.47a1.07,1.07,0,0,0-1.06,1.07v4.26a1.07,1.07,0,0,0,1.06,1.07h7.47V13.89l2.13,1.78V10.33Z"/><g class="cls-11"><rect id="SVGID-9" data-name="SVGID" class="cls-12" x="20.55" y="-60.06" width="470.38" height="257.05"/></g><path class="cls-13" d="M17.51,1L23,6.56V23H1V1H17.51m0.42-1H0V24H24V6.15L17.93,0h0Z"/><polyline class="cls-14" points="17.36 0.01 17.36 6.66 24 6.66"/><rect class="cls-14" x="6.72" y="9.09" width="10.55" height="7.87"/><line class="cls-14" x1="6.72" y1="11.71" x2="17.28" y2="11.71"/><line class="cls-14" x1="6.72" y1="14.33" x2="17.28" y2="14.33"/><line class="cls-14" x1="10.35" y1="9.04" x2="10.35" y2="16.96"/></svg>