<svg id="Layer_1" data-name="Layer 1" xmlns="http://www.w3.org/2000/svg" viewBox="0 0 26 33"><defs><style>.cls-1,.cls-2{fill:#4a4a4a}.cls-2{fill-rule:evenodd}</style></defs><title>Temp</title><path class="cls-1" d="M25.16 5.15L20.78.8a3.06 3.06 0 0 0-1.95-.8H1.48A1.48 1.48 0 0 0 0 1.48v30A1.54 1.54 0 0 0 1.48 33h23A1.62 1.62 0 0 0 26 31.46V7.07a3.1 3.1 0 0 0-.84-1.92zM20 2l3.89 4h-3.28a.65.65 0 0 1-.61-.7V2zm5 29.44a.54.54 0 0 1-.57.54h-23a.51.51 0 0 1-.43-.52v-30A.42.42 0 0 1 1.39 1H19v4.3A1.8 1.8 0 0 0 20.61 7H25v24.46z"/><path class="cls-2" d="M12.19 8.66h-.07a.26.26 0 0 0-.17.17 3.5 3.5 0 0 0 .23 2 4.11 4.11 0 0 0 .01-2.17zm.35 5.78a48.69 48.69 0 0 1-1.82 5.15 34.06 34.06 0 0 1 4.42-1.38 23.31 23.31 0 0 1-2.61-3.78zm5 4.49a2.62 2.62 0 0 0 1.41.66.66.66 0 0 0 .58-.33 1.12 1.12 0 0 0 .12-.26 2.11 2.11 0 0 0-.93-.14 9.8 9.8 0 0 0-1.21.07zm-9.17 3c-1.45.82-2 1.49-2.09 1.87a.51.51 0 0 0 .29.47c.07-.03.66-.27 1.77-2.33zm-1.85 3.5a1.1 1.1 0 0 1-.66-.22 1.63 1.63 0 0 1-.76-1.53c.12-1.11 1.49-2.27 4.07-3.45a45.82 45.82 0 0 0 2.58-7.32c-.68-1.48-1.34-3.4-.86-4.52a1.39 1.39 0 0 1 .86-.8 1.43 1.43 0 0 1 .45-.08 1.08 1.08 0 0 1 .86.42c.2.26.81 1-.1 4.86a21.74 21.74 0 0 0 3.46 5.15 13.22 13.22 0 0 1 2.29-.24c1.07 0 1.71.25 2 .76a1.38 1.38 0 0 1-.27 1.47 1.81 1.81 0 0 1-1.51.81A4.53 4.53 0 0 1 16 19.18a32.5 32.5 0 0 0-6 1.92A19.26 19.26 0 0 1 8.42 24c-.7 1-1.3 1.43-1.9 1.43z"/></svg>