<svg id="Icons" xmlns="http://www.w3.org/2000/svg" xmlns:xlink="http://www.w3.org/1999/xlink" viewBox="0 0 24 24"><defs><style>.cls-1,.cls-3,.cls-5{fill:#ad68bc;}.cls-1,.cls-2{clip-rule:evenodd;}.cls-2,.cls-6,.cls-8{fill:#f5a623;}.cls-3,.cls-6{fill-rule:evenodd;}.cls-4{clip-path:url(#clip-path);}.cls-7{clip-path:url(#clip-path-2);}.cls-9{fill:#9b9b9b;}.cls-10{fill:none;stroke:#9b9b9b;stroke-miterlimit:10;}</style><clipPath id="clip-path"><path id="SVGID" class="cls-1" d="M-144.8,12.11V9.8h-7.47a1.07,1.07,0,0,0-1.06,1.07v4.26a1.07,1.07,0,0,0,1.06,1.07h7.47V13.89l2.13,1.78V10.33Z"/></clipPath><clipPath id="clip-path-2"><path id="SVGID-2" data-name="SVGID" class="cls-2" d="M-64.54,9.76v5a1.3,1.3,0,0,1-1.3,1.3,1.3,1.3,0,0,1-1.3-1.3,1.3,1.3,0,0,1,1.3-1.3,1.3,1.3,0,0,1,.43.07V10.26l-3.46,1.15v5a1.3,1.3,0,0,1-1.3,1.3,1.3,1.3,0,0,1-1.3-1.3,1.3,1.3,0,0,1,1.3-1.3,1.3,1.3,0,0,1,.43.07V10l5.19-1.73V9.76Z"/></clipPath></defs><path id="SVGID-3" data-name="SVGID" class="cls-3" d="M-144.8,12.11V9.8h-7.47a1.07,1.07,0,0,0-1.06,1.07v4.26a1.07,1.07,0,0,0,1.06,1.07h7.47V13.89l2.13,1.78V10.33Z"/><g class="cls-4"><rect id="SVGID-4" data-name="SVGID" class="cls-5" x="-459.45" y="-60.06" width="470.38" height="257.05"/></g><path id="SVGID-5" data-name="SVGID" class="cls-6" d="M-64.54,9.76v5a1.3,1.3,0,0,1-1.3,1.3,1.3,1.3,0,0,1-1.3-1.3,1.3,1.3,0,0,1,1.3-1.3,1.3,1.3,0,0,1,.43.07V10.26l-3.46,1.15v5a1.3,1.3,0,0,1-1.3,1.3,1.3,1.3,0,0,1-1.3-1.3,1.3,1.3,0,0,1,1.3-1.3,1.3,1.3,0,0,1,.43.07V10l5.19-1.73V9.76Z"/><g class="cls-7"><rect id="SVGID-6" data-name="SVGID" class="cls-8" x="-363.07" y="-46.27" width="381.6" height="208.54"/></g><path class="cls-9" d="M17.51,1L23,6.56V23H1V1H17.51m0.42-1H0V24H24V6.15L17.93,0h0Z"/><polyline class="cls-10" points="17.36 0.01 17.36 6.66 24 6.66"/></svg>