<svg id="Icons" xmlns="http://www.w3.org/2000/svg" xmlns:xlink="http://www.w3.org/1999/xlink" viewBox="0 0 24 24"><defs><style>.cls-1,.cls-5,.cls-7{fill:#2070b9;}.cls-1,.cls-2,.cls-3,.cls-4{clip-rule:evenodd;}.cls-10,.cls-2,.cls-8{fill:#002d62;}.cls-11,.cls-13,.cls-3{fill:#ad68bc;}.cls-14,.cls-16,.cls-4{fill:#f5a623;}.cls-11,.cls-14,.cls-5,.cls-8{fill-rule:evenodd;}.cls-6{clip-path:url(#clip-path);}.cls-9{clip-path:url(#clip-path-2);}.cls-12{clip-path:url(#clip-path-3);}.cls-15{clip-path:url(#clip-path-4);}.cls-17{fill:none;stroke:#ad68bc;stroke-miterlimit:10;}</style><clipPath id="clip-path"><path id="SVGID" class="cls-1" d="M-153.78,14.91h10.52v1h-10.52v-1Zm0-2.39h11.57v1h-11.57v-1Zm0-2.39h8.48v1h-8.48v-1Z"/></clipPath><clipPath id="clip-path-2"><path id="SVGID-2" data-name="SVGID" class="cls-2" d="M-72,17.43h2v2a1,1,0,0,1-1,1,1,1,0,0,1-1-1v-2Zm0-2h1v1h-1v-1Zm1-1h1v1h-1v-1Zm-1-1h1v1h-1v-1Zm1-1h1v1h-1v-1Zm-1-1h1v1h-1v-1Zm1-6.91h1v1h-1v-1Zm-1-1h1v1h-1v-1Zm1,3h1v1h-1v-1Zm-1-1h1v1h-1v-1Zm1,3h1v1h-1v-1Zm-1-1h1v1h-1v-1Zm1,3h1v1h-1v-1Zm-1-1h1v1h-1v-1Z"/></clipPath><clipPath id="clip-path-3"><path id="SVGID-3" data-name="SVGID" class="cls-3" d="M15.2,12.11V9.8H7.73a1.07,1.07,0,0,0-1.06,1.07v4.26A1.07,1.07,0,0,0,7.73,16.2H15.2V13.89l2.13,1.78V10.33Z"/></clipPath><clipPath id="clip-path-4"><path id="SVGID-4" data-name="SVGID" class="cls-4" d="M95.46,9.76v5a1.3,1.3,0,1,1-.87-1.22V10.26l-3.46,1.15v5a1.3,1.3,0,1,1-.87-1.22V10l5.19-1.73V9.76Z"/></clipPath></defs><path id="SVGID-5" data-name="SVGID" class="cls-5" d="M-153.78,14.91h10.52v1h-10.52v-1Zm0-2.39h11.57v1h-11.57v-1Zm0-2.39h8.48v1h-8.48v-1Z"/><g class="cls-6"><rect id="SVGID-6" data-name="SVGID" class="cls-7" x="-332.6" y="-51.56" width="421.81" height="230.51"/></g><path id="SVGID-7" data-name="SVGID" class="cls-8" d="M-72,17.43h2v2a1,1,0,0,1-1,1,1,1,0,0,1-1-1v-2Zm0-2h1v1h-1v-1Zm1-1h1v1h-1v-1Zm-1-1h1v1h-1v-1Zm1-1h1v1h-1v-1Zm-1-1h1v1h-1v-1Zm1-6.91h1v1h-1v-1Zm-1-1h1v1h-1v-1Zm1,3h1v1h-1v-1Zm-1-1h1v1h-1v-1Zm1,3h1v1h-1v-1Zm-1-1h1v1h-1v-1Zm1,3h1v1h-1v-1Zm-1-1h1v1h-1v-1Z"/><g class="cls-9"><rect id="SVGID-8" data-name="SVGID" class="cls-10" x="-306.99" y="-53.66" width="435.43" height="237.96"/></g><path id="SVGID-9" data-name="SVGID" class="cls-11" d="M15.2,12.11V9.8H7.73a1.07,1.07,0,0,0-1.06,1.07v4.26A1.07,1.07,0,0,0,7.73,16.2H15.2V13.89l2.13,1.78V10.33Z"/><g class="cls-12"><rect id="SVGID-10" data-name="SVGID" class="cls-13" x="-299.45" y="-60.06" width="470.38" height="257.05"/></g><path id="SVGID-11" data-name="SVGID" class="cls-14" d="M95.46,9.76v5a1.3,1.3,0,1,1-.87-1.22V10.26l-3.46,1.15v5a1.3,1.3,0,1,1-.87-1.22V10l5.19-1.73V9.76Z"/><g class="cls-15"><rect id="SVGID-12" data-name="SVGID" class="cls-16" x="-203.07" y="-46.27" width="381.6" height="208.54"/></g><path class="cls-13" d="M17.51,1L23,6.56V23H1V1H17.51m0.42-1H0V24H24V6.15L17.93,0h0Z"/><polyline class="cls-17" points="17.36 0.01 17.36 6.66 24 6.66"/></svg>