<svg id="Icons" xmlns="http://www.w3.org/2000/svg" xmlns:xlink="http://www.w3.org/1999/xlink" viewBox="0 0 24 24"><defs><style>.cls-1,.cls-4,.cls-6{fill:#2070b9;}.cls-1,.cls-2,.cls-3{clip-rule:evenodd;}.cls-2,.cls-7,.cls-9{fill:#002d62;}.cls-10,.cls-12,.cls-3{fill:#ad68bc;}.cls-10,.cls-15,.cls-4,.cls-7{fill-rule:evenodd;}.cls-5{clip-path:url(#clip-path);}.cls-8{clip-path:url(#clip-path-2);}.cls-11{clip-path:url(#clip-path-3);}.cls-13,.cls-15{fill:#ca5400;}.cls-14{fill:none;stroke:#ca5400;stroke-miterlimit:10;}</style><clipPath id="clip-path"><path id="SVGID" class="cls-1" d="M86.22,14.91H96.74v1H86.22v-1Zm0-2.39H97.78v1H86.22v-1Zm0-2.39h8.48v1H86.22v-1Z"/></clipPath><clipPath id="clip-path-2"><path id="SVGID-2" data-name="SVGID" class="cls-2" d="M168,17.43h2v2a1,1,0,0,1-2,0v-2Zm0-2h1v1h-1v-1Zm1-1h1v1h-1v-1Zm-1-1h1v1h-1v-1Zm1-1h1v1h-1v-1Zm-1-1h1v1h-1v-1Zm1-6.91h1v1h-1v-1Zm-1-1h1v1h-1v-1Zm1,3h1v1h-1v-1Zm-1-1h1v1h-1v-1Zm1,3h1v1h-1v-1Zm-1-1h1v1h-1v-1Zm1,3h1v1h-1v-1Zm-1-1h1v1h-1v-1Z"/></clipPath><clipPath id="clip-path-3"><path id="SVGID-3" data-name="SVGID" class="cls-3" d="M255.2,12.11V9.8h-7.47a1.07,1.07,0,0,0-1.06,1.07v4.26a1.07,1.07,0,0,0,1.06,1.07h7.47V13.89l2.13,1.78V10.33Z"/></clipPath></defs><path id="SVGID-4" data-name="SVGID" class="cls-4" d="M86.22,14.91H96.74v1H86.22v-1Zm0-2.39H97.78v1H86.22v-1Zm0-2.39h8.48v1H86.22v-1Z"/><g class="cls-5"><rect id="SVGID-5" data-name="SVGID" class="cls-6" x="-92.6" y="-51.56" width="421.81" height="230.51"/></g><path id="SVGID-6" data-name="SVGID" class="cls-7" d="M168,17.43h2v2a1,1,0,0,1-2,0v-2Zm0-2h1v1h-1v-1Zm1-1h1v1h-1v-1Zm-1-1h1v1h-1v-1Zm1-1h1v1h-1v-1Zm-1-1h1v1h-1v-1Zm1-6.91h1v1h-1v-1Zm-1-1h1v1h-1v-1Zm1,3h1v1h-1v-1Zm-1-1h1v1h-1v-1Zm1,3h1v1h-1v-1Zm-1-1h1v1h-1v-1Zm1,3h1v1h-1v-1Zm-1-1h1v1h-1v-1Z"/><g class="cls-8"><rect id="SVGID-7" data-name="SVGID" class="cls-9" x="-66.99" y="-53.66" width="435.43" height="237.96"/></g><path id="SVGID-8" data-name="SVGID" class="cls-10" d="M255.2,12.11V9.8h-7.47a1.07,1.07,0,0,0-1.06,1.07v4.26a1.07,1.07,0,0,0,1.06,1.07h7.47V13.89l2.13,1.78V10.33Z"/><g class="cls-11"><rect id="SVGID-9" data-name="SVGID" class="cls-12" x="-59.45" y="-60.06" width="470.38" height="257.05"/></g><path class="cls-13" d="M17.51,1L23,6.56V23H1V1H17.51m0.42-1H0V24H24V6.15L17.93,0h0Z"/><polyline class="cls-14" points="17.36 0.01 17.36 6.66 24 6.66"/><circle class="cls-14" cx="9.34" cy="12" r="3.15"/><path id="SVGID-10" data-name="SVGID" class="cls-15" d="M9.34,15.72A3.72,3.72,0,0,0,13.06,12H9.34l0.88-3.62A3.72,3.72,0,1,0,9.34,15.72Z"/><rect class="cls-13" x="14.13" y="10.4" width="1.06" height="1.06"/><rect class="cls-13" x="16.26" y="10.4" width="2.13" height="1.06"/><rect class="cls-13" x="14.13" y="12.53" width="1.06" height="1.06"/><rect class="cls-13" x="16.26" y="12.53" width="2.13" height="1.06"/></svg>