<svg id="Layer_1" data-name="Layer 1" xmlns="http://www.w3.org/2000/svg" viewBox="0 0 10.96 11"><defs><style>.cls-1{fill:#1588d1}</style></defs><title>Temp</title><path class="cls-1" d="M10.45 0H6.94a.51.51 0 1 0 0 1h2.34l-5 5a.51.51 0 1 0 .72.73l4.94-4.94V4a.51.51 0 1 0 1 0V.51a.51.51 0 0 0-.49-.51z"/><path class="cls-1" d="M8.69 5.12a.51.51 0 0 0-.51.51v4a.34.34 0 0 1-.34.34H1.36A.34.34 0 0 1 1 9.64V3.16a.34.34 0 0 1 .34-.34h4a.51.51 0 1 0 0-1h-4A1.36 1.36 0 0 0 0 3.16v6.48A1.36 1.36 0 0 0 1.36 11h6.48A1.36 1.36 0 0 0 9.2 9.64v-4a.51.51 0 0 0-.51-.52z"/></svg>