<svg xmlns="http://www.w3.org/2000/svg" xmlns:xlink="http://www.w3.org/1999/xlink" width="32" height="24" viewBox="0 0 32 24">
    <defs>
        <path id="a" d="M12 24C5.373 24 0 18.627 0 12S5.373 0 12 0s12 5.373 12 12-5.373 12-12 12zM6.718 6.627c.372-1.109 2.571 1.715 2.571 1.715-.737.739-1.099 2.571-2.571 2.571 0 0-.239-.502-1.715 1.714-1.472 2.212.858 5.143.858 5.143s1.464 1.108 2.57 0c1.108-1.107 1.957-2.335 3.43-.857 0 0 1.347-.367 1.714 0 .372.372.49 1.348.857 1.714.372.37 2.2 1.228 2.571.858.367-.367 1.848-2.44 0-4.286 0 0 .856-.61.858-1.714-.002-1.111-1.344-.487-1.715-.858-.367-.366.13-4.284-1.714-4.285 0 0-.117.857-.857.857 0 0-1.346-1.228-1.714-.857-.37.368-.13-2.325 1.714-3.429.293-.876.168-1.721-.084-2.43a10.29 10.29 0 0 0-1.63-.141c-2.604 0-5.052.97-6.957 2.725-.303 1.014-.413 1.992.1 2.418.896.747 1.345.246 1.714-.858z"/>
    </defs>
    <g fill="none" fill-rule="evenodd" transform="rotate(30 14 19.464)">
        <mask id="b" fill="#fff">
            <use xlink:href="#a"/>
        </mask>
        <use fill="#000" xlink:href="#a"/>
        <g fill="#1589D1" mask="url(#b)">
            <path d="M-20.83 7.284l42.435-24.5 24.5 42.436L3.67 49.72z"/>
        </g>
    </g>
</svg>
