<svg xmlns="http://www.w3.org/2000/svg" xmlns:xlink="http://www.w3.org/1999/xlink" width="144" height="150" viewBox="0 0 144 150">
    <defs>
        <path id="a" d="M75 150h-6.818a3.41 3.41 0 0 1 0-6.818H75a3.415 3.415 0 0 1 3.41 3.409A3.415 3.415 0 0 1 75 150zM71.59 27.273c24.437 0 44.32 19.882 44.32 44.318 0 19.309-12.492 36.259-30.683 42.143v5.584a3.415 3.415 0 0 1-3.409 3.41H61.364a3.41 3.41 0 0 1-3.41-3.41v-5.584C39.758 107.857 27.274 90.9 27.274 71.591c0-24.436 19.882-44.318 44.318-44.318zm10.228 102.272a3.415 3.415 0 0 1 3.41 3.41 3.415 3.415 0 0 1-3.41 3.409H61.364a3.41 3.41 0 0 1 0-6.819h20.454zM71.591 20.455a3.41 3.41 0 0 1-3.41-3.41V3.41A3.41 3.41 0 0 1 71.592 0 3.415 3.415 0 0 1 75 3.41v13.635a3.415 3.415 0 0 1-3.41 3.41zm68.182 47.727a3.415 3.415 0 0 1 3.409 3.409 3.415 3.415 0 0 1-3.41 3.409h-13.636a3.41 3.41 0 0 1 0-6.818h13.637zm-122.728 0a3.415 3.415 0 0 1 3.41 3.409A3.415 3.415 0 0 1 17.045 75H3.41a3.41 3.41 0 0 1 0-6.818h13.636zm13.557-32.736L16.141 20.978a3.42 3.42 0 0 1 0-4.828 3.4 3.4 0 0 1 4.82 0l14.462 14.468a3.42 3.42 0 0 1 0 4.828 3.42 3.42 0 0 1-2.407.995 3.424 3.424 0 0 1-2.414-.995zm79.548.995a3.424 3.424 0 0 1-2.414-.995 3.42 3.42 0 0 1 0-4.828l14.475-14.468a3.4 3.4 0 0 1 4.82 0 3.42 3.42 0 0 1 0 4.828l-14.468 14.468a3.424 3.424 0 0 1-2.413.995z"/>
    </defs>
    <use fill="#EBEBEB" fill-rule="evenodd" xlink:href="#a"/>
</svg>
