<?xml version="1.0" encoding="utf-8"?>
<!-- Generator: Adobe Illustrator 21.1.0, SVG Export Plug-In . SVG Version: 6.00 Build 0)  -->
<svg version="1.1" id="Layer_1" xmlns="http://www.w3.org/2000/svg" xmlns:xlink="http://www.w3.org/1999/xlink" x="0px" y="0px"
	 viewBox="0 0 24 24" style="enable-background:new 0 0 24 24;" xml:space="preserve">
<style type="text/css">
	.st0{fill:#1177B8;}
	.st1{fill:none;}
</style>
<g id="Filled_Icons_1_">
	<g id="Filled_Icons">
		<path class="st0" d="M11.5,1C5.1,1,0,6.1,0,12.5S5.1,24,11.5,24S23,18.9,23,12.5S17.9,1,11.5,1z M11.5,19c-0.6,0-1-0.4-1-1
			c0-0.6,0.4-1,1-1c0.6,0,1,0.4,1,1C12.5,18.6,12.1,19,11.5,19z M12,13v2.5c0,0.3-0.2,0.5-0.5,0.5c-0.3,0-0.5-0.2-0.5-0.5v-3
			c0-0.3,0.2-0.5,0.5-0.5c1.4,0,2.5-1.1,2.5-2.5S12.9,7,11.5,7C10.1,7,9,8.1,9,9.5C9,9.8,8.8,10,8.5,10C8.2,10,8,9.8,8,9.5
			C8,7.6,9.6,6,11.5,6C13.4,6,15,7.6,15,9.5C15,11.3,13.7,12.7,12,13z"/>
	</g>
	<g id="New_icons">
	</g>
</g>
<g id="Invisible_Shape">
	<rect class="st1" width="24" height="24"/>
</g>
</svg>
