<svg id="Icons" xmlns="http://www.w3.org/2000/svg" viewBox="0 0 12 12"><defs><style>.cls-1{fill:#a0c8ff;}.cls-2{fill:#4a4a4a;}</style></defs><title>icons</title><circle class="cls-1" cx="6" cy="6" r="6"/><path class="cls-2" d="M6.47,6.53v0.3A0.15,0.15,0,0,1,6.29,7H5.7a0.15,0.15,0,0,1-.17-0.17V6.54A1.26,1.26,0,0,1,5.64,6,1.57,1.57,0,0,1,6,5.51L6.53,5.1a0.79,0.79,0,0,0,.35-0.62V4.34a0.65,0.65,0,0,0-.75-0.72H5.86a0.73,0.73,0,0,0-.54.17,0.75,0.75,0,0,0-.17.54V4.63A0.16,0.16,0,0,1,5,4.81H4.34a0.15,0.15,0,0,1-.17-0.18V4.32a1.5,1.5,0,0,1,.41-1.13,1.56,1.56,0,0,1,1.14-.4H6.28a1.56,1.56,0,0,1,1.14.4,1.5,1.5,0,0,1,.41,1.13V4.53a1.18,1.18,0,0,1-.45.9l-0.6.48a0.93,0.93,0,0,0-.25.29A0.81,0.81,0,0,0,6.47,6.53Zm0,1.29V9a0.15,0.15,0,0,1-.16.17H5.64A0.15,0.15,0,0,1,5.47,9V7.82a0.15,0.15,0,0,1,.17-0.16H6.32A0.14,0.14,0,0,1,6.48,7.82Z"/></svg>