<svg xmlns="http://www.w3.org/2000/svg" xmlns:xlink="http://www.w3.org/1999/xlink" width="15" height="15" viewBox="0 0 15 15">
    <defs>
        <path id="a" d="M7.5 0A7.5 7.5 0 0 0 0 7.5 7.5 7.5 0 0 0 7.5 15 7.5 7.5 0 0 0 15 7.5 7.5 7.5 0 0 0 7.5 0zm0 11.74a.652.652 0 1 1-.001-1.304.652.652 0 0 1 .001 1.303zm.326-3.937v1.654a.327.327 0 0 1-.652 0V7.5c0-.18.146-.326.326-.326.899 0 1.63-.731 1.63-1.63 0-.9-.731-1.631-1.63-1.631-.9 0-1.63.731-1.63 1.63a.327.327 0 0 1-.653 0A2.285 2.285 0 0 1 7.5 3.261a2.285 2.285 0 0 1 2.283 2.282c0 1.148-.853 2.101-1.957 2.26z"/>
    </defs>
    <g fill="none" fill-rule="evenodd">
        <mask id="b" fill="#fff">
            <use xlink:href="#a"/>
        </mask>
        <use fill="#000" fill-rule="nonzero" xlink:href="#a"/>
        <g fill="#1177B8" mask="url(#b)">
            <path d="M-37.826-38.478h91v91h-91z"/>
        </g>
    </g>
</svg>
