<svg id="Icons" xmlns="http://www.w3.org/2000/svg" viewBox="0 0 14.66 11.27"><defs><style>.cls-1{fill:#1588d1;}</style></defs><title>icons</title><path class="cls-1" d="M9.29,6L7.73,7.6A2,2,0,0,0,9.29,6Z"/><path class="cls-1" d="M12.63,2.7L10.54,4.78a3.3,3.3,0,0,1,.12.85A3.33,3.33,0,0,1,7.33,9a3.3,3.3,0,0,1-.85-0.12L5,10.29a7.85,7.85,0,0,0,2.29.35,7.88,7.88,0,0,0,7.33-5A7.91,7.91,0,0,0,12.63,2.7Z"/><path class="cls-1" d="M6.47,7.44L9.13,4.78l1-1,1.74-1.74L13,0.94,12,0,10.65,1.38A7.85,7.85,0,0,0,0,5.64,7.92,7.92,0,0,0,2.82,9.21L1.69,10.33l0.94,0.94L4,9.89,5.5,8.41ZM4,5.64A3.33,3.33,0,0,1,9.17,2.86l-1,1A2,2,0,0,0,5.53,6.49l-1,1A3.31,3.31,0,0,1,4,5.64Z"/></svg>