<?xml version="1.0" encoding="utf-8"?>
<!-- Generator: Adobe Illustrator 19.1.0, SVG Export Plug-In . SVG Version: 6.00 Build 0)  -->
<svg version="1.1" id="Layer_1" xmlns="http://www.w3.org/2000/svg" xmlns:xlink="http://www.w3.org/1999/xlink" x="0px" y="0px"
	 viewBox="-314 557 10 16.2" style="enable-background:new -314 557 10 16.2;" xml:space="preserve">
<style type="text/css">
	.st0{fill:#FBB930;}
	.st1{clip-path:url(#SVGID_2_);}
	.st2{fill:none;stroke:#B4B4B4;stroke-miterlimit:10;}
	.st3{clip-path:url(#SVGID_4_);}
</style>
<g>
	<rect x="-314" y="569.1" class="st0" width="1.8" height="11.9"/>
	<g>
		<g>
			<defs>
				<rect id="SVGID_1_" x="-309.9" y="563.1" width="1.8" height="17.9"/>
			</defs>
			<clipPath id="SVGID_2_">
				<use xlink:href="#SVGID_1_"  style="overflow:visible;"/>
			</clipPath>
			<g class="st1">
				<line class="st2" x1="-297.9" y1="593.6" x2="-316.1" y2="573.4"/>
				<g>
					<line class="st2" x1="-297.9" y1="583.4" x2="-316.1" y2="563.1"/>
				</g>
				<g>
					<line class="st2" x1="-297.9" y1="579.9" x2="-316.1" y2="559.7"/>
				</g>
				<g>
					<line class="st2" x1="-297.9" y1="569.7" x2="-316.1" y2="549.4"/>
				</g>
				<g>
					<line class="st2" x1="-297.9" y1="566.2" x2="-316.1" y2="546"/>
				</g>
				<g>
					<line class="st2" x1="-297.9" y1="590.2" x2="-316.1" y2="570"/>
				</g>
				<g>
					<line class="st2" x1="-297.9" y1="562.8" x2="-316.1" y2="542.6"/>
				</g>
				<g>
					<line class="st2" x1="-297.9" y1="576.5" x2="-316.1" y2="556.3"/>
				</g>
				<g>
					<line class="st2" x1="-297.9" y1="586.8" x2="-316.1" y2="566.6"/>
				</g>
				<g>
					<line class="st2" x1="-297.9" y1="573.1" x2="-316.1" y2="552.9"/>
				</g>
			</g>
		</g>
	</g>
	<g>
		<g>
			<defs>
				<rect id="SVGID_3_" x="-305.8" y="557" width="1.8" height="24"/>
			</defs>
			<clipPath id="SVGID_4_">
				<use xlink:href="#SVGID_3_"  style="overflow:visible;"/>
			</clipPath>
			<g class="st3">
				<line class="st2" x1="-293.7" y1="593.9" x2="-311.9" y2="573.6"/>
				<g>
					<line class="st2" x1="-293.7" y1="583.6" x2="-311.9" y2="563.4"/>
				</g>
				<g>
					<line class="st2" x1="-293.7" y1="580.2" x2="-311.9" y2="559.9"/>
				</g>
				<g>
					<line class="st2" x1="-293.7" y1="569.9" x2="-311.9" y2="549.7"/>
				</g>
				<g>
					<line class="st2" x1="-293.7" y1="566.5" x2="-311.9" y2="546.2"/>
				</g>
				<g>
					<line class="st2" x1="-293.7" y1="590.4" x2="-311.9" y2="570.2"/>
				</g>
				<g>
					<line class="st2" x1="-293.7" y1="563" x2="-311.9" y2="542.8"/>
				</g>
				<g>
					<line class="st2" x1="-293.7" y1="576.7" x2="-311.9" y2="556.5"/>
				</g>
				<g>
					<line class="st2" x1="-293.7" y1="587" x2="-311.9" y2="566.8"/>
				</g>
				<g>
					<line class="st2" x1="-293.7" y1="573.3" x2="-311.9" y2="553.1"/>
				</g>
			</g>
		</g>
	</g>
</g>
</svg>
