<svg id="Layer_1" data-name="Layer 1" xmlns="http://www.w3.org/2000/svg" viewBox="0 0 25.98 25.98"><defs><style>.cls-1{fill:#9b9b9b;}</style></defs><title>icons</title><path class="cls-1" d="M13,26A13,13,0,1,1,26,13,13,13,0,0,1,13,26ZM13,1A12,12,0,1,0,25,13,12,12,0,0,0,13,1Z"/><path class="cls-1" d="M13,20.19a7.44,7.44,0,0,1-1.12-.09,0.73,0.73,0,0,1-.6-0.55l-0.17-.7a0.59,0.59,0,0,0-.51-0.52,0.82,0.82,0,0,0-.42.13l-0.61.37a0.73,0.73,0,0,1-.81,0,7.14,7.14,0,0,1-1.58-1.58,0.72,0.72,0,0,1,0-.81l0.38-.61a0.55,0.55,0,0,0-.38-0.92l-0.7-.17a0.72,0.72,0,0,1-.55-0.6,7.27,7.27,0,0,1,0-2.24,0.73,0.73,0,0,1,.54-0.6l0.7-.17a0.68,0.68,0,0,0,.48-0.34,0.68,0.68,0,0,0-.1-0.58L7.14,9.57a0.73,0.73,0,0,1,0-.81A7.15,7.15,0,0,1,8.76,7.17a0.72,0.72,0,0,1,.81,0l0.61,0.37a0.8,0.8,0,0,0,.41.13,0.59,0.59,0,0,0,.51-0.52l0.17-.7a0.73,0.73,0,0,1,.6-0.55,7.32,7.32,0,0,1,2.24,0,0.73,0.73,0,0,1,.6.54l0.17,0.71a0.59,0.59,0,0,0,.51.51,0.81,0.81,0,0,0,.41-0.13l0.61-.37a0.73,0.73,0,0,1,.81,0,7.18,7.18,0,0,1,1.59,1.59,0.73,0.73,0,0,1,0,.81l-0.37.61a0.67,0.67,0,0,0-.1.58,0.67,0.67,0,0,0,.48.34l0.7,0.17a0.73,0.73,0,0,1,.55.6,7.27,7.27,0,0,1,0,2.24,0.73,0.73,0,0,1-.55.6l-0.69.17a0.55,0.55,0,0,0-.38.92l0.37,0.61a0.73,0.73,0,0,1,0,.81,7.18,7.18,0,0,1-1.59,1.59,0.73,0.73,0,0,1-.81,0l-0.6-.37a0.83,0.83,0,0,0-.42-0.13,0.59,0.59,0,0,0-.51.52l-0.17.7a0.74,0.74,0,0,1-.59.55A7.5,7.5,0,0,1,13,20.19Zm-0.79-1a6.28,6.28,0,0,0,1.58,0l0.12-.52a1.57,1.57,0,0,1,2.42-1l0.45,0.28a6.17,6.17,0,0,0,1.12-1.12l-0.28-.45a1.54,1.54,0,0,1,1-2.42l0.52-.12a6.36,6.36,0,0,0,0-.79,6.22,6.22,0,0,0-.05-0.79l-0.52-.12a1.54,1.54,0,0,1-1-2.42l0.28-.45a6.15,6.15,0,0,0-1.12-1.12l-0.45.28a1.81,1.81,0,0,1-.94.28A1.55,1.55,0,0,1,13.9,7.36l-0.12-.52a6.38,6.38,0,0,0-1.58,0l-0.12.52a1.55,1.55,0,0,1-1.48,1.28,1.8,1.8,0,0,1-.94-0.28L9.2,8.08A6.19,6.19,0,0,0,8.09,9.2L8.36,9.66a1.54,1.54,0,0,1-1,2.42l-0.52.12a6.41,6.41,0,0,0-.05.79,6.29,6.29,0,0,0,.05.79L7.36,13.9a1.54,1.54,0,0,1,1,2.42l-0.28.45A6.16,6.16,0,0,0,9.2,17.89l0.45-.28a1.57,1.57,0,0,1,2.42,1ZM16.63,18h0ZM9.34,18h0ZM9,18H9Zm7.88,0h0ZM8,16.63H8ZM19.11,14h0Zm0.2-.22h0Zm-12.66,0h0ZM8,9.34H8ZM16.63,8h0ZM9.35,8h0ZM14,6.87h0ZM12,6.87h0Z"/><path class="cls-1" d="M13,15.48A2.49,2.49,0,1,1,15.48,13,2.5,2.5,0,0,1,13,15.48Zm0-4A1.49,1.49,0,1,0,14.48,13,1.49,1.49,0,0,0,13,11.5Z"/></svg>