<?xml version="1.0" encoding="utf-8"?>
<!-- Generator: Adobe Illustrator 19.1.0, SVG Export Plug-In . SVG Version: 6.00 Build 0)  -->
<svg version="1.1" id="Layer_1" xmlns="http://www.w3.org/2000/svg" xmlns:xlink="http://www.w3.org/1999/xlink" x="0px" y="0px"
	 viewBox="-85 168 26 26" style="enable-background:new -85 168 26 26;" xml:space="preserve">
<style type="text/css">
	.st0{fill:#2189CE;}
	.st1{fill:#FFFFFF;}
</style>
<circle class="st0" cx="-72" cy="181" r="13"/>
<title>icons</title>
<path class="st1" d="M-66.4,185.8l-2.9-2.9c0.7-0.9,1.1-1.9,1.1-3c0-2.7-2.2-4.9-4.9-4.9s-4.9,2.2-4.9,4.9s2.2,4.9,4.9,4.9
	c1.2,0,2.3-0.4,3.2-1.2l2.9,2.9c0.2,0.2,0.5,0.2,0.7,0S-66.2,186-66.4,185.8z M-73.2,183.8c-2.2,0-3.9-1.8-3.9-3.9
	c0-2.2,1.8-3.9,3.9-3.9s3.9,1.8,3.9,3.9C-69.3,182-71.1,183.8-73.2,183.8L-73.2,183.8z"/>
</svg>
