<svg id="Layer_1" data-name="Layer 1" xmlns="http://www.w3.org/2000/svg" viewBox="0 0 28 28"><defs><style>.cls-1,.cls-2{fill:none;stroke:#9b9b9b;}.cls-1{stroke-miterlimit:10;}.cls-2{stroke-linecap:round;stroke-linejoin:round;}</style></defs><title>Untitled-1</title><circle class="cls-1" cx="14" cy="14" r="12.49"/><path class="cls-2" d="M20.61,13a0.23,0.23,0,0,0-.17-0.19l-0.7-.17a1,1,0,0,1-.69-1.67l0.37-.61a0.23,0.23,0,0,0,0-.25,6.67,6.67,0,0,0-1.48-1.48,0.23,0.23,0,0,0-.25,0l-0.61.37a1.31,1.31,0,0,1-.68.21,1.05,1.05,0,0,1-1-.9l-0.17-.7A0.23,0.23,0,0,0,15,7.39a6.79,6.79,0,0,0-2.09,0,0.23,0.23,0,0,0-.19.17l-0.17.7a1.05,1.05,0,0,1-1,.9,1.31,1.31,0,0,1-.68-0.21l-0.61-.37a0.23,0.23,0,0,0-.25,0,6.68,6.68,0,0,0-1.48,1.48,0.23,0.23,0,0,0,0,.25l0.37,0.61a1,1,0,0,1-.69,1.67l-0.7.17a0.23,0.23,0,0,0-.17.19,6.79,6.79,0,0,0,0,2.09,0.23,0.23,0,0,0,.17.19l0.7,0.17a1,1,0,0,1,.69,1.67l-0.37.61a0.23,0.23,0,0,0,0,.25,6.67,6.67,0,0,0,1.48,1.48,0.23,0.23,0,0,0,.25,0l0.61-.37a1.31,1.31,0,0,1,.68-0.21,1.05,1.05,0,0,1,1,.9l0.17,0.7a0.23,0.23,0,0,0,.19.17,6.79,6.79,0,0,0,2.09,0,0.23,0.23,0,0,0,.19-0.17l0.17-.7a1.05,1.05,0,0,1,1-.9,1.31,1.31,0,0,1,.68.21l0.61,0.37a0.23,0.23,0,0,0,.25,0,6.66,6.66,0,0,0,1.48-1.48,0.23,0.23,0,0,0,0-.25l-0.37-.61a1,1,0,0,1,.69-1.67l0.7-.17A0.23,0.23,0,0,0,20.61,15,6.79,6.79,0,0,0,20.61,13ZM14,16a2,2,0,1,1,2-2A2,2,0,0,1,14,16Z"/></svg>