<svg id="Layer_1" data-name="Layer 1" xmlns="http://www.w3.org/2000/svg" viewBox="0 0 25.98 25.98"><defs><style>.cls-1{fill:#9b9b9b;}</style></defs><title>icons</title><path class="cls-1" d="M13,26A13,13,0,1,1,26,13,13,13,0,0,1,13,26ZM13,1A12,12,0,1,0,25,13,12,12,0,0,0,13,1Z"/><path class="cls-1" d="M18.22,17h-1V12.54a4.23,4.23,0,1,0-8.46,0V17h-1V12.54a5.23,5.23,0,1,1,10.46,0V17Z"/><path class="cls-1" d="M19.08,17.56H6.9a0.5,0.5,0,0,1,0-1H19.08A0.5,0.5,0,0,1,19.08,17.56Z"/><path class="cls-1" d="M13,7.92a0.5,0.5,0,0,1-.5-0.5V5.48a0.5,0.5,0,0,1,1,0V7.42A0.5,0.5,0,0,1,13,7.92Z"/><path class="cls-1" d="M13,20.32a2.83,2.83,0,0,1-2.83-2.83,0.5,0.5,0,0,1,1,0,1.83,1.83,0,1,0,3.65,0,0.5,0.5,0,0,1,1,0A2.83,2.83,0,0,1,13,20.32Z"/></svg>