<?xml version="1.0" encoding="utf-8"?>
<!-- Generator: Adobe Illustrator 19.1.0, SVG Export Plug-In . SVG Version: 6.00 Build 0)  -->
<svg version="1.1" id="Layer_1" xmlns="http://www.w3.org/2000/svg" xmlns:xlink="http://www.w3.org/1999/xlink" x="0px" y="0px"
	 viewBox="-85 168 26 26" style="enable-background:new -85 168 26 26;" xml:space="preserve">
<style type="text/css">
	.st0{fill:#2189CE;}
	.st1{fill:#FFFFFF;}
</style>
<circle class="st0" cx="-72" cy="181" r="13"/>
<title>icons</title>
<path class="st1" d="M-74.1,188.2c0,0.4,0.3,0.8,0.8,0.8h3.1c0.4,0,0.8-0.3,0.8-0.8v-0.8h-4.6V188.2z"/>
<path class="st1" d="M-74.4,183.6v1.5c0,0.2,0.1,0.3,0.3,0.3l0,0h4.6c0.2,0,0.3-0.1,0.3-0.3l0,0v-2l0.2-0.1c2.2-1.6,2.8-4.6,1.2-6.9
	c-1.6-2.2-4.6-2.8-6.9-1.2c-0.3,0.2-0.6,0.5-0.8,0.7h-1.2c1.8-2.7,5.4-3.5,8.2-1.7c2.7,1.8,3.5,5.4,1.7,8.2
	c-0.4,0.6-0.8,1.1-1.4,1.5v1.5c0,0.7-0.6,1.3-1.3,1.3l0,0h-4.6c-0.7,0-1.3-0.6-1.3-1.3c0,0,0,0,0,0v-1.5H-74.4L-74.4,183.6z"/>
<path class="st1" d="M-69.3,179.9c-0.3,0-0.5-0.2-0.5-0.5c0-1.4-1.2-2.6-2.6-2.6c0,0,0,0,0,0c-0.3,0-0.5-0.2-0.5-0.5
	s0.2-0.5,0.5-0.5c2,0,3.6,1.6,3.6,3.6C-68.8,179.7-69,179.9-69.3,179.9C-69.3,179.9-69.3,179.9-69.3,179.9z"/>
<polygon class="st1" points="-76.7,182.6 -76.7,180.4 -78.9,180.4 -78.9,178.9 -76.7,178.9 -76.7,176.7 -75.2,176.7 -75.2,178.9
	-73,178.9 -73,180.4 -75.2,180.4 -75.2,182.6 "/>
</svg>
