<?xml version="1.0" encoding="utf-8"?>
<!-- Generator: Adobe Illustrator 19.1.0, SVG Export Plug-In . SVG Version: 6.00 Build 0)  -->
<svg version="1.1" id="Layer_1" xmlns="http://www.w3.org/2000/svg" xmlns:xlink="http://www.w3.org/1999/xlink" x="0px" y="0px"
	 viewBox="-85 168 26 26" style="enable-background:new -85 168 26 26;" xml:space="preserve">
<style type="text/css">
	.st0{fill:#2189CE;}
	.st1{fill:#FFFFFF;}
</style>
<circle class="st0" cx="-72" cy="181" r="13"/>
<title>icons</title>
<path class="st1" d="M-66.8,185h-1v-4.5c0-2.3-1.9-4.2-4.2-4.2c-2.3,0-4.2,1.9-4.2,4.2c0,0,0,0,0,0v4.5h-1v-4.5
	c0-2.9,2.3-5.2,5.2-5.2s5.2,2.3,5.2,5.2V185z"/>
<path class="st1" d="M-65.9,185.6h-12.2c-0.3,0-0.5-0.2-0.5-0.5s0.2-0.5,0.5-0.5h12.2c0.3,0,0.5,0.2,0.5,0.5S-65.6,185.6-65.9,185.6
	z"/>
<path class="st1" d="M-72,175.9c-0.3,0-0.5-0.2-0.5-0.5v-1.9c0-0.3,0.2-0.5,0.5-0.5s0.5,0.2,0.5,0.5v1.9
	C-71.5,175.7-71.7,175.9-72,175.9z"/>
<path class="st1" d="M-72,188.3c-1.6,0-2.8-1.3-2.8-2.8c0-0.3,0.2-0.5,0.5-0.5c0.3,0,0.5,0.2,0.5,0.5c-0.1,1,0.7,1.9,1.7,2
	c1,0.1,1.9-0.7,2-1.7c0-0.1,0-0.2,0-0.3c0-0.3,0.2-0.5,0.5-0.5s0.5,0.2,0.5,0.5C-69.2,187.1-70.4,188.3-72,188.3z"/>
</svg>
