<svg id="Layer_1" data-name="Layer 1" xmlns="http://www.w3.org/2000/svg" viewBox="0 0 25.98 25.98"><defs><style>.cls-1{fill:#9b9b9b;}</style></defs><title>icons</title><path class="cls-1" d="M13,26A13,13,0,1,1,26,13,13,13,0,0,1,13,26ZM13,1A12,12,0,1,0,25,13,12,12,0,0,0,13,1Z"/><path class="cls-1" d="M18.56,17.79l-2.92-2.92a4.88,4.88,0,0,0,1.07-3,4.93,4.93,0,1,0-4.93,4.93,4.88,4.88,0,0,0,3.16-1.18l2.91,2.91A0.5,0.5,0,0,0,18.56,17.79Zm-6.78-2a3.93,3.93,0,1,1,3.93-3.93A3.93,3.93,0,0,1,11.78,15.76Z"/></svg>