<?xml version="1.0" encoding="utf-8"?>
<!-- Generator: Adobe Illustrator 19.1.0, SVG Export Plug-In . SVG Version: 6.00 Build 0)  -->
<svg version="1.1" id="Layer_1" xmlns="http://www.w3.org/2000/svg" xmlns:xlink="http://www.w3.org/1999/xlink" x="0px" y="0px"
	 viewBox="-85 168 26 26" style="enable-background:new -85 168 26 26;" xml:space="preserve">
<style type="text/css">
	.st0{fill:#2189CE;}
	.st1{fill:#FFFFFF;}
</style>
<circle class="st0" cx="-72" cy="181" r="13"/>
<title>icons</title>
<path class="st1" d="M-72,188.2c-0.4,0-0.7,0-1.1-0.1c-0.3,0-0.5-0.3-0.6-0.6l-0.2-0.7c0-0.3-0.2-0.5-0.5-0.5c-0.1,0-0.3,0-0.4,0.1
	l-0.6,0.4c-0.2,0.2-0.6,0.2-0.8,0c-0.6-0.4-1.1-1-1.6-1.6c-0.2-0.2-0.2-0.6,0-0.8l0.4-0.6c0.2-0.2,0.2-0.6,0-0.8
	c-0.1-0.1-0.2-0.1-0.3-0.1l-0.7-0.2c-0.3-0.1-0.5-0.3-0.5-0.6c-0.1-0.7-0.1-1.5,0-2.2c0-0.3,0.3-0.5,0.5-0.6l0.7-0.2
	c0.2,0,0.4-0.2,0.5-0.3c0.1-0.2,0-0.4-0.1-0.6l-0.4-0.6c-0.2-0.2-0.2-0.6,0-0.8c0.5-0.6,1-1.1,1.6-1.6c0.2-0.2,0.6-0.2,0.8,0
	l0.6,0.4c0.1,0.1,0.3,0.1,0.4,0.1c0.3,0,0.5-0.2,0.5-0.5l0.2-0.7c0.1-0.3,0.3-0.5,0.6-0.6c0.7-0.1,1.5-0.1,2.2,0
	c0.3,0,0.5,0.3,0.6,0.5l0.2,0.7c0,0.3,0.2,0.5,0.5,0.5c0.1,0,0.3-0.1,0.4-0.1l0.6-0.4c0.2-0.2,0.6-0.2,0.8,0c0.6,0.4,1.1,1,1.6,1.6
	c0.2,0.2,0.2,0.6,0,0.8l-0.4,0.6c-0.1,0.2-0.2,0.4-0.1,0.6c0.1,0.2,0.3,0.3,0.5,0.3l0.7,0.2c0.3,0.1,0.5,0.3,0.5,0.6
	c0.1,0.7,0.1,1.5,0,2.2c0,0.3-0.3,0.5-0.5,0.6l-0.7,0.2c-0.3,0-0.5,0.3-0.5,0.6c0,0.1,0.1,0.2,0.1,0.3l0.4,0.6
	c0.2,0.2,0.2,0.6,0,0.8c-0.4,0.6-1,1.1-1.6,1.6c-0.2,0.2-0.6,0.2-0.8,0l-0.6-0.4c-0.1-0.1-0.3-0.1-0.4-0.1c-0.3,0-0.5,0.2-0.5,0.5
	l-0.2,0.7c-0.1,0.3-0.3,0.5-0.6,0.6C-71.2,188.2-71.6,188.2-72,188.2z M-72.8,187.2c0.5,0.1,1.1,0.1,1.6,0l0.1-0.5
	c0.2-0.9,1-1.4,1.8-1.2c0.2,0,0.4,0.1,0.6,0.2l0.4,0.3c0.4-0.3,0.8-0.7,1.1-1.1l-0.3-0.4c-0.5-0.7-0.3-1.7,0.3-2.1
	c0.2-0.1,0.4-0.2,0.7-0.3l0.5-0.1c0-0.3,0-0.5,0-0.8c0-0.3,0-0.5,0-0.8l-0.5-0.1c-0.8-0.1-1.4-0.9-1.3-1.8c0-0.2,0.1-0.5,0.3-0.7
	l0.3-0.4c-0.3-0.4-0.7-0.8-1.1-1.1l-0.5,0.3c-0.3,0.2-0.6,0.3-0.9,0.3c-0.7,0-1.3-0.6-1.4-1.4l-0.1-0.5c-0.5-0.1-1.1-0.1-1.6,0
	l-0.1,0.5c-0.1,0.7-0.7,1.3-1.5,1.3c-0.3,0-0.7-0.1-0.9-0.3l-0.5-0.3c-0.4,0.3-0.8,0.7-1.1,1.1l0.3,0.5c0.5,0.7,0.3,1.7-0.3,2.1
	c-0.2,0.1-0.4,0.2-0.7,0.3l-0.5,0.1c0,0.3,0,0.5,0,0.8c0,0.3,0,0.5,0,0.8l0.5,0.1c0.8,0.1,1.4,0.9,1.3,1.8c0,0.2-0.1,0.5-0.3,0.7
	l-0.3,0.5c0.3,0.4,0.7,0.8,1.1,1.1l0.5-0.3c0.7-0.5,1.7-0.3,2.2,0.4c0.1,0.2,0.2,0.4,0.2,0.6L-72.8,187.2z M-68.4,186L-68.4,186z
	 M-75.7,186L-75.7,186z M-76,186L-76,186z M-68.1,186L-68.1,186z M-77,184.7L-77,184.7z M-65.9,182L-65.9,182z M-65.7,181.8
	L-65.7,181.8z M-78.3,181.8L-78.3,181.8z M-77,177.4L-77,177.4z M-68.4,176L-68.4,176z M-75.7,176L-75.7,176z M-71,174.9L-71,174.9z
	 M-73,174.9L-73,174.9z"/>
<path class="st1" d="M-72,183.5c-1.4,0-2.5-1.1-2.5-2.5c0-1.4,1.1-2.5,2.5-2.5c1.4,0,2.5,1.1,2.5,2.5c0,0,0,0,0,0
	C-69.5,182.4-70.6,183.5-72,183.5z M-72,179.5c-0.8,0-1.5,0.7-1.5,1.5c0,0.8,0.7,1.5,1.5,1.5c0.8,0,1.5-0.6,1.5-1.5
	C-70.5,180.2-71.2,179.5-72,179.5C-72,179.5-72,179.5-72,179.5L-72,179.5z"/>
</svg>
