<svg xmlns="http://www.w3.org/2000/svg" xmlns:xlink="http://www.w3.org/1999/xlink" width="24" height="24" viewBox="0 0 24 24">
    <defs>
        <path id="a" d="M13 24h-1.09a.546.546 0 0 1 0-1.09H13A.546.546 0 0 1 13 24zm-.545-19.636a7.1 7.1 0 0 1 7.09 7.09 7.089 7.089 0 0 1-4.909 6.743v.894a.546.546 0 0 1-.545.545h-3.273a.546.546 0 0 1-.545-.545v-.894a7.086 7.086 0 0 1-4.91-6.742 7.1 7.1 0 0 1 7.092-7.091zm1.636 16.363a.546.546 0 0 1 0 1.091h-3.273a.546.546 0 0 1 0-1.09h3.273zM12.455 3.273a.546.546 0 0 1-.546-.546V.545a.546.546 0 0 1 1.091 0v2.182a.546.546 0 0 1-.545.546zm10.909 7.636a.546.546 0 0 1 0 1.091h-2.182a.546.546 0 0 1 0-1.09h2.182zm-19.637 0a.546.546 0 0 1 0 1.091H1.545a.546.546 0 0 1 0-1.09h2.182zm2.17-5.238L3.582 3.356a.547.547 0 0 1 0-.772.544.544 0 0 1 .77 0l2.315 2.315a.547.547 0 0 1-.385.932.548.548 0 0 1-.387-.16zm12.727.16a.547.547 0 0 1-.386-.932l2.316-2.315a.544.544 0 0 1 .771 0 .547.547 0 0 1 0 .772L19.01 5.671a.548.548 0 0 1-.386.16z"/>
    </defs>
    <use fill="#1177B8" fill-rule="evenodd" xlink:href="#a"/>
</svg>
