<svg id="Layer_1" data-name="Layer 1" xmlns="http://www.w3.org/2000/svg" viewBox="0 0 248 284.77"><defs><style>.cls-1{fill:#2487c9;}.cls-2{fill:#1778b0;}.cls-3{fill:#fff;}.cls-4{fill:#9b9a9a;}.cls-5{fill:#e1e1e3;}.cls-6{fill:none;stroke:#e0eaf7;stroke-miterlimit:10;}.cls-7{fill:#f9c144;}</style></defs><title>no_notes</title><circle class="cls-1" cx="124" cy="142.38" r="124"/><path class="cls-2" d="M678.33,539c-49-13.63-100.58-27.27-154-40.9,24.11-72.66-2.54-145.32,45-218,49,13.63,100.58,27.27,154,40.9C699.24,393.64,725.88,466.3,678.33,539Z" transform="translate(-488 -254.19)"/><path class="cls-3" d="M673.92,532.06c-49-13.63-100.58-27.27-154-40.9,24.11-72.66-2.54-145.32,45-218,49,13.63,100.58,27.27,154,40.9C694.82,386.75,721.47,459.4,673.92,532.06Z" transform="translate(-488 -254.19)"/><path class="cls-3" d="M669.75,525.11c-49-13.63-100.58-27.27-154-40.9,24.11-72.66-2.54-145.32,45-218,49,13.63,100.58,27.27,154,40.9C690.65,379.79,717.3,452.45,669.75,525.11Z" transform="translate(-488 -254.19)"/><path class="cls-3" d="M664.47,517.88c-49-13.63-100.58-27.27-154-40.9,24.11-72.66-2.54-145.32,45-218,49,13.63,100.58,27.27,154,40.9C685.37,372.56,712,445.22,664.47,517.88Z" transform="translate(-488 -254.19)"/><circle class="cls-4" cx="564.02" cy="275.65" r="7.13" transform="translate(-328.27 501.72) rotate(-75.95)"/><circle class="cls-4" cx="585.29" cy="280.97" r="7.13" transform="translate(-317.32 526.39) rotate(-75.95)"/><circle class="cls-4" cx="606.57" cy="286.29" r="7.13" transform="translate(-306.38 551.06) rotate(-75.95)"/><circle class="cls-4" cx="627.84" cy="291.62" r="7.13" transform="translate(-295.43 575.73) rotate(-75.95)"/><circle class="cls-4" cx="649.12" cy="296.94" r="7.13" transform="translate(-284.48 600.4) rotate(-75.95)"/><circle class="cls-4" cx="670.39" cy="302.26" r="7.13" transform="translate(-273.53 625.07) rotate(-75.95)"/><circle class="cls-4" cx="691.67" cy="307.58" r="7.13" transform="translate(-262.58 649.74) rotate(-75.95)"/><rect class="cls-5" x="562.44" y="254" width="7.68" height="25.22" rx="3.5" ry="3.5" transform="translate(-406.37 -383.65) rotate(14.05)"/><rect class="cls-5" x="583.72" y="259.32" width="7.68" height="25.22" rx="3.5" ry="3.5" transform="translate(-404.44 -388.65) rotate(14.05)"/><rect class="cls-5" x="604.99" y="264.64" width="7.68" height="25.22" rx="3.5" ry="3.5" transform="translate(-402.51 -393.66) rotate(14.05)"/><rect class="cls-5" x="626.27" y="269.96" width="7.68" height="25.22" rx="3.5" ry="3.5" transform="translate(-400.58 -398.66) rotate(14.05)"/><rect class="cls-5" x="647.54" y="275.29" width="7.68" height="25.22" rx="3.5" ry="3.5" transform="translate(-398.66 -403.67) rotate(14.05)"/><rect class="cls-5" x="668.82" y="280.61" width="7.68" height="25.22" rx="3.5" ry="3.5" transform="translate(-396.73 -408.67) rotate(14.05)"/><rect class="cls-5" x="690.09" y="285.93" width="7.68" height="25.22" rx="3.5" ry="3.5" transform="translate(-394.8 -413.67) rotate(14.05)"/><path class="cls-6" d="M534.61,303.49c53.51,13.59,108.71,27.17,164.81,40.76" transform="translate(-488 -254.19)"/><path class="cls-6" d="M529.12,325.73c55.12,13.59,111.5,27.17,168.32,40.76" transform="translate(-488 -254.19)"/><path class="cls-6" d="M525.88,348c56.25,13.59,113.31,27.17,170.36,40.76" transform="translate(-488 -254.19)"/><path class="cls-6" d="M524.08,370.22C581,383.81,638.23,397.39,695,411" transform="translate(-488 -254.19)"/><path class="cls-6" d="M522.94,392.46C580,406,637,419.63,693,433.22" transform="translate(-488 -254.19)"/><path class="cls-6" d="M521.66,414.7c56.72,13.59,112.9,27.17,167.75,40.76" transform="translate(-488 -254.19)"/><path class="cls-6" d="M519.43,436.95c55.9,13.59,110.82,27.17,164,40.76" transform="translate(-488 -254.19)"/><path class="cls-6" d="M515.47,459.19c54.59,13.59,107.77,27.17,158.71,40.76" transform="translate(-488 -254.19)"/><polygon class="cls-7" points="33.13 103.9 25.75 120.14 18.37 103.9 2.13 96.52 18.37 89.14 25.75 72.91 33.13 89.14 49.37 96.52 33.13 103.9"/><polygon class="cls-7" points="66.72 84.36 61.17 96.52 55.63 84.36 43.46 78.81 55.63 73.26 61.17 61.1 66.72 73.26 78.89 78.81 66.72 84.36"/><polygon class="cls-7" points="229.37 208.73 223.82 220.9 218.27 208.73 206.1 203.18 218.27 197.63 223.82 185.47 229.37 197.63 241.53 203.18 229.37 208.73"/></svg>