<?xml version="1.0" encoding="UTF-8"?>
<svg width="121px" height="121px" viewBox="0 0 121 121" version="1.1" xmlns="http://www.w3.org/2000/svg" xmlns:xlink="http://www.w3.org/1999/xlink">
    <!-- Generator: sketchtool 42 (36781) - http://www.bohemiancoding.com/sketch -->
    <title>22C132A6-F976-4B28-91D3-B155FBBC5BCF</title>
    <desc>Created with sketchtool.</desc>
    <defs></defs>
    <g id="Page-1" stroke="none" stroke-width="1" fill="none" fill-rule="evenodd" stroke-linecap="round" stroke-linejoin="round">
        <g id="notes-error" transform="translate(-1147.000000, -360.000000)" stroke="#FFFFFF" stroke-width="4">
            <g id="error-ico" transform="translate(1149.000000, 362.000000)">
                <path d="M117,58.5 C117,90.8123478 90.8072609,117 58.5,117 C26.1876522,117 0,90.8123478 0,58.5 C0,26.1876522 26.1876522,0 58.5,0 C90.8072609,0 117,26.1876522 117,58.5 L117,58.5 Z" id="Stroke-2246"></path>
                <path d="M28,40 L44,40" id="Stroke-2247"></path>
                <path d="M35,33 L35,49" id="Stroke-2248"></path>
                <path d="M74,40 L89,40" id="Stroke-2249"></path>
                <path d="M82,33 L82,49" id="Stroke-2250"></path>
                <path d="M30,92 C30,76.81175 36.3585455,71 45.2727273,71 C60.7389091,71 55.256,92 70.7272727,92 C79.6567273,92 86,86.18825 86,71" id="Stroke-2251"></path>
            </g>
        </g>
    </g>
</svg>