<svg id="Icons" xmlns="http://www.w3.org/2000/svg" viewBox="0 0 18 26.96"><defs><style>.cls-1{fill:#fac245;}</style></defs><title>icons</title><g id="Notification"><path class="cls-1" d="M6,26a1,1,0,0,0,1,1h4a1,1,0,0,0,1-1V25H6v1Z"/><path class="cls-1" d="M9,7a7,7,0,0,0-4,12.7V22a1,1,0,0,0,1,1h6a1,1,0,0,0,1-1V19.73A7,7,0,0,0,9,7ZM13,15.23a0.78,0.78,0,0,1-.78-0.78,3.64,3.64,0,0,0-3.64-3.64,0.78,0.78,0,1,1,0-1.56,5.2,5.2,0,0,1,5.19,5.19A0.78,0.78,0,0,1,13,15.23Z"/><path class="cls-1" d="M9,5A1,1,0,0,1,8,4V1A1,1,0,1,1,10,1V4A1,1,0,0,1,9,5Z"/><path class="cls-1" d="M14.86,6.56a1,1,0,0,1-.73-1.77l2.1-2.1A1,1,0,1,1,17.7,4.15l-2.1,2.1A1,1,0,0,1,14.86,6.56Z"/><path class="cls-1" d="M3.14,6.56a1,1,0,0,1-.73-0.3L0.3,4.15A1,1,0,0,1,1.77,2.69l2.1,2.1A1,1,0,0,1,3.14,6.56Z"/></g></svg>