<?xml version="1.0" encoding="utf-8"?>
<!-- Generator: Adobe Illustrator 19.1.0, SVG Export Plug-In . SVG Version: 6.00 Build 0)  -->
<svg version="1.1" id="Layer_1" xmlns="http://www.w3.org/2000/svg" xmlns:xlink="http://www.w3.org/1999/xlink" x="0px" y="0px"
	 viewBox="0 0 20 20" enable-background="new 0 0 20 20" xml:space="preserve">
<path fill="#2487C9" d="M18,0H2C0.9,0,0,0.9,0,2l0,18l4-4h14c1.1,0,2-0.9,2-2V2C20,0.9,19.1,0,18,0z M6,12H4v-2h2V12z M6,9H4V7h2V9z
	 M6,6H4V4h2V6z M13,12H8v-2h5V12z M16,9H8V7h8V9z M16,6H8V4h8V6z"/>
</svg>
