<?xml version="1.0" encoding="utf-8"?>
<!-- Generator: Adobe Illustrator 19.1.0, SVG Export Plug-In . SVG Version: 6.00 Build 0)  -->
<svg version="1.1" id="Layer_1" xmlns="http://www.w3.org/2000/svg" xmlns:xlink="http://www.w3.org/1999/xlink" x="0px" y="0px"
	 viewBox="-885 1161 20 20" style="enable-background:new -885 1161 20 20;" xml:space="preserve">
<style type="text/css">
	.st0{fill:#9B9B9B;}
</style>
<path class="st0" d="M-867,1161h-16c-1.1,0-2,0.9-2,2v18l4-4h14c1.1,0,2-0.9,2-2v-12C-865,1161.9-865.9,1161-867,1161z M-879,1173
	h-2v-2h2V1173z M-879,1170h-2v-2h2V1170z M-879,1167h-2v-2h2V1167z M-872,1173h-5v-2h5V1173z M-869,1170h-8v-2h8V1170z M-869,1167
	h-8v-2h8V1167z"/>
</svg>
