<?xml version="1.0" encoding="utf-8"?>
<!-- Generator: Adobe Illustrator 19.1.0, SVG Export Plug-In . SVG Version: 6.00 Build 0)  -->
<svg version="1.1" id="Layer_1" xmlns="http://www.w3.org/2000/svg" xmlns:xlink="http://www.w3.org/1999/xlink" x="0px" y="0px"
	 viewBox="0 0 8 28" enable-background="new 0 0 8 28" xml:space="preserve">
<g>
	<path fill="#F8B62B" d="M6.9,9.4C6.4,8.5,6.3,6.6,6.3,6.6L5.6,2.5C5.8,2.5,6,2.3,6,2.1V2c0-0.2-0.2-0.4-0.4-0.4H5.5L5.4,0.9H4H4
		H2.6L2.5,1.6H2.4C2.2,1.6,2,1.8,2,2v0.2c0,0.2,0.2,0.4,0.4,0.4L1.7,6.6c0,0-0.2,1.9-0.7,2.8C0.6,10.2,0,10.6,0,13.1s0,12.3,0,12.3
		S0,28,1.8,28c0.8,0,1.4,0,1.8,0c0.6,0,0.8,0,0.8,0c0.4,0,1,0,1.8,0C8,28,8,25.4,8,25.4s0-9.7,0-12.3S7.4,10.2,6.9,9.4z"/>
	<path fill="#F8B62B" d="M5.9,0.8C5.8,0.3,5.7,0.2,5.4,0.1C5.3,0.1,4.7,0,4,0C3.3,0,2.7,0.1,2.6,0.1C2.3,0.2,2.2,0.3,2.1,0.8v0.3
		C2.1,1.1,2.9,1,4,1c1.1,0,1.9,0.1,1.9,0.1V0.8z"/>
</g>
</svg>
