<svg id="Icons" xmlns="http://www.w3.org/2000/svg" viewBox="0 0 13 13"><defs><style>.cls-1{fill:#1588d1;}</style></defs><title>icons</title><path class="cls-1" d="M11.17,13H1.83A1.84,1.84,0,0,1,0,11.17V1.83A1.84,1.84,0,0,1,1.83,0h9.33A1.84,1.84,0,0,1,13,1.83v9.33A1.84,1.84,0,0,1,11.17,13ZM1.83,1A0.83,0.83,0,0,0,1,1.83v9.33a0.83,0.83,0,0,0,.83.83h9.33A0.83,0.83,0,0,0,12,11.17V1.83A0.83,0.83,0,0,0,11.17,1H1.83Z"/><polygon class="cls-1" points="4.17 7.5 5.83 9.51 8.17 6.5 11.17 10.5 1.83 10.5 4.17 7.5"/><circle class="cls-1" cx="4.19" cy="4.25" r="1.5"/></svg>