<svg xmlns="http://www.w3.org/2000/svg" width="15" height="15" viewBox="0 0 15 15">
    <g fill="#1177B8" fill-rule="nonzero">
        <path d="M14.688 14.375h-.313V5.312A.313.313 0 0 0 14.062 5h-1.874a.313.313 0 0 0-.313.313v9.062h-1.25V9.687a.313.313 0 0 0-.313-.312H8.438a.313.313 0 0 0-.313.313v4.687h-1.25V8.437a.313.313 0 0 0-.313-.312H4.688a.313.313 0 0 0-.312.313v5.937h-1.25v-2.813a.313.313 0 0 0-.313-.312H.938a.313.313 0 0 0-.313.313v2.812H.312a.313.313 0 0 0 0 .625h14.376a.313.313 0 0 0 0-.625z"/>
        <path d="M1.875 8.125a.934.934 0 0 0 .876-1.261L5.15 4.866a.92.92 0 0 0 1.211-.23l2.08.693c.009.51.424.921.935.921a.934.934 0 0 0 .81-1.402l2.604-3.039a.935.935 0 0 0 1.274-.871.939.939 0 0 0-.938-.938.934.934 0 0 0-.81 1.402L9.711 4.44a.922.922 0 0 0-1.072.298l-2.078-.692a.935.935 0 1 0-1.812.34L2.35 6.384a.934.934 0 0 0-1.413.803c0 .517.42.938.937.938z"/>
    </g>
</svg>
