<?xml version="1.0" encoding="utf-8"?>
<!-- Generator: Adobe Illustrator 19.1.0, SVG Export Plug-In . SVG Version: 6.00 Build 0)  -->
<svg version="1.1" id="Icons" xmlns="http://www.w3.org/2000/svg" xmlns:xlink="http://www.w3.org/1999/xlink" x="0px" y="0px"
	 viewBox="-313 563 11.2 12" style="enable-background:new -313 563 11.2 12;" xml:space="preserve">
<style type="text/css">
	.st0{fill:#D4D4D4;}
</style>
<title>icons</title>
<g id="Actions">
	<path class="st0" d="M-302.2,563L-302.2,563c-0.3,0-0.5,0.2-0.5,0.5v3c-1.6-2.6-5-3.4-7.6-1.8c-2,1.2-3,3.5-2.5,5.8
		c0.5,2.6,2.8,4.5,5.4,4.5c0.4,0,0.7,0,1.1-0.1c1.3-0.2,2.4-0.9,3.2-1.9c0.2-0.2,0.1-0.5-0.1-0.7c-0.2-0.2-0.5-0.1-0.7,0.1l0,0
		c-1.6,2-4.5,2.2-6.4,0.7c-2-1.6-2.2-4.5-0.7-6.4c1.6-2,4.5-2.2,6.4-0.7c0.5,0.4,0.9,0.9,1.2,1.4h-3.2l0,0c-0.3,0-0.5,0.2-0.5,0.5
		c0,0.3,0.2,0.5,0.5,0.5l4.4,0l0,0c0.3,0,0.5-0.2,0.5-0.5l0-4.4C-301.7,563.3-301.9,563-302.2,563C-302.2,563-302.2,563-302.2,563z"
		/>
</g>
</svg>
