<?xml version="1.0" encoding="utf-8"?>
<!-- Generator: Adobe Illustrator 19.1.0, SVG Export Plug-In . SVG Version: 6.00 Build 0)  -->
<svg version="1.1" id="Icons" xmlns="http://www.w3.org/2000/svg" xmlns:xlink="http://www.w3.org/1999/xlink" x="0px" y="0px"
	 viewBox="-312 563 13.6 11" style="enable-background:new -312 563 13.6 11;" xml:space="preserve">
<style type="text/css">
	.st0{fill:#D4D4D4;}
</style>
<title>icons</title>
<g id="Actions">
	<path class="st0" d="M-298.9,574h-4.9c-0.3,0-0.5-0.2-0.5-0.5s0.2-0.5,0.5-0.5h4.4v-9h-4.4c-0.3,0-0.5-0.2-0.5-0.5s0.2-0.5,0.5-0.5
		h4.9c0.3,0,0.5,0.2,0.5,0.5v10C-298.4,573.8-298.7,574-298.9,574C-298.9,574-298.9,574-298.9,574z"/>
	<path class="st0" d="M-303.4,568.2l-2.9-2.9c-0.2-0.2-0.5-0.2-0.7,0c-0.2,0.2-0.2,0.5,0,0.7l2.1,2.1h-6.5c-0.3,0-0.5,0.2-0.5,0.5
		s0.2,0.5,0.5,0.5h6.5l-2.1,2.1c-0.2,0.2-0.2,0.5,0,0.7c0.2,0.2,0.5,0.2,0.7,0l2.9-3C-303.2,568.7-303.2,568.3-303.4,568.2z"/>
</g>
</svg>
