<?xml version="1.0" encoding="utf-8"?>
<!-- Generator: Adobe Illustrator 19.1.0, SVG Export Plug-In . SVG Version: 6.00 Build 0)  -->
<svg version="1.1" id="Layer_1" xmlns="http://www.w3.org/2000/svg" xmlns:xlink="http://www.w3.org/1999/xlink" x="0px" y="0px"
	 viewBox="0 0 23 24.4" enable-background="new 0 0 23 24.4" xml:space="preserve">
<g>
	<g>
		<polygon fill="#597699" points="0,12 0,24.4 11.5,18.2 		"/>
	</g>
	<g>
		<polygon fill="#83D0A1" points="23,24.4 23,12 11.5,18.2 		"/>
	</g>
	<g>
		<polygon fill="#41B76F" points="11.5,0 23,0 23,12 11.5,18.2 		"/>
	</g>
	<g>
		<polygon fill="#002D62" points="11.5,18.2 0,12 0,0 11.5,0 		"/>
	</g>
	<g>
		<path fill="#FFFFFF" d="M7.2,3.8h1.5c0.1,0,0.2,0.1,0.2,0.2v6c0,0.1-0.1,0.2-0.2,0.2H7.9c-0.1,0-0.2-0.1-0.2-0.2V5.3h0l-1,3.4
			c0,0.1-0.1,0.2-0.2,0.2H5.5c-0.1,0-0.2-0.1-0.2-0.2l-1-3.4h0V10c0,0.1,0,0.1,0,0.2c0,0-0.1,0-0.2,0H3.1c-0.1,0-0.2-0.1-0.2-0.2V4
			c0-0.1,0.1-0.2,0.2-0.2h1.5c0.1,0,0.2,0,0.2,0.1l1.1,3.5h0.1L7,3.9C7,3.8,7.1,3.8,7.2,3.8z"/>
	</g>
	<g>
		<path fill="#FFFFFF" d="M16.4,10.2h-0.8c-0.1,0-0.2-0.1-0.2-0.2V4c0-0.1,0.1-0.2,0.2-0.2h3.2c0.1,0,0.2,0.1,0.2,0.2v0.7
			c0,0.1-0.1,0.2-0.2,0.2h-2c-0.1,0-0.1,0-0.1,0.1v1.5c0,0.1,0,0.1,0.1,0.1h1.7c0.1,0,0.2,0.1,0.2,0.2v0.7c0,0.1-0.1,0.2-0.2,0.2
			h-1.7c-0.1,0-0.1,0-0.1,0.1V10C16.6,10.1,16.5,10.2,16.4,10.2z"/>
	</g>
</g>
</svg>
