<?xml version="1.0" encoding="utf-8"?>
<!-- Generator: Adobe Illustrator 19.1.0, SVG Export Plug-In . SVG Version: 6.00 Build 0)  -->
<svg version="1.1" id="Layer_1" xmlns="http://www.w3.org/2000/svg" xmlns:xlink="http://www.w3.org/1999/xlink" x="0px" y="0px"
	 viewBox="0 0 23 24.4" enable-background="new 0 0 23 24.4" xml:space="preserve">
<g>
	<g>
		<polygon fill="#83D0A1" points="0,12 0,24.4 11.5,18.2 		"/>
	</g>
	<g>
		<polygon fill="#83D0A1" points="23,24.4 23,12 11.5,18.2 		"/>
	</g>
	<g>
		<polygon fill="#41B76F" points="0,12 0,0 23,0 23,12 11.5,18.2 		"/>
	</g>
	<g>
		<path fill="#FFFFFF" d="M11.2,11.2h-0.9c-0.2,0-0.2-0.1-0.2-0.2V4.4c0-0.2,0.1-0.2,0.2-0.2h3.5c0.1,0,0.2,0.1,0.2,0.2v0.7
			c0,0.2-0.1,0.2-0.2,0.2h-2.2c-0.1,0-0.1,0-0.1,0.1v1.7c0,0.1,0,0.1,0.1,0.1h1.9c0.2,0,0.2,0.1,0.2,0.2v0.7c0,0.2-0.1,0.2-0.2,0.2
			h-1.9c-0.1,0-0.1,0-0.1,0.1V11C11.5,11.1,11.4,11.2,11.2,11.2z"/>
	</g>
</g>
</svg>
