<?xml version="1.0" encoding="utf-8"?>
<!-- Generator: Adobe Illustrator 19.1.0, SVG Export Plug-In . SVG Version: 6.00 Build 0)  -->
<svg version="1.1" id="Layer_1" xmlns="http://www.w3.org/2000/svg" xmlns:xlink="http://www.w3.org/1999/xlink" x="0px" y="0px"
	 viewBox="0 0 23 24.4" enable-background="new 0 0 23 24.4" xml:space="preserve">
<g>
	<polygon fill="#597699" points="0,12 0,24.4 11.5,18.2 	"/>
	<polygon fill="#597699" points="23,24.4 23,12 11.5,18.2 	"/>
	<polygon fill="#002D62" points="0,12 0,0 23,0 23,12 11.5,18.2 	"/>
	<g>
		<path fill="#FFFFFF" d="M12.9,4.1h1.6c0.2,0,0.2,0.1,0.2,0.2V11c0,0.2-0.1,0.2-0.2,0.2h-0.9c-0.2,0-0.2-0.1-0.2-0.2V5.8h0
			l-1.1,3.7c0,0.1-0.1,0.2-0.3,0.2H11c-0.1,0-0.2-0.1-0.3-0.2L9.6,5.8h0V11c0,0.1,0,0.1,0,0.2c0,0-0.1,0-0.2,0H8.4
			c-0.2,0-0.2-0.1-0.2-0.2V4.4c0-0.2,0.1-0.2,0.2-0.2h1.6c0.1,0,0.2,0.1,0.2,0.2l1.2,3.9h0.1l1.2-3.9C12.7,4.2,12.8,4.1,12.9,4.1z"
			/>
	</g>
</g>
</svg>
