<svg xmlns="http://www.w3.org/2000/svg" width="32" height="24" viewBox="0 0 32 24">
    <g fill="none" fill-rule="evenodd">
        <path fill="#1589D1" d="M25.722 15.893a.585.585 0 0 1-.585.584H2.923a.585.585 0 0 1-.585-.584V3.032c0-.323.262-.585.585-.585h22.214c.323 0 .585.262.585.585v12.86zM26.307.109H1.754C.787.109 0 .896 0 1.863v15.199c0 .967.787 1.754 1.754 1.754h9.938v2.338H8.184a.585.585 0 0 0 0 1.17h11.692a.585.585 0 0 0 0-1.17H16.37v-2.338h9.938c.967 0 1.753-.787 1.753-1.754v-15.2c0-.966-.786-1.753-1.753-1.753z"/>
        <path fill="#FFF" d="M18.46 16.109l2.385 1.986-.338 1.014H23v-3h-4.54zM28.32 12.534l-1.813-3.638a.717.717 0 0 0-.845-.357v7.472h2.658v-3.477z"/>
        <path fill="#1589D1" d="M31.663 15.327a.49.49 0 0 0-.46-.321h-3.11l-1.808-3.63a.495.495 0 0 0-.878.003l-1.808 3.63h-3.111a.49.49 0 0 0-.46.321.49.49 0 0 0 .148.541l2.67 2.224-1.357 4.066a.48.48 0 0 0 .729.555l3.63-2.482 3.626 2.479a.48.48 0 0 0 .728-.555l-1.356-4.066 2.67-2.223a.49.49 0 0 0 .147-.542"/>
    </g>
</svg>
