<?xml version="1.0" encoding="utf-8"?>
<!-- Generator: Adobe Illustrator 19.1.0, SVG Export Plug-In . SVG Version: 6.00 Build 0)  -->
<svg version="1.1" id="Layer_1" xmlns="http://www.w3.org/2000/svg" xmlns:xlink="http://www.w3.org/1999/xlink" x="0px" y="0px"
	 viewBox="-293 384 25 25" style="enable-background:new -293 384 25 25;" xml:space="preserve">
<style type="text/css">
	.st0{fill:#B4B4B4;}
	.st1{fill:#E1E1E3;}
</style>
<g>
	<polygon class="st0" points="-280.5,386 -278.5,384 -277.2,386.5 -274.8,385.2 -274.3,388 -271.6,387.6 -272,390.3 -269.2,390.8 
		-270.5,393.2 -268,394.5 -270,396.5 -268,398.5 -270.5,399.8 -269.2,402.2 -272,402.7 -271.6,405.4 -274.3,405 -274.8,407.8 
		-277.2,406.5 -278.5,409 -280.5,407 -282.5,409 -283.8,406.5 -286.2,407.8 -286.7,405 -289.4,405.4 -289,402.7 -291.8,402.2 
		-290.5,399.8 -293,398.5 -291,396.5 -293,394.5 -290.5,393.2 -291.8,390.8 -289,390.3 -289.4,387.6 -286.7,388 -286.2,385.2 
		-283.8,386.5 -282.5,384 	"/>
	<path class="st1" d="M-276.4,390.7c-0.1,0.1-0.1,0.1-0.2,0.2s-0.2,0.2-0.2,0.3c0,3.6,0,7.2,0,10.8c0,0.2,0,0.3,0.2,0.3
		c0.1,0,0.1,0.1,0.2,0.2c0,0,0,0-0.1,0.1c-0.8,0-1.5,0-2.4,0c0.1-0.1,0.1-0.2,0.2-0.3c0.1-0.1,0.2-0.2,0.2-0.3c0-2.7,0-5.3,0-8
		c0-0.1,0-0.1-0.1-0.2c-0.2,0.6-0.3,1.3-0.5,1.9c-0.5,2.2-1,4.4-1.6,6.6c-0.1,0.2-0.2,0.3-0.4,0.3c-0.6,0-0.6,0-0.8-0.6
		c-0.6-2.6-1.3-5.3-1.9-7.9c0-0.1,0-0.2-0.1-0.3c0,0.1,0,0.2,0,0.3c0,2.6,0,5.1,0,7.7c0,0.2,0,0.4,0.3,0.5c0,0,0.1,0.1,0.1,0.2
		l-0.1,0.1c-0.5,0-1.1,0-1.7,0c0.2,0,0.3-0.1,0.3-0.2c0.2-0.1,0.2-0.3,0.2-0.5c0-3.5,0-7.1,0-10.6c0-0.2,0-0.4-0.3-0.5
		c-0.1,0-0.1-0.1-0.2-0.2c0.7,0,1.2,0,1.8,0c0.8,0,0.8,0,1,0.7c0.6,2.2,1.2,4.4,1.7,6.6c0,0.1,0,0.2,0.1,0.3
		c0.2-0.8,0.4-1.4,0.5-2.1c0.4-1.8,0.9-3.5,1.3-5.3c0-0.2,0.1-0.3,0.3-0.3c0.6,0,1.1,0,1.7,0C-276.6,390.6-276.5,390.6-276.4,390.7
		L-276.4,390.7z M-280.5,398.5c0.3,0.1,0.2-0.1,0.3-0.3c0.6-2.3,1.2-4.7,1.7-7c0-0.2,0.1-0.3,0.3-0.3c0.4,0,0.8,0,1.2,0
		c0.1,0,0.2,0,0.3-0.1c-0.5-0.1-1.1,0-1.6-0.1c-0.2,0-0.3,0.1-0.4,0.3c-0.6,2.3-1.1,4.6-1.7,6.9
		C-280.4,398.1-280.4,398.3-280.5,398.5z M-284.8,402.5c0.2,0.1,0.3,0,0.3-0.3c0-3.6,0-7.3,0-10.9c0-0.1,0-0.2,0-0.3h-0.1
		c0,0.1,0,0.2,0,0.3c0,3.5,0,7.1,0,10.6C-284.6,402.2-284.7,402.4-284.8,402.5z M-278.2,393.9L-278.2,393.9
		c-0.1,0.1-0.1,0.2-0.1,0.3c0,2.6,0,5.1,0,7.7c0,0.2-0.1,0.4-0.1,0.6c0.2,0.1,0.2-0.1,0.2-0.3c0-2.7,0-5.4,0-8.1
		C-278.2,394.1-278.2,394-278.2,393.9z M-283.4,393.9C-283.4,393.9-283.5,393.9-283.4,393.9c0.6,2.9,1.3,5.7,2,8.6h0.1
		C-282,399.6-282.7,396.8-283.4,393.9z M-282.7,390.9v-0.1c-0.7,0-1.4,0-2.1,0v0.1C-284.1,390.9-283.4,390.9-282.7,390.9z"/>
</g>
</svg>
