<?xml version="1.0" encoding="utf-8"?>
<!-- Generator: Adobe Illustrator 19.1.0, SVG Export Plug-In . SVG Version: 6.00 Build 0)  -->
<svg version="1.1" id="Layer_1" xmlns="http://www.w3.org/2000/svg" xmlns:xlink="http://www.w3.org/1999/xlink" x="0px" y="0px"
	 viewBox="-298 390 14 14" style="enable-background:new -298 390 14 14;" xml:space="preserve">
<style type="text/css">
	.st0{fill:#FAC245;}
	.st1{fill:#FFFFFF;}
</style>
<g>
	<polygon class="st0" points="-291,391.1 -289.9,390 -289.2,391.4 -287.8,390.7 -287.5,392.2 -286,392 -286.2,393.5 -284.7,393.8 
		-285.4,395.2 -284,395.9 -285.1,397 -284,398.1 -285.4,398.8 -284.7,400.2 -286.2,400.5 -286,402 -287.5,401.8 -287.8,403.3 
		-289.2,402.6 -289.9,404 -291,402.9 -292.1,404 -292.8,402.6 -294.2,403.3 -294.5,401.8 -296,402 -295.8,400.5 -297.3,400.2 
		-296.6,398.8 -298,398.1 -296.9,397 -298,395.9 -296.6,395.2 -297.3,393.8 -295.8,393.5 -296,392 -294.5,392.2 -294.2,390.7 
		-292.8,391.4 -292.1,390 	"/>
	<path class="st1" d="M-292.3,399.6c1.1-0.1,0.8-0.9,0.8-1.6c0-0.9,0-1.9,0-2.8c0-0.4-0.2-0.5-0.5-0.5c-0.5,0-0.9,0.1-1.2,0.5
		c-0.1,0.2-0.3,0.2-0.4,0.3c0-0.1,0-0.3,0-0.4V395c0.3-0.9,0.3-0.9,1.3-0.9c1.1,0,2.2,0,3.3,0c0.4,0,0.6,0.1,0.6,0.5
		c0,0.1,0.1,0.2,0.1,0.3c0,0.2,0,0.3-0.1,0.5c-0.2-0.1-0.3-0.2-0.4-0.3c-0.3-0.2-1.1-0.4-1.5-0.2c0,0-0.1,0.1-0.1,0.2
		c0,1.3,0,2.5,0,3.8c0,0.3,0.2,0.4,0.5,0.5c0.1,0,0.2,0.2,0.3,0.3c-0.2,0.1-0.3,0.2-0.4,0.2c-0.6,0-1.3,0-1.9,0
		c-0.1,0-0.2-0.1-0.4-0.1C-292.3,399.7-292.3,399.7-292.3,399.6z"/>
</g>
</svg>
