<?xml version="1.0" encoding="utf-8"?>
<!-- Generator: Adobe Illustrator 19.1.0, SVG Export Plug-In . SVG Version: 6.00 Build 0)  -->
<svg version="1.1" id="Layer_1" xmlns="http://www.w3.org/2000/svg" xmlns:xlink="http://www.w3.org/1999/xlink" x="0px" y="0px"
	 viewBox="-298 390 14 14" style="enable-background:new -298 390 14 14;" xml:space="preserve">
<style type="text/css">
	.st0{fill:#FAC245;}
	.st1{fill:#FFFFFF;}
</style>
<g>
	<g>
		<polygon class="st0" points="-291,391.1 -289.9,390 -289.2,391.4 -287.8,390.7 -287.5,392.2 -286,392 -286.2,393.5 -284.7,393.8 
			-285.4,395.2 -284,395.9 -285.1,397 -284,398.1 -285.4,398.8 -284.7,400.2 -286.2,400.5 -286,402 -287.5,401.8 -287.8,403.3 
			-289.2,402.6 -289.9,404 -291,402.9 -292.1,404 -292.8,402.6 -294.2,403.3 -294.5,401.8 -296,402 -295.8,400.5 -297.3,400.2 
			-296.6,398.8 -298,398.1 -296.9,397 -298,395.9 -296.6,395.2 -297.3,393.8 -295.8,393.5 -296,392 -294.5,392.2 -294.2,390.7 
			-292.8,391.4 -292.1,390 		"/>
	</g>
	<g>
		<path class="st1" d="M-290.6,394.5L-290.6,394.5c-0.1,0.1-0.1,0.1-0.1,0.2c0,1.5,0,3,0,4.5c0,0.1,0,0.1,0.1,0.1l0.1,0.1l0,0
			c-0.3,0-0.6,0-1,0l0.1-0.1c0.1,0,0.1-0.1,0.1-0.1c0-1.1,0-2.2,0-3.3v-0.1c-0.2,0.3-0.3,0.5-0.3,0.8c-0.3,0.9-0.5,1.8-0.7,2.7
			c0,0.1-0.1,0.1-0.2,0.1c-0.3,0-0.3,0-0.3-0.3c-0.2-1-0.5-2.1-0.8-3.2v-0.1v0.1c0,1.1,0,2.1,0,3.2c0,0.1,0,0.2,0.1,0.2
			c0,0,0,0,0,0.1c0,0,0,0-0.1,0c-0.2,0-0.4,0-0.7,0c0,0,0-0.1,0.1-0.1c0.2,0,0.2-0.1,0.2-0.2c0-1.5,0-2.9,0-4.4c0-0.1,0-0.2-0.1-0.2
			c0,0,0-0.1-0.1-0.1c0.3,0,0.5,0,0.7,0c0.3,0,0.3,0,0.4,0.3c0.2,0.9,0.5,1.8,0.7,2.7v0.1c0.2-0.2,0.2-0.5,0.3-0.8
			c0.2-0.7,0.4-1.4,0.5-2.2c0-0.1,0.1-0.1,0.1-0.1c0.2,0,0.5,0,0.7,0C-290.7,394.4-290.6,394.4-290.6,394.5
			C-290.6,394.4-290.6,394.5-290.6,394.5z M-292.3,397.7c0.1,0,0.1-0.1,0.1-0.1c0.2-1,0.5-1.9,0.7-2.9c0-0.1,0-0.1,0.1-0.1
			c0.2,0,0.3,0,0.5,0h0.1c-0.2,0-0.4,0-0.7,0c-0.1,0-0.1,0-0.1,0.1c-0.1,0.9-0.4,1.8-0.6,2.7C-292.2,397.5-292.3,397.6-292.3,397.7z
			 M-294,399.4c0.1,0,0.1,0,0.1-0.1c0-1.5,0-3,0-4.5v-0.1l0,0v0.1c0,1.5,0,2.9,0,4.4C-294,399.2-294,399.3-294,399.4z M-291.3,395.8
			L-291.3,395.8v0.1c0,1.1,0,2.1,0,3.2c0,0.1,0,0.2-0.1,0.3c0.1,0,0.1,0,0.1-0.1c0-1.1,0-2.2,0-3.4V395.8z M-293.5,395.8
			L-293.5,395.8c0.3,1.2,0.5,2.4,0.8,3.6l0,0C-292.9,398.2-293.2,397-293.5,395.8z M-293.2,394.5L-293.2,394.5c-0.3,0-0.6,0-0.9,0
			l0,0C-293.8,394.5-293.5,394.5-293.2,394.5z"/>
		<path class="st1" d="M-288.7,395.2v-0.1h-0.1c0.1,0.1,0,0.1-0.1,0.2c-0.1,0.1-0.1,0.2-0.1,0.4c0,0.3,0,0.6,0,1c0,0.3,0,0.5,0,0.8
			c0,0.2,0,0.5,0,0.8c0,0.2,0.1,0.3,0.3,0.3c0.2,0.1,0.4-0.1,0.4-0.3c0-0.2,0-0.5,0-0.7c0-0.1,0-0.2,0.2-0.2c0.2,0,0.4,0,0.5,0
			s0.1,0,0.1,0.1c0,0.3,0,0.6,0,0.8c0,0.1-0.1,0.3-0.1,0.4c0,0.3-0.2,0.5-0.4,0.6c-0.2,0.1-0.3,0.1-0.5,0.1s-0.4,0-0.5,0
			c-0.2,0-0.4-0.2-0.5-0.3s-0.2-0.1-0.2-0.2c0,0-0.1,0-0.1-0.1c0-0.2-0.1-0.4-0.1-0.6c0-0.4,0-0.7,0-1.1c0-0.1,0-0.2,0-0.3
			c0-0.3,0-0.7,0-1c0-0.3,0-0.5,0.2-0.8c0.1-0.3,0.4-0.5,0.7-0.5c0.5-0.1,0.9,0,1.3,0.3c0.1,0.2,0.2,0.4,0.3,0.6c0,0.3,0,0.6,0,0.9
			l-0.1,0.1c-0.2,0-0.4,0-0.6,0c-0.2,0-0.2,0-0.2-0.2v-0.1c0-0.1,0-0.3,0-0.4c0-0.2-0.1-0.3-0.2-0.4
			C-288.6,395.2-288.6,395.2-288.7,395.2z M-289.5,396c0,0.1-0.1,0.1-0.1,0.2h0.1C-289.6,396.2-289.5,396.1-289.5,396
			C-289.5,396.1-289.5,396-289.5,396S-289.6,396-289.5,396C-289.6,395.9-289.6,395.9-289.5,396c0-0.1,0-0.1,0-0.2l0,0
			c0,0.1,0,0.1-0.1,0.2H-289.5z M-289.3,396.6C-289.2,396.6-289.2,396.5-289.3,396.6c0-0.1,0-0.1,0-0.1v-0.1h-0.1
			C-289.3,396.4-289.4,396.6-289.3,396.6z M-289.5,396.9c0-0.1,0.1-0.1,0-0.2c0,0,0,0,0-0.1C-289.6,396.6-289.6,396.7-289.5,396.9z
			 M-289.3,398.6c0,0.1,0.1,0.2,0.2,0.1h-0.1C-289.2,398.7-289.2,398.7-289.3,398.6C-289.2,398.6-289.2,398.6-289.3,398.6z
			 M-289.5,397.8c-0.1,0-0.1,0-0.2,0l0,0l0.1,0.1l0,0C-289.5,397.9-289.5,397.8-289.5,397.8z M-289.4,398.5c0-0.1-0.1-0.1-0.1-0.1
			h-0.1l0,0C-289.6,398.5-289.5,398.5-289.4,398.5z M-289.6,398.4c0-0.1-0.1-0.1-0.1-0.2c0,0,0,0-0.1,0c0,0,0.1,0,0.1,0.1
			C-289.7,398.4-289.6,398.4-289.6,398.4z M-289.3,395.3C-289.2,395.3-289.2,395.3-289.3,395.3L-289.3,395.3
			C-289.2,395.3-289.3,395.3-289.3,395.3C-289.3,395.2-289.3,395.2-289.3,395.3z M-289.7,396.5c0,0.1,0,0.1,0,0.2
			c0.1,0,0.1-0.1,0.1-0.1C-289.7,396.6-289.7,396.6-289.7,396.5z"/>
	</g>
</g>
</svg>
