<?xml version="1.0" encoding="utf-8"?>
<!-- Generator: Adobe Illustrator 19.1.0, SVG Export Plug-In . SVG Version: 6.00 Build 0)  -->
<svg version="1.1" id="Layer_1" xmlns="http://www.w3.org/2000/svg" xmlns:xlink="http://www.w3.org/1999/xlink" x="0px" y="0px"
	 viewBox="-298 390 14 14" style="enable-background:new -298 390 14 14;" xml:space="preserve">
<style type="text/css">
	.st0{fill:#FAC245;}
	.st1{fill:#FFFFFF;}
</style>
<g>
	<polygon class="st0" points="-291,391.1 -289.9,390 -289.2,391.4 -287.8,390.7 -287.5,392.2 -286,392 -286.2,393.5 -284.7,393.8 
		-285.4,395.2 -284,395.9 -285.1,397 -284,398.1 -285.4,398.8 -284.7,400.2 -286.2,400.5 -286,402 -287.5,401.8 -287.8,403.3 
		-289.2,402.6 -289.9,404 -291,402.9 -292.1,404 -292.8,402.6 -294.2,403.3 -294.5,401.8 -296,402 -295.8,400.5 -297.3,400.2 
		-296.6,398.8 -298,398.1 -296.9,397 -298,395.9 -296.6,395.2 -297.3,393.8 -295.8,393.5 -296,392 -294.5,392.2 -294.2,390.7 
		-292.8,391.4 -292.1,390 	"/>
	<g>
		<path class="st1" d="M-294.7,399.2c0.2-1.3,0.1-2.5,0.1-3.7c0-0.3-0.1-0.5-0.1-0.8c0.1,0,0.1,0,0.2,0c0.8,0,1.6,0,2.4,0
			c0.1,0,0.3,0.1,0.4,0.2l0.1,0.1c0.4,0.2,0.5,0.6,0.4,1c0,0.3-0.1,0.4-0.3,0.6c-0.2,0.1-0.2,0.2,0,0.4c0.3,0.2,0.4,0.5,0.4,0.9
			c0,0.5-0.1,0.8-0.5,1.1c-0.2,0.1-0.4,0.2-0.7,0.2c-0.7,0-1.4,0-2.1,0C-294.6,399.2-294.6,399.2-294.7,399.2z M-293.4,397.7
			c0,0.4,0,0.5,0.4,0.5s0.6-0.2,0.6-0.5c0-0.3-0.2-0.5-0.6-0.5C-293.4,397.3-293.4,397.3-293.4,397.7z M-293,396.4L-293,396.4
			c0.1,0,0.2,0,0.2-0.1c0.3,0,0.4-0.3,0.2-0.5c-0.1-0.2-0.6-0.3-0.8-0.2c0,0,0,0,0,0.1c0,0.2,0,0.4,0,0.6
			C-293.4,396.3-293.2,396.3-293,396.4z"/>
		<path class="st1" d="M-290.5,394.7c0.1,0,0.1,0,0.2,0c0.8,0,1.5,0,2.3,0c0.1,0,0.3,0.1,0.4,0.1c0.5,0.4,0.8,0.9,0.7,1.6
			c0,0.3-0.1,0.4-0.3,0.7c-0.4,0.5-0.9,0.7-1.5,0.6c-0.5-0.1-0.5,0-0.5,0.5c0,0.3,0.1,0.7,0.1,1c-0.5,0-0.9,0-1.4,0
			C-290.4,397.7-290.4,396.2-290.5,394.7z M-289.2,396.1c0,0.5,0,0.5,0.4,0.5c0.4,0,0.7-0.2,0.7-0.5c0-0.3-0.3-0.5-0.7-0.5
			C-289.2,395.6-289.2,395.6-289.2,396.1z"/>
	</g>
</g>
</svg>
