<?xml version="1.0" encoding="utf-8"?>
<!-- Generator: Adobe Illustrator 19.1.0, SVG Export Plug-In . SVG Version: 6.00 Build 0)  -->
<svg version="1.1" id="Layer_1" xmlns="http://www.w3.org/2000/svg" xmlns:xlink="http://www.w3.org/1999/xlink" x="0px" y="0px"
	 viewBox="-293 384 25 25" style="enable-background:new -293 384 25 25;" xml:space="preserve">
<style type="text/css">
	.st0{fill:#B4B4B4;}
	.st1{clip-path:url(#SVGID_3_);fill:#E1E1E3;}
</style>
<g>
	<g>
		<polygon id="SVGID_1_" class="st0" points="-280.5,386 -278.5,384 -277.2,386.5 -274.8,385.2 -274.3,388 -271.6,387.6 -272,390.3 
			-269.2,390.8 -270.5,393.2 -268,394.5 -270,396.5 -268,398.5 -270.5,399.8 -269.2,402.2 -272,402.7 -271.6,405.4 -274.3,405 
			-274.8,407.8 -277.2,406.5 -278.5,409 -280.5,407 -282.5,409 -283.8,406.5 -286.2,407.8 -286.7,405 -289.4,405.4 -289,402.7 
			-291.8,402.2 -290.5,399.8 -293,398.5 -291,396.5 -293,394.5 -290.5,393.2 -291.8,390.8 -289,390.3 -289.4,387.6 -286.7,388 
			-286.2,385.2 -283.8,386.5 -282.5,384 		"/>
	</g>
	<g>
		<defs>
			<polygon id="SVGID_2_" points="-280.5,386 -278.5,384 -277.2,386.5 -274.8,385.2 -274.3,388 -271.6,387.6 -272,390.3 
				-269.2,390.8 -270.5,393.2 -268,394.5 -270,396.5 -268,398.5 -270.5,399.8 -269.2,402.2 -272,402.7 -271.6,405.4 -274.3,405 
				-274.8,407.8 -277.2,406.5 -278.5,409 -280.5,407 -282.5,409 -283.8,406.5 -286.2,407.8 -286.7,405 -289.4,405.4 -289,402.7 
				-291.8,402.2 -290.5,399.8 -293,398.5 -291,396.5 -293,394.5 -290.5,393.2 -291.8,390.8 -289,390.3 -289.4,387.6 -286.7,388 
				-286.2,385.2 -283.8,386.5 -282.5,384 			"/>
		</defs>
		<clipPath id="SVGID_3_">
			<use xlink:href="#SVGID_2_"  style="overflow:visible;"/>
		</clipPath>
		<path class="st1" d="M-253.3,387.2c-1,0.3-2.1,0.5-3.2,0.6c-1.9,0.1-3.8,0.1-5.6-0.1c-1.1-0.1-2.3-0.2-3.4-0.1
			c-2.2,0.2-4.3,0.9-6.2,2c-2,1.1-3.7,2.6-5.4,4.1c-2.5,2.2-4.7,4.6-6.6,7.4c-0.1,0.1-0.2,0.3-0.3,0.4c-0.2,0.2-0.3,0.1-0.4-0.1
			c0-0.2-0.1-0.4,0-0.6c0.7-2.8,1.9-5.2,3.7-7.4c0.6-0.7,1.2-1,2-0.9c0.1,0,0.2,0,0.2,0c0.5,0,1,0,1.5-0.4c0.3-0.2,0.4-0.6,0.3-0.9
			c-0.1-0.3-0.3-0.4-0.7-0.4c-0.6,0-1.2,0.2-1.7,0.4c-0.2,0.1-0.4,0.1-0.6,0.1c-0.3,0-0.5-0.1-0.8-0.1c-0.8-0.1-1.6,0-2.3,0.5
			c-0.3,0.1-0.5,0.4-0.8,0.6c0,0,0,0,0.1,0.1c1.1-0.4,2.3-0.5,2.8-0.1c-0.1,0.1-0.1,0.2-0.2,0.2c-0.4,0.5-0.9,0.9-1.3,1.4
			c-1.8,2.2-3.7,4.4-4.4,7.3c0,0.2,0,0.4,0,0.6c0.1,0.5,0.3,0.9,0.7,1.2c0.7,0.6,0.9,0.5,1.4-0.2c0.4-0.6,0.9-1.3,1.3-1.9
			c2.4-2.9,5.1-5.5,8.3-7.5c2.5-1.6,5-2.8,7.9-3.5c1.8-0.4,3.7-0.7,5.6-0.9c1.5-0.1,3.1-0.3,4.6-0.5c1.1-0.1,2.1-0.3,3.1-0.7
			c0.7-0.3,1.4-0.6,1.9-1.1c0.3-0.3,0.5-0.6,0.5-1.2C-251.7,386.5-252.5,386.9-253.3,387.2z M-277.5,391c0.1,0,0.2,0.1,0.4,0.2
			c-0.1,0.1-0.2,0.3-0.3,0.3c-0.4,0.2-0.8,0.1-1.3-0.1C-278.3,391.2-278,391-277.5,391z"/>
	</g>
</g>
</svg>
