<?xml version="1.0" encoding="utf-8"?>
<!-- Generator: Adobe Illustrator 19.1.0, SVG Export Plug-In . SVG Version: 6.00 Build 0)  -->
<svg version="1.1" id="Layer_1" xmlns="http://www.w3.org/2000/svg" xmlns:xlink="http://www.w3.org/1999/xlink" x="0px" y="0px"
	 viewBox="-293 384 25 25" style="enable-background:new -293 384 25 25;" xml:space="preserve">
<style type="text/css">
	.st0{fill:#B4B4B4;}
	.st1{fill:#E1E1E3;}
</style>
<g>
	<polygon class="st0" points="-280.5,386 -278.5,384 -277.2,386.5 -274.8,385.2 -274.3,388 -271.6,387.6 -272,390.3 -269.2,390.8 
		-270.5,393.2 -268,394.5 -270,396.5 -268,398.5 -270.5,399.8 -269.2,402.2 -272,402.7 -271.6,405.4 -274.3,405 -274.8,407.8 
		-277.2,406.5 -278.5,409 -280.5,407 -282.5,409 -283.8,406.5 -286.2,407.8 -286.7,405 -289.4,405.4 -289,402.7 -291.8,402.2 
		-290.5,399.8 -293,398.5 -291,396.5 -293,394.5 -290.5,393.2 -291.8,390.8 -289,390.3 -289.4,387.6 -286.7,388 -286.2,385.2 
		-283.8,386.5 -282.5,384 	"/>
	<g>
		<path class="st1" d="M-278.5,392.6c0.6,0.1,1.1,0,1.6-0.3c0.1-0.1,0.2-0.2,0.4-0.2c-1-0.1-1.6-0.8-2.3-1.4c-1.2,1.1-2.4,1.9-4,2.2
			c0.3,0.2,0.3,0.5,0.3,0.8c0,1.7,0,3.4,0.1,5c0,0.3,0,0.5-0.3,0.6c-0.1,0.1-0.2,0.3-0.3,0.3s-0.3-0.1-0.4-0.2
			c-1.3-1.1-1.9-2.4-1.7-4.1c0.2-1.5,1-2.7,2.2-3.6c0.5-0.4,0.9-0.7,1.3-0.9h-0.1c-1.2,0.1-2.3,0.5-3.4,1.2
			c-0.9,0.6-1.6,1.4-2.1,2.5c-0.4,1-0.5,2-0.3,3.1c0.2,1,0.6,1.9,1.3,2.6c1,1,2.2,1.4,3.5,1.5c1.2,0.1,2.4-0.2,3.5-0.7
			c0,0,0.1,0,0.1-0.1c0,0.3,0,0.6,0,0.8c-0.1,0-0.1,0-0.2,0c-0.3,0-0.5,0.1-0.7,0.3c-0.1,0.2-0.1,0.4,0,0.7c0.2,0.2,0.5,0.4,0.8,0.3
			c0.3-0.1,0.5-0.3,0.5-0.6c0-0.5,0-1,0-1.6c0-0.1,0-0.2,0.1-0.2c0.3-0.2,0.5-0.4,0.8-0.7l0.1-0.1c-0.4,0.1-0.7,0.3-1.1,0.4
			c0-0.1,0-0.2,0-0.3c0-2.4,0-4.8-0.1-7.1C-278.7,392.6-278.7,392.6-278.5,392.6z M-279,398.6c0,0.5,0,1,0,1.6c0,0.1,0,0.1-0.1,0.1
			c-1.1,0.2-2.1,0.1-3.1-0.3c0,0-0.1,0-0.1-0.1c0.1-0.1,0.2-0.1,0.2-0.2c0.6-0.5,1.1-1,1.7-1.5c0.1-0.1,0.2-0.2,0.2-0.4
			c0-1.8,0-3.6-0.1-5.5c0-0.1,0-0.2,0.1-0.2c0-0.1,0.1-0.1,0.2,0c0.2,0.1,0.5,0.2,0.7,0.3c0.2,0.1,0.2,0.1,0.2,0.3
			C-279.1,394.7-279,396.6-279,398.6z"/>
		<path class="st1" d="M-274.2,393.9c-0.2,0.2-0.4,0.3-0.6,0.5c-0.1,0.1-0.3,0.3-0.4,0.4c-0.1,0.1-0.1,0.2-0.1,0.4
			c0,1.1,0,2.2,0,3.3c0,0.1,0,0.2-0.2,0.3c-0.1,0-0.2,0.1-0.2,0.1l-0.1,0.1c-0.1,0.1,0,0.2,0.1,0.2h0.1c0.1,0,0.1,0,0.2-0.1
			c0.3-0.1,0.5-0.1,0.8-0.1c0.3,0,0.6,0.1,0.8,0.1c0.4,0,0.8-0.1,1.2-0.2c0,0,0.1,0,0.1-0.1c0,0,0,0,0,0.1c-0.1,0.3-0.3,0.6-0.4,0.8
			c0,0.1-0.1,0.1-0.1,0.1c-0.4,0.1-0.8,0.1-1.2-0.1c-0.4-0.1-0.9-0.1-1.3-0.1c-0.3,0-0.7,0-1,0.1c-0.1,0-0.3,0.1-0.4,0.1h-0.1
			c-0.1-0.1-0.2-0.1-0.2-0.2c0.1,0,0.1-0.1,0.1-0.1c0.2-0.1,0.3-0.2,0.5-0.4c0.2-0.2,0.3-0.4,0.3-0.7c0-1.1,0-2.2,0-3.3
			c0-0.5,0.2-0.8,0.6-1l0,0l0,0c-0.1,0-0.1,0-0.2,0c-0.2,0-0.4,0-0.6,0.2c-0.2,0.2-0.4,0.3-0.7,0.3h-0.1l0,0l0,0
			c0.2-0.2,0.3-0.4,0.4-0.6c0,0,0,0,0.1,0C-275.9,393.9-275,393.9-274.2,393.9L-274.2,393.9z"/>
	</g>
</g>
</svg>
