<?xml version="1.0" encoding="utf-8"?>
<!-- Generator: Adobe Illustrator 19.1.0, SVG Export Plug-In . SVG Version: 6.00 Build 0)  -->
<svg version="1.1" id="Layer_1" xmlns="http://www.w3.org/2000/svg" xmlns:xlink="http://www.w3.org/1999/xlink" x="0px" y="0px"
	 viewBox="-298 390.2 14 14" style="enable-background:new -298 390.2 14 14;" xml:space="preserve">
<style type="text/css">
	.st0{fill:#B4B4B4;}
	.st1{fill:#E1E1E3;}
</style>
<g>
	<polygon class="st0" points="-291,391.3 -289.9,390.2 -289.2,391.6 -287.8,390.9 -287.5,392.4 -286,392.2 -286.2,393.7 -284.7,394 
		-285.4,395.4 -284,396.1 -285.1,397.2 -284,398.3 -285.4,399 -284.7,400.4 -286.2,400.7 -286,402.2 -287.5,402 -287.8,403.5 
		-289.2,402.8 -289.9,404.2 -291,403.1 -292.1,404.2 -292.8,402.8 -294.2,403.5 -294.5,402 -296,402.2 -295.8,400.7 -297.3,400.4 
		-296.6,399 -298,398.3 -296.9,397.2 -298,396.1 -296.6,395.4 -297.3,394 -295.8,393.7 -296,392.2 -294.5,392.4 -294.2,390.9 
		-292.8,391.6 -292.1,390.2 	"/>
</g>
<g>
	<path class="st1" d="M-290.5,397.9v0.4c0,0.1-0.1,0.2-0.2,0.2h-0.7c-0.1,0-0.2-0.1-0.2-0.2v-0.3c0-0.3,0-0.5,0.1-0.7
		s0.2-0.3,0.5-0.5l0.6-0.5c0.3-0.2,0.4-0.5,0.4-0.7v-0.2c0-0.6-0.3-0.9-0.9-0.9h-0.3c-0.3,0-0.5,0.1-0.6,0.2
		c-0.1,0.1-0.2,0.4-0.2,0.7v0.3c0,0.1-0.1,0.2-0.2,0.2h-0.8c-0.1,0-0.2-0.1-0.2-0.2v-0.4c0-0.6,0.2-1,0.5-1.4
		c0.3-0.3,0.8-0.5,1.4-0.5h0.7c0.6,0,1,0.2,1.4,0.5c0.3,0.3,0.5,0.8,0.5,1.4v0.3c0,0.4-0.2,0.8-0.5,1.1l-0.7,0.6
		c-0.2,0.1-0.3,0.3-0.3,0.4C-290.4,397.6-290.5,397.7-290.5,397.9z M-290.5,399.4v1.5c0,0.1-0.1,0.2-0.2,0.2h-0.8
		c-0.1,0-0.2-0.1-0.2-0.2v-1.5c0-0.1,0.1-0.2,0.2-0.2h0.8C-290.5,399.2-290.5,399.3-290.5,399.4z"/>
</g>
</svg>
